%TF.GenerationSoftware,KiCad,Pcbnew,8.0.3*%
%TF.CreationDate,2024-11-21T16:05:02+01:00*%
%TF.ProjectId,LED Board,4c454420-426f-4617-9264-2e6b69636164,rev?*%
%TF.SameCoordinates,Original*%
%TF.FileFunction,Copper,L2,Bot*%
%TF.FilePolarity,Positive*%
%FSLAX46Y46*%
G04 Gerber Fmt 4.6, Leading zero omitted, Abs format (unit mm)*
G04 Created by KiCad (PCBNEW 8.0.3) date 2024-11-21 16:05:02*
%MOMM*%
%LPD*%
G01*
G04 APERTURE LIST*
G04 Aperture macros list*
%AMRoundRect*
0 Rectangle with rounded corners*
0 $1 Rounding radius*
0 $2 $3 $4 $5 $6 $7 $8 $9 X,Y pos of 4 corners*
0 Add a 4 corners polygon primitive as box body*
4,1,4,$2,$3,$4,$5,$6,$7,$8,$9,$2,$3,0*
0 Add four circle primitives for the rounded corners*
1,1,$1+$1,$2,$3*
1,1,$1+$1,$4,$5*
1,1,$1+$1,$6,$7*
1,1,$1+$1,$8,$9*
0 Add four rect primitives between the rounded corners*
20,1,$1+$1,$2,$3,$4,$5,0*
20,1,$1+$1,$4,$5,$6,$7,0*
20,1,$1+$1,$6,$7,$8,$9,0*
20,1,$1+$1,$8,$9,$2,$3,0*%
G04 Aperture macros list end*
%TA.AperFunction,ComponentPad*%
%ADD10R,1.700000X1.700000*%
%TD*%
%TA.AperFunction,ComponentPad*%
%ADD11O,1.700000X1.700000*%
%TD*%
%TA.AperFunction,ComponentPad*%
%ADD12C,3.600000*%
%TD*%
%TA.AperFunction,ComponentPad*%
%ADD13RoundRect,0.250000X-0.600000X-0.600000X0.600000X-0.600000X0.600000X0.600000X-0.600000X0.600000X0*%
%TD*%
%TA.AperFunction,ComponentPad*%
%ADD14C,1.700000*%
%TD*%
%TA.AperFunction,ComponentPad*%
%ADD15C,3.800000*%
%TD*%
%TA.AperFunction,ComponentPad*%
%ADD16O,1.200000X2.200000*%
%TD*%
%TA.AperFunction,ViaPad*%
%ADD17C,0.800000*%
%TD*%
%TA.AperFunction,Conductor*%
%ADD18C,2.000000*%
%TD*%
G04 APERTURE END LIST*
D10*
%TO.P,J7,1,Pin_1*%
%TO.N,GND*%
X139308000Y-70911000D03*
D11*
%TO.P,J7,2,Pin_2*%
%TO.N,/LED_B_7*%
X141848000Y-70911000D03*
%TO.P,J7,3,Pin_3*%
%TO.N,+12V*%
X144388000Y-70911000D03*
%TD*%
D10*
%TO.P,J16,1,Pin_1*%
%TO.N,GND*%
X149008000Y-66904000D03*
D11*
%TO.P,J16,3,Pin_3*%
%TO.N,+12V*%
X154088000Y-66904000D03*
%TD*%
D10*
%TO.P,J13,1,Pin_1*%
%TO.N,GND*%
X119908000Y-66904000D03*
D11*
%TO.P,J13,3,Pin_3*%
%TO.N,+12V*%
X124988000Y-66904000D03*
%TD*%
D10*
%TO.P,J6,1,Pin_1*%
%TO.N,GND*%
X129608000Y-70911000D03*
D11*
%TO.P,J6,2,Pin_2*%
%TO.N,/LED_B_6*%
X132148000Y-70911000D03*
%TO.P,J6,3,Pin_3*%
%TO.N,+12V*%
X134688000Y-70911000D03*
%TD*%
D10*
%TO.P,J14,1,Pin_1*%
%TO.N,GND*%
X129608000Y-66904000D03*
D11*
%TO.P,J14,3,Pin_3*%
%TO.N,+12V*%
X134688000Y-66904000D03*
%TD*%
D10*
%TO.P,J4,1,Pin_1*%
%TO.N,GND*%
X110208000Y-70911000D03*
D11*
%TO.P,J4,2,Pin_2*%
%TO.N,/LED_B_4*%
X112748000Y-70911000D03*
%TO.P,J4,3,Pin_3*%
%TO.N,+12V*%
X115288000Y-70911000D03*
%TD*%
D12*
%TO.P,H3,1,1*%
%TO.N,unconnected-(H3-Pad1)*%
X165000000Y-45000000D03*
%TD*%
D10*
%TO.P,J10,1,Pin_1*%
%TO.N,GND*%
X90808000Y-66904000D03*
D11*
%TO.P,J10,3,Pin_3*%
%TO.N,+12V*%
X95888000Y-66904000D03*
%TD*%
D12*
%TO.P,H1,1,1*%
%TO.N,unconnected-(H1-Pad1)*%
X72800000Y-45000000D03*
%TD*%
D10*
%TO.P,J1,1,Pin_1*%
%TO.N,GND*%
X81108000Y-70911000D03*
D11*
%TO.P,J1,2,Pin_2*%
%TO.N,/LED_B_1*%
X83648000Y-70911000D03*
%TO.P,J1,3,Pin_3*%
%TO.N,+12V*%
X86188000Y-70911000D03*
%TD*%
D10*
%TO.P,J11,1,Pin_1*%
%TO.N,GND*%
X100508000Y-66904000D03*
D11*
%TO.P,J11,3,Pin_3*%
%TO.N,+12V*%
X105588000Y-66904000D03*
%TD*%
D10*
%TO.P,J5,1,Pin_1*%
%TO.N,GND*%
X119908000Y-70911000D03*
D11*
%TO.P,J5,2,Pin_2*%
%TO.N,/LED_B_5*%
X122448000Y-70911000D03*
%TO.P,J5,3,Pin_3*%
%TO.N,+12V*%
X124988000Y-70911000D03*
%TD*%
D12*
%TO.P,H2,1,1*%
%TO.N,unconnected-(H2-Pad1)*%
X72800000Y-75000000D03*
%TD*%
D10*
%TO.P,J2,1,Pin_1*%
%TO.N,GND*%
X90808000Y-70911000D03*
D11*
%TO.P,J2,2,Pin_2*%
%TO.N,/LED_B_2*%
X93348000Y-70911000D03*
%TO.P,J2,3,Pin_3*%
%TO.N,+12V*%
X95888000Y-70911000D03*
%TD*%
D10*
%TO.P,J12,1,Pin_1*%
%TO.N,GND*%
X110208000Y-66904000D03*
D11*
%TO.P,J12,3,Pin_3*%
%TO.N,+12V*%
X115288000Y-66904000D03*
%TD*%
D10*
%TO.P,J9,1,Pin_1*%
%TO.N,GND*%
X81108000Y-66904000D03*
D11*
%TO.P,J9,3,Pin_3*%
%TO.N,+12V*%
X86188000Y-66904000D03*
%TD*%
D10*
%TO.P,J15,1,Pin_1*%
%TO.N,GND*%
X139308000Y-66904000D03*
D11*
%TO.P,J15,3,Pin_3*%
%TO.N,+12V*%
X144388000Y-66904000D03*
%TD*%
D10*
%TO.P,J3,1,Pin_1*%
%TO.N,GND*%
X100508000Y-70911000D03*
D11*
%TO.P,J3,2,Pin_2*%
%TO.N,/LED_B_3*%
X103048000Y-70911000D03*
%TO.P,J3,3,Pin_3*%
%TO.N,+12V*%
X105588000Y-70911000D03*
%TD*%
D13*
%TO.P,J18,1,Pin_1*%
%TO.N,GND*%
X82550000Y-47117000D03*
D14*
%TO.P,J18,2,Pin_2*%
%TO.N,+5V*%
X85090000Y-47117000D03*
%TO.P,J18,3,Pin_3*%
%TO.N,/LED_1*%
X82550000Y-49657000D03*
%TO.P,J18,4,Pin_4*%
%TO.N,/LED_2*%
X85090000Y-49657000D03*
%TO.P,J18,5,Pin_5*%
%TO.N,/LED_3*%
X82550000Y-52197000D03*
%TO.P,J18,6,Pin_6*%
%TO.N,/LED_4*%
X85090000Y-52197000D03*
%TO.P,J18,7,Pin_7*%
%TO.N,/LED_5*%
X82550000Y-54737000D03*
%TO.P,J18,8,Pin_8*%
%TO.N,/LED_6*%
X85090000Y-54737000D03*
%TO.P,J18,9,Pin_9*%
%TO.N,/LED_7*%
X82550000Y-57277000D03*
%TO.P,J18,10,Pin_10*%
%TO.N,/LED_8*%
X85090000Y-57277000D03*
%TD*%
D15*
%TO.P,CN1,1,-*%
%TO.N,GND*%
X148100000Y-57200000D03*
%TO.P,CN1,2,+*%
%TO.N,+BATT*%
X155300000Y-57200000D03*
D16*
%TO.P,CN1,3,3*%
%TO.N,unconnected-(CN1-Pad3)*%
X158450000Y-51200000D03*
%TO.P,CN1,4,4*%
%TO.N,unconnected-(CN1-Pad4)*%
X144950000Y-51200000D03*
%TD*%
D10*
%TO.P,J8,1,Pin_1*%
%TO.N,GND*%
X149008000Y-70911000D03*
D11*
%TO.P,J8,2,Pin_2*%
%TO.N,/LED_B_8*%
X151548000Y-70911000D03*
%TO.P,J8,3,Pin_3*%
%TO.N,+12V*%
X154088000Y-70911000D03*
%TD*%
D12*
%TO.P,H4,1,1*%
%TO.N,unconnected-(H4-Pad1)*%
X165000000Y-75000000D03*
%TD*%
D17*
%TO.N,+BATT*%
X149500000Y-43750000D03*
X149500000Y-46750000D03*
X149500000Y-41000000D03*
X149500000Y-45250000D03*
X149500000Y-42500000D03*
X150750000Y-43750000D03*
X150750000Y-46750000D03*
X150750000Y-41000000D03*
X150750000Y-45250000D03*
X150750000Y-42500000D03*
X152000000Y-43750000D03*
X152000000Y-46750000D03*
X152000000Y-41000000D03*
X152000000Y-45250000D03*
X152000000Y-42500000D03*
%TO.N,+12V*%
X123500000Y-52750000D03*
X123000000Y-56750000D03*
X123000000Y-53750000D03*
X123000000Y-55250000D03*
X123000000Y-59500000D03*
X123000000Y-58000000D03*
%TO.N,+BATT*%
X126500000Y-46750000D03*
X127750000Y-47750000D03*
X127750000Y-45250000D03*
X126500000Y-44250000D03*
X127750000Y-42750000D03*
X124000000Y-46750000D03*
X125250000Y-47750000D03*
X125250000Y-45250000D03*
X124000000Y-44250000D03*
X125250000Y-42750000D03*
X122500000Y-42500000D03*
X120000000Y-42500000D03*
X117500000Y-47500000D03*
X120000000Y-47500000D03*
X121250000Y-44000000D03*
X120000000Y-45000000D03*
X118750000Y-46250000D03*
X118750000Y-43750000D03*
X122500000Y-45000000D03*
X122500000Y-47500000D03*
X121250000Y-46500000D03*
X117500000Y-45000000D03*
X117500000Y-42500000D03*
X153500000Y-42500000D03*
X153500000Y-45250000D03*
%TO.N,+12V*%
X127250000Y-58000000D03*
%TO.N,+BATT*%
X156500000Y-41000000D03*
X156500000Y-45250000D03*
%TO.N,+12V*%
X127250000Y-59500000D03*
X124500000Y-52250000D03*
%TO.N,+BATT*%
X155000000Y-41000000D03*
%TO.N,+12V*%
X124500000Y-59500000D03*
X126000000Y-59500000D03*
%TO.N,+BATT*%
X156500000Y-46750000D03*
%TO.N,+12V*%
X125750000Y-52250000D03*
%TO.N,+BATT*%
X153500000Y-41000000D03*
X153500000Y-46750000D03*
X155000000Y-46750000D03*
%TO.N,+12V*%
X126000000Y-58500000D03*
X124500000Y-58500000D03*
X127250000Y-55250000D03*
%TO.N,+BATT*%
X155000000Y-43750000D03*
%TO.N,+12V*%
X127250000Y-53750000D03*
%TO.N,+BATT*%
X155000000Y-45250000D03*
X155000000Y-42500000D03*
X156500000Y-42500000D03*
%TO.N,+12V*%
X126750000Y-52500000D03*
X127250000Y-56750000D03*
%TO.N,+BATT*%
X156500000Y-43750000D03*
X153500000Y-43750000D03*
%TO.N,GND*%
X137500000Y-55500000D03*
X140500000Y-56500000D03*
X137500000Y-53500000D03*
X140500000Y-52500000D03*
X139000000Y-52500000D03*
X140500000Y-55500000D03*
X137500000Y-56500000D03*
X140500000Y-54500000D03*
X139000000Y-54500000D03*
X137500000Y-54500000D03*
X139000000Y-57500000D03*
X137500000Y-52500000D03*
X139000000Y-55500000D03*
X139000000Y-53500000D03*
X140500000Y-53500000D03*
X140500000Y-57500000D03*
X139000000Y-56500000D03*
X137500000Y-57500000D03*
X157750000Y-80250000D03*
X159250000Y-76250000D03*
X160750000Y-80250000D03*
X160750000Y-76250000D03*
X160750000Y-77250000D03*
X157750000Y-79250000D03*
X159250000Y-79250000D03*
X159250000Y-75250000D03*
X159250000Y-77250000D03*
X157750000Y-78250000D03*
X160750000Y-75250000D03*
X157750000Y-76250000D03*
X159250000Y-80250000D03*
X157750000Y-77250000D03*
X160750000Y-78250000D03*
X157750000Y-75250000D03*
X159250000Y-78250000D03*
X160750000Y-79250000D03*
%TD*%
D18*
%TO.N,GND*%
X137500000Y-52500000D02*
X140500000Y-52500000D01*
X137500000Y-57500000D02*
X140500000Y-57500000D01*
X159250000Y-75250000D02*
X159250000Y-80250000D01*
X157750000Y-75250000D02*
X160750000Y-75250000D01*
X157750000Y-80250000D02*
X160750000Y-80250000D01*
X146900000Y-77600000D02*
X155400000Y-77600000D01*
X155400000Y-77600000D02*
X157750000Y-75250000D01*
%TO.N,+12V*%
X87000000Y-63750000D02*
X96000000Y-63750000D01*
X96000000Y-63750000D02*
X106000000Y-63750000D01*
X95888000Y-66904000D02*
X95888000Y-63862000D01*
X95888000Y-63862000D02*
X96000000Y-63750000D01*
X106000000Y-63750000D02*
X115250000Y-63750000D01*
X105588000Y-66904000D02*
X105588000Y-64162000D01*
X105588000Y-64162000D02*
X106000000Y-63750000D01*
X115250000Y-63750000D02*
X125000000Y-63750000D01*
X115288000Y-66904000D02*
X115288000Y-63788000D01*
X115288000Y-63788000D02*
X115250000Y-63750000D01*
X125000000Y-63750000D02*
X134500000Y-63750000D01*
X124988000Y-63762000D02*
X125000000Y-63750000D01*
X124988000Y-66904000D02*
X124988000Y-63762000D01*
X134500000Y-63750000D02*
X145000000Y-63750000D01*
X134688000Y-66904000D02*
X134688000Y-63938000D01*
X134688000Y-63938000D02*
X134500000Y-63750000D01*
X86188000Y-66904000D02*
X86188000Y-64562000D01*
X86188000Y-64562000D02*
X87000000Y-63750000D01*
X86188000Y-70911000D02*
X86188000Y-66904000D01*
X95888000Y-70911000D02*
X95888000Y-66904000D01*
X105588000Y-70911000D02*
X105588000Y-66904000D01*
X115288000Y-70911000D02*
X115288000Y-66904000D01*
X124988000Y-70911000D02*
X124988000Y-66904000D01*
X134688000Y-70911000D02*
X134688000Y-66904000D01*
X144388000Y-70911000D02*
X144388000Y-66904000D01*
X154088000Y-66904000D02*
X154088000Y-64338000D01*
X154088000Y-64338000D02*
X153500000Y-63750000D01*
X153500000Y-63750000D02*
X145000000Y-63750000D01*
X145000000Y-63750000D02*
X144388000Y-64362000D01*
X144388000Y-64362000D02*
X144388000Y-66904000D01*
X154088000Y-70911000D02*
X154088000Y-66904000D01*
%TO.N,GND*%
X90500000Y-76800000D02*
X90500000Y-75700000D01*
X139308000Y-66904000D02*
X139308000Y-70911000D01*
X118800000Y-77500000D02*
X109400000Y-77500000D01*
X100508000Y-70911000D02*
X100508000Y-76592000D01*
X89800000Y-77500000D02*
X90500000Y-76800000D01*
X110208000Y-70911000D02*
X110208000Y-76692000D01*
X146900000Y-77600000D02*
X137200000Y-77600000D01*
X110208000Y-76692000D02*
X109400000Y-77500000D01*
X128400000Y-77500000D02*
X118800000Y-77500000D01*
X100508000Y-76592000D02*
X99600000Y-77500000D01*
X149008000Y-66904000D02*
X149008000Y-70911000D01*
X100508000Y-66904000D02*
X100508000Y-70911000D01*
X110208000Y-66904000D02*
X110208000Y-70911000D01*
X139308000Y-75492000D02*
X137100000Y-77700000D01*
X81108000Y-66904000D02*
X81108000Y-70911000D01*
X129608000Y-76292000D02*
X128400000Y-77500000D01*
X129608000Y-70911000D02*
X129608000Y-76292000D01*
X135600000Y-77500000D02*
X128400000Y-77500000D01*
X90500000Y-75700000D02*
X90808000Y-75392000D01*
X129608000Y-66904000D02*
X129608000Y-70911000D01*
X137100000Y-77700000D02*
X135800000Y-77700000D01*
X81108000Y-70911000D02*
X81108000Y-76508000D01*
X81108000Y-76508000D02*
X82100000Y-77500000D01*
X137200000Y-77600000D02*
X137100000Y-77700000D01*
X90808000Y-75392000D02*
X90808000Y-70911000D01*
X139308000Y-70911000D02*
X139308000Y-75492000D01*
X90808000Y-66904000D02*
X90808000Y-70911000D01*
X99600000Y-77500000D02*
X89800000Y-77500000D01*
X109400000Y-77500000D02*
X99600000Y-77500000D01*
X149008000Y-70911000D02*
X149008000Y-75492000D01*
X119908000Y-66904000D02*
X119908000Y-70911000D01*
X135800000Y-77700000D02*
X135600000Y-77500000D01*
X119908000Y-70911000D02*
X119908000Y-76392000D01*
X119908000Y-76392000D02*
X118800000Y-77500000D01*
X82100000Y-77500000D02*
X89800000Y-77500000D01*
X149008000Y-75492000D02*
X146900000Y-77600000D01*
%TD*%
%TA.AperFunction,Conductor*%
%TO.N,GND*%
G36*
X116707863Y-39770685D02*
G01*
X116753618Y-39823489D01*
X116763590Y-39892442D01*
X116760536Y-39913941D01*
X116744706Y-40025344D01*
X116759299Y-48877044D01*
X116770940Y-48984069D01*
X116782145Y-49035371D01*
X116782149Y-49035385D01*
X116816184Y-49137502D01*
X116816187Y-49137507D01*
X116893969Y-49258537D01*
X116893977Y-49258548D01*
X116939721Y-49311340D01*
X116939724Y-49311343D01*
X116939728Y-49311347D01*
X117048462Y-49405567D01*
X117048465Y-49405568D01*
X117048466Y-49405569D01*
X117166402Y-49459430D01*
X117179339Y-49465338D01*
X117246378Y-49485023D01*
X117246382Y-49485024D01*
X117388798Y-49505500D01*
X123270960Y-49505500D01*
X123337999Y-49525185D01*
X123383754Y-49577989D01*
X123393698Y-49647147D01*
X123364673Y-49710703D01*
X123326556Y-49740338D01*
X123322921Y-49742160D01*
X123087689Y-49870876D01*
X123056630Y-49889345D01*
X123041732Y-49898940D01*
X123012069Y-49919583D01*
X122797638Y-50080482D01*
X122769453Y-50103251D01*
X122756124Y-50114833D01*
X122729713Y-50139489D01*
X122540399Y-50329327D01*
X122515825Y-50355796D01*
X122504243Y-50369202D01*
X122481612Y-50397375D01*
X122321265Y-50612306D01*
X122300702Y-50642030D01*
X122291170Y-50656920D01*
X122272761Y-50688073D01*
X122144719Y-50923623D01*
X122128615Y-50955951D01*
X122121290Y-50972074D01*
X122107522Y-51005511D01*
X122014367Y-51256908D01*
X122003020Y-51291254D01*
X121998071Y-51308253D01*
X121989220Y-51343272D01*
X121932852Y-51605406D01*
X121926524Y-51640976D01*
X121924045Y-51658533D01*
X121920273Y-51694478D01*
X121902354Y-51954703D01*
X121902354Y-51954704D01*
X121901549Y-51966382D01*
X121900632Y-51984379D01*
X121900340Y-51993206D01*
X121900065Y-52011346D01*
X121920968Y-59564008D01*
X121901469Y-59631101D01*
X121848791Y-59677002D01*
X121796379Y-59688350D01*
X120508904Y-59682239D01*
X120415564Y-59681796D01*
X120415551Y-59681796D01*
X120415549Y-59681795D01*
X91172159Y-59542964D01*
X87247641Y-59524333D01*
X87247633Y-59524333D01*
X87247613Y-59524333D01*
X87236076Y-59524485D01*
X87229468Y-59524573D01*
X87224190Y-59524737D01*
X87220552Y-59524851D01*
X87205542Y-59525590D01*
X87202400Y-59525745D01*
X87202393Y-59525745D01*
X87202382Y-59525746D01*
X86928959Y-59544142D01*
X86892822Y-59547883D01*
X86875196Y-59550349D01*
X86848802Y-59555017D01*
X86839349Y-59556690D01*
X86637191Y-59599999D01*
X86575702Y-59613172D01*
X86540521Y-59622040D01*
X86523375Y-59627026D01*
X86488861Y-59638422D01*
X86236044Y-59732113D01*
X86202381Y-59745985D01*
X86186201Y-59753345D01*
X86153679Y-59769573D01*
X85916945Y-59898517D01*
X85885624Y-59917068D01*
X85870627Y-59926697D01*
X85840804Y-59947394D01*
X85624955Y-60108980D01*
X85596654Y-60131800D01*
X85583209Y-60143463D01*
X85556611Y-60168267D01*
X85366189Y-60359099D01*
X85341483Y-60385704D01*
X85329831Y-60399194D01*
X85307051Y-60427567D01*
X85145928Y-60643762D01*
X85125279Y-60673655D01*
X85115695Y-60688653D01*
X85097237Y-60719971D01*
X84968778Y-60957021D01*
X84952611Y-60989598D01*
X84945275Y-61005819D01*
X84931509Y-61039432D01*
X84838346Y-61292491D01*
X84827036Y-61326990D01*
X84822093Y-61344124D01*
X84813277Y-61379400D01*
X84757370Y-61643132D01*
X84751113Y-61678959D01*
X84748681Y-61696603D01*
X84745018Y-61732752D01*
X84727203Y-62006280D01*
X84726348Y-62024432D01*
X84726089Y-62033360D01*
X84725887Y-62051478D01*
X84730791Y-62762895D01*
X84731234Y-62780848D01*
X84731608Y-62789653D01*
X84732687Y-62807548D01*
X84743858Y-62950496D01*
X84743858Y-62950497D01*
X84753788Y-63077598D01*
X84757856Y-63113281D01*
X84760469Y-63130678D01*
X84760472Y-63130697D01*
X84765478Y-63157512D01*
X84767073Y-63166050D01*
X84825257Y-63426051D01*
X84825260Y-63426064D01*
X84834346Y-63460822D01*
X84839397Y-63477672D01*
X84850930Y-63511698D01*
X84850935Y-63511711D01*
X84850937Y-63511717D01*
X84910064Y-63667701D01*
X84910066Y-63667707D01*
X84945375Y-63760854D01*
X84959292Y-63793968D01*
X84966690Y-63809957D01*
X84982925Y-63842001D01*
X85068280Y-63996587D01*
X85083452Y-64064789D01*
X85076096Y-64096255D01*
X85076958Y-64096535D01*
X85017060Y-64280877D01*
X85017060Y-64280880D01*
X84987500Y-64467513D01*
X84987500Y-71005486D01*
X85017059Y-71192118D01*
X85075454Y-71371836D01*
X85139458Y-71497450D01*
X85161240Y-71540199D01*
X85272310Y-71693073D01*
X85405927Y-71826690D01*
X85558801Y-71937760D01*
X85615368Y-71966582D01*
X85727163Y-72023545D01*
X85727165Y-72023545D01*
X85727168Y-72023547D01*
X85823497Y-72054846D01*
X85906881Y-72081940D01*
X86093514Y-72111500D01*
X86093519Y-72111500D01*
X86282486Y-72111500D01*
X86469118Y-72081940D01*
X86648832Y-72023547D01*
X86817199Y-71937760D01*
X86970073Y-71826690D01*
X87103690Y-71693073D01*
X87214760Y-71540199D01*
X87300547Y-71371832D01*
X87358940Y-71192118D01*
X87370848Y-71116932D01*
X87388500Y-71005486D01*
X87388500Y-70013155D01*
X89458000Y-70013155D01*
X89458000Y-70661000D01*
X90374988Y-70661000D01*
X90342075Y-70718007D01*
X90308000Y-70845174D01*
X90308000Y-70976826D01*
X90342075Y-71103993D01*
X90374988Y-71161000D01*
X89458000Y-71161000D01*
X89458000Y-71808844D01*
X89464401Y-71868372D01*
X89464403Y-71868379D01*
X89514645Y-72003086D01*
X89514649Y-72003093D01*
X89600809Y-72118187D01*
X89600812Y-72118190D01*
X89715906Y-72204350D01*
X89715913Y-72204354D01*
X89850620Y-72254596D01*
X89850627Y-72254598D01*
X89910155Y-72260999D01*
X89910172Y-72261000D01*
X90558000Y-72261000D01*
X90558000Y-71344012D01*
X90615007Y-71376925D01*
X90742174Y-71411000D01*
X90873826Y-71411000D01*
X91000993Y-71376925D01*
X91058000Y-71344012D01*
X91058000Y-72261000D01*
X91705828Y-72261000D01*
X91705844Y-72260999D01*
X91765372Y-72254598D01*
X91765379Y-72254596D01*
X91900086Y-72204354D01*
X91900093Y-72204350D01*
X92015187Y-72118190D01*
X92015190Y-72118187D01*
X92101350Y-72003093D01*
X92101354Y-72003086D01*
X92151596Y-71868379D01*
X92151598Y-71868372D01*
X92157999Y-71808844D01*
X92158000Y-71808827D01*
X92158000Y-71408186D01*
X92177685Y-71341147D01*
X92230489Y-71295392D01*
X92299647Y-71285448D01*
X92363203Y-71314473D01*
X92391356Y-71349729D01*
X92470315Y-71497450D01*
X92470317Y-71497452D01*
X92601589Y-71657410D01*
X92645048Y-71693075D01*
X92761550Y-71788685D01*
X92944046Y-71886232D01*
X93142066Y-71946300D01*
X93142065Y-71946300D01*
X93160529Y-71948118D01*
X93348000Y-71966583D01*
X93553934Y-71946300D01*
X93751954Y-71886232D01*
X93934450Y-71788685D01*
X94094410Y-71657410D01*
X94225685Y-71497450D01*
X94323232Y-71314954D01*
X94383300Y-71116934D01*
X94403583Y-70911000D01*
X94383300Y-70705066D01*
X94323232Y-70507046D01*
X94225685Y-70324550D01*
X94173702Y-70261209D01*
X94094410Y-70164589D01*
X93934452Y-70033317D01*
X93934453Y-70033317D01*
X93934450Y-70033315D01*
X93751954Y-69935768D01*
X93553934Y-69875700D01*
X93553932Y-69875699D01*
X93553934Y-69875699D01*
X93348000Y-69855417D01*
X93142067Y-69875699D01*
X92944043Y-69935769D01*
X92910634Y-69953627D01*
X92761550Y-70033315D01*
X92761548Y-70033316D01*
X92761547Y-70033317D01*
X92601589Y-70164589D01*
X92470317Y-70324547D01*
X92470315Y-70324550D01*
X92398887Y-70458181D01*
X92391358Y-70472267D01*
X92342395Y-70522111D01*
X92274257Y-70537571D01*
X92208578Y-70513739D01*
X92166209Y-70458181D01*
X92158000Y-70413813D01*
X92158000Y-70013172D01*
X92157999Y-70013155D01*
X92151598Y-69953627D01*
X92151596Y-69953620D01*
X92101354Y-69818913D01*
X92101350Y-69818906D01*
X92015190Y-69703812D01*
X92015187Y-69703809D01*
X91900093Y-69617649D01*
X91900086Y-69617645D01*
X91765379Y-69567403D01*
X91765372Y-69567401D01*
X91705844Y-69561000D01*
X91058000Y-69561000D01*
X91058000Y-70477988D01*
X91000993Y-70445075D01*
X90873826Y-70411000D01*
X90742174Y-70411000D01*
X90615007Y-70445075D01*
X90558000Y-70477988D01*
X90558000Y-69561000D01*
X89910155Y-69561000D01*
X89850627Y-69567401D01*
X89850620Y-69567403D01*
X89715913Y-69617645D01*
X89715906Y-69617649D01*
X89600812Y-69703809D01*
X89600809Y-69703812D01*
X89514649Y-69818906D01*
X89514645Y-69818913D01*
X89464403Y-69953620D01*
X89464401Y-69953627D01*
X89458000Y-70013155D01*
X87388500Y-70013155D01*
X87388500Y-66006155D01*
X89458000Y-66006155D01*
X89458000Y-66654000D01*
X90374988Y-66654000D01*
X90342075Y-66711007D01*
X90308000Y-66838174D01*
X90308000Y-66969826D01*
X90342075Y-67096993D01*
X90374988Y-67154000D01*
X89458000Y-67154000D01*
X89458000Y-67801844D01*
X89464401Y-67861372D01*
X89464403Y-67861379D01*
X89514645Y-67996086D01*
X89514649Y-67996093D01*
X89600809Y-68111187D01*
X89600812Y-68111190D01*
X89715906Y-68197350D01*
X89715913Y-68197354D01*
X89850620Y-68247596D01*
X89850627Y-68247598D01*
X89910155Y-68253999D01*
X89910172Y-68254000D01*
X90558000Y-68254000D01*
X90558000Y-67337012D01*
X90615007Y-67369925D01*
X90742174Y-67404000D01*
X90873826Y-67404000D01*
X91000993Y-67369925D01*
X91058000Y-67337012D01*
X91058000Y-68254000D01*
X91705828Y-68254000D01*
X91705844Y-68253999D01*
X91765372Y-68247598D01*
X91765379Y-68247596D01*
X91900086Y-68197354D01*
X91900093Y-68197350D01*
X92015187Y-68111190D01*
X92015190Y-68111187D01*
X92101350Y-67996093D01*
X92101354Y-67996086D01*
X92151596Y-67861379D01*
X92151598Y-67861372D01*
X92157999Y-67801844D01*
X92158000Y-67801827D01*
X92158000Y-67154000D01*
X91241012Y-67154000D01*
X91273925Y-67096993D01*
X91308000Y-66969826D01*
X91308000Y-66838174D01*
X91273925Y-66711007D01*
X91241012Y-66654000D01*
X92158000Y-66654000D01*
X92158000Y-66006172D01*
X92157999Y-66006155D01*
X92151598Y-65946627D01*
X92151596Y-65946620D01*
X92101354Y-65811913D01*
X92101350Y-65811906D01*
X92015190Y-65696812D01*
X92015187Y-65696809D01*
X91900093Y-65610649D01*
X91900086Y-65610645D01*
X91765379Y-65560403D01*
X91765372Y-65560401D01*
X91705844Y-65554000D01*
X91058000Y-65554000D01*
X91058000Y-66470988D01*
X91000993Y-66438075D01*
X90873826Y-66404000D01*
X90742174Y-66404000D01*
X90615007Y-66438075D01*
X90558000Y-66470988D01*
X90558000Y-65554000D01*
X89910155Y-65554000D01*
X89850627Y-65560401D01*
X89850620Y-65560403D01*
X89715913Y-65610645D01*
X89715906Y-65610649D01*
X89600812Y-65696809D01*
X89600809Y-65696812D01*
X89514649Y-65811906D01*
X89514645Y-65811913D01*
X89464403Y-65946620D01*
X89464401Y-65946627D01*
X89458000Y-66006155D01*
X87388500Y-66006155D01*
X87388500Y-65379500D01*
X87408185Y-65312461D01*
X87460989Y-65266706D01*
X87512500Y-65255500D01*
X94563500Y-65255500D01*
X94630539Y-65275185D01*
X94676294Y-65327989D01*
X94687500Y-65379500D01*
X94687500Y-71005486D01*
X94717059Y-71192118D01*
X94775454Y-71371836D01*
X94839458Y-71497450D01*
X94861240Y-71540199D01*
X94972310Y-71693073D01*
X95105927Y-71826690D01*
X95258801Y-71937760D01*
X95315368Y-71966582D01*
X95427163Y-72023545D01*
X95427165Y-72023545D01*
X95427168Y-72023547D01*
X95523497Y-72054846D01*
X95606881Y-72081940D01*
X95793514Y-72111500D01*
X95793519Y-72111500D01*
X95982486Y-72111500D01*
X96169118Y-72081940D01*
X96348832Y-72023547D01*
X96517199Y-71937760D01*
X96670073Y-71826690D01*
X96803690Y-71693073D01*
X96914760Y-71540199D01*
X97000547Y-71371832D01*
X97058940Y-71192118D01*
X97070848Y-71116932D01*
X97088500Y-71005486D01*
X97088500Y-70013155D01*
X99158000Y-70013155D01*
X99158000Y-70661000D01*
X100074988Y-70661000D01*
X100042075Y-70718007D01*
X100008000Y-70845174D01*
X100008000Y-70976826D01*
X100042075Y-71103993D01*
X100074988Y-71161000D01*
X99158000Y-71161000D01*
X99158000Y-71808844D01*
X99164401Y-71868372D01*
X99164403Y-71868379D01*
X99214645Y-72003086D01*
X99214649Y-72003093D01*
X99300809Y-72118187D01*
X99300812Y-72118190D01*
X99415906Y-72204350D01*
X99415913Y-72204354D01*
X99550620Y-72254596D01*
X99550627Y-72254598D01*
X99610155Y-72260999D01*
X99610172Y-72261000D01*
X100258000Y-72261000D01*
X100258000Y-71344012D01*
X100315007Y-71376925D01*
X100442174Y-71411000D01*
X100573826Y-71411000D01*
X100700993Y-71376925D01*
X100758000Y-71344012D01*
X100758000Y-72261000D01*
X101405828Y-72261000D01*
X101405844Y-72260999D01*
X101465372Y-72254598D01*
X101465379Y-72254596D01*
X101600086Y-72204354D01*
X101600093Y-72204350D01*
X101715187Y-72118190D01*
X101715190Y-72118187D01*
X101801350Y-72003093D01*
X101801354Y-72003086D01*
X101851596Y-71868379D01*
X101851598Y-71868372D01*
X101857999Y-71808844D01*
X101858000Y-71808827D01*
X101858000Y-71408186D01*
X101877685Y-71341147D01*
X101930489Y-71295392D01*
X101999647Y-71285448D01*
X102063203Y-71314473D01*
X102091356Y-71349729D01*
X102170315Y-71497450D01*
X102170317Y-71497452D01*
X102301589Y-71657410D01*
X102345048Y-71693075D01*
X102461550Y-71788685D01*
X102644046Y-71886232D01*
X102842066Y-71946300D01*
X102842065Y-71946300D01*
X102860529Y-71948118D01*
X103048000Y-71966583D01*
X103253934Y-71946300D01*
X103451954Y-71886232D01*
X103634450Y-71788685D01*
X103794410Y-71657410D01*
X103925685Y-71497450D01*
X104023232Y-71314954D01*
X104083300Y-71116934D01*
X104103583Y-70911000D01*
X104083300Y-70705066D01*
X104023232Y-70507046D01*
X103925685Y-70324550D01*
X103873702Y-70261209D01*
X103794410Y-70164589D01*
X103634452Y-70033317D01*
X103634453Y-70033317D01*
X103634450Y-70033315D01*
X103451954Y-69935768D01*
X103253934Y-69875700D01*
X103253932Y-69875699D01*
X103253934Y-69875699D01*
X103048000Y-69855417D01*
X102842067Y-69875699D01*
X102644043Y-69935769D01*
X102610634Y-69953627D01*
X102461550Y-70033315D01*
X102461548Y-70033316D01*
X102461547Y-70033317D01*
X102301589Y-70164589D01*
X102170317Y-70324547D01*
X102170315Y-70324550D01*
X102098887Y-70458181D01*
X102091358Y-70472267D01*
X102042395Y-70522111D01*
X101974257Y-70537571D01*
X101908578Y-70513739D01*
X101866209Y-70458181D01*
X101858000Y-70413813D01*
X101858000Y-70013172D01*
X101857999Y-70013155D01*
X101851598Y-69953627D01*
X101851596Y-69953620D01*
X101801354Y-69818913D01*
X101801350Y-69818906D01*
X101715190Y-69703812D01*
X101715187Y-69703809D01*
X101600093Y-69617649D01*
X101600086Y-69617645D01*
X101465379Y-69567403D01*
X101465372Y-69567401D01*
X101405844Y-69561000D01*
X100758000Y-69561000D01*
X100758000Y-70477988D01*
X100700993Y-70445075D01*
X100573826Y-70411000D01*
X100442174Y-70411000D01*
X100315007Y-70445075D01*
X100258000Y-70477988D01*
X100258000Y-69561000D01*
X99610155Y-69561000D01*
X99550627Y-69567401D01*
X99550620Y-69567403D01*
X99415913Y-69617645D01*
X99415906Y-69617649D01*
X99300812Y-69703809D01*
X99300809Y-69703812D01*
X99214649Y-69818906D01*
X99214645Y-69818913D01*
X99164403Y-69953620D01*
X99164401Y-69953627D01*
X99158000Y-70013155D01*
X97088500Y-70013155D01*
X97088500Y-66006155D01*
X99158000Y-66006155D01*
X99158000Y-66654000D01*
X100074988Y-66654000D01*
X100042075Y-66711007D01*
X100008000Y-66838174D01*
X100008000Y-66969826D01*
X100042075Y-67096993D01*
X100074988Y-67154000D01*
X99158000Y-67154000D01*
X99158000Y-67801844D01*
X99164401Y-67861372D01*
X99164403Y-67861379D01*
X99214645Y-67996086D01*
X99214649Y-67996093D01*
X99300809Y-68111187D01*
X99300812Y-68111190D01*
X99415906Y-68197350D01*
X99415913Y-68197354D01*
X99550620Y-68247596D01*
X99550627Y-68247598D01*
X99610155Y-68253999D01*
X99610172Y-68254000D01*
X100258000Y-68254000D01*
X100258000Y-67337012D01*
X100315007Y-67369925D01*
X100442174Y-67404000D01*
X100573826Y-67404000D01*
X100700993Y-67369925D01*
X100758000Y-67337012D01*
X100758000Y-68254000D01*
X101405828Y-68254000D01*
X101405844Y-68253999D01*
X101465372Y-68247598D01*
X101465379Y-68247596D01*
X101600086Y-68197354D01*
X101600093Y-68197350D01*
X101715187Y-68111190D01*
X101715190Y-68111187D01*
X101801350Y-67996093D01*
X101801354Y-67996086D01*
X101851596Y-67861379D01*
X101851598Y-67861372D01*
X101857999Y-67801844D01*
X101858000Y-67801827D01*
X101858000Y-67154000D01*
X100941012Y-67154000D01*
X100973925Y-67096993D01*
X101008000Y-66969826D01*
X101008000Y-66838174D01*
X100973925Y-66711007D01*
X100941012Y-66654000D01*
X101858000Y-66654000D01*
X101858000Y-66006172D01*
X101857999Y-66006155D01*
X101851598Y-65946627D01*
X101851596Y-65946620D01*
X101801354Y-65811913D01*
X101801350Y-65811906D01*
X101715190Y-65696812D01*
X101715187Y-65696809D01*
X101600093Y-65610649D01*
X101600086Y-65610645D01*
X101465379Y-65560403D01*
X101465372Y-65560401D01*
X101405844Y-65554000D01*
X100758000Y-65554000D01*
X100758000Y-66470988D01*
X100700993Y-66438075D01*
X100573826Y-66404000D01*
X100442174Y-66404000D01*
X100315007Y-66438075D01*
X100258000Y-66470988D01*
X100258000Y-65554000D01*
X99610155Y-65554000D01*
X99550627Y-65560401D01*
X99550620Y-65560403D01*
X99415913Y-65610645D01*
X99415906Y-65610649D01*
X99300812Y-65696809D01*
X99300809Y-65696812D01*
X99214649Y-65811906D01*
X99214645Y-65811913D01*
X99164403Y-65946620D01*
X99164401Y-65946627D01*
X99158000Y-66006155D01*
X97088500Y-66006155D01*
X97088500Y-65379500D01*
X97108185Y-65312461D01*
X97160989Y-65266706D01*
X97212500Y-65255500D01*
X104263500Y-65255500D01*
X104330539Y-65275185D01*
X104376294Y-65327989D01*
X104387500Y-65379500D01*
X104387500Y-71005486D01*
X104417059Y-71192118D01*
X104475454Y-71371836D01*
X104539458Y-71497450D01*
X104561240Y-71540199D01*
X104672310Y-71693073D01*
X104805927Y-71826690D01*
X104958801Y-71937760D01*
X105015368Y-71966582D01*
X105127163Y-72023545D01*
X105127165Y-72023545D01*
X105127168Y-72023547D01*
X105223497Y-72054846D01*
X105306881Y-72081940D01*
X105493514Y-72111500D01*
X105493519Y-72111500D01*
X105682486Y-72111500D01*
X105869118Y-72081940D01*
X106048832Y-72023547D01*
X106217199Y-71937760D01*
X106370073Y-71826690D01*
X106503690Y-71693073D01*
X106614760Y-71540199D01*
X106700547Y-71371832D01*
X106758940Y-71192118D01*
X106770848Y-71116932D01*
X106788500Y-71005486D01*
X106788500Y-70013155D01*
X108858000Y-70013155D01*
X108858000Y-70661000D01*
X109774988Y-70661000D01*
X109742075Y-70718007D01*
X109708000Y-70845174D01*
X109708000Y-70976826D01*
X109742075Y-71103993D01*
X109774988Y-71161000D01*
X108858000Y-71161000D01*
X108858000Y-71808844D01*
X108864401Y-71868372D01*
X108864403Y-71868379D01*
X108914645Y-72003086D01*
X108914649Y-72003093D01*
X109000809Y-72118187D01*
X109000812Y-72118190D01*
X109115906Y-72204350D01*
X109115913Y-72204354D01*
X109250620Y-72254596D01*
X109250627Y-72254598D01*
X109310155Y-72260999D01*
X109310172Y-72261000D01*
X109958000Y-72261000D01*
X109958000Y-71344012D01*
X110015007Y-71376925D01*
X110142174Y-71411000D01*
X110273826Y-71411000D01*
X110400993Y-71376925D01*
X110458000Y-71344012D01*
X110458000Y-72261000D01*
X111105828Y-72261000D01*
X111105844Y-72260999D01*
X111165372Y-72254598D01*
X111165379Y-72254596D01*
X111300086Y-72204354D01*
X111300093Y-72204350D01*
X111415187Y-72118190D01*
X111415190Y-72118187D01*
X111501350Y-72003093D01*
X111501354Y-72003086D01*
X111551596Y-71868379D01*
X111551598Y-71868372D01*
X111557999Y-71808844D01*
X111558000Y-71808827D01*
X111558000Y-71408186D01*
X111577685Y-71341147D01*
X111630489Y-71295392D01*
X111699647Y-71285448D01*
X111763203Y-71314473D01*
X111791356Y-71349729D01*
X111870315Y-71497450D01*
X111870317Y-71497452D01*
X112001589Y-71657410D01*
X112045048Y-71693075D01*
X112161550Y-71788685D01*
X112344046Y-71886232D01*
X112542066Y-71946300D01*
X112542065Y-71946300D01*
X112560529Y-71948118D01*
X112748000Y-71966583D01*
X112953934Y-71946300D01*
X113151954Y-71886232D01*
X113334450Y-71788685D01*
X113494410Y-71657410D01*
X113625685Y-71497450D01*
X113723232Y-71314954D01*
X113783300Y-71116934D01*
X113803583Y-70911000D01*
X113783300Y-70705066D01*
X113723232Y-70507046D01*
X113625685Y-70324550D01*
X113573702Y-70261209D01*
X113494410Y-70164589D01*
X113334452Y-70033317D01*
X113334453Y-70033317D01*
X113334450Y-70033315D01*
X113151954Y-69935768D01*
X112953934Y-69875700D01*
X112953932Y-69875699D01*
X112953934Y-69875699D01*
X112748000Y-69855417D01*
X112542067Y-69875699D01*
X112344043Y-69935769D01*
X112310634Y-69953627D01*
X112161550Y-70033315D01*
X112161548Y-70033316D01*
X112161547Y-70033317D01*
X112001589Y-70164589D01*
X111870317Y-70324547D01*
X111870315Y-70324550D01*
X111798887Y-70458181D01*
X111791358Y-70472267D01*
X111742395Y-70522111D01*
X111674257Y-70537571D01*
X111608578Y-70513739D01*
X111566209Y-70458181D01*
X111558000Y-70413813D01*
X111558000Y-70013172D01*
X111557999Y-70013155D01*
X111551598Y-69953627D01*
X111551596Y-69953620D01*
X111501354Y-69818913D01*
X111501350Y-69818906D01*
X111415190Y-69703812D01*
X111415187Y-69703809D01*
X111300093Y-69617649D01*
X111300086Y-69617645D01*
X111165379Y-69567403D01*
X111165372Y-69567401D01*
X111105844Y-69561000D01*
X110458000Y-69561000D01*
X110458000Y-70477988D01*
X110400993Y-70445075D01*
X110273826Y-70411000D01*
X110142174Y-70411000D01*
X110015007Y-70445075D01*
X109958000Y-70477988D01*
X109958000Y-69561000D01*
X109310155Y-69561000D01*
X109250627Y-69567401D01*
X109250620Y-69567403D01*
X109115913Y-69617645D01*
X109115906Y-69617649D01*
X109000812Y-69703809D01*
X109000809Y-69703812D01*
X108914649Y-69818906D01*
X108914645Y-69818913D01*
X108864403Y-69953620D01*
X108864401Y-69953627D01*
X108858000Y-70013155D01*
X106788500Y-70013155D01*
X106788500Y-66006155D01*
X108858000Y-66006155D01*
X108858000Y-66654000D01*
X109774988Y-66654000D01*
X109742075Y-66711007D01*
X109708000Y-66838174D01*
X109708000Y-66969826D01*
X109742075Y-67096993D01*
X109774988Y-67154000D01*
X108858000Y-67154000D01*
X108858000Y-67801844D01*
X108864401Y-67861372D01*
X108864403Y-67861379D01*
X108914645Y-67996086D01*
X108914649Y-67996093D01*
X109000809Y-68111187D01*
X109000812Y-68111190D01*
X109115906Y-68197350D01*
X109115913Y-68197354D01*
X109250620Y-68247596D01*
X109250627Y-68247598D01*
X109310155Y-68253999D01*
X109310172Y-68254000D01*
X109958000Y-68254000D01*
X109958000Y-67337012D01*
X110015007Y-67369925D01*
X110142174Y-67404000D01*
X110273826Y-67404000D01*
X110400993Y-67369925D01*
X110458000Y-67337012D01*
X110458000Y-68254000D01*
X111105828Y-68254000D01*
X111105844Y-68253999D01*
X111165372Y-68247598D01*
X111165379Y-68247596D01*
X111300086Y-68197354D01*
X111300093Y-68197350D01*
X111415187Y-68111190D01*
X111415190Y-68111187D01*
X111501350Y-67996093D01*
X111501354Y-67996086D01*
X111551596Y-67861379D01*
X111551598Y-67861372D01*
X111557999Y-67801844D01*
X111558000Y-67801827D01*
X111558000Y-67154000D01*
X110641012Y-67154000D01*
X110673925Y-67096993D01*
X110708000Y-66969826D01*
X110708000Y-66838174D01*
X110673925Y-66711007D01*
X110641012Y-66654000D01*
X111558000Y-66654000D01*
X111558000Y-66006172D01*
X111557999Y-66006155D01*
X111551598Y-65946627D01*
X111551596Y-65946620D01*
X111501354Y-65811913D01*
X111501350Y-65811906D01*
X111415190Y-65696812D01*
X111415187Y-65696809D01*
X111300093Y-65610649D01*
X111300086Y-65610645D01*
X111165379Y-65560403D01*
X111165372Y-65560401D01*
X111105844Y-65554000D01*
X110458000Y-65554000D01*
X110458000Y-66470988D01*
X110400993Y-66438075D01*
X110273826Y-66404000D01*
X110142174Y-66404000D01*
X110015007Y-66438075D01*
X109958000Y-66470988D01*
X109958000Y-65554000D01*
X109310155Y-65554000D01*
X109250627Y-65560401D01*
X109250620Y-65560403D01*
X109115913Y-65610645D01*
X109115906Y-65610649D01*
X109000812Y-65696809D01*
X109000809Y-65696812D01*
X108914649Y-65811906D01*
X108914645Y-65811913D01*
X108864403Y-65946620D01*
X108864401Y-65946627D01*
X108858000Y-66006155D01*
X106788500Y-66006155D01*
X106788500Y-65379500D01*
X106808185Y-65312461D01*
X106860989Y-65266706D01*
X106912500Y-65255500D01*
X113963500Y-65255500D01*
X114030539Y-65275185D01*
X114076294Y-65327989D01*
X114087500Y-65379500D01*
X114087500Y-71005486D01*
X114117059Y-71192118D01*
X114175454Y-71371836D01*
X114239458Y-71497450D01*
X114261240Y-71540199D01*
X114372310Y-71693073D01*
X114505927Y-71826690D01*
X114658801Y-71937760D01*
X114715368Y-71966582D01*
X114827163Y-72023545D01*
X114827165Y-72023545D01*
X114827168Y-72023547D01*
X114923497Y-72054846D01*
X115006881Y-72081940D01*
X115193514Y-72111500D01*
X115193519Y-72111500D01*
X115382486Y-72111500D01*
X115569118Y-72081940D01*
X115748832Y-72023547D01*
X115917199Y-71937760D01*
X116070073Y-71826690D01*
X116203690Y-71693073D01*
X116314760Y-71540199D01*
X116400547Y-71371832D01*
X116458940Y-71192118D01*
X116470848Y-71116932D01*
X116488500Y-71005486D01*
X116488500Y-70013155D01*
X118558000Y-70013155D01*
X118558000Y-70661000D01*
X119474988Y-70661000D01*
X119442075Y-70718007D01*
X119408000Y-70845174D01*
X119408000Y-70976826D01*
X119442075Y-71103993D01*
X119474988Y-71161000D01*
X118558000Y-71161000D01*
X118558000Y-71808844D01*
X118564401Y-71868372D01*
X118564403Y-71868379D01*
X118614645Y-72003086D01*
X118614649Y-72003093D01*
X118700809Y-72118187D01*
X118700812Y-72118190D01*
X118815906Y-72204350D01*
X118815913Y-72204354D01*
X118950620Y-72254596D01*
X118950627Y-72254598D01*
X119010155Y-72260999D01*
X119010172Y-72261000D01*
X119658000Y-72261000D01*
X119658000Y-71344012D01*
X119715007Y-71376925D01*
X119842174Y-71411000D01*
X119973826Y-71411000D01*
X120100993Y-71376925D01*
X120158000Y-71344012D01*
X120158000Y-72261000D01*
X120805828Y-72261000D01*
X120805844Y-72260999D01*
X120865372Y-72254598D01*
X120865379Y-72254596D01*
X121000086Y-72204354D01*
X121000093Y-72204350D01*
X121115187Y-72118190D01*
X121115190Y-72118187D01*
X121201350Y-72003093D01*
X121201354Y-72003086D01*
X121251596Y-71868379D01*
X121251598Y-71868372D01*
X121257999Y-71808844D01*
X121258000Y-71808827D01*
X121258000Y-71408186D01*
X121277685Y-71341147D01*
X121330489Y-71295392D01*
X121399647Y-71285448D01*
X121463203Y-71314473D01*
X121491356Y-71349729D01*
X121570315Y-71497450D01*
X121570317Y-71497452D01*
X121701589Y-71657410D01*
X121745048Y-71693075D01*
X121861550Y-71788685D01*
X122044046Y-71886232D01*
X122242066Y-71946300D01*
X122242065Y-71946300D01*
X122260529Y-71948118D01*
X122448000Y-71966583D01*
X122653934Y-71946300D01*
X122851954Y-71886232D01*
X123034450Y-71788685D01*
X123194410Y-71657410D01*
X123325685Y-71497450D01*
X123423232Y-71314954D01*
X123483300Y-71116934D01*
X123503583Y-70911000D01*
X123483300Y-70705066D01*
X123423232Y-70507046D01*
X123325685Y-70324550D01*
X123273702Y-70261209D01*
X123194410Y-70164589D01*
X123034452Y-70033317D01*
X123034453Y-70033317D01*
X123034450Y-70033315D01*
X122851954Y-69935768D01*
X122653934Y-69875700D01*
X122653932Y-69875699D01*
X122653934Y-69875699D01*
X122448000Y-69855417D01*
X122242067Y-69875699D01*
X122044043Y-69935769D01*
X122010634Y-69953627D01*
X121861550Y-70033315D01*
X121861548Y-70033316D01*
X121861547Y-70033317D01*
X121701589Y-70164589D01*
X121570317Y-70324547D01*
X121570315Y-70324550D01*
X121498887Y-70458181D01*
X121491358Y-70472267D01*
X121442395Y-70522111D01*
X121374257Y-70537571D01*
X121308578Y-70513739D01*
X121266209Y-70458181D01*
X121258000Y-70413813D01*
X121258000Y-70013172D01*
X121257999Y-70013155D01*
X121251598Y-69953627D01*
X121251596Y-69953620D01*
X121201354Y-69818913D01*
X121201350Y-69818906D01*
X121115190Y-69703812D01*
X121115187Y-69703809D01*
X121000093Y-69617649D01*
X121000086Y-69617645D01*
X120865379Y-69567403D01*
X120865372Y-69567401D01*
X120805844Y-69561000D01*
X120158000Y-69561000D01*
X120158000Y-70477988D01*
X120100993Y-70445075D01*
X119973826Y-70411000D01*
X119842174Y-70411000D01*
X119715007Y-70445075D01*
X119658000Y-70477988D01*
X119658000Y-69561000D01*
X119010155Y-69561000D01*
X118950627Y-69567401D01*
X118950620Y-69567403D01*
X118815913Y-69617645D01*
X118815906Y-69617649D01*
X118700812Y-69703809D01*
X118700809Y-69703812D01*
X118614649Y-69818906D01*
X118614645Y-69818913D01*
X118564403Y-69953620D01*
X118564401Y-69953627D01*
X118558000Y-70013155D01*
X116488500Y-70013155D01*
X116488500Y-66006155D01*
X118558000Y-66006155D01*
X118558000Y-66654000D01*
X119474988Y-66654000D01*
X119442075Y-66711007D01*
X119408000Y-66838174D01*
X119408000Y-66969826D01*
X119442075Y-67096993D01*
X119474988Y-67154000D01*
X118558000Y-67154000D01*
X118558000Y-67801844D01*
X118564401Y-67861372D01*
X118564403Y-67861379D01*
X118614645Y-67996086D01*
X118614649Y-67996093D01*
X118700809Y-68111187D01*
X118700812Y-68111190D01*
X118815906Y-68197350D01*
X118815913Y-68197354D01*
X118950620Y-68247596D01*
X118950627Y-68247598D01*
X119010155Y-68253999D01*
X119010172Y-68254000D01*
X119658000Y-68254000D01*
X119658000Y-67337012D01*
X119715007Y-67369925D01*
X119842174Y-67404000D01*
X119973826Y-67404000D01*
X120100993Y-67369925D01*
X120158000Y-67337012D01*
X120158000Y-68254000D01*
X120805828Y-68254000D01*
X120805844Y-68253999D01*
X120865372Y-68247598D01*
X120865379Y-68247596D01*
X121000086Y-68197354D01*
X121000093Y-68197350D01*
X121115187Y-68111190D01*
X121115190Y-68111187D01*
X121201350Y-67996093D01*
X121201354Y-67996086D01*
X121251596Y-67861379D01*
X121251598Y-67861372D01*
X121257999Y-67801844D01*
X121258000Y-67801827D01*
X121258000Y-67154000D01*
X120341012Y-67154000D01*
X120373925Y-67096993D01*
X120408000Y-66969826D01*
X120408000Y-66838174D01*
X120373925Y-66711007D01*
X120341012Y-66654000D01*
X121258000Y-66654000D01*
X121258000Y-66006172D01*
X121257999Y-66006155D01*
X121251598Y-65946627D01*
X121251596Y-65946620D01*
X121201354Y-65811913D01*
X121201350Y-65811906D01*
X121115190Y-65696812D01*
X121115187Y-65696809D01*
X121000093Y-65610649D01*
X121000086Y-65610645D01*
X120865379Y-65560403D01*
X120865372Y-65560401D01*
X120805844Y-65554000D01*
X120158000Y-65554000D01*
X120158000Y-66470988D01*
X120100993Y-66438075D01*
X119973826Y-66404000D01*
X119842174Y-66404000D01*
X119715007Y-66438075D01*
X119658000Y-66470988D01*
X119658000Y-65554000D01*
X119010155Y-65554000D01*
X118950627Y-65560401D01*
X118950620Y-65560403D01*
X118815913Y-65610645D01*
X118815906Y-65610649D01*
X118700812Y-65696809D01*
X118700809Y-65696812D01*
X118614649Y-65811906D01*
X118614645Y-65811913D01*
X118564403Y-65946620D01*
X118564401Y-65946627D01*
X118558000Y-66006155D01*
X116488500Y-66006155D01*
X116488500Y-65379500D01*
X116508185Y-65312461D01*
X116560989Y-65266706D01*
X116612500Y-65255500D01*
X123663500Y-65255500D01*
X123730539Y-65275185D01*
X123776294Y-65327989D01*
X123787500Y-65379500D01*
X123787500Y-71005486D01*
X123817059Y-71192118D01*
X123875454Y-71371836D01*
X123939458Y-71497450D01*
X123961240Y-71540199D01*
X124072310Y-71693073D01*
X124205927Y-71826690D01*
X124358801Y-71937760D01*
X124415368Y-71966582D01*
X124527163Y-72023545D01*
X124527165Y-72023545D01*
X124527168Y-72023547D01*
X124623497Y-72054846D01*
X124706881Y-72081940D01*
X124893514Y-72111500D01*
X124893519Y-72111500D01*
X125082486Y-72111500D01*
X125269118Y-72081940D01*
X125448832Y-72023547D01*
X125617199Y-71937760D01*
X125770073Y-71826690D01*
X125903690Y-71693073D01*
X126014760Y-71540199D01*
X126100547Y-71371832D01*
X126158940Y-71192118D01*
X126170848Y-71116932D01*
X126188500Y-71005486D01*
X126188500Y-70013155D01*
X128258000Y-70013155D01*
X128258000Y-70661000D01*
X129174988Y-70661000D01*
X129142075Y-70718007D01*
X129108000Y-70845174D01*
X129108000Y-70976826D01*
X129142075Y-71103993D01*
X129174988Y-71161000D01*
X128258000Y-71161000D01*
X128258000Y-71808844D01*
X128264401Y-71868372D01*
X128264403Y-71868379D01*
X128314645Y-72003086D01*
X128314649Y-72003093D01*
X128400809Y-72118187D01*
X128400812Y-72118190D01*
X128515906Y-72204350D01*
X128515913Y-72204354D01*
X128650620Y-72254596D01*
X128650627Y-72254598D01*
X128710155Y-72260999D01*
X128710172Y-72261000D01*
X129358000Y-72261000D01*
X129358000Y-71344012D01*
X129415007Y-71376925D01*
X129542174Y-71411000D01*
X129673826Y-71411000D01*
X129800993Y-71376925D01*
X129858000Y-71344012D01*
X129858000Y-72261000D01*
X130505828Y-72261000D01*
X130505844Y-72260999D01*
X130565372Y-72254598D01*
X130565379Y-72254596D01*
X130700086Y-72204354D01*
X130700093Y-72204350D01*
X130815187Y-72118190D01*
X130815190Y-72118187D01*
X130901350Y-72003093D01*
X130901354Y-72003086D01*
X130951596Y-71868379D01*
X130951598Y-71868372D01*
X130957999Y-71808844D01*
X130958000Y-71808827D01*
X130958000Y-71408186D01*
X130977685Y-71341147D01*
X131030489Y-71295392D01*
X131099647Y-71285448D01*
X131163203Y-71314473D01*
X131191356Y-71349729D01*
X131270315Y-71497450D01*
X131270317Y-71497452D01*
X131401589Y-71657410D01*
X131445048Y-71693075D01*
X131561550Y-71788685D01*
X131744046Y-71886232D01*
X131942066Y-71946300D01*
X131942065Y-71946300D01*
X131960529Y-71948118D01*
X132148000Y-71966583D01*
X132353934Y-71946300D01*
X132551954Y-71886232D01*
X132734450Y-71788685D01*
X132894410Y-71657410D01*
X133025685Y-71497450D01*
X133123232Y-71314954D01*
X133183300Y-71116934D01*
X133203583Y-70911000D01*
X133183300Y-70705066D01*
X133123232Y-70507046D01*
X133025685Y-70324550D01*
X132973702Y-70261209D01*
X132894410Y-70164589D01*
X132734452Y-70033317D01*
X132734453Y-70033317D01*
X132734450Y-70033315D01*
X132551954Y-69935768D01*
X132353934Y-69875700D01*
X132353932Y-69875699D01*
X132353934Y-69875699D01*
X132148000Y-69855417D01*
X131942067Y-69875699D01*
X131744043Y-69935769D01*
X131710634Y-69953627D01*
X131561550Y-70033315D01*
X131561548Y-70033316D01*
X131561547Y-70033317D01*
X131401589Y-70164589D01*
X131270317Y-70324547D01*
X131270315Y-70324550D01*
X131198887Y-70458181D01*
X131191358Y-70472267D01*
X131142395Y-70522111D01*
X131074257Y-70537571D01*
X131008578Y-70513739D01*
X130966209Y-70458181D01*
X130958000Y-70413813D01*
X130958000Y-70013172D01*
X130957999Y-70013155D01*
X130951598Y-69953627D01*
X130951596Y-69953620D01*
X130901354Y-69818913D01*
X130901350Y-69818906D01*
X130815190Y-69703812D01*
X130815187Y-69703809D01*
X130700093Y-69617649D01*
X130700086Y-69617645D01*
X130565379Y-69567403D01*
X130565372Y-69567401D01*
X130505844Y-69561000D01*
X129858000Y-69561000D01*
X129858000Y-70477988D01*
X129800993Y-70445075D01*
X129673826Y-70411000D01*
X129542174Y-70411000D01*
X129415007Y-70445075D01*
X129358000Y-70477988D01*
X129358000Y-69561000D01*
X128710155Y-69561000D01*
X128650627Y-69567401D01*
X128650620Y-69567403D01*
X128515913Y-69617645D01*
X128515906Y-69617649D01*
X128400812Y-69703809D01*
X128400809Y-69703812D01*
X128314649Y-69818906D01*
X128314645Y-69818913D01*
X128264403Y-69953620D01*
X128264401Y-69953627D01*
X128258000Y-70013155D01*
X126188500Y-70013155D01*
X126188500Y-66006155D01*
X128258000Y-66006155D01*
X128258000Y-66654000D01*
X129174988Y-66654000D01*
X129142075Y-66711007D01*
X129108000Y-66838174D01*
X129108000Y-66969826D01*
X129142075Y-67096993D01*
X129174988Y-67154000D01*
X128258000Y-67154000D01*
X128258000Y-67801844D01*
X128264401Y-67861372D01*
X128264403Y-67861379D01*
X128314645Y-67996086D01*
X128314649Y-67996093D01*
X128400809Y-68111187D01*
X128400812Y-68111190D01*
X128515906Y-68197350D01*
X128515913Y-68197354D01*
X128650620Y-68247596D01*
X128650627Y-68247598D01*
X128710155Y-68253999D01*
X128710172Y-68254000D01*
X129358000Y-68254000D01*
X129358000Y-67337012D01*
X129415007Y-67369925D01*
X129542174Y-67404000D01*
X129673826Y-67404000D01*
X129800993Y-67369925D01*
X129858000Y-67337012D01*
X129858000Y-68254000D01*
X130505828Y-68254000D01*
X130505844Y-68253999D01*
X130565372Y-68247598D01*
X130565379Y-68247596D01*
X130700086Y-68197354D01*
X130700093Y-68197350D01*
X130815187Y-68111190D01*
X130815190Y-68111187D01*
X130901350Y-67996093D01*
X130901354Y-67996086D01*
X130951596Y-67861379D01*
X130951598Y-67861372D01*
X130957999Y-67801844D01*
X130958000Y-67801827D01*
X130958000Y-67154000D01*
X130041012Y-67154000D01*
X130073925Y-67096993D01*
X130108000Y-66969826D01*
X130108000Y-66838174D01*
X130073925Y-66711007D01*
X130041012Y-66654000D01*
X130958000Y-66654000D01*
X130958000Y-66006172D01*
X130957999Y-66006155D01*
X130951598Y-65946627D01*
X130951596Y-65946620D01*
X130901354Y-65811913D01*
X130901350Y-65811906D01*
X130815190Y-65696812D01*
X130815187Y-65696809D01*
X130700093Y-65610649D01*
X130700086Y-65610645D01*
X130565379Y-65560403D01*
X130565372Y-65560401D01*
X130505844Y-65554000D01*
X129858000Y-65554000D01*
X129858000Y-66470988D01*
X129800993Y-66438075D01*
X129673826Y-66404000D01*
X129542174Y-66404000D01*
X129415007Y-66438075D01*
X129358000Y-66470988D01*
X129358000Y-65554000D01*
X128710155Y-65554000D01*
X128650627Y-65560401D01*
X128650620Y-65560403D01*
X128515913Y-65610645D01*
X128515906Y-65610649D01*
X128400812Y-65696809D01*
X128400809Y-65696812D01*
X128314649Y-65811906D01*
X128314645Y-65811913D01*
X128264403Y-65946620D01*
X128264401Y-65946627D01*
X128258000Y-66006155D01*
X126188500Y-66006155D01*
X126188500Y-65379500D01*
X126208185Y-65312461D01*
X126260989Y-65266706D01*
X126312500Y-65255500D01*
X133363500Y-65255500D01*
X133430539Y-65275185D01*
X133476294Y-65327989D01*
X133487500Y-65379500D01*
X133487500Y-71005486D01*
X133517059Y-71192118D01*
X133575454Y-71371836D01*
X133639458Y-71497450D01*
X133661240Y-71540199D01*
X133772310Y-71693073D01*
X133905927Y-71826690D01*
X134058801Y-71937760D01*
X134115368Y-71966582D01*
X134227163Y-72023545D01*
X134227165Y-72023545D01*
X134227168Y-72023547D01*
X134323497Y-72054846D01*
X134406881Y-72081940D01*
X134593514Y-72111500D01*
X134593519Y-72111500D01*
X134782486Y-72111500D01*
X134969118Y-72081940D01*
X135148832Y-72023547D01*
X135317199Y-71937760D01*
X135470073Y-71826690D01*
X135603690Y-71693073D01*
X135714760Y-71540199D01*
X135800547Y-71371832D01*
X135858940Y-71192118D01*
X135870848Y-71116932D01*
X135888500Y-71005486D01*
X135888500Y-70013155D01*
X137958000Y-70013155D01*
X137958000Y-70661000D01*
X138874988Y-70661000D01*
X138842075Y-70718007D01*
X138808000Y-70845174D01*
X138808000Y-70976826D01*
X138842075Y-71103993D01*
X138874988Y-71161000D01*
X137958000Y-71161000D01*
X137958000Y-71808844D01*
X137964401Y-71868372D01*
X137964403Y-71868379D01*
X138014645Y-72003086D01*
X138014649Y-72003093D01*
X138100809Y-72118187D01*
X138100812Y-72118190D01*
X138215906Y-72204350D01*
X138215913Y-72204354D01*
X138350620Y-72254596D01*
X138350627Y-72254598D01*
X138410155Y-72260999D01*
X138410172Y-72261000D01*
X139058000Y-72261000D01*
X139058000Y-71344012D01*
X139115007Y-71376925D01*
X139242174Y-71411000D01*
X139373826Y-71411000D01*
X139500993Y-71376925D01*
X139558000Y-71344012D01*
X139558000Y-72261000D01*
X140205828Y-72261000D01*
X140205844Y-72260999D01*
X140265372Y-72254598D01*
X140265379Y-72254596D01*
X140400086Y-72204354D01*
X140400093Y-72204350D01*
X140515187Y-72118190D01*
X140515190Y-72118187D01*
X140601350Y-72003093D01*
X140601354Y-72003086D01*
X140651596Y-71868379D01*
X140651598Y-71868372D01*
X140657999Y-71808844D01*
X140658000Y-71808827D01*
X140658000Y-71408186D01*
X140677685Y-71341147D01*
X140730489Y-71295392D01*
X140799647Y-71285448D01*
X140863203Y-71314473D01*
X140891356Y-71349729D01*
X140970315Y-71497450D01*
X140970317Y-71497452D01*
X141101589Y-71657410D01*
X141145048Y-71693075D01*
X141261550Y-71788685D01*
X141444046Y-71886232D01*
X141642066Y-71946300D01*
X141642065Y-71946300D01*
X141660529Y-71948118D01*
X141848000Y-71966583D01*
X142053934Y-71946300D01*
X142251954Y-71886232D01*
X142434450Y-71788685D01*
X142594410Y-71657410D01*
X142725685Y-71497450D01*
X142823232Y-71314954D01*
X142883300Y-71116934D01*
X142903583Y-70911000D01*
X142883300Y-70705066D01*
X142823232Y-70507046D01*
X142725685Y-70324550D01*
X142673702Y-70261209D01*
X142594410Y-70164589D01*
X142434452Y-70033317D01*
X142434453Y-70033317D01*
X142434450Y-70033315D01*
X142251954Y-69935768D01*
X142053934Y-69875700D01*
X142053932Y-69875699D01*
X142053934Y-69875699D01*
X141848000Y-69855417D01*
X141642067Y-69875699D01*
X141444043Y-69935769D01*
X141410634Y-69953627D01*
X141261550Y-70033315D01*
X141261548Y-70033316D01*
X141261547Y-70033317D01*
X141101589Y-70164589D01*
X140970317Y-70324547D01*
X140970315Y-70324550D01*
X140898887Y-70458181D01*
X140891358Y-70472267D01*
X140842395Y-70522111D01*
X140774257Y-70537571D01*
X140708578Y-70513739D01*
X140666209Y-70458181D01*
X140658000Y-70413813D01*
X140658000Y-70013172D01*
X140657999Y-70013155D01*
X140651598Y-69953627D01*
X140651596Y-69953620D01*
X140601354Y-69818913D01*
X140601350Y-69818906D01*
X140515190Y-69703812D01*
X140515187Y-69703809D01*
X140400093Y-69617649D01*
X140400086Y-69617645D01*
X140265379Y-69567403D01*
X140265372Y-69567401D01*
X140205844Y-69561000D01*
X139558000Y-69561000D01*
X139558000Y-70477988D01*
X139500993Y-70445075D01*
X139373826Y-70411000D01*
X139242174Y-70411000D01*
X139115007Y-70445075D01*
X139058000Y-70477988D01*
X139058000Y-69561000D01*
X138410155Y-69561000D01*
X138350627Y-69567401D01*
X138350620Y-69567403D01*
X138215913Y-69617645D01*
X138215906Y-69617649D01*
X138100812Y-69703809D01*
X138100809Y-69703812D01*
X138014649Y-69818906D01*
X138014645Y-69818913D01*
X137964403Y-69953620D01*
X137964401Y-69953627D01*
X137958000Y-70013155D01*
X135888500Y-70013155D01*
X135888500Y-66006155D01*
X137958000Y-66006155D01*
X137958000Y-66654000D01*
X138874988Y-66654000D01*
X138842075Y-66711007D01*
X138808000Y-66838174D01*
X138808000Y-66969826D01*
X138842075Y-67096993D01*
X138874988Y-67154000D01*
X137958000Y-67154000D01*
X137958000Y-67801844D01*
X137964401Y-67861372D01*
X137964403Y-67861379D01*
X138014645Y-67996086D01*
X138014649Y-67996093D01*
X138100809Y-68111187D01*
X138100812Y-68111190D01*
X138215906Y-68197350D01*
X138215913Y-68197354D01*
X138350620Y-68247596D01*
X138350627Y-68247598D01*
X138410155Y-68253999D01*
X138410172Y-68254000D01*
X139058000Y-68254000D01*
X139058000Y-67337012D01*
X139115007Y-67369925D01*
X139242174Y-67404000D01*
X139373826Y-67404000D01*
X139500993Y-67369925D01*
X139558000Y-67337012D01*
X139558000Y-68254000D01*
X140205828Y-68254000D01*
X140205844Y-68253999D01*
X140265372Y-68247598D01*
X140265379Y-68247596D01*
X140400086Y-68197354D01*
X140400093Y-68197350D01*
X140515187Y-68111190D01*
X140515190Y-68111187D01*
X140601350Y-67996093D01*
X140601354Y-67996086D01*
X140651596Y-67861379D01*
X140651598Y-67861372D01*
X140657999Y-67801844D01*
X140658000Y-67801827D01*
X140658000Y-67154000D01*
X139741012Y-67154000D01*
X139773925Y-67096993D01*
X139808000Y-66969826D01*
X139808000Y-66838174D01*
X139773925Y-66711007D01*
X139741012Y-66654000D01*
X140658000Y-66654000D01*
X140658000Y-66006172D01*
X140657999Y-66006155D01*
X140651598Y-65946627D01*
X140651596Y-65946620D01*
X140601354Y-65811913D01*
X140601350Y-65811906D01*
X140515190Y-65696812D01*
X140515187Y-65696809D01*
X140400093Y-65610649D01*
X140400086Y-65610645D01*
X140265379Y-65560403D01*
X140265372Y-65560401D01*
X140205844Y-65554000D01*
X139558000Y-65554000D01*
X139558000Y-66470988D01*
X139500993Y-66438075D01*
X139373826Y-66404000D01*
X139242174Y-66404000D01*
X139115007Y-66438075D01*
X139058000Y-66470988D01*
X139058000Y-65554000D01*
X138410155Y-65554000D01*
X138350627Y-65560401D01*
X138350620Y-65560403D01*
X138215913Y-65610645D01*
X138215906Y-65610649D01*
X138100812Y-65696809D01*
X138100809Y-65696812D01*
X138014649Y-65811906D01*
X138014645Y-65811913D01*
X137964403Y-65946620D01*
X137964401Y-65946627D01*
X137958000Y-66006155D01*
X135888500Y-66006155D01*
X135888500Y-65379500D01*
X135908185Y-65312461D01*
X135960989Y-65266706D01*
X136012500Y-65255500D01*
X143063500Y-65255500D01*
X143130539Y-65275185D01*
X143176294Y-65327989D01*
X143187500Y-65379500D01*
X143187500Y-71005486D01*
X143217059Y-71192118D01*
X143275454Y-71371836D01*
X143339458Y-71497450D01*
X143361240Y-71540199D01*
X143472310Y-71693073D01*
X143605927Y-71826690D01*
X143758801Y-71937760D01*
X143815368Y-71966582D01*
X143927163Y-72023545D01*
X143927165Y-72023545D01*
X143927168Y-72023547D01*
X144023497Y-72054846D01*
X144106881Y-72081940D01*
X144293514Y-72111500D01*
X144293519Y-72111500D01*
X144482486Y-72111500D01*
X144669118Y-72081940D01*
X144848832Y-72023547D01*
X145017199Y-71937760D01*
X145170073Y-71826690D01*
X145303690Y-71693073D01*
X145414760Y-71540199D01*
X145500547Y-71371832D01*
X145558940Y-71192118D01*
X145570848Y-71116932D01*
X145588500Y-71005486D01*
X145588500Y-70013155D01*
X147658000Y-70013155D01*
X147658000Y-70661000D01*
X148574988Y-70661000D01*
X148542075Y-70718007D01*
X148508000Y-70845174D01*
X148508000Y-70976826D01*
X148542075Y-71103993D01*
X148574988Y-71161000D01*
X147658000Y-71161000D01*
X147658000Y-71808844D01*
X147664401Y-71868372D01*
X147664403Y-71868379D01*
X147714645Y-72003086D01*
X147714649Y-72003093D01*
X147800809Y-72118187D01*
X147800812Y-72118190D01*
X147915906Y-72204350D01*
X147915913Y-72204354D01*
X148050620Y-72254596D01*
X148050627Y-72254598D01*
X148110155Y-72260999D01*
X148110172Y-72261000D01*
X148758000Y-72261000D01*
X148758000Y-71344012D01*
X148815007Y-71376925D01*
X148942174Y-71411000D01*
X149073826Y-71411000D01*
X149200993Y-71376925D01*
X149258000Y-71344012D01*
X149258000Y-72261000D01*
X149905828Y-72261000D01*
X149905844Y-72260999D01*
X149965372Y-72254598D01*
X149965379Y-72254596D01*
X150100086Y-72204354D01*
X150100093Y-72204350D01*
X150215187Y-72118190D01*
X150215190Y-72118187D01*
X150301350Y-72003093D01*
X150301354Y-72003086D01*
X150351596Y-71868379D01*
X150351598Y-71868372D01*
X150357999Y-71808844D01*
X150358000Y-71808827D01*
X150358000Y-71408186D01*
X150377685Y-71341147D01*
X150430489Y-71295392D01*
X150499647Y-71285448D01*
X150563203Y-71314473D01*
X150591356Y-71349729D01*
X150670315Y-71497450D01*
X150670317Y-71497452D01*
X150801589Y-71657410D01*
X150845048Y-71693075D01*
X150961550Y-71788685D01*
X151144046Y-71886232D01*
X151342066Y-71946300D01*
X151342065Y-71946300D01*
X151360529Y-71948118D01*
X151548000Y-71966583D01*
X151753934Y-71946300D01*
X151951954Y-71886232D01*
X152134450Y-71788685D01*
X152294410Y-71657410D01*
X152425685Y-71497450D01*
X152523232Y-71314954D01*
X152583300Y-71116934D01*
X152603583Y-70911000D01*
X152583300Y-70705066D01*
X152523232Y-70507046D01*
X152425685Y-70324550D01*
X152373702Y-70261209D01*
X152294410Y-70164589D01*
X152134452Y-70033317D01*
X152134453Y-70033317D01*
X152134450Y-70033315D01*
X151951954Y-69935768D01*
X151753934Y-69875700D01*
X151753932Y-69875699D01*
X151753934Y-69875699D01*
X151548000Y-69855417D01*
X151342067Y-69875699D01*
X151144043Y-69935769D01*
X151110634Y-69953627D01*
X150961550Y-70033315D01*
X150961548Y-70033316D01*
X150961547Y-70033317D01*
X150801589Y-70164589D01*
X150670317Y-70324547D01*
X150670315Y-70324550D01*
X150598887Y-70458181D01*
X150591358Y-70472267D01*
X150542395Y-70522111D01*
X150474257Y-70537571D01*
X150408578Y-70513739D01*
X150366209Y-70458181D01*
X150358000Y-70413813D01*
X150358000Y-70013172D01*
X150357999Y-70013155D01*
X150351598Y-69953627D01*
X150351596Y-69953620D01*
X150301354Y-69818913D01*
X150301350Y-69818906D01*
X150215190Y-69703812D01*
X150215187Y-69703809D01*
X150100093Y-69617649D01*
X150100086Y-69617645D01*
X149965379Y-69567403D01*
X149965372Y-69567401D01*
X149905844Y-69561000D01*
X149258000Y-69561000D01*
X149258000Y-70477988D01*
X149200993Y-70445075D01*
X149073826Y-70411000D01*
X148942174Y-70411000D01*
X148815007Y-70445075D01*
X148758000Y-70477988D01*
X148758000Y-69561000D01*
X148110155Y-69561000D01*
X148050627Y-69567401D01*
X148050620Y-69567403D01*
X147915913Y-69617645D01*
X147915906Y-69617649D01*
X147800812Y-69703809D01*
X147800809Y-69703812D01*
X147714649Y-69818906D01*
X147714645Y-69818913D01*
X147664403Y-69953620D01*
X147664401Y-69953627D01*
X147658000Y-70013155D01*
X145588500Y-70013155D01*
X145588500Y-66006155D01*
X147658000Y-66006155D01*
X147658000Y-66654000D01*
X148574988Y-66654000D01*
X148542075Y-66711007D01*
X148508000Y-66838174D01*
X148508000Y-66969826D01*
X148542075Y-67096993D01*
X148574988Y-67154000D01*
X147658000Y-67154000D01*
X147658000Y-67801844D01*
X147664401Y-67861372D01*
X147664403Y-67861379D01*
X147714645Y-67996086D01*
X147714649Y-67996093D01*
X147800809Y-68111187D01*
X147800812Y-68111190D01*
X147915906Y-68197350D01*
X147915913Y-68197354D01*
X148050620Y-68247596D01*
X148050627Y-68247598D01*
X148110155Y-68253999D01*
X148110172Y-68254000D01*
X148758000Y-68254000D01*
X148758000Y-67337012D01*
X148815007Y-67369925D01*
X148942174Y-67404000D01*
X149073826Y-67404000D01*
X149200993Y-67369925D01*
X149258000Y-67337012D01*
X149258000Y-68254000D01*
X149905828Y-68254000D01*
X149905844Y-68253999D01*
X149965372Y-68247598D01*
X149965379Y-68247596D01*
X150100086Y-68197354D01*
X150100093Y-68197350D01*
X150215187Y-68111190D01*
X150215190Y-68111187D01*
X150301350Y-67996093D01*
X150301354Y-67996086D01*
X150351596Y-67861379D01*
X150351598Y-67861372D01*
X150357999Y-67801844D01*
X150358000Y-67801827D01*
X150358000Y-67154000D01*
X149441012Y-67154000D01*
X149473925Y-67096993D01*
X149508000Y-66969826D01*
X149508000Y-66838174D01*
X149473925Y-66711007D01*
X149441012Y-66654000D01*
X150358000Y-66654000D01*
X150358000Y-66006172D01*
X150357999Y-66006155D01*
X150351598Y-65946627D01*
X150351596Y-65946620D01*
X150301354Y-65811913D01*
X150301350Y-65811906D01*
X150215190Y-65696812D01*
X150215187Y-65696809D01*
X150100093Y-65610649D01*
X150100086Y-65610645D01*
X149965379Y-65560403D01*
X149965372Y-65560401D01*
X149905844Y-65554000D01*
X149258000Y-65554000D01*
X149258000Y-66470988D01*
X149200993Y-66438075D01*
X149073826Y-66404000D01*
X148942174Y-66404000D01*
X148815007Y-66438075D01*
X148758000Y-66470988D01*
X148758000Y-65554000D01*
X148110155Y-65554000D01*
X148050627Y-65560401D01*
X148050620Y-65560403D01*
X147915913Y-65610645D01*
X147915906Y-65610649D01*
X147800812Y-65696809D01*
X147800809Y-65696812D01*
X147714649Y-65811906D01*
X147714645Y-65811913D01*
X147664403Y-65946620D01*
X147664401Y-65946627D01*
X147658000Y-66006155D01*
X145588500Y-66006155D01*
X145588500Y-65379500D01*
X145608185Y-65312461D01*
X145660989Y-65266706D01*
X145712500Y-65255500D01*
X152763500Y-65255500D01*
X152830539Y-65275185D01*
X152876294Y-65327989D01*
X152887500Y-65379500D01*
X152887500Y-71005486D01*
X152917059Y-71192118D01*
X152975454Y-71371836D01*
X153039458Y-71497450D01*
X153061240Y-71540199D01*
X153172310Y-71693073D01*
X153305927Y-71826690D01*
X153458801Y-71937760D01*
X153515368Y-71966582D01*
X153627163Y-72023545D01*
X153627165Y-72023545D01*
X153627168Y-72023547D01*
X153723497Y-72054846D01*
X153806881Y-72081940D01*
X153993514Y-72111500D01*
X153993519Y-72111500D01*
X154182486Y-72111500D01*
X154369118Y-72081940D01*
X154548832Y-72023547D01*
X154717199Y-71937760D01*
X154870073Y-71826690D01*
X155003690Y-71693073D01*
X155114760Y-71540199D01*
X155200547Y-71371832D01*
X155258940Y-71192118D01*
X155270848Y-71116932D01*
X155288500Y-71005486D01*
X155288500Y-64243513D01*
X155258940Y-64056881D01*
X155200545Y-63877163D01*
X155114760Y-63708801D01*
X155098094Y-63685863D01*
X155088614Y-63670600D01*
X155076554Y-63647620D01*
X155059452Y-63617579D01*
X155059445Y-63617566D01*
X155050551Y-63603116D01*
X155031402Y-63574268D01*
X154773065Y-63212597D01*
X154761776Y-63197402D01*
X154761756Y-63197375D01*
X154756116Y-63190073D01*
X154744266Y-63175311D01*
X154561502Y-62956172D01*
X154536195Y-62928041D01*
X154536191Y-62928036D01*
X154523274Y-62914716D01*
X154495933Y-62888556D01*
X154495929Y-62888552D01*
X154286012Y-62702245D01*
X154256809Y-62678221D01*
X154256808Y-62678220D01*
X154256798Y-62678212D01*
X154242038Y-62666968D01*
X154211092Y-62645175D01*
X153975732Y-62492280D01*
X153943239Y-62472861D01*
X153926967Y-62463946D01*
X153893124Y-62447020D01*
X153893111Y-62447014D01*
X153633352Y-62329032D01*
X153616055Y-62321562D01*
X153612314Y-62320029D01*
X153607452Y-62318036D01*
X153607423Y-62318024D01*
X153607409Y-62318019D01*
X153589789Y-62311180D01*
X153589785Y-62311178D01*
X153589745Y-62311163D01*
X148375283Y-60399194D01*
X147013382Y-59899830D01*
X146992332Y-59892635D01*
X146992325Y-59892633D01*
X146992314Y-59892629D01*
X146987639Y-59891145D01*
X146981887Y-59889319D01*
X146960631Y-59883084D01*
X146960594Y-59883074D01*
X146775563Y-59833185D01*
X146775560Y-59833184D01*
X146636679Y-59795739D01*
X146636675Y-59795738D01*
X146636671Y-59795737D01*
X146593248Y-59786057D01*
X146571756Y-59782251D01*
X146527627Y-59776426D01*
X146527622Y-59776425D01*
X146527618Y-59776425D01*
X146193424Y-59747211D01*
X146189513Y-59746955D01*
X146171227Y-59745762D01*
X146171213Y-59745761D01*
X146171207Y-59745761D01*
X146160351Y-59745292D01*
X146138089Y-59744821D01*
X146138075Y-59744821D01*
X145836661Y-59745089D01*
X128759287Y-59760312D01*
X128692230Y-59740687D01*
X128646428Y-59687924D01*
X128635177Y-59636698D01*
X128627673Y-57199994D01*
X145695255Y-57199994D01*
X145695255Y-57200005D01*
X145714215Y-57501383D01*
X145714216Y-57501390D01*
X145770805Y-57798040D01*
X145864125Y-58085247D01*
X145864127Y-58085252D01*
X145992704Y-58358491D01*
X145992707Y-58358497D01*
X146154516Y-58613469D01*
X146235311Y-58711133D01*
X146913128Y-58033316D01*
X146993994Y-58144618D01*
X147155382Y-58306006D01*
X147266681Y-58386870D01*
X146586564Y-59066987D01*
X146586565Y-59066989D01*
X146811461Y-59230385D01*
X146811479Y-59230397D01*
X147076109Y-59375878D01*
X147076117Y-59375882D01*
X147356889Y-59487047D01*
X147356892Y-59487048D01*
X147649399Y-59562150D01*
X147948995Y-59599999D01*
X147949007Y-59600000D01*
X148250993Y-59600000D01*
X148251004Y-59599999D01*
X148550600Y-59562150D01*
X148843107Y-59487048D01*
X148843110Y-59487047D01*
X149123882Y-59375882D01*
X149123890Y-59375878D01*
X149388520Y-59230397D01*
X149388530Y-59230390D01*
X149613433Y-59066987D01*
X149613434Y-59066987D01*
X148933317Y-58386870D01*
X149044618Y-58306006D01*
X149206006Y-58144618D01*
X149286870Y-58033317D01*
X149964687Y-58711134D01*
X150045486Y-58613464D01*
X150207292Y-58358497D01*
X150207295Y-58358491D01*
X150335872Y-58085252D01*
X150335874Y-58085247D01*
X150429194Y-57798040D01*
X150485783Y-57501390D01*
X150485784Y-57501383D01*
X150504745Y-57200005D01*
X150504745Y-57199994D01*
X150485784Y-56898616D01*
X150485783Y-56898609D01*
X150429194Y-56601959D01*
X150335874Y-56314752D01*
X150335872Y-56314747D01*
X150207295Y-56041508D01*
X150207292Y-56041502D01*
X150045483Y-55786530D01*
X149964686Y-55688864D01*
X149286869Y-56366681D01*
X149206006Y-56255382D01*
X149044618Y-56093994D01*
X148933316Y-56013128D01*
X149613434Y-55333011D01*
X149613433Y-55333009D01*
X149388538Y-55169614D01*
X149388520Y-55169602D01*
X149123890Y-55024121D01*
X149123882Y-55024117D01*
X148843110Y-54912952D01*
X148843107Y-54912951D01*
X148550600Y-54837849D01*
X148251004Y-54800000D01*
X147948995Y-54800000D01*
X147649399Y-54837849D01*
X147356892Y-54912951D01*
X147356889Y-54912952D01*
X147076117Y-55024117D01*
X147076109Y-55024121D01*
X146811476Y-55169604D01*
X146811471Y-55169607D01*
X146586565Y-55333010D01*
X146586564Y-55333011D01*
X147266682Y-56013129D01*
X147155382Y-56093994D01*
X146993994Y-56255382D01*
X146913129Y-56366682D01*
X146235311Y-55688864D01*
X146154520Y-55786525D01*
X146154518Y-55786528D01*
X145992707Y-56041502D01*
X145992704Y-56041508D01*
X145864127Y-56314747D01*
X145864125Y-56314752D01*
X145770805Y-56601959D01*
X145714216Y-56898609D01*
X145714215Y-56898616D01*
X145695255Y-57199994D01*
X128627673Y-57199994D01*
X128611650Y-51996705D01*
X128611277Y-51978783D01*
X128610937Y-51969966D01*
X128609916Y-51951902D01*
X128589749Y-51681112D01*
X128585796Y-51645311D01*
X128583234Y-51627840D01*
X128576743Y-51592418D01*
X128519273Y-51331576D01*
X128510272Y-51296691D01*
X128505254Y-51279761D01*
X128493801Y-51245630D01*
X128446833Y-51120615D01*
X128399870Y-50995611D01*
X128386008Y-50962363D01*
X128383062Y-50955951D01*
X128378636Y-50946316D01*
X128378629Y-50946302D01*
X128362446Y-50914145D01*
X128233958Y-50680005D01*
X128215501Y-50649042D01*
X128210802Y-50641764D01*
X128205936Y-50634224D01*
X128194985Y-50618514D01*
X128185358Y-50604703D01*
X128185351Y-50604694D01*
X128185345Y-50604685D01*
X128024884Y-50391144D01*
X128002230Y-50363133D01*
X127990645Y-50349809D01*
X127966067Y-50323497D01*
X127885773Y-50243450D01*
X127776928Y-50134939D01*
X127750515Y-50110420D01*
X127749758Y-50109766D01*
X127737163Y-50098883D01*
X127718446Y-50083841D01*
X127709090Y-50076321D01*
X127497145Y-49918077D01*
X127497123Y-49918061D01*
X127495045Y-49916509D01*
X127469671Y-49898937D01*
X127465462Y-49896022D01*
X127465452Y-49896016D01*
X127465444Y-49896010D01*
X127450631Y-49886512D01*
X127419605Y-49868147D01*
X127183098Y-49739305D01*
X127183389Y-49738769D01*
X127134000Y-49692868D01*
X127116661Y-49625184D01*
X127138667Y-49558870D01*
X127193032Y-49514981D01*
X127240586Y-49505500D01*
X135631267Y-49505500D01*
X135631274Y-49505500D01*
X135727975Y-49496164D01*
X135774538Y-49487089D01*
X135817229Y-49474409D01*
X135867651Y-49459434D01*
X135867652Y-49459432D01*
X135867656Y-49459432D01*
X135991961Y-49386976D01*
X136046703Y-49343558D01*
X136046704Y-49343557D01*
X136145560Y-49239015D01*
X136210959Y-49110857D01*
X136233537Y-49044736D01*
X136233537Y-49044735D01*
X136233537Y-49044732D01*
X136233565Y-49044652D01*
X136233777Y-49043456D01*
X136260180Y-48903344D01*
X136478842Y-43874114D01*
X136501420Y-43807993D01*
X136556162Y-43764575D01*
X136602725Y-43755500D01*
X144120500Y-43755500D01*
X144187539Y-43775185D01*
X144233294Y-43827989D01*
X144244500Y-43879500D01*
X144244500Y-49376000D01*
X144244501Y-49376009D01*
X144256052Y-49483450D01*
X144256054Y-49483462D01*
X144267260Y-49534972D01*
X144301383Y-49637497D01*
X144301386Y-49637503D01*
X144379171Y-49758537D01*
X144379179Y-49758548D01*
X144424925Y-49811342D01*
X144424927Y-49811345D01*
X144482369Y-49861119D01*
X144520143Y-49919897D01*
X144520143Y-49989767D01*
X144482368Y-50048544D01*
X144470059Y-50057932D01*
X144439709Y-50078211D01*
X144328213Y-50189707D01*
X144328210Y-50189711D01*
X144240609Y-50320814D01*
X144240602Y-50320827D01*
X144180264Y-50466498D01*
X144180261Y-50466510D01*
X144149500Y-50621153D01*
X144149500Y-51778846D01*
X144180261Y-51933489D01*
X144180264Y-51933501D01*
X144240602Y-52079172D01*
X144240609Y-52079185D01*
X144328210Y-52210288D01*
X144328213Y-52210292D01*
X144439707Y-52321786D01*
X144439711Y-52321789D01*
X144570814Y-52409390D01*
X144570827Y-52409397D01*
X144716498Y-52469735D01*
X144716503Y-52469737D01*
X144871153Y-52500499D01*
X144871156Y-52500500D01*
X144871158Y-52500500D01*
X145028844Y-52500500D01*
X145028845Y-52500499D01*
X145183497Y-52469737D01*
X145329179Y-52409394D01*
X145460289Y-52321789D01*
X145571789Y-52210289D01*
X145659394Y-52079179D01*
X145719737Y-51933497D01*
X145750500Y-51778842D01*
X145750500Y-50621158D01*
X145750500Y-50621155D01*
X145750499Y-50621153D01*
X145719738Y-50466510D01*
X145719737Y-50466503D01*
X145691110Y-50397390D01*
X145659397Y-50320827D01*
X145659390Y-50320814D01*
X145577589Y-50198391D01*
X145556711Y-50131714D01*
X145575195Y-50064333D01*
X145627174Y-50017643D01*
X145680691Y-50005500D01*
X151870500Y-50005500D01*
X151937539Y-50025185D01*
X151983294Y-50077989D01*
X151994500Y-50129500D01*
X151994500Y-57199999D01*
X151994500Y-60126000D01*
X151994501Y-60126009D01*
X152006052Y-60233450D01*
X152006054Y-60233462D01*
X152017260Y-60284972D01*
X152051383Y-60387497D01*
X152051386Y-60387503D01*
X152129171Y-60508537D01*
X152129179Y-60508548D01*
X152174923Y-60561340D01*
X152174926Y-60561343D01*
X152174930Y-60561347D01*
X152283664Y-60655567D01*
X152283667Y-60655568D01*
X152283668Y-60655569D01*
X152377925Y-60698616D01*
X152414541Y-60715338D01*
X152481580Y-60735023D01*
X152481584Y-60735024D01*
X152624000Y-60755500D01*
X152624003Y-60755500D01*
X158375990Y-60755500D01*
X158376000Y-60755500D01*
X158483456Y-60743947D01*
X158534967Y-60732741D01*
X158573334Y-60719971D01*
X158637497Y-60698616D01*
X158637501Y-60698613D01*
X158637504Y-60698613D01*
X158758543Y-60620825D01*
X158811347Y-60575070D01*
X158905567Y-60466336D01*
X158965338Y-60335459D01*
X158985023Y-60268420D01*
X158985024Y-60268416D01*
X159005500Y-60126000D01*
X159005500Y-54374000D01*
X158993947Y-54266544D01*
X158982741Y-54215033D01*
X158961278Y-54150547D01*
X158948616Y-54112502D01*
X158948613Y-54112496D01*
X158870828Y-53991462D01*
X158870825Y-53991457D01*
X158870073Y-53990589D01*
X158825076Y-53938659D01*
X158825072Y-53938656D01*
X158825070Y-53938653D01*
X158716336Y-53844433D01*
X158716333Y-53844431D01*
X158716331Y-53844430D01*
X158585465Y-53784664D01*
X158585460Y-53784662D01*
X158585459Y-53784662D01*
X158518420Y-53764977D01*
X158518422Y-53764977D01*
X158518417Y-53764976D01*
X158470944Y-53758150D01*
X158376000Y-53744500D01*
X158375998Y-53744500D01*
X158129500Y-53744500D01*
X158062461Y-53724815D01*
X158016706Y-53672011D01*
X158005500Y-53620500D01*
X158005500Y-52567915D01*
X158025185Y-52500876D01*
X158077989Y-52455121D01*
X158147147Y-52445177D01*
X158176951Y-52453354D01*
X158181217Y-52455121D01*
X158216497Y-52469735D01*
X158216499Y-52469735D01*
X158216503Y-52469737D01*
X158371153Y-52500499D01*
X158371156Y-52500500D01*
X158371158Y-52500500D01*
X158528844Y-52500500D01*
X158528845Y-52500499D01*
X158683497Y-52469737D01*
X158829179Y-52409394D01*
X158960289Y-52321789D01*
X159071789Y-52210289D01*
X159159394Y-52079179D01*
X159219737Y-51933497D01*
X159250500Y-51778842D01*
X159250500Y-50621158D01*
X159250500Y-50621155D01*
X159250499Y-50621153D01*
X159219738Y-50466510D01*
X159219737Y-50466503D01*
X159191110Y-50397390D01*
X159159397Y-50320827D01*
X159159390Y-50320814D01*
X159071789Y-50189711D01*
X159071786Y-50189707D01*
X158960292Y-50078213D01*
X158960288Y-50078210D01*
X158829185Y-49990609D01*
X158829172Y-49990602D01*
X158683501Y-49930264D01*
X158683489Y-49930261D01*
X158528845Y-49899500D01*
X158528842Y-49899500D01*
X158371158Y-49899500D01*
X158371155Y-49899500D01*
X158216510Y-49930261D01*
X158216498Y-49930264D01*
X158176952Y-49946645D01*
X158107483Y-49954114D01*
X158045004Y-49922838D01*
X158009352Y-49862749D01*
X158005500Y-49832084D01*
X158005500Y-44999998D01*
X162994390Y-44999998D01*
X162994390Y-45000001D01*
X163014804Y-45285433D01*
X163075628Y-45565037D01*
X163175635Y-45833166D01*
X163312770Y-46084309D01*
X163312775Y-46084317D01*
X163484254Y-46313387D01*
X163484270Y-46313405D01*
X163686594Y-46515729D01*
X163686612Y-46515745D01*
X163915682Y-46687224D01*
X163915690Y-46687229D01*
X164166833Y-46824364D01*
X164166832Y-46824364D01*
X164166836Y-46824365D01*
X164166839Y-46824367D01*
X164434954Y-46924369D01*
X164434960Y-46924370D01*
X164434962Y-46924371D01*
X164714566Y-46985195D01*
X164714568Y-46985195D01*
X164714572Y-46985196D01*
X164968220Y-47003337D01*
X164999999Y-47005610D01*
X165000000Y-47005610D01*
X165000001Y-47005610D01*
X165028595Y-47003564D01*
X165285428Y-46985196D01*
X165565046Y-46924369D01*
X165833161Y-46824367D01*
X166084315Y-46687226D01*
X166313395Y-46515739D01*
X166515739Y-46313395D01*
X166687226Y-46084315D01*
X166824367Y-45833161D01*
X166924369Y-45565046D01*
X166985196Y-45285428D01*
X167005610Y-45000000D01*
X166985196Y-44714572D01*
X166924369Y-44434954D01*
X166824367Y-44166839D01*
X166687226Y-43915685D01*
X166687224Y-43915682D01*
X166515745Y-43686612D01*
X166515729Y-43686594D01*
X166313405Y-43484270D01*
X166313387Y-43484254D01*
X166084317Y-43312775D01*
X166084309Y-43312770D01*
X165833166Y-43175635D01*
X165833167Y-43175635D01*
X165725915Y-43135632D01*
X165565046Y-43075631D01*
X165565043Y-43075630D01*
X165565037Y-43075628D01*
X165285433Y-43014804D01*
X165000001Y-42994390D01*
X164999999Y-42994390D01*
X164714566Y-43014804D01*
X164434962Y-43075628D01*
X164166833Y-43175635D01*
X163915690Y-43312770D01*
X163915682Y-43312775D01*
X163686612Y-43484254D01*
X163686594Y-43484270D01*
X163484270Y-43686594D01*
X163484254Y-43686612D01*
X163312775Y-43915682D01*
X163312770Y-43915690D01*
X163175635Y-44166833D01*
X163075628Y-44434962D01*
X163014804Y-44714566D01*
X162994390Y-44999998D01*
X158005500Y-44999998D01*
X158005500Y-40123694D01*
X158005499Y-40123687D01*
X157994081Y-40016854D01*
X157983003Y-39965623D01*
X157965907Y-39913940D01*
X157963544Y-39844111D01*
X157999308Y-39784089D01*
X158061845Y-39752930D01*
X158083635Y-39751000D01*
X170310000Y-39751000D01*
X170377039Y-39770685D01*
X170422794Y-39823489D01*
X170434000Y-39875000D01*
X170434000Y-82045000D01*
X170414315Y-82112039D01*
X170361511Y-82157794D01*
X170310000Y-82169000D01*
X68196000Y-82169000D01*
X68128961Y-82149315D01*
X68083206Y-82096511D01*
X68072000Y-82045000D01*
X68072000Y-74999998D01*
X70794390Y-74999998D01*
X70794390Y-75000001D01*
X70814804Y-75285433D01*
X70875628Y-75565037D01*
X70975635Y-75833166D01*
X71112770Y-76084309D01*
X71112775Y-76084317D01*
X71284254Y-76313387D01*
X71284270Y-76313405D01*
X71486594Y-76515729D01*
X71486612Y-76515745D01*
X71715682Y-76687224D01*
X71715690Y-76687229D01*
X71966833Y-76824364D01*
X71966832Y-76824364D01*
X71966836Y-76824365D01*
X71966839Y-76824367D01*
X72234954Y-76924369D01*
X72234960Y-76924370D01*
X72234962Y-76924371D01*
X72514566Y-76985195D01*
X72514568Y-76985195D01*
X72514572Y-76985196D01*
X72768220Y-77003337D01*
X72799999Y-77005610D01*
X72800000Y-77005610D01*
X72800001Y-77005610D01*
X72828595Y-77003564D01*
X73085428Y-76985196D01*
X73365046Y-76924369D01*
X73633161Y-76824367D01*
X73884315Y-76687226D01*
X74113395Y-76515739D01*
X74315739Y-76313395D01*
X74487226Y-76084315D01*
X74624367Y-75833161D01*
X74724369Y-75565046D01*
X74785196Y-75285428D01*
X74805610Y-75000000D01*
X74805610Y-74999998D01*
X162994390Y-74999998D01*
X162994390Y-75000001D01*
X163014804Y-75285433D01*
X163075628Y-75565037D01*
X163175635Y-75833166D01*
X163312770Y-76084309D01*
X163312775Y-76084317D01*
X163484254Y-76313387D01*
X163484270Y-76313405D01*
X163686594Y-76515729D01*
X163686612Y-76515745D01*
X163915682Y-76687224D01*
X163915690Y-76687229D01*
X164166833Y-76824364D01*
X164166832Y-76824364D01*
X164166836Y-76824365D01*
X164166839Y-76824367D01*
X164434954Y-76924369D01*
X164434960Y-76924370D01*
X164434962Y-76924371D01*
X164714566Y-76985195D01*
X164714568Y-76985195D01*
X164714572Y-76985196D01*
X164968220Y-77003337D01*
X164999999Y-77005610D01*
X165000000Y-77005610D01*
X165000001Y-77005610D01*
X165028595Y-77003564D01*
X165285428Y-76985196D01*
X165565046Y-76924369D01*
X165833161Y-76824367D01*
X166084315Y-76687226D01*
X166313395Y-76515739D01*
X166515739Y-76313395D01*
X166687226Y-76084315D01*
X166824367Y-75833161D01*
X166924369Y-75565046D01*
X166985196Y-75285428D01*
X167005610Y-75000000D01*
X166985196Y-74714572D01*
X166924369Y-74434954D01*
X166824367Y-74166839D01*
X166687226Y-73915685D01*
X166687224Y-73915682D01*
X166515745Y-73686612D01*
X166515729Y-73686594D01*
X166313405Y-73484270D01*
X166313387Y-73484254D01*
X166084317Y-73312775D01*
X166084309Y-73312770D01*
X165833166Y-73175635D01*
X165833167Y-73175635D01*
X165725915Y-73135632D01*
X165565046Y-73075631D01*
X165565043Y-73075630D01*
X165565037Y-73075628D01*
X165285433Y-73014804D01*
X165000001Y-72994390D01*
X164999999Y-72994390D01*
X164714566Y-73014804D01*
X164434962Y-73075628D01*
X164166833Y-73175635D01*
X163915690Y-73312770D01*
X163915682Y-73312775D01*
X163686612Y-73484254D01*
X163686594Y-73484270D01*
X163484270Y-73686594D01*
X163484254Y-73686612D01*
X163312775Y-73915682D01*
X163312770Y-73915690D01*
X163175635Y-74166833D01*
X163075628Y-74434962D01*
X163014804Y-74714566D01*
X162994390Y-74999998D01*
X74805610Y-74999998D01*
X74785196Y-74714572D01*
X74724369Y-74434954D01*
X74624367Y-74166839D01*
X74487226Y-73915685D01*
X74487224Y-73915682D01*
X74315745Y-73686612D01*
X74315729Y-73686594D01*
X74113405Y-73484270D01*
X74113387Y-73484254D01*
X73884317Y-73312775D01*
X73884309Y-73312770D01*
X73633166Y-73175635D01*
X73633167Y-73175635D01*
X73525915Y-73135632D01*
X73365046Y-73075631D01*
X73365043Y-73075630D01*
X73365037Y-73075628D01*
X73085433Y-73014804D01*
X72800001Y-72994390D01*
X72799999Y-72994390D01*
X72514566Y-73014804D01*
X72234962Y-73075628D01*
X71966833Y-73175635D01*
X71715690Y-73312770D01*
X71715682Y-73312775D01*
X71486612Y-73484254D01*
X71486594Y-73484270D01*
X71284270Y-73686594D01*
X71284254Y-73686612D01*
X71112775Y-73915682D01*
X71112770Y-73915690D01*
X70975635Y-74166833D01*
X70875628Y-74434962D01*
X70814804Y-74714566D01*
X70794390Y-74999998D01*
X68072000Y-74999998D01*
X68072000Y-70013155D01*
X79758000Y-70013155D01*
X79758000Y-70661000D01*
X80674988Y-70661000D01*
X80642075Y-70718007D01*
X80608000Y-70845174D01*
X80608000Y-70976826D01*
X80642075Y-71103993D01*
X80674988Y-71161000D01*
X79758000Y-71161000D01*
X79758000Y-71808844D01*
X79764401Y-71868372D01*
X79764403Y-71868379D01*
X79814645Y-72003086D01*
X79814649Y-72003093D01*
X79900809Y-72118187D01*
X79900812Y-72118190D01*
X80015906Y-72204350D01*
X80015913Y-72204354D01*
X80150620Y-72254596D01*
X80150627Y-72254598D01*
X80210155Y-72260999D01*
X80210172Y-72261000D01*
X80858000Y-72261000D01*
X80858000Y-71344012D01*
X80915007Y-71376925D01*
X81042174Y-71411000D01*
X81173826Y-71411000D01*
X81300993Y-71376925D01*
X81358000Y-71344012D01*
X81358000Y-72261000D01*
X82005828Y-72261000D01*
X82005844Y-72260999D01*
X82065372Y-72254598D01*
X82065379Y-72254596D01*
X82200086Y-72204354D01*
X82200093Y-72204350D01*
X82315187Y-72118190D01*
X82315190Y-72118187D01*
X82401350Y-72003093D01*
X82401354Y-72003086D01*
X82451596Y-71868379D01*
X82451598Y-71868372D01*
X82457999Y-71808844D01*
X82458000Y-71808827D01*
X82458000Y-71408186D01*
X82477685Y-71341147D01*
X82530489Y-71295392D01*
X82599647Y-71285448D01*
X82663203Y-71314473D01*
X82691356Y-71349729D01*
X82770315Y-71497450D01*
X82770317Y-71497452D01*
X82901589Y-71657410D01*
X82945048Y-71693075D01*
X83061550Y-71788685D01*
X83244046Y-71886232D01*
X83442066Y-71946300D01*
X83442065Y-71946300D01*
X83460529Y-71948118D01*
X83648000Y-71966583D01*
X83853934Y-71946300D01*
X84051954Y-71886232D01*
X84234450Y-71788685D01*
X84394410Y-71657410D01*
X84525685Y-71497450D01*
X84623232Y-71314954D01*
X84683300Y-71116934D01*
X84703583Y-70911000D01*
X84683300Y-70705066D01*
X84623232Y-70507046D01*
X84525685Y-70324550D01*
X84473702Y-70261209D01*
X84394410Y-70164589D01*
X84234452Y-70033317D01*
X84234453Y-70033317D01*
X84234450Y-70033315D01*
X84051954Y-69935768D01*
X83853934Y-69875700D01*
X83853932Y-69875699D01*
X83853934Y-69875699D01*
X83648000Y-69855417D01*
X83442067Y-69875699D01*
X83244043Y-69935769D01*
X83210634Y-69953627D01*
X83061550Y-70033315D01*
X83061548Y-70033316D01*
X83061547Y-70033317D01*
X82901589Y-70164589D01*
X82770317Y-70324547D01*
X82770315Y-70324550D01*
X82698887Y-70458181D01*
X82691358Y-70472267D01*
X82642395Y-70522111D01*
X82574257Y-70537571D01*
X82508578Y-70513739D01*
X82466209Y-70458181D01*
X82458000Y-70413813D01*
X82458000Y-70013172D01*
X82457999Y-70013155D01*
X82451598Y-69953627D01*
X82451596Y-69953620D01*
X82401354Y-69818913D01*
X82401350Y-69818906D01*
X82315190Y-69703812D01*
X82315187Y-69703809D01*
X82200093Y-69617649D01*
X82200086Y-69617645D01*
X82065379Y-69567403D01*
X82065372Y-69567401D01*
X82005844Y-69561000D01*
X81358000Y-69561000D01*
X81358000Y-70477988D01*
X81300993Y-70445075D01*
X81173826Y-70411000D01*
X81042174Y-70411000D01*
X80915007Y-70445075D01*
X80858000Y-70477988D01*
X80858000Y-69561000D01*
X80210155Y-69561000D01*
X80150627Y-69567401D01*
X80150620Y-69567403D01*
X80015913Y-69617645D01*
X80015906Y-69617649D01*
X79900812Y-69703809D01*
X79900809Y-69703812D01*
X79814649Y-69818906D01*
X79814645Y-69818913D01*
X79764403Y-69953620D01*
X79764401Y-69953627D01*
X79758000Y-70013155D01*
X68072000Y-70013155D01*
X68072000Y-66006155D01*
X79758000Y-66006155D01*
X79758000Y-66654000D01*
X80674988Y-66654000D01*
X80642075Y-66711007D01*
X80608000Y-66838174D01*
X80608000Y-66969826D01*
X80642075Y-67096993D01*
X80674988Y-67154000D01*
X79758000Y-67154000D01*
X79758000Y-67801844D01*
X79764401Y-67861372D01*
X79764403Y-67861379D01*
X79814645Y-67996086D01*
X79814649Y-67996093D01*
X79900809Y-68111187D01*
X79900812Y-68111190D01*
X80015906Y-68197350D01*
X80015913Y-68197354D01*
X80150620Y-68247596D01*
X80150627Y-68247598D01*
X80210155Y-68253999D01*
X80210172Y-68254000D01*
X80858000Y-68254000D01*
X80858000Y-67337012D01*
X80915007Y-67369925D01*
X81042174Y-67404000D01*
X81173826Y-67404000D01*
X81300993Y-67369925D01*
X81358000Y-67337012D01*
X81358000Y-68254000D01*
X82005828Y-68254000D01*
X82005844Y-68253999D01*
X82065372Y-68247598D01*
X82065379Y-68247596D01*
X82200086Y-68197354D01*
X82200093Y-68197350D01*
X82315187Y-68111190D01*
X82315190Y-68111187D01*
X82401350Y-67996093D01*
X82401354Y-67996086D01*
X82451596Y-67861379D01*
X82451598Y-67861372D01*
X82457999Y-67801844D01*
X82458000Y-67801827D01*
X82458000Y-67154000D01*
X81541012Y-67154000D01*
X81573925Y-67096993D01*
X81608000Y-66969826D01*
X81608000Y-66838174D01*
X81573925Y-66711007D01*
X81541012Y-66654000D01*
X82458000Y-66654000D01*
X82458000Y-66006172D01*
X82457999Y-66006155D01*
X82451598Y-65946627D01*
X82451596Y-65946620D01*
X82401354Y-65811913D01*
X82401350Y-65811906D01*
X82315190Y-65696812D01*
X82315187Y-65696809D01*
X82200093Y-65610649D01*
X82200086Y-65610645D01*
X82065379Y-65560403D01*
X82065372Y-65560401D01*
X82005844Y-65554000D01*
X81358000Y-65554000D01*
X81358000Y-66470988D01*
X81300993Y-66438075D01*
X81173826Y-66404000D01*
X81042174Y-66404000D01*
X80915007Y-66438075D01*
X80858000Y-66470988D01*
X80858000Y-65554000D01*
X80210155Y-65554000D01*
X80150627Y-65560401D01*
X80150620Y-65560403D01*
X80015913Y-65610645D01*
X80015906Y-65610649D01*
X79900812Y-65696809D01*
X79900809Y-65696812D01*
X79814649Y-65811906D01*
X79814645Y-65811913D01*
X79764403Y-65946620D01*
X79764401Y-65946627D01*
X79758000Y-66006155D01*
X68072000Y-66006155D01*
X68072000Y-57277000D01*
X81494417Y-57277000D01*
X81514699Y-57482932D01*
X81536122Y-57553553D01*
X81574768Y-57680954D01*
X81672315Y-57863450D01*
X81672317Y-57863452D01*
X81803589Y-58023410D01*
X81878939Y-58085247D01*
X81963550Y-58154685D01*
X82146046Y-58252232D01*
X82344066Y-58312300D01*
X82344065Y-58312300D01*
X82362529Y-58314118D01*
X82550000Y-58332583D01*
X82755934Y-58312300D01*
X82953954Y-58252232D01*
X83136450Y-58154685D01*
X83296410Y-58023410D01*
X83427685Y-57863450D01*
X83525232Y-57680954D01*
X83585300Y-57482934D01*
X83605583Y-57277000D01*
X84034417Y-57277000D01*
X84054699Y-57482932D01*
X84076122Y-57553553D01*
X84114768Y-57680954D01*
X84212315Y-57863450D01*
X84212317Y-57863452D01*
X84343589Y-58023410D01*
X84418939Y-58085247D01*
X84503550Y-58154685D01*
X84686046Y-58252232D01*
X84884066Y-58312300D01*
X84884065Y-58312300D01*
X84902529Y-58314118D01*
X85090000Y-58332583D01*
X85295934Y-58312300D01*
X85493954Y-58252232D01*
X85676450Y-58154685D01*
X85836410Y-58023410D01*
X85967685Y-57863450D01*
X86065232Y-57680954D01*
X86125300Y-57482934D01*
X86145583Y-57277000D01*
X86125300Y-57071066D01*
X86065232Y-56873046D01*
X85967685Y-56690550D01*
X85894981Y-56601959D01*
X85836410Y-56530589D01*
X85676452Y-56399317D01*
X85676453Y-56399317D01*
X85676450Y-56399315D01*
X85493954Y-56301768D01*
X85295934Y-56241700D01*
X85295932Y-56241699D01*
X85295934Y-56241699D01*
X85090000Y-56221417D01*
X84884067Y-56241699D01*
X84686043Y-56301769D01*
X84575898Y-56360643D01*
X84503550Y-56399315D01*
X84503548Y-56399316D01*
X84503547Y-56399317D01*
X84343589Y-56530589D01*
X84212317Y-56690547D01*
X84114769Y-56873043D01*
X84054699Y-57071067D01*
X84034417Y-57277000D01*
X83605583Y-57277000D01*
X83585300Y-57071066D01*
X83525232Y-56873046D01*
X83427685Y-56690550D01*
X83354981Y-56601959D01*
X83296410Y-56530589D01*
X83136452Y-56399317D01*
X83136453Y-56399317D01*
X83136450Y-56399315D01*
X82953954Y-56301768D01*
X82755934Y-56241700D01*
X82755932Y-56241699D01*
X82755934Y-56241699D01*
X82550000Y-56221417D01*
X82344067Y-56241699D01*
X82146043Y-56301769D01*
X82035898Y-56360643D01*
X81963550Y-56399315D01*
X81963548Y-56399316D01*
X81963547Y-56399317D01*
X81803589Y-56530589D01*
X81672317Y-56690547D01*
X81574769Y-56873043D01*
X81514699Y-57071067D01*
X81494417Y-57277000D01*
X68072000Y-57277000D01*
X68072000Y-54737000D01*
X81494417Y-54737000D01*
X81514699Y-54942932D01*
X81544734Y-55041944D01*
X81574768Y-55140954D01*
X81672315Y-55323450D01*
X81706969Y-55365677D01*
X81803589Y-55483410D01*
X81900209Y-55562702D01*
X81963550Y-55614685D01*
X82146046Y-55712232D01*
X82344066Y-55772300D01*
X82344065Y-55772300D01*
X82362529Y-55774118D01*
X82550000Y-55792583D01*
X82755934Y-55772300D01*
X82953954Y-55712232D01*
X83136450Y-55614685D01*
X83296410Y-55483410D01*
X83427685Y-55323450D01*
X83525232Y-55140954D01*
X83585300Y-54942934D01*
X83605583Y-54737000D01*
X84034417Y-54737000D01*
X84054699Y-54942932D01*
X84084734Y-55041944D01*
X84114768Y-55140954D01*
X84212315Y-55323450D01*
X84246969Y-55365677D01*
X84343589Y-55483410D01*
X84440209Y-55562702D01*
X84503550Y-55614685D01*
X84686046Y-55712232D01*
X84884066Y-55772300D01*
X84884065Y-55772300D01*
X84902529Y-55774118D01*
X85090000Y-55792583D01*
X85295934Y-55772300D01*
X85493954Y-55712232D01*
X85676450Y-55614685D01*
X85836410Y-55483410D01*
X85967685Y-55323450D01*
X86065232Y-55140954D01*
X86125300Y-54942934D01*
X86145583Y-54737000D01*
X86125300Y-54531066D01*
X86065232Y-54333046D01*
X85967685Y-54150550D01*
X85837117Y-53991451D01*
X85836410Y-53990589D01*
X85676452Y-53859317D01*
X85676453Y-53859317D01*
X85676450Y-53859315D01*
X85493954Y-53761768D01*
X85295934Y-53701700D01*
X85295932Y-53701699D01*
X85295934Y-53701699D01*
X85090000Y-53681417D01*
X84884067Y-53701699D01*
X84686043Y-53761769D01*
X84575898Y-53820643D01*
X84503550Y-53859315D01*
X84503548Y-53859316D01*
X84503547Y-53859317D01*
X84343589Y-53990589D01*
X84212317Y-54150547D01*
X84114769Y-54333043D01*
X84054699Y-54531067D01*
X84034417Y-54737000D01*
X83605583Y-54737000D01*
X83585300Y-54531066D01*
X83525232Y-54333046D01*
X83427685Y-54150550D01*
X83297117Y-53991451D01*
X83296410Y-53990589D01*
X83136452Y-53859317D01*
X83136453Y-53859317D01*
X83136450Y-53859315D01*
X82953954Y-53761768D01*
X82755934Y-53701700D01*
X82755932Y-53701699D01*
X82755934Y-53701699D01*
X82550000Y-53681417D01*
X82344067Y-53701699D01*
X82146043Y-53761769D01*
X82035898Y-53820643D01*
X81963550Y-53859315D01*
X81963548Y-53859316D01*
X81963547Y-53859317D01*
X81803589Y-53990589D01*
X81672317Y-54150547D01*
X81574769Y-54333043D01*
X81514699Y-54531067D01*
X81494417Y-54737000D01*
X68072000Y-54737000D01*
X68072000Y-52197000D01*
X81494417Y-52197000D01*
X81514699Y-52402932D01*
X81544296Y-52500499D01*
X81574768Y-52600954D01*
X81672315Y-52783450D01*
X81672317Y-52783452D01*
X81803589Y-52943410D01*
X81900209Y-53022702D01*
X81963550Y-53074685D01*
X82146046Y-53172232D01*
X82344066Y-53232300D01*
X82344065Y-53232300D01*
X82362529Y-53234118D01*
X82550000Y-53252583D01*
X82755934Y-53232300D01*
X82953954Y-53172232D01*
X83136450Y-53074685D01*
X83296410Y-52943410D01*
X83427685Y-52783450D01*
X83525232Y-52600954D01*
X83585300Y-52402934D01*
X83605583Y-52197000D01*
X84034417Y-52197000D01*
X84054699Y-52402932D01*
X84084296Y-52500499D01*
X84114768Y-52600954D01*
X84212315Y-52783450D01*
X84212317Y-52783452D01*
X84343589Y-52943410D01*
X84440209Y-53022702D01*
X84503550Y-53074685D01*
X84686046Y-53172232D01*
X84884066Y-53232300D01*
X84884065Y-53232300D01*
X84902529Y-53234118D01*
X85090000Y-53252583D01*
X85295934Y-53232300D01*
X85493954Y-53172232D01*
X85676450Y-53074685D01*
X85836410Y-52943410D01*
X85967685Y-52783450D01*
X86065232Y-52600954D01*
X86125300Y-52402934D01*
X86145583Y-52197000D01*
X86125300Y-51991066D01*
X86065232Y-51793046D01*
X85967685Y-51610550D01*
X85915702Y-51547209D01*
X85836410Y-51450589D01*
X85676452Y-51319317D01*
X85676453Y-51319317D01*
X85676450Y-51319315D01*
X85493954Y-51221768D01*
X85295934Y-51161700D01*
X85295932Y-51161699D01*
X85295934Y-51161699D01*
X85090000Y-51141417D01*
X84884067Y-51161699D01*
X84686043Y-51221769D01*
X84620304Y-51256908D01*
X84503550Y-51319315D01*
X84503548Y-51319316D01*
X84503547Y-51319317D01*
X84343589Y-51450589D01*
X84212317Y-51610547D01*
X84212315Y-51610550D01*
X84173643Y-51682898D01*
X84114769Y-51793043D01*
X84054699Y-51991067D01*
X84034417Y-52197000D01*
X83605583Y-52197000D01*
X83585300Y-51991066D01*
X83525232Y-51793046D01*
X83427685Y-51610550D01*
X83375702Y-51547209D01*
X83296410Y-51450589D01*
X83136452Y-51319317D01*
X83136453Y-51319317D01*
X83136450Y-51319315D01*
X82953954Y-51221768D01*
X82755934Y-51161700D01*
X82755932Y-51161699D01*
X82755934Y-51161699D01*
X82550000Y-51141417D01*
X82344067Y-51161699D01*
X82146043Y-51221769D01*
X82080304Y-51256908D01*
X81963550Y-51319315D01*
X81963548Y-51319316D01*
X81963547Y-51319317D01*
X81803589Y-51450589D01*
X81672317Y-51610547D01*
X81672315Y-51610550D01*
X81633643Y-51682898D01*
X81574769Y-51793043D01*
X81514699Y-51991067D01*
X81494417Y-52197000D01*
X68072000Y-52197000D01*
X68072000Y-44999998D01*
X70794390Y-44999998D01*
X70794390Y-45000001D01*
X70814804Y-45285433D01*
X70875628Y-45565037D01*
X70975635Y-45833166D01*
X71112770Y-46084309D01*
X71112775Y-46084317D01*
X71284254Y-46313387D01*
X71284270Y-46313405D01*
X71486594Y-46515729D01*
X71486612Y-46515745D01*
X71715682Y-46687224D01*
X71715690Y-46687229D01*
X71966833Y-46824364D01*
X71966832Y-46824364D01*
X71966836Y-46824365D01*
X71966839Y-46824367D01*
X72234954Y-46924369D01*
X72234960Y-46924370D01*
X72234962Y-46924371D01*
X72514566Y-46985195D01*
X72514568Y-46985195D01*
X72514572Y-46985196D01*
X72768220Y-47003337D01*
X72799999Y-47005610D01*
X72800000Y-47005610D01*
X72800001Y-47005610D01*
X72828595Y-47003564D01*
X73085428Y-46985196D01*
X73365046Y-46924369D01*
X73633161Y-46824367D01*
X73884315Y-46687226D01*
X74113395Y-46515739D01*
X74162121Y-46467013D01*
X81200000Y-46467013D01*
X81200000Y-46867000D01*
X82116988Y-46867000D01*
X82084075Y-46924007D01*
X82050000Y-47051174D01*
X82050000Y-47182826D01*
X82084075Y-47309993D01*
X82116988Y-47367000D01*
X81200001Y-47367000D01*
X81200001Y-47766986D01*
X81210494Y-47869697D01*
X81265641Y-48036119D01*
X81265643Y-48036124D01*
X81357684Y-48185345D01*
X81481654Y-48309315D01*
X81630875Y-48401356D01*
X81630880Y-48401358D01*
X81797302Y-48456505D01*
X81797309Y-48456506D01*
X81900019Y-48466999D01*
X82052812Y-48466999D01*
X82119852Y-48486683D01*
X82165607Y-48539487D01*
X82175551Y-48608645D01*
X82146526Y-48672201D01*
X82111267Y-48700357D01*
X82007835Y-48755643D01*
X81963550Y-48779315D01*
X81963548Y-48779316D01*
X81963547Y-48779317D01*
X81803589Y-48910589D01*
X81672317Y-49070547D01*
X81574769Y-49253043D01*
X81514699Y-49451067D01*
X81494417Y-49657000D01*
X81514699Y-49862932D01*
X81531884Y-49919583D01*
X81574768Y-50060954D01*
X81672315Y-50243450D01*
X81672317Y-50243452D01*
X81803589Y-50403410D01*
X81880463Y-50466498D01*
X81963550Y-50534685D01*
X82146046Y-50632232D01*
X82344066Y-50692300D01*
X82344065Y-50692300D01*
X82362529Y-50694118D01*
X82550000Y-50712583D01*
X82755934Y-50692300D01*
X82953954Y-50632232D01*
X83136450Y-50534685D01*
X83296410Y-50403410D01*
X83427685Y-50243450D01*
X83525232Y-50060954D01*
X83585300Y-49862934D01*
X83605583Y-49657000D01*
X84034417Y-49657000D01*
X84054699Y-49862932D01*
X84071884Y-49919583D01*
X84114768Y-50060954D01*
X84212315Y-50243450D01*
X84212317Y-50243452D01*
X84343589Y-50403410D01*
X84420463Y-50466498D01*
X84503550Y-50534685D01*
X84686046Y-50632232D01*
X84884066Y-50692300D01*
X84884065Y-50692300D01*
X84902529Y-50694118D01*
X85090000Y-50712583D01*
X85295934Y-50692300D01*
X85493954Y-50632232D01*
X85676450Y-50534685D01*
X85836410Y-50403410D01*
X85967685Y-50243450D01*
X86065232Y-50060954D01*
X86125300Y-49862934D01*
X86145583Y-49657000D01*
X86125300Y-49451066D01*
X86065232Y-49253046D01*
X85967685Y-49070550D01*
X85896712Y-48984069D01*
X85836410Y-48910589D01*
X85676452Y-48779317D01*
X85676453Y-48779317D01*
X85676450Y-48779315D01*
X85493954Y-48681768D01*
X85295934Y-48621700D01*
X85295932Y-48621699D01*
X85295934Y-48621699D01*
X85090000Y-48601417D01*
X84884067Y-48621699D01*
X84686043Y-48681769D01*
X84575898Y-48740643D01*
X84503550Y-48779315D01*
X84503548Y-48779316D01*
X84503547Y-48779317D01*
X84343589Y-48910589D01*
X84212317Y-49070547D01*
X84114769Y-49253043D01*
X84054699Y-49451067D01*
X84034417Y-49657000D01*
X83605583Y-49657000D01*
X83585300Y-49451066D01*
X83525232Y-49253046D01*
X83427685Y-49070550D01*
X83356712Y-48984069D01*
X83296410Y-48910589D01*
X83136452Y-48779317D01*
X83136453Y-48779317D01*
X83136450Y-48779315D01*
X82988730Y-48700356D01*
X82938887Y-48651394D01*
X82923427Y-48583256D01*
X82947259Y-48517577D01*
X83002817Y-48475208D01*
X83047185Y-48466999D01*
X83199971Y-48466999D01*
X83199987Y-48466998D01*
X83302697Y-48456505D01*
X83469119Y-48401358D01*
X83469124Y-48401356D01*
X83618345Y-48309315D01*
X83742315Y-48185345D01*
X83834356Y-48036124D01*
X83834358Y-48036119D01*
X83889505Y-47869697D01*
X83889506Y-47869690D01*
X83899999Y-47766986D01*
X83899999Y-47614187D01*
X83919683Y-47547147D01*
X83972487Y-47501392D01*
X84041645Y-47491448D01*
X84105201Y-47520473D01*
X84133357Y-47555732D01*
X84212315Y-47703450D01*
X84212317Y-47703452D01*
X84343589Y-47863410D01*
X84440209Y-47942702D01*
X84503550Y-47994685D01*
X84686046Y-48092232D01*
X84884066Y-48152300D01*
X84884065Y-48152300D01*
X84902529Y-48154118D01*
X85090000Y-48172583D01*
X85295934Y-48152300D01*
X85493954Y-48092232D01*
X85676450Y-47994685D01*
X85836410Y-47863410D01*
X85967685Y-47703450D01*
X86065232Y-47520954D01*
X86125300Y-47322934D01*
X86145583Y-47117000D01*
X86125300Y-46911066D01*
X86065232Y-46713046D01*
X85967685Y-46530550D01*
X85915541Y-46467012D01*
X85836410Y-46370589D01*
X85676452Y-46239317D01*
X85676453Y-46239317D01*
X85676450Y-46239315D01*
X85493954Y-46141768D01*
X85295934Y-46081700D01*
X85295932Y-46081699D01*
X85295934Y-46081699D01*
X85090000Y-46061417D01*
X84884067Y-46081699D01*
X84686043Y-46141769D01*
X84581078Y-46197875D01*
X84503550Y-46239315D01*
X84503548Y-46239316D01*
X84503547Y-46239317D01*
X84343589Y-46370589D01*
X84212317Y-46530547D01*
X84133357Y-46678268D01*
X84084394Y-46728112D01*
X84016256Y-46743572D01*
X83950577Y-46719740D01*
X83908208Y-46664182D01*
X83899999Y-46619814D01*
X83899999Y-46467028D01*
X83899998Y-46467012D01*
X83889505Y-46364302D01*
X83834358Y-46197880D01*
X83834356Y-46197875D01*
X83742315Y-46048654D01*
X83618345Y-45924684D01*
X83469124Y-45832643D01*
X83469119Y-45832641D01*
X83302697Y-45777494D01*
X83302690Y-45777493D01*
X83199986Y-45767000D01*
X82800000Y-45767000D01*
X82800000Y-46683988D01*
X82742993Y-46651075D01*
X82615826Y-46617000D01*
X82484174Y-46617000D01*
X82357007Y-46651075D01*
X82300000Y-46683988D01*
X82300000Y-45767000D01*
X81900028Y-45767000D01*
X81900012Y-45767001D01*
X81797302Y-45777494D01*
X81630880Y-45832641D01*
X81630875Y-45832643D01*
X81481654Y-45924684D01*
X81357684Y-46048654D01*
X81265643Y-46197875D01*
X81265641Y-46197880D01*
X81210494Y-46364302D01*
X81210493Y-46364309D01*
X81200000Y-46467013D01*
X74162121Y-46467013D01*
X74315739Y-46313395D01*
X74487226Y-46084315D01*
X74624367Y-45833161D01*
X74724369Y-45565046D01*
X74785196Y-45285428D01*
X74805610Y-45000000D01*
X74785196Y-44714572D01*
X74724369Y-44434954D01*
X74624367Y-44166839D01*
X74487226Y-43915685D01*
X74487224Y-43915682D01*
X74315745Y-43686612D01*
X74315729Y-43686594D01*
X74113405Y-43484270D01*
X74113387Y-43484254D01*
X73884317Y-43312775D01*
X73884309Y-43312770D01*
X73633166Y-43175635D01*
X73633167Y-43175635D01*
X73525915Y-43135632D01*
X73365046Y-43075631D01*
X73365043Y-43075630D01*
X73365037Y-43075628D01*
X73085433Y-43014804D01*
X72800001Y-42994390D01*
X72799999Y-42994390D01*
X72514566Y-43014804D01*
X72234962Y-43075628D01*
X71966833Y-43175635D01*
X71715690Y-43312770D01*
X71715682Y-43312775D01*
X71486612Y-43484254D01*
X71486594Y-43484270D01*
X71284270Y-43686594D01*
X71284254Y-43686612D01*
X71112775Y-43915682D01*
X71112770Y-43915690D01*
X70975635Y-44166833D01*
X70875628Y-44434962D01*
X70814804Y-44714566D01*
X70794390Y-44999998D01*
X68072000Y-44999998D01*
X68072000Y-39875000D01*
X68091685Y-39807961D01*
X68144489Y-39762206D01*
X68196000Y-39751000D01*
X116640824Y-39751000D01*
X116707863Y-39770685D01*
G37*
%TD.AperFunction*%
%TD*%
%TA.AperFunction,Conductor*%
%TO.N,+12V*%
G36*
X126110561Y-50000314D02*
G01*
X126381406Y-50019648D01*
X126398865Y-50022153D01*
X126659900Y-50078823D01*
X126676819Y-50083780D01*
X126927163Y-50176954D01*
X126943213Y-50184267D01*
X127177789Y-50312057D01*
X127192630Y-50321572D01*
X127195767Y-50323914D01*
X127406663Y-50481375D01*
X127420023Y-50492919D01*
X127609176Y-50681490D01*
X127620761Y-50694814D01*
X127781222Y-50908355D01*
X127790794Y-50923185D01*
X127919289Y-51157338D01*
X127926660Y-51173383D01*
X128020595Y-51423412D01*
X128025613Y-51440342D01*
X128083083Y-51701184D01*
X128085645Y-51718655D01*
X128105812Y-51989445D01*
X128106152Y-51998262D01*
X128131615Y-60266373D01*
X146138526Y-60250321D01*
X146149402Y-60250791D01*
X146483606Y-60280006D01*
X146505086Y-60283810D01*
X146643967Y-60321255D01*
X146828998Y-60371144D01*
X146839382Y-60374440D01*
X153415724Y-62785765D01*
X153424299Y-62789280D01*
X153684081Y-62907271D01*
X153700353Y-62916186D01*
X153935713Y-63069081D01*
X153950473Y-63080325D01*
X154160384Y-63266627D01*
X154173301Y-63279947D01*
X154356048Y-63499066D01*
X154361723Y-63506413D01*
X154620060Y-63868084D01*
X154628954Y-63882534D01*
X154687267Y-63993644D01*
X154698761Y-64025488D01*
X154723067Y-64139844D01*
X154725519Y-64173611D01*
X154717989Y-64290279D01*
X154711216Y-64323450D01*
X154672415Y-64433723D01*
X154656924Y-64463825D01*
X154589736Y-64559505D01*
X154566682Y-64584294D01*
X154511977Y-64628959D01*
X154476126Y-64658231D01*
X154447223Y-64675862D01*
X154340040Y-64722551D01*
X154307449Y-64731707D01*
X154202983Y-64746103D01*
X154183132Y-64748839D01*
X154166206Y-64750000D01*
X87240674Y-64750000D01*
X87231867Y-64749687D01*
X86961679Y-64730448D01*
X86944242Y-64727952D01*
X86683834Y-64671560D01*
X86666926Y-64666618D01*
X86417127Y-64573893D01*
X86401091Y-64566606D01*
X86166959Y-64439426D01*
X86152117Y-64429940D01*
X85938366Y-64270866D01*
X85925018Y-64259373D01*
X85735965Y-64071619D01*
X85724379Y-64058350D01*
X85699569Y-64025488D01*
X85563832Y-63845695D01*
X85554246Y-63830921D01*
X85425452Y-63597664D01*
X85418055Y-63581679D01*
X85386740Y-63499066D01*
X85323610Y-63332523D01*
X85318559Y-63315673D01*
X85260369Y-63055642D01*
X85257754Y-63038225D01*
X85247822Y-62911117D01*
X85236652Y-62768165D01*
X85236279Y-62759394D01*
X85231376Y-62048010D01*
X85231634Y-62039140D01*
X85249449Y-61765612D01*
X85251880Y-61747972D01*
X85307790Y-61484228D01*
X85312728Y-61467110D01*
X85405876Y-61214092D01*
X85413206Y-61197883D01*
X85541673Y-60960818D01*
X85551249Y-60945831D01*
X85712368Y-60729642D01*
X85724016Y-60716158D01*
X85914447Y-60525318D01*
X85927902Y-60513646D01*
X86143735Y-60352071D01*
X86158727Y-60342446D01*
X86395489Y-60213486D01*
X86411696Y-60206114D01*
X86664512Y-60112424D01*
X86681617Y-60107451D01*
X86945241Y-60050974D01*
X86962890Y-60048504D01*
X87236336Y-60030105D01*
X87245241Y-60029827D01*
X120413158Y-60187291D01*
X120413164Y-60187290D01*
X122428222Y-60196857D01*
X122405563Y-52009956D01*
X122405856Y-52001102D01*
X122406659Y-51989445D01*
X122424580Y-51729209D01*
X122427057Y-51711668D01*
X122483421Y-51449553D01*
X122488368Y-51432562D01*
X122581526Y-51181154D01*
X122588846Y-51165041D01*
X122716896Y-50929478D01*
X122726438Y-50914573D01*
X122886770Y-50699662D01*
X122898329Y-50686283D01*
X123087655Y-50496433D01*
X123101013Y-50484827D01*
X123315469Y-50323909D01*
X123330353Y-50314322D01*
X123565561Y-50185620D01*
X123581653Y-50178257D01*
X123832796Y-50084405D01*
X123849783Y-50079408D01*
X124111736Y-50022320D01*
X124129270Y-50019794D01*
X124401119Y-50000317D01*
X124409981Y-50000000D01*
X126101733Y-50000000D01*
X126110561Y-50000314D01*
G37*
%TD.AperFunction*%
%TD*%
%TA.AperFunction,Conductor*%
%TO.N,+BATT*%
G36*
X157376310Y-39999692D02*
G01*
X157443298Y-40019543D01*
X157488922Y-40072461D01*
X157500000Y-40123692D01*
X157500000Y-50110650D01*
X157486485Y-50166944D01*
X157430129Y-50277549D01*
X157376597Y-50442302D01*
X157349500Y-50613389D01*
X157349500Y-51786610D01*
X157371261Y-51924008D01*
X157376598Y-51957701D01*
X157430127Y-52122445D01*
X157478704Y-52217784D01*
X157486485Y-52233054D01*
X157500000Y-52289349D01*
X157500000Y-54250000D01*
X158376000Y-54250000D01*
X158443039Y-54269685D01*
X158488794Y-54322489D01*
X158500000Y-54374000D01*
X158500000Y-60126000D01*
X158480315Y-60193039D01*
X158427511Y-60238794D01*
X158376000Y-60250000D01*
X152624000Y-60250000D01*
X152556961Y-60230315D01*
X152511206Y-60177511D01*
X152500000Y-60126000D01*
X152500000Y-57199994D01*
X152895255Y-57199994D01*
X152895255Y-57200005D01*
X152914215Y-57501383D01*
X152914216Y-57501390D01*
X152970805Y-57798040D01*
X153064125Y-58085247D01*
X153064127Y-58085252D01*
X153192704Y-58358491D01*
X153192707Y-58358497D01*
X153354516Y-58613469D01*
X153435311Y-58711133D01*
X154113128Y-58033316D01*
X154193994Y-58144618D01*
X154355382Y-58306006D01*
X154466681Y-58386870D01*
X153786564Y-59066987D01*
X153786565Y-59066989D01*
X154011461Y-59230385D01*
X154011479Y-59230397D01*
X154276109Y-59375878D01*
X154276117Y-59375882D01*
X154556889Y-59487047D01*
X154556892Y-59487048D01*
X154849399Y-59562150D01*
X155148995Y-59599999D01*
X155149007Y-59600000D01*
X155450993Y-59600000D01*
X155451004Y-59599999D01*
X155750600Y-59562150D01*
X156043107Y-59487048D01*
X156043110Y-59487047D01*
X156323882Y-59375882D01*
X156323890Y-59375878D01*
X156588520Y-59230397D01*
X156588530Y-59230390D01*
X156813433Y-59066987D01*
X156813434Y-59066987D01*
X156133317Y-58386870D01*
X156244618Y-58306006D01*
X156406006Y-58144618D01*
X156486870Y-58033317D01*
X157164687Y-58711134D01*
X157245486Y-58613464D01*
X157407292Y-58358497D01*
X157407295Y-58358491D01*
X157535872Y-58085252D01*
X157535874Y-58085247D01*
X157629194Y-57798040D01*
X157685783Y-57501390D01*
X157685784Y-57501383D01*
X157704745Y-57200005D01*
X157704745Y-57199994D01*
X157685784Y-56898616D01*
X157685783Y-56898609D01*
X157629194Y-56601959D01*
X157535874Y-56314752D01*
X157535872Y-56314747D01*
X157407295Y-56041508D01*
X157407292Y-56041502D01*
X157245483Y-55786530D01*
X157164686Y-55688864D01*
X156486869Y-56366681D01*
X156406006Y-56255382D01*
X156244618Y-56093994D01*
X156133316Y-56013128D01*
X156813434Y-55333011D01*
X156813433Y-55333009D01*
X156588538Y-55169614D01*
X156588520Y-55169602D01*
X156323890Y-55024121D01*
X156323882Y-55024117D01*
X156043110Y-54912952D01*
X156043107Y-54912951D01*
X155750600Y-54837849D01*
X155451004Y-54800000D01*
X155148995Y-54800000D01*
X154849399Y-54837849D01*
X154556892Y-54912951D01*
X154556889Y-54912952D01*
X154276117Y-55024117D01*
X154276109Y-55024121D01*
X154011476Y-55169604D01*
X154011471Y-55169607D01*
X153786565Y-55333010D01*
X153786564Y-55333011D01*
X154466682Y-56013129D01*
X154355382Y-56093994D01*
X154193994Y-56255382D01*
X154113129Y-56366682D01*
X153435311Y-55688864D01*
X153354520Y-55786525D01*
X153354518Y-55786528D01*
X153192707Y-56041502D01*
X153192704Y-56041508D01*
X153064127Y-56314747D01*
X153064125Y-56314752D01*
X152970805Y-56601959D01*
X152914216Y-56898609D01*
X152914215Y-56898616D01*
X152895255Y-57199994D01*
X152500000Y-57199994D01*
X152500000Y-49500000D01*
X144874000Y-49500000D01*
X144806961Y-49480315D01*
X144761206Y-49427511D01*
X144750000Y-49376000D01*
X144750000Y-43250000D01*
X136000000Y-43250000D01*
X135755157Y-48881386D01*
X135732579Y-48947507D01*
X135677837Y-48990925D01*
X135631274Y-49000000D01*
X117388798Y-49000000D01*
X117321759Y-48980315D01*
X117276004Y-48927511D01*
X117264798Y-48876204D01*
X117250205Y-40024513D01*
X117269779Y-39957442D01*
X117322508Y-39911600D01*
X117374511Y-39900309D01*
X157376310Y-39999692D01*
G37*
%TD.AperFunction*%
%TD*%
M02*
