%TF.GenerationSoftware,KiCad,Pcbnew,8.0.3*%
%TF.CreationDate,2024-11-21T16:05:02+01:00*%
%TF.ProjectId,LED Board,4c454420-426f-4617-9264-2e6b69636164,rev?*%
%TF.SameCoordinates,Original*%
%TF.FileFunction,Soldermask,Top*%
%TF.FilePolarity,Negative*%
%FSLAX46Y46*%
G04 Gerber Fmt 4.6, Leading zero omitted, Abs format (unit mm)*
G04 Created by KiCad (PCBNEW 8.0.3) date 2024-11-21 16:05:02*
%MOMM*%
%LPD*%
G01*
G04 APERTURE LIST*
G04 Aperture macros list*
%AMRoundRect*
0 Rectangle with rounded corners*
0 $1 Rounding radius*
0 $2 $3 $4 $5 $6 $7 $8 $9 X,Y pos of 4 corners*
0 Add a 4 corners polygon primitive as box body*
4,1,4,$2,$3,$4,$5,$6,$7,$8,$9,$2,$3,0*
0 Add four circle primitives for the rounded corners*
1,1,$1+$1,$2,$3*
1,1,$1+$1,$4,$5*
1,1,$1+$1,$6,$7*
1,1,$1+$1,$8,$9*
0 Add four rect primitives between the rounded corners*
20,1,$1+$1,$2,$3,$4,$5,0*
20,1,$1+$1,$4,$5,$6,$7,0*
20,1,$1+$1,$6,$7,$8,$9,0*
20,1,$1+$1,$8,$9,$2,$3,0*%
G04 Aperture macros list end*
%ADD10C,0.150000*%
%ADD11RoundRect,0.200000X-0.275000X0.200000X-0.275000X-0.200000X0.275000X-0.200000X0.275000X0.200000X0*%
%ADD12R,1.700000X1.700000*%
%ADD13O,1.700000X1.700000*%
%ADD14C,3.600000*%
%ADD15C,5.600000*%
%ADD16RoundRect,0.200000X-0.200000X-0.275000X0.200000X-0.275000X0.200000X0.275000X-0.200000X0.275000X0*%
%ADD17R,1.250000X0.700000*%
%ADD18RoundRect,0.250000X-0.337500X-0.475000X0.337500X-0.475000X0.337500X0.475000X-0.337500X0.475000X0*%
%ADD19RoundRect,0.250000X-1.000000X-0.650000X1.000000X-0.650000X1.000000X0.650000X-1.000000X0.650000X0*%
%ADD20RoundRect,0.250000X-1.500000X-1.000000X1.500000X-1.000000X1.500000X1.000000X-1.500000X1.000000X0*%
%ADD21RoundRect,0.250000X-0.600000X-0.600000X0.600000X-0.600000X0.600000X0.600000X-0.600000X0.600000X0*%
%ADD22C,1.700000*%
%ADD23R,1.400000X3.800000*%
%ADD24R,10.700000X8.800000*%
%ADD25RoundRect,0.100000X-0.637500X-0.100000X0.637500X-0.100000X0.637500X0.100000X-0.637500X0.100000X0*%
%ADD26C,3.800000*%
%ADD27O,1.200000X2.200000*%
G04 APERTURE END LIST*
D10*
X137673889Y-51926762D02*
X137782382Y-51971701D01*
X137880024Y-52036943D01*
X137963056Y-52119975D01*
X138028298Y-52217617D01*
X138065224Y-52306763D01*
X138116731Y-52379355D01*
X138194633Y-52422409D01*
X138283501Y-52427400D01*
X138365734Y-52393338D01*
X138425045Y-52326970D01*
X138434776Y-52306763D01*
X138471701Y-52217617D01*
X138536943Y-52119975D01*
X138619975Y-52036943D01*
X138717617Y-51971701D01*
X138826110Y-51926762D01*
X138941285Y-51903852D01*
X139058715Y-51903852D01*
X139173889Y-51926762D01*
X139282382Y-51971701D01*
X139380024Y-52036943D01*
X139463056Y-52119975D01*
X139528298Y-52217617D01*
X139565224Y-52306763D01*
X139616731Y-52379355D01*
X139694633Y-52422409D01*
X139783501Y-52427400D01*
X139865734Y-52393338D01*
X139925045Y-52326970D01*
X139934776Y-52306763D01*
X139971701Y-52217617D01*
X140036943Y-52119975D01*
X140119975Y-52036943D01*
X140217617Y-51971701D01*
X140326110Y-51926762D01*
X140441285Y-51903852D01*
X140558715Y-51903852D01*
X140673889Y-51926762D01*
X140782382Y-51971701D01*
X140880024Y-52036943D01*
X140963056Y-52119975D01*
X141028298Y-52217617D01*
X141073237Y-52326110D01*
X141096162Y-52441360D01*
X141099816Y-57258698D01*
X141119688Y-57345459D01*
X141158467Y-57400040D01*
X144857289Y-61095083D01*
X144932679Y-61142399D01*
X144998699Y-61153589D01*
X156746755Y-61150001D01*
X156851363Y-61153425D01*
X157062061Y-61181164D01*
X157163113Y-61208241D01*
X157163114Y-61208241D01*
X157264161Y-61235316D01*
X157457474Y-61315389D01*
X157638672Y-61420004D01*
X157804756Y-61547445D01*
X160379110Y-64116373D01*
X160450625Y-64192728D01*
X160579995Y-64361327D01*
X160639488Y-64464371D01*
X160684609Y-64542523D01*
X160764684Y-64735838D01*
X160791759Y-64836886D01*
X160791759Y-64836887D01*
X160818835Y-64937938D01*
X160846149Y-65145407D01*
X160848537Y-74511965D01*
X160868365Y-74598737D01*
X160923879Y-74668312D01*
X160972000Y-74696690D01*
X161032382Y-74721701D01*
X161130024Y-74786943D01*
X161213056Y-74869975D01*
X161278298Y-74967617D01*
X161323237Y-75076110D01*
X161346162Y-75191360D01*
X161349996Y-80245169D01*
X161347112Y-80303863D01*
X161323237Y-80423889D01*
X161278298Y-80532382D01*
X161213056Y-80630024D01*
X161130024Y-80713056D01*
X161032382Y-80778298D01*
X160923888Y-80823238D01*
X160828569Y-80842198D01*
X160747324Y-80878552D01*
X160689897Y-80946558D01*
X160685728Y-80955537D01*
X160579992Y-81138675D01*
X160452618Y-81304673D01*
X160304673Y-81452618D01*
X160138675Y-81579992D01*
X159957468Y-81684613D01*
X159764165Y-81764681D01*
X159562061Y-81818835D01*
X159354618Y-81846146D01*
X159145382Y-81846146D01*
X158937938Y-81818835D01*
X158735834Y-81764681D01*
X158542531Y-81684613D01*
X158361324Y-81579992D01*
X158195326Y-81452618D01*
X158047381Y-81304673D01*
X157920007Y-81138675D01*
X157808834Y-80946119D01*
X157806857Y-80947260D01*
X157765688Y-80889232D01*
X157687788Y-80846174D01*
X157671430Y-80842198D01*
X157576111Y-80823238D01*
X157467617Y-80778298D01*
X157369975Y-80713056D01*
X157286943Y-80630024D01*
X157221701Y-80532382D01*
X157176762Y-80423889D01*
X157153837Y-80308639D01*
X157150003Y-75254830D01*
X157152887Y-75196136D01*
X157176762Y-75076110D01*
X157221701Y-74967617D01*
X157286943Y-74869975D01*
X157369975Y-74786943D01*
X157467617Y-74721701D01*
X157528898Y-74696318D01*
X157601490Y-74644811D01*
X157644545Y-74566909D01*
X157652361Y-74511491D01*
X157650189Y-65991563D01*
X157630361Y-65904791D01*
X157591461Y-65850044D01*
X156143204Y-64404840D01*
X156067789Y-64357564D01*
X156001871Y-64346410D01*
X144253244Y-64349998D01*
X144148636Y-64346574D01*
X143937938Y-64318835D01*
X143735834Y-64264681D01*
X143542527Y-64184611D01*
X143361325Y-64079995D01*
X143195291Y-63952592D01*
X137870914Y-58633653D01*
X137799374Y-58557271D01*
X137670004Y-58388672D01*
X137558834Y-58196120D01*
X137556860Y-58197259D01*
X137515671Y-58139217D01*
X137437766Y-58096168D01*
X137421430Y-58092198D01*
X137326110Y-58073238D01*
X137217617Y-58028298D01*
X137119975Y-57963056D01*
X137036943Y-57880024D01*
X136971701Y-57782382D01*
X136926762Y-57673889D01*
X136903837Y-57558639D01*
X136900003Y-52504830D01*
X136902887Y-52446136D01*
X136926762Y-52326110D01*
X136971701Y-52217617D01*
X137036943Y-52119975D01*
X137119975Y-52036943D01*
X137217617Y-51971701D01*
X137326110Y-51926762D01*
X137441285Y-51903852D01*
X137558715Y-51903852D01*
X137673889Y-51926762D01*
G36*
X137673889Y-51926762D02*
G01*
X137782382Y-51971701D01*
X137880024Y-52036943D01*
X137963056Y-52119975D01*
X138028298Y-52217617D01*
X138065224Y-52306763D01*
X138116731Y-52379355D01*
X138194633Y-52422409D01*
X138283501Y-52427400D01*
X138365734Y-52393338D01*
X138425045Y-52326970D01*
X138434776Y-52306763D01*
X138471701Y-52217617D01*
X138536943Y-52119975D01*
X138619975Y-52036943D01*
X138717617Y-51971701D01*
X138826110Y-51926762D01*
X138941285Y-51903852D01*
X139058715Y-51903852D01*
X139173889Y-51926762D01*
X139282382Y-51971701D01*
X139380024Y-52036943D01*
X139463056Y-52119975D01*
X139528298Y-52217617D01*
X139565224Y-52306763D01*
X139616731Y-52379355D01*
X139694633Y-52422409D01*
X139783501Y-52427400D01*
X139865734Y-52393338D01*
X139925045Y-52326970D01*
X139934776Y-52306763D01*
X139971701Y-52217617D01*
X140036943Y-52119975D01*
X140119975Y-52036943D01*
X140217617Y-51971701D01*
X140326110Y-51926762D01*
X140441285Y-51903852D01*
X140558715Y-51903852D01*
X140673889Y-51926762D01*
X140782382Y-51971701D01*
X140880024Y-52036943D01*
X140963056Y-52119975D01*
X141028298Y-52217617D01*
X141073237Y-52326110D01*
X141096162Y-52441360D01*
X141099816Y-57258698D01*
X141119688Y-57345459D01*
X141158467Y-57400040D01*
X144857289Y-61095083D01*
X144932679Y-61142399D01*
X144998699Y-61153589D01*
X156746755Y-61150001D01*
X156851363Y-61153425D01*
X157062061Y-61181164D01*
X157163113Y-61208241D01*
X157163114Y-61208241D01*
X157264161Y-61235316D01*
X157457474Y-61315389D01*
X157638672Y-61420004D01*
X157804756Y-61547445D01*
X160379110Y-64116373D01*
X160450625Y-64192728D01*
X160579995Y-64361327D01*
X160639488Y-64464371D01*
X160684609Y-64542523D01*
X160764684Y-64735838D01*
X160791759Y-64836886D01*
X160791759Y-64836887D01*
X160818835Y-64937938D01*
X160846149Y-65145407D01*
X160848537Y-74511965D01*
X160868365Y-74598737D01*
X160923879Y-74668312D01*
X160972000Y-74696690D01*
X161032382Y-74721701D01*
X161130024Y-74786943D01*
X161213056Y-74869975D01*
X161278298Y-74967617D01*
X161323237Y-75076110D01*
X161346162Y-75191360D01*
X161349996Y-80245169D01*
X161347112Y-80303863D01*
X161323237Y-80423889D01*
X161278298Y-80532382D01*
X161213056Y-80630024D01*
X161130024Y-80713056D01*
X161032382Y-80778298D01*
X160923888Y-80823238D01*
X160828569Y-80842198D01*
X160747324Y-80878552D01*
X160689897Y-80946558D01*
X160685728Y-80955537D01*
X160579992Y-81138675D01*
X160452618Y-81304673D01*
X160304673Y-81452618D01*
X160138675Y-81579992D01*
X159957468Y-81684613D01*
X159764165Y-81764681D01*
X159562061Y-81818835D01*
X159354618Y-81846146D01*
X159145382Y-81846146D01*
X158937938Y-81818835D01*
X158735834Y-81764681D01*
X158542531Y-81684613D01*
X158361324Y-81579992D01*
X158195326Y-81452618D01*
X158047381Y-81304673D01*
X157920007Y-81138675D01*
X157808834Y-80946119D01*
X157806857Y-80947260D01*
X157765688Y-80889232D01*
X157687788Y-80846174D01*
X157671430Y-80842198D01*
X157576111Y-80823238D01*
X157467617Y-80778298D01*
X157369975Y-80713056D01*
X157286943Y-80630024D01*
X157221701Y-80532382D01*
X157176762Y-80423889D01*
X157153837Y-80308639D01*
X157150003Y-75254830D01*
X157152887Y-75196136D01*
X157176762Y-75076110D01*
X157221701Y-74967617D01*
X157286943Y-74869975D01*
X157369975Y-74786943D01*
X157467617Y-74721701D01*
X157528898Y-74696318D01*
X157601490Y-74644811D01*
X157644545Y-74566909D01*
X157652361Y-74511491D01*
X157650189Y-65991563D01*
X157630361Y-65904791D01*
X157591461Y-65850044D01*
X156143204Y-64404840D01*
X156067789Y-64357564D01*
X156001871Y-64346410D01*
X144253244Y-64349998D01*
X144148636Y-64346574D01*
X143937938Y-64318835D01*
X143735834Y-64264681D01*
X143542527Y-64184611D01*
X143361325Y-64079995D01*
X143195291Y-63952592D01*
X137870914Y-58633653D01*
X137799374Y-58557271D01*
X137670004Y-58388672D01*
X137558834Y-58196120D01*
X137556860Y-58197259D01*
X137515671Y-58139217D01*
X137437766Y-58096168D01*
X137421430Y-58092198D01*
X137326110Y-58073238D01*
X137217617Y-58028298D01*
X137119975Y-57963056D01*
X137036943Y-57880024D01*
X136971701Y-57782382D01*
X136926762Y-57673889D01*
X136903837Y-57558639D01*
X136900003Y-52504830D01*
X136902887Y-52446136D01*
X136926762Y-52326110D01*
X136971701Y-52217617D01*
X137036943Y-52119975D01*
X137119975Y-52036943D01*
X137217617Y-51971701D01*
X137326110Y-51926762D01*
X137441285Y-51903852D01*
X137558715Y-51903852D01*
X137673889Y-51926762D01*
G37*
X128050000Y-60300000D02*
X122700000Y-60300000D01*
X122700000Y-50600000D01*
X128050000Y-50600000D01*
X128050000Y-60300000D01*
G36*
X128050000Y-60300000D02*
G01*
X122700000Y-60300000D01*
X122700000Y-50600000D01*
X128050000Y-50600000D01*
X128050000Y-60300000D01*
G37*
D11*
%TO.C,R2*%
X91600000Y-57305000D03*
X91600000Y-58955000D03*
%TD*%
D12*
%TO.C,J7*%
X139308000Y-70911000D03*
D13*
X141848000Y-70911000D03*
X144388000Y-70911000D03*
%TD*%
D12*
%TO.C,J16*%
X149008000Y-66904000D03*
D13*
X154088000Y-66904000D03*
%TD*%
D12*
%TO.C,J13*%
X119908000Y-66904000D03*
D13*
X124988000Y-66904000D03*
%TD*%
D12*
%TO.C,J6*%
X129608000Y-70911000D03*
D13*
X132148000Y-70911000D03*
X134688000Y-70911000D03*
%TD*%
D12*
%TO.C,J14*%
X129608000Y-66904000D03*
D13*
X134688000Y-66904000D03*
%TD*%
D12*
%TO.C,J4*%
X110208000Y-70911000D03*
D13*
X112748000Y-70911000D03*
X115288000Y-70911000D03*
%TD*%
D14*
%TO.C,H3*%
X165000000Y-45000000D03*
D15*
X165000000Y-45000000D03*
%TD*%
D12*
%TO.C,J10*%
X90808000Y-66904000D03*
D13*
X95888000Y-66904000D03*
%TD*%
D11*
%TO.C,R7*%
X99562852Y-57305000D03*
X99562852Y-58955000D03*
%TD*%
D14*
%TO.C,H1*%
X72800000Y-45000000D03*
D15*
X72800000Y-45000000D03*
%TD*%
D12*
%TO.C,J1*%
X81108000Y-70911000D03*
D13*
X83648000Y-70911000D03*
X86188000Y-70911000D03*
%TD*%
D16*
%TO.C,R9*%
X103804026Y-53259919D03*
X105454026Y-53259919D03*
%TD*%
D12*
%TO.C,J11*%
X100508000Y-66904000D03*
D13*
X105588000Y-66904000D03*
%TD*%
D17*
%TO.C,Q2*%
X110000000Y-54600000D03*
X110000000Y-56500000D03*
X107500000Y-55550000D03*
%TD*%
D18*
%TO.C,C1*%
X93196500Y-45593000D03*
X95271500Y-45593000D03*
%TD*%
D12*
%TO.C,J5*%
X119908000Y-70911000D03*
D13*
X122448000Y-70911000D03*
X124988000Y-70911000D03*
%TD*%
D19*
%TO.C,D1*%
X163500000Y-51750000D03*
X167500000Y-51750000D03*
%TD*%
D16*
%TO.C,R10*%
X112330000Y-53000000D03*
X113980000Y-53000000D03*
%TD*%
D11*
%TO.C,R3*%
X93200000Y-57305000D03*
X93200000Y-58955000D03*
%TD*%
D14*
%TO.C,H2*%
X72800000Y-75000000D03*
D15*
X72800000Y-75000000D03*
%TD*%
D11*
%TO.C,R5*%
X96400000Y-57305000D03*
X96400000Y-58955000D03*
%TD*%
%TO.C,R8*%
X101200000Y-57305000D03*
X101200000Y-58955000D03*
%TD*%
D12*
%TO.C,J2*%
X90808000Y-70911000D03*
D13*
X93348000Y-70911000D03*
X95888000Y-70911000D03*
%TD*%
D20*
%TO.C,C2*%
X133150000Y-46000000D03*
X139650000Y-46000000D03*
%TD*%
D12*
%TO.C,J12*%
X110208000Y-66904000D03*
D13*
X115288000Y-66904000D03*
%TD*%
D12*
%TO.C,J9*%
X81108000Y-66904000D03*
D13*
X86188000Y-66904000D03*
%TD*%
D11*
%TO.C,R4*%
X94800000Y-57305000D03*
X94800000Y-58955000D03*
%TD*%
D12*
%TO.C,J15*%
X139308000Y-66904000D03*
D13*
X144388000Y-66904000D03*
%TD*%
D12*
%TO.C,J3*%
X100508000Y-70911000D03*
D13*
X103048000Y-70911000D03*
X105588000Y-70911000D03*
%TD*%
D11*
%TO.C,R6*%
X98000000Y-57305000D03*
X98000000Y-58955000D03*
%TD*%
D21*
%TO.C,J18*%
X82550000Y-47117000D03*
D22*
X85090000Y-47117000D03*
X82550000Y-49657000D03*
X85090000Y-49657000D03*
X82550000Y-52197000D03*
X85090000Y-52197000D03*
X82550000Y-54737000D03*
X85090000Y-54737000D03*
X82550000Y-57277000D03*
X85090000Y-57277000D03*
%TD*%
D23*
%TO.C,U2*%
X119960000Y-55800000D03*
D24*
X122500000Y-45000000D03*
D23*
X125040000Y-55800000D03*
%TD*%
D11*
%TO.C,R1*%
X90000000Y-57305000D03*
X90000000Y-58955000D03*
%TD*%
D25*
%TO.C,U1*%
X93335000Y-48379000D03*
X93335000Y-49029000D03*
X93335000Y-49679000D03*
X93335000Y-50329000D03*
X93335000Y-50979000D03*
X93335000Y-51629000D03*
X93335000Y-52279000D03*
X93335000Y-52929000D03*
X93335000Y-53579000D03*
X93335000Y-54229000D03*
X99060000Y-54229000D03*
X99060000Y-53579000D03*
X99060000Y-52929000D03*
X99060000Y-52279000D03*
X99060000Y-51629000D03*
X99060000Y-50979000D03*
X99060000Y-50329000D03*
X99060000Y-49679000D03*
X99060000Y-49029000D03*
X99060000Y-48379000D03*
%TD*%
D26*
%TO.C,CN1*%
X148100000Y-57200000D03*
X155300000Y-57200000D03*
D27*
X158450000Y-51200000D03*
X144950000Y-51200000D03*
%TD*%
D12*
%TO.C,J8*%
X149008000Y-70911000D03*
D13*
X151548000Y-70911000D03*
X154088000Y-70911000D03*
%TD*%
D14*
%TO.C,H4*%
X165000000Y-75000000D03*
D15*
X165000000Y-75000000D03*
%TD*%
M02*
