M48
; DRILL file {KiCad 8.0.3} date 2024-11-21T16:05:02+0100
; FORMAT={-:-/ absolute / inch / decimal}
; #@! TF.CreationDate,2024-11-21T16:05:02+01:00
; #@! TF.GenerationSoftware,Kicad,Pcbnew,8.0.3
; #@! TF.FileFunction,Plated,1,2,PTH
FMAT,2
INCH
; #@! TA.AperFunction,Plated,PTH,ViaDrill
T1C0.0157
; #@! TA.AperFunction,Plated,PTH,ComponentDrill
T2C0.0236
; #@! TA.AperFunction,Plated,PTH,ComponentDrill
T3C0.0394
; #@! TA.AperFunction,Plated,PTH,ComponentDrill
T4C0.1142
; #@! TA.AperFunction,Plated,PTH,ComponentDrill
T5C0.1260
%
G90
G05
T1
X4.626Y-1.6732
X4.626Y-1.7717
X4.626Y-1.8701
X4.6752Y-1.7224
X4.6752Y-1.8209
X4.7244Y-1.6732
X4.7244Y-1.7717
X4.7244Y-1.8701
X4.7736Y-1.7323
X4.7736Y-1.8307
X4.8228Y-1.6732
X4.8228Y-1.7717
X4.8228Y-1.8701
X4.8425Y-2.1161
X4.8425Y-2.1752
X4.8425Y-2.2343
X4.8425Y-2.2835
X4.8425Y-2.3425
X4.8622Y-2.0768
X4.8819Y-1.7421
X4.8819Y-1.8406
X4.9016Y-2.0571
X4.9016Y-2.3031
X4.9016Y-2.3425
X4.9311Y-1.6831
X4.9311Y-1.7815
X4.9311Y-1.8799
X4.9508Y-2.0571
X4.9606Y-2.3031
X4.9606Y-2.3425
X4.9803Y-1.7421
X4.9803Y-1.8406
X4.9902Y-2.0669
X5.0098Y-2.1161
X5.0098Y-2.1752
X5.0098Y-2.2343
X5.0098Y-2.2835
X5.0098Y-2.3425
X5.0295Y-1.6831
X5.0295Y-1.7815
X5.0295Y-1.8799
X5.4134Y-2.0669
X5.4134Y-2.1063
X5.4134Y-2.1457
X5.4134Y-2.185
X5.4134Y-2.2244
X5.4134Y-2.2638
X5.4724Y-2.0669
X5.4724Y-2.1063
X5.4724Y-2.1457
X5.4724Y-2.185
X5.4724Y-2.2244
X5.4724Y-2.2638
X5.5315Y-2.0669
X5.5315Y-2.1063
X5.5315Y-2.1457
X5.5315Y-2.185
X5.5315Y-2.2244
X5.5315Y-2.2638
X5.8858Y-1.6142
X5.8858Y-1.6732
X5.8858Y-1.7224
X5.8858Y-1.7815
X5.8858Y-1.8406
X5.935Y-1.6142
X5.935Y-1.6732
X5.935Y-1.7224
X5.935Y-1.7815
X5.935Y-1.8406
X5.9843Y-1.6142
X5.9843Y-1.6732
X5.9843Y-1.7224
X5.9843Y-1.7815
X5.9843Y-1.8406
X6.0433Y-1.6142
X6.0433Y-1.6732
X6.0433Y-1.7224
X6.0433Y-1.7815
X6.0433Y-1.8406
X6.1024Y-1.6142
X6.1024Y-1.6732
X6.1024Y-1.7224
X6.1024Y-1.7815
X6.1024Y-1.8406
X6.1614Y-1.6142
X6.1614Y-1.6732
X6.1614Y-1.7224
X6.1614Y-1.7815
X6.1614Y-1.8406
X6.2106Y-2.9626
X6.2106Y-3.002
X6.2106Y-3.0413
X6.2106Y-3.0807
X6.2106Y-3.1201
X6.2106Y-3.1594
X6.2697Y-2.9626
X6.2697Y-3.002
X6.2697Y-3.0413
X6.2697Y-3.0807
X6.2697Y-3.1201
X6.2697Y-3.1594
X6.3287Y-2.9626
X6.3287Y-3.002
X6.3287Y-3.0413
X6.3287Y-3.0807
X6.3287Y-3.1201
X6.3287Y-3.1594
T3
X3.1932Y-2.634
X3.1932Y-2.7918
X3.25Y-1.855
X3.25Y-1.955
X3.25Y-2.055
X3.25Y-2.155
X3.25Y-2.255
X3.2932Y-2.7918
X3.35Y-1.855
X3.35Y-1.955
X3.35Y-2.055
X3.35Y-2.155
X3.35Y-2.255
X3.3932Y-2.634
X3.3932Y-2.7918
X3.5751Y-2.634
X3.5751Y-2.7918
X3.6751Y-2.7918
X3.7751Y-2.634
X3.7751Y-2.7918
X3.957Y-2.634
X3.957Y-2.7918
X4.057Y-2.7918
X4.157Y-2.634
X4.157Y-2.7918
X4.3389Y-2.634
X4.3389Y-2.7918
X4.4389Y-2.7918
X4.5389Y-2.634
X4.5389Y-2.7918
X4.7208Y-2.634
X4.7208Y-2.7918
X4.8208Y-2.7918
X4.9208Y-2.634
X4.9208Y-2.7918
X5.1027Y-2.634
X5.1027Y-2.7918
X5.2027Y-2.7918
X5.3027Y-2.634
X5.3027Y-2.7918
X5.4846Y-2.634
X5.4846Y-2.7918
X5.5846Y-2.7918
X5.6846Y-2.634
X5.6846Y-2.7918
X5.8665Y-2.634
X5.8665Y-2.7918
X5.9665Y-2.7918
X6.0665Y-2.634
X6.0665Y-2.7918
T4
X5.8307Y-2.252
X6.1142Y-2.252
T5
X2.8661Y-1.7717
X2.8661Y-2.9528
X6.4961Y-1.7717
X6.4961Y-2.9528
T2
G00X5.7067Y-1.9961
M15
G01X5.7067Y-2.0354
M16
G05
G00X6.2382Y-1.9961
M15
G01X6.2382Y-2.0354
M16
G05
M30
