%TF.GenerationSoftware,KiCad,Pcbnew,8.0.3*%
%TF.CreationDate,2024-11-21T16:05:02+01:00*%
%TF.ProjectId,LED Board,4c454420-426f-4617-9264-2e6b69636164,rev?*%
%TF.SameCoordinates,Original*%
%TF.FileFunction,Soldermask,Bot*%
%TF.FilePolarity,Negative*%
%FSLAX46Y46*%
G04 Gerber Fmt 4.6, Leading zero omitted, Abs format (unit mm)*
G04 Created by KiCad (PCBNEW 8.0.3) date 2024-11-21 16:05:02*
%MOMM*%
%LPD*%
G01*
G04 APERTURE LIST*
G04 Aperture macros list*
%AMRoundRect*
0 Rectangle with rounded corners*
0 $1 Rounding radius*
0 $2 $3 $4 $5 $6 $7 $8 $9 X,Y pos of 4 corners*
0 Add a 4 corners polygon primitive as box body*
4,1,4,$2,$3,$4,$5,$6,$7,$8,$9,$2,$3,0*
0 Add four circle primitives for the rounded corners*
1,1,$1+$1,$2,$3*
1,1,$1+$1,$4,$5*
1,1,$1+$1,$6,$7*
1,1,$1+$1,$8,$9*
0 Add four rect primitives between the rounded corners*
20,1,$1+$1,$2,$3,$4,$5,0*
20,1,$1+$1,$4,$5,$6,$7,0*
20,1,$1+$1,$6,$7,$8,$9,0*
20,1,$1+$1,$8,$9,$2,$3,0*%
G04 Aperture macros list end*
%ADD10C,0.150000*%
%ADD11R,1.700000X1.700000*%
%ADD12O,1.700000X1.700000*%
%ADD13C,3.600000*%
%ADD14RoundRect,0.250000X-0.600000X-0.600000X0.600000X-0.600000X0.600000X0.600000X-0.600000X0.600000X0*%
%ADD15C,1.700000*%
%ADD16C,3.800000*%
%ADD17O,1.200000X2.200000*%
G04 APERTURE END LIST*
D10*
X157550000Y-40199532D02*
X157550000Y-60050000D01*
X152700000Y-60050000D01*
X152700000Y-49500000D01*
X152680194Y-49413223D01*
X152624698Y-49343634D01*
X152544504Y-49305014D01*
X152500000Y-49300000D01*
X144950000Y-49300000D01*
X144950000Y-43250000D01*
X144930194Y-43163223D01*
X144874698Y-43093634D01*
X144794504Y-43055014D01*
X144750000Y-43050000D01*
X136000000Y-43050000D01*
X135913223Y-43069806D01*
X135843634Y-43125302D01*
X135805014Y-43205496D01*
X135800189Y-43241313D01*
X135558507Y-48800000D01*
X117214673Y-48800000D01*
X117200331Y-40100468D01*
X157550000Y-40199532D01*
G36*
X157550000Y-40199532D02*
G01*
X157550000Y-60050000D01*
X152700000Y-60050000D01*
X152700000Y-49500000D01*
X152680194Y-49413223D01*
X152624698Y-49343634D01*
X152544504Y-49305014D01*
X152500000Y-49300000D01*
X144950000Y-49300000D01*
X144950000Y-43250000D01*
X144930194Y-43163223D01*
X144874698Y-43093634D01*
X144794504Y-43055014D01*
X144750000Y-43050000D01*
X136000000Y-43050000D01*
X135913223Y-43069806D01*
X135843634Y-43125302D01*
X135805014Y-43205496D01*
X135800189Y-43241313D01*
X135558507Y-48800000D01*
X117214673Y-48800000D01*
X117200331Y-40100468D01*
X157550000Y-40199532D01*
G37*
X136750000Y-54250000D02*
X151000000Y-54250000D01*
X151000000Y-59500000D01*
X136750000Y-59500000D01*
X136750000Y-54250000D01*
G36*
X136750000Y-54250000D02*
G01*
X151000000Y-54250000D01*
X151000000Y-59500000D01*
X136750000Y-59500000D01*
X136750000Y-54250000D01*
G37*
X80511838Y-76566647D02*
X161213056Y-76566647D01*
X161213056Y-80630024D01*
X80511838Y-80630024D01*
X80511838Y-76566647D01*
G36*
X80511838Y-76566647D02*
G01*
X161213056Y-76566647D01*
X161213056Y-80630024D01*
X80511838Y-80630024D01*
X80511838Y-76566647D01*
G37*
X81281889Y-66330762D02*
X81390382Y-66375701D01*
X81488024Y-66440943D01*
X81571056Y-66523975D01*
X81636298Y-66621617D01*
X81681237Y-66730110D01*
X81704166Y-66845378D01*
X81707995Y-70906184D01*
X81704493Y-70977460D01*
X81704252Y-70987412D01*
X81707777Y-76180473D01*
X81727642Y-76267236D01*
X81766724Y-76322126D01*
X82292763Y-76845436D01*
X82368251Y-76892595D01*
X82433915Y-76903647D01*
X89471912Y-76900162D01*
X89558679Y-76880313D01*
X89613743Y-76841072D01*
X89844439Y-76608706D01*
X89891523Y-76533171D01*
X89902508Y-76467142D01*
X89900016Y-75704579D01*
X89902887Y-75646136D01*
X89926762Y-75526110D01*
X89971702Y-75417614D01*
X90002926Y-75370885D01*
X90002927Y-75370885D01*
X90037362Y-75319347D01*
X90153983Y-75200965D01*
X90200772Y-75125246D01*
X90211505Y-75060439D01*
X90208004Y-70915817D01*
X90211465Y-70845349D01*
X90211706Y-70835350D01*
X90208004Y-66908811D01*
X90210887Y-66850136D01*
X90234762Y-66730110D01*
X90279701Y-66621617D01*
X90344943Y-66523975D01*
X90427975Y-66440943D01*
X90525617Y-66375701D01*
X90634110Y-66330762D01*
X90749285Y-66307852D01*
X90866715Y-66307852D01*
X90981889Y-66330762D01*
X91090382Y-66375701D01*
X91188024Y-66440943D01*
X91271056Y-66523975D01*
X91336298Y-66621617D01*
X91381237Y-66730110D01*
X91404166Y-66845378D01*
X91407995Y-70906187D01*
X91404519Y-70976948D01*
X91404278Y-70986931D01*
X91407995Y-75387178D01*
X91405112Y-75445864D01*
X91381238Y-75565888D01*
X91336298Y-75674382D01*
X91270638Y-75772649D01*
X91155007Y-75890027D01*
X91108218Y-75965745D01*
X91097485Y-76031039D01*
X91099684Y-76703890D01*
X91119774Y-76790601D01*
X91175497Y-76860009D01*
X91255816Y-76898366D01*
X91299761Y-76903236D01*
X99272378Y-76900127D01*
X99359147Y-76880287D01*
X99414120Y-76841148D01*
X99853396Y-76399382D01*
X99900539Y-76323883D01*
X99911576Y-76258227D01*
X99908003Y-70915835D01*
X99911465Y-70845349D01*
X99911706Y-70835350D01*
X99908004Y-66908811D01*
X99910887Y-66850136D01*
X99934762Y-66730110D01*
X99979701Y-66621617D01*
X100044943Y-66523975D01*
X100127975Y-66440943D01*
X100225617Y-66375701D01*
X100334110Y-66330762D01*
X100449285Y-66307852D01*
X100566715Y-66307852D01*
X100681889Y-66330762D01*
X100790382Y-66375701D01*
X100888024Y-66440943D01*
X100971056Y-66523975D01*
X101036298Y-66621617D01*
X101081237Y-66730110D01*
X101104166Y-66845378D01*
X101107995Y-70906187D01*
X101104492Y-70977493D01*
X101104251Y-70987441D01*
X101107996Y-76587160D01*
X101105113Y-76645860D01*
X101101477Y-76664139D01*
X101103973Y-76753112D01*
X101144825Y-76832192D01*
X101215943Y-76885715D01*
X101297712Y-76903159D01*
X109072187Y-76900127D01*
X109158956Y-76880287D01*
X109213976Y-76841102D01*
X109553448Y-76499482D01*
X109600565Y-76423967D01*
X109611581Y-76358376D01*
X109608003Y-70915836D01*
X109611465Y-70845349D01*
X109611706Y-70835350D01*
X109608004Y-66908811D01*
X109610887Y-66850136D01*
X109634762Y-66730110D01*
X109679701Y-66621617D01*
X109744943Y-66523975D01*
X109827975Y-66440943D01*
X109925617Y-66375701D01*
X110034110Y-66330762D01*
X110149285Y-66307852D01*
X110266715Y-66307852D01*
X110381889Y-66330762D01*
X110490382Y-66375701D01*
X110588024Y-66440943D01*
X110671056Y-66523975D01*
X110736298Y-66621617D01*
X110781237Y-66730110D01*
X110804166Y-66845378D01*
X110807995Y-70906185D01*
X110804490Y-70977527D01*
X110804249Y-70987474D01*
X110807996Y-76687146D01*
X110807692Y-76693344D01*
X110823213Y-76780989D01*
X110875225Y-76853220D01*
X110953425Y-76895731D01*
X111007532Y-76903166D01*
X118472658Y-76900133D01*
X118559427Y-76880292D01*
X118614329Y-76841223D01*
X119253318Y-76199235D01*
X119300497Y-76123759D01*
X119311566Y-76058006D01*
X119308003Y-70915832D01*
X119311465Y-70845349D01*
X119311706Y-70835350D01*
X119308004Y-66908811D01*
X119310887Y-66850136D01*
X119334762Y-66730110D01*
X119379701Y-66621617D01*
X119444943Y-66523975D01*
X119527975Y-66440943D01*
X119625617Y-66375701D01*
X119734110Y-66330762D01*
X119849285Y-66307852D01*
X119966715Y-66307852D01*
X120081889Y-66330762D01*
X120190382Y-66375701D01*
X120288024Y-66440943D01*
X120371056Y-66523975D01*
X120436298Y-66621617D01*
X120481237Y-66730110D01*
X120504166Y-66845378D01*
X120507995Y-70906188D01*
X120504496Y-70977419D01*
X120504255Y-70987371D01*
X120507996Y-76387163D01*
X120505112Y-76445863D01*
X120488625Y-76528753D01*
X120481238Y-76565889D01*
X120456111Y-76626551D01*
X120441202Y-76714302D01*
X120465842Y-76799832D01*
X120525153Y-76866200D01*
X120607386Y-76900262D01*
X120640967Y-76903088D01*
X128072768Y-76900130D01*
X128159536Y-76880289D01*
X128214414Y-76841246D01*
X128953287Y-76099181D01*
X129000480Y-76023714D01*
X129011561Y-75957924D01*
X129008003Y-70915831D01*
X129011465Y-70845349D01*
X129011706Y-70835350D01*
X129008004Y-66908811D01*
X129010887Y-66850136D01*
X129034762Y-66730110D01*
X129079701Y-66621617D01*
X129144943Y-66523975D01*
X129227975Y-66440943D01*
X129325617Y-66375701D01*
X129434110Y-66330762D01*
X129549285Y-66307852D01*
X129666715Y-66307852D01*
X129781889Y-66330762D01*
X129890382Y-66375701D01*
X129988024Y-66440943D01*
X130071056Y-66523975D01*
X130136298Y-66621617D01*
X130181237Y-66730110D01*
X130204166Y-66845378D01*
X130207995Y-70906188D01*
X130204498Y-70977380D01*
X130204257Y-70987334D01*
X130207996Y-76287164D01*
X130205112Y-76345865D01*
X130188100Y-76431393D01*
X130181237Y-76465889D01*
X130136299Y-76574380D01*
X130124732Y-76591692D01*
X130092988Y-76674848D01*
X130100468Y-76763542D01*
X130145690Y-76840206D01*
X130219697Y-76889658D01*
X130291130Y-76902809D01*
X135595146Y-76900002D01*
X135653863Y-76902887D01*
X135728553Y-76917744D01*
X135728554Y-76917744D01*
X135773888Y-76926761D01*
X135882381Y-76971700D01*
X135980920Y-77037541D01*
X135989186Y-77045633D01*
X136065051Y-77092183D01*
X136129651Y-77102712D01*
X136773018Y-77100914D01*
X136859739Y-77080866D01*
X136914050Y-77042166D01*
X138653101Y-75298925D01*
X138700366Y-75223503D01*
X138711510Y-75157509D01*
X138708004Y-70915818D01*
X138711465Y-70845349D01*
X138711706Y-70835350D01*
X138708004Y-66908811D01*
X138710887Y-66850136D01*
X138734762Y-66730110D01*
X138779701Y-66621617D01*
X138844943Y-66523975D01*
X138927975Y-66440943D01*
X139025617Y-66375701D01*
X139134110Y-66330762D01*
X139249285Y-66307852D01*
X139366715Y-66307852D01*
X139481889Y-66330762D01*
X139590382Y-66375701D01*
X139688024Y-66440943D01*
X139771056Y-66523975D01*
X139836298Y-66621617D01*
X139881237Y-66730110D01*
X139904166Y-66845378D01*
X139907995Y-70906187D01*
X139904516Y-70977004D01*
X139904275Y-70986983D01*
X139907995Y-75487176D01*
X139905112Y-75545863D01*
X139896845Y-75587429D01*
X139881237Y-75665889D01*
X139836298Y-75774382D01*
X139770990Y-75872124D01*
X138983200Y-76661811D01*
X138935935Y-76737233D01*
X138926076Y-76825694D01*
X138955574Y-76909672D01*
X139018588Y-76972535D01*
X139102637Y-77001831D01*
X139124870Y-77003062D01*
X146573291Y-77000128D01*
X146660060Y-76980288D01*
X146714811Y-76941371D01*
X148353109Y-75298943D01*
X148400370Y-75223518D01*
X148411510Y-75157535D01*
X148408004Y-70915818D01*
X148411465Y-70845349D01*
X148411706Y-70835350D01*
X148408004Y-66908811D01*
X148410887Y-66850136D01*
X148434762Y-66730110D01*
X148479701Y-66621617D01*
X148544943Y-66523975D01*
X148627975Y-66440943D01*
X148725617Y-66375701D01*
X148834110Y-66330762D01*
X148949285Y-66307852D01*
X149066715Y-66307852D01*
X149181889Y-66330762D01*
X149290382Y-66375701D01*
X149388024Y-66440943D01*
X149471056Y-66523975D01*
X149536298Y-66621617D01*
X149581237Y-66730110D01*
X149604166Y-66845378D01*
X149607995Y-70906187D01*
X149604516Y-70977004D01*
X149604275Y-70986983D01*
X149607995Y-75487176D01*
X149605112Y-75545863D01*
X149596845Y-75587429D01*
X149581237Y-75665889D01*
X149536299Y-75774381D01*
X149470985Y-75872131D01*
X148683392Y-76661709D01*
X148636131Y-76737134D01*
X148626277Y-76825595D01*
X148655780Y-76909571D01*
X148718798Y-76972431D01*
X148802848Y-77001722D01*
X148825081Y-77002952D01*
X155073358Y-77000146D01*
X155160126Y-76980301D01*
X155214849Y-76941407D01*
X157322343Y-74829135D01*
X157365865Y-74789689D01*
X157467617Y-74721701D01*
X157576110Y-74676762D01*
X157691408Y-74653827D01*
X160745221Y-74650006D01*
X160803863Y-74652887D01*
X160923889Y-74676762D01*
X161032382Y-74721701D01*
X161130024Y-74786943D01*
X161213056Y-74869975D01*
X161278298Y-74967617D01*
X161323237Y-75076110D01*
X161346162Y-75191360D01*
X161349996Y-80245169D01*
X161347112Y-80303863D01*
X161323237Y-80423889D01*
X161278298Y-80532382D01*
X161213056Y-80630024D01*
X161130024Y-80713056D01*
X161032382Y-80778298D01*
X160923889Y-80823237D01*
X160808591Y-80846172D01*
X157754778Y-80849993D01*
X157696136Y-80847112D01*
X157576110Y-80823237D01*
X157467617Y-80778298D01*
X157369975Y-80713056D01*
X157286943Y-80630024D01*
X157221701Y-80532382D01*
X157176762Y-80423889D01*
X157153837Y-80308639D01*
X157151462Y-77177521D01*
X157131590Y-77090760D01*
X157076041Y-77021212D01*
X156995818Y-76982654D01*
X156906810Y-76982721D01*
X156826645Y-77021401D01*
X156809881Y-77036412D01*
X155827653Y-78020866D01*
X155784135Y-78060309D01*
X155682381Y-78128298D01*
X155573889Y-78173237D01*
X155458670Y-78196156D01*
X146904863Y-78199997D01*
X146832647Y-78196450D01*
X146822754Y-78196209D01*
X137485493Y-78199887D01*
X137398724Y-78219727D01*
X137387257Y-78226279D01*
X137273889Y-78273237D01*
X137158436Y-78296203D01*
X135804632Y-78299986D01*
X135746136Y-78297112D01*
X135626110Y-78273237D01*
X135517617Y-78228298D01*
X135419084Y-78162460D01*
X135409872Y-78153443D01*
X135334006Y-78106894D01*
X135269860Y-78096364D01*
X128404856Y-78099997D01*
X128332661Y-78096450D01*
X128322766Y-78096209D01*
X118804867Y-78099998D01*
X118732685Y-78096452D01*
X118722791Y-78096211D01*
X109404868Y-78099997D01*
X109332636Y-78096449D01*
X109322743Y-78096208D01*
X99604870Y-78099998D01*
X99532636Y-78096449D01*
X99522743Y-78096208D01*
X89804870Y-78099998D01*
X89732966Y-78096465D01*
X89723052Y-78096224D01*
X82104857Y-78099997D01*
X82046136Y-78097112D01*
X81926110Y-78073237D01*
X81817617Y-78028298D01*
X81719759Y-77962912D01*
X80687027Y-76935536D01*
X80647690Y-76892135D01*
X80579700Y-76790381D01*
X80534761Y-76681888D01*
X80511838Y-76566647D01*
X80508003Y-70915834D01*
X80511465Y-70845349D01*
X80511706Y-70835350D01*
X80508004Y-66908811D01*
X80510887Y-66850136D01*
X80534762Y-66730110D01*
X80579701Y-66621617D01*
X80644943Y-66523975D01*
X80727975Y-66440943D01*
X80825617Y-66375701D01*
X80934110Y-66330762D01*
X81049285Y-66307852D01*
X81166715Y-66307852D01*
X81281889Y-66330762D01*
G36*
X81281889Y-66330762D02*
G01*
X81390382Y-66375701D01*
X81488024Y-66440943D01*
X81571056Y-66523975D01*
X81636298Y-66621617D01*
X81681237Y-66730110D01*
X81704166Y-66845378D01*
X81707995Y-70906184D01*
X81704493Y-70977460D01*
X81704252Y-70987412D01*
X81707777Y-76180473D01*
X81727642Y-76267236D01*
X81766724Y-76322126D01*
X82292763Y-76845436D01*
X82368251Y-76892595D01*
X82433915Y-76903647D01*
X89471912Y-76900162D01*
X89558679Y-76880313D01*
X89613743Y-76841072D01*
X89844439Y-76608706D01*
X89891523Y-76533171D01*
X89902508Y-76467142D01*
X89900016Y-75704579D01*
X89902887Y-75646136D01*
X89926762Y-75526110D01*
X89971702Y-75417614D01*
X90002926Y-75370885D01*
X90002927Y-75370885D01*
X90037362Y-75319347D01*
X90153983Y-75200965D01*
X90200772Y-75125246D01*
X90211505Y-75060439D01*
X90208004Y-70915817D01*
X90211465Y-70845349D01*
X90211706Y-70835350D01*
X90208004Y-66908811D01*
X90210887Y-66850136D01*
X90234762Y-66730110D01*
X90279701Y-66621617D01*
X90344943Y-66523975D01*
X90427975Y-66440943D01*
X90525617Y-66375701D01*
X90634110Y-66330762D01*
X90749285Y-66307852D01*
X90866715Y-66307852D01*
X90981889Y-66330762D01*
X91090382Y-66375701D01*
X91188024Y-66440943D01*
X91271056Y-66523975D01*
X91336298Y-66621617D01*
X91381237Y-66730110D01*
X91404166Y-66845378D01*
X91407995Y-70906187D01*
X91404519Y-70976948D01*
X91404278Y-70986931D01*
X91407995Y-75387178D01*
X91405112Y-75445864D01*
X91381238Y-75565888D01*
X91336298Y-75674382D01*
X91270638Y-75772649D01*
X91155007Y-75890027D01*
X91108218Y-75965745D01*
X91097485Y-76031039D01*
X91099684Y-76703890D01*
X91119774Y-76790601D01*
X91175497Y-76860009D01*
X91255816Y-76898366D01*
X91299761Y-76903236D01*
X99272378Y-76900127D01*
X99359147Y-76880287D01*
X99414120Y-76841148D01*
X99853396Y-76399382D01*
X99900539Y-76323883D01*
X99911576Y-76258227D01*
X99908003Y-70915835D01*
X99911465Y-70845349D01*
X99911706Y-70835350D01*
X99908004Y-66908811D01*
X99910887Y-66850136D01*
X99934762Y-66730110D01*
X99979701Y-66621617D01*
X100044943Y-66523975D01*
X100127975Y-66440943D01*
X100225617Y-66375701D01*
X100334110Y-66330762D01*
X100449285Y-66307852D01*
X100566715Y-66307852D01*
X100681889Y-66330762D01*
X100790382Y-66375701D01*
X100888024Y-66440943D01*
X100971056Y-66523975D01*
X101036298Y-66621617D01*
X101081237Y-66730110D01*
X101104166Y-66845378D01*
X101107995Y-70906187D01*
X101104492Y-70977493D01*
X101104251Y-70987441D01*
X101107996Y-76587160D01*
X101105113Y-76645860D01*
X101101477Y-76664139D01*
X101103973Y-76753112D01*
X101144825Y-76832192D01*
X101215943Y-76885715D01*
X101297712Y-76903159D01*
X109072187Y-76900127D01*
X109158956Y-76880287D01*
X109213976Y-76841102D01*
X109553448Y-76499482D01*
X109600565Y-76423967D01*
X109611581Y-76358376D01*
X109608003Y-70915836D01*
X109611465Y-70845349D01*
X109611706Y-70835350D01*
X109608004Y-66908811D01*
X109610887Y-66850136D01*
X109634762Y-66730110D01*
X109679701Y-66621617D01*
X109744943Y-66523975D01*
X109827975Y-66440943D01*
X109925617Y-66375701D01*
X110034110Y-66330762D01*
X110149285Y-66307852D01*
X110266715Y-66307852D01*
X110381889Y-66330762D01*
X110490382Y-66375701D01*
X110588024Y-66440943D01*
X110671056Y-66523975D01*
X110736298Y-66621617D01*
X110781237Y-66730110D01*
X110804166Y-66845378D01*
X110807995Y-70906185D01*
X110804490Y-70977527D01*
X110804249Y-70987474D01*
X110807996Y-76687146D01*
X110807692Y-76693344D01*
X110823213Y-76780989D01*
X110875225Y-76853220D01*
X110953425Y-76895731D01*
X111007532Y-76903166D01*
X118472658Y-76900133D01*
X118559427Y-76880292D01*
X118614329Y-76841223D01*
X119253318Y-76199235D01*
X119300497Y-76123759D01*
X119311566Y-76058006D01*
X119308003Y-70915832D01*
X119311465Y-70845349D01*
X119311706Y-70835350D01*
X119308004Y-66908811D01*
X119310887Y-66850136D01*
X119334762Y-66730110D01*
X119379701Y-66621617D01*
X119444943Y-66523975D01*
X119527975Y-66440943D01*
X119625617Y-66375701D01*
X119734110Y-66330762D01*
X119849285Y-66307852D01*
X119966715Y-66307852D01*
X120081889Y-66330762D01*
X120190382Y-66375701D01*
X120288024Y-66440943D01*
X120371056Y-66523975D01*
X120436298Y-66621617D01*
X120481237Y-66730110D01*
X120504166Y-66845378D01*
X120507995Y-70906188D01*
X120504496Y-70977419D01*
X120504255Y-70987371D01*
X120507996Y-76387163D01*
X120505112Y-76445863D01*
X120488625Y-76528753D01*
X120481238Y-76565889D01*
X120456111Y-76626551D01*
X120441202Y-76714302D01*
X120465842Y-76799832D01*
X120525153Y-76866200D01*
X120607386Y-76900262D01*
X120640967Y-76903088D01*
X128072768Y-76900130D01*
X128159536Y-76880289D01*
X128214414Y-76841246D01*
X128953287Y-76099181D01*
X129000480Y-76023714D01*
X129011561Y-75957924D01*
X129008003Y-70915831D01*
X129011465Y-70845349D01*
X129011706Y-70835350D01*
X129008004Y-66908811D01*
X129010887Y-66850136D01*
X129034762Y-66730110D01*
X129079701Y-66621617D01*
X129144943Y-66523975D01*
X129227975Y-66440943D01*
X129325617Y-66375701D01*
X129434110Y-66330762D01*
X129549285Y-66307852D01*
X129666715Y-66307852D01*
X129781889Y-66330762D01*
X129890382Y-66375701D01*
X129988024Y-66440943D01*
X130071056Y-66523975D01*
X130136298Y-66621617D01*
X130181237Y-66730110D01*
X130204166Y-66845378D01*
X130207995Y-70906188D01*
X130204498Y-70977380D01*
X130204257Y-70987334D01*
X130207996Y-76287164D01*
X130205112Y-76345865D01*
X130188100Y-76431393D01*
X130181237Y-76465889D01*
X130136299Y-76574380D01*
X130124732Y-76591692D01*
X130092988Y-76674848D01*
X130100468Y-76763542D01*
X130145690Y-76840206D01*
X130219697Y-76889658D01*
X130291130Y-76902809D01*
X135595146Y-76900002D01*
X135653863Y-76902887D01*
X135728553Y-76917744D01*
X135728554Y-76917744D01*
X135773888Y-76926761D01*
X135882381Y-76971700D01*
X135980920Y-77037541D01*
X135989186Y-77045633D01*
X136065051Y-77092183D01*
X136129651Y-77102712D01*
X136773018Y-77100914D01*
X136859739Y-77080866D01*
X136914050Y-77042166D01*
X138653101Y-75298925D01*
X138700366Y-75223503D01*
X138711510Y-75157509D01*
X138708004Y-70915818D01*
X138711465Y-70845349D01*
X138711706Y-70835350D01*
X138708004Y-66908811D01*
X138710887Y-66850136D01*
X138734762Y-66730110D01*
X138779701Y-66621617D01*
X138844943Y-66523975D01*
X138927975Y-66440943D01*
X139025617Y-66375701D01*
X139134110Y-66330762D01*
X139249285Y-66307852D01*
X139366715Y-66307852D01*
X139481889Y-66330762D01*
X139590382Y-66375701D01*
X139688024Y-66440943D01*
X139771056Y-66523975D01*
X139836298Y-66621617D01*
X139881237Y-66730110D01*
X139904166Y-66845378D01*
X139907995Y-70906187D01*
X139904516Y-70977004D01*
X139904275Y-70986983D01*
X139907995Y-75487176D01*
X139905112Y-75545863D01*
X139896845Y-75587429D01*
X139881237Y-75665889D01*
X139836298Y-75774382D01*
X139770990Y-75872124D01*
X138983200Y-76661811D01*
X138935935Y-76737233D01*
X138926076Y-76825694D01*
X138955574Y-76909672D01*
X139018588Y-76972535D01*
X139102637Y-77001831D01*
X139124870Y-77003062D01*
X146573291Y-77000128D01*
X146660060Y-76980288D01*
X146714811Y-76941371D01*
X148353109Y-75298943D01*
X148400370Y-75223518D01*
X148411510Y-75157535D01*
X148408004Y-70915818D01*
X148411465Y-70845349D01*
X148411706Y-70835350D01*
X148408004Y-66908811D01*
X148410887Y-66850136D01*
X148434762Y-66730110D01*
X148479701Y-66621617D01*
X148544943Y-66523975D01*
X148627975Y-66440943D01*
X148725617Y-66375701D01*
X148834110Y-66330762D01*
X148949285Y-66307852D01*
X149066715Y-66307852D01*
X149181889Y-66330762D01*
X149290382Y-66375701D01*
X149388024Y-66440943D01*
X149471056Y-66523975D01*
X149536298Y-66621617D01*
X149581237Y-66730110D01*
X149604166Y-66845378D01*
X149607995Y-70906187D01*
X149604516Y-70977004D01*
X149604275Y-70986983D01*
X149607995Y-75487176D01*
X149605112Y-75545863D01*
X149596845Y-75587429D01*
X149581237Y-75665889D01*
X149536299Y-75774381D01*
X149470985Y-75872131D01*
X148683392Y-76661709D01*
X148636131Y-76737134D01*
X148626277Y-76825595D01*
X148655780Y-76909571D01*
X148718798Y-76972431D01*
X148802848Y-77001722D01*
X148825081Y-77002952D01*
X155073358Y-77000146D01*
X155160126Y-76980301D01*
X155214849Y-76941407D01*
X157322343Y-74829135D01*
X157365865Y-74789689D01*
X157467617Y-74721701D01*
X157576110Y-74676762D01*
X157691408Y-74653827D01*
X160745221Y-74650006D01*
X160803863Y-74652887D01*
X160923889Y-74676762D01*
X161032382Y-74721701D01*
X161130024Y-74786943D01*
X161213056Y-74869975D01*
X161278298Y-74967617D01*
X161323237Y-75076110D01*
X161346162Y-75191360D01*
X161349996Y-80245169D01*
X161347112Y-80303863D01*
X161323237Y-80423889D01*
X161278298Y-80532382D01*
X161213056Y-80630024D01*
X161130024Y-80713056D01*
X161032382Y-80778298D01*
X160923889Y-80823237D01*
X160808591Y-80846172D01*
X157754778Y-80849993D01*
X157696136Y-80847112D01*
X157576110Y-80823237D01*
X157467617Y-80778298D01*
X157369975Y-80713056D01*
X157286943Y-80630024D01*
X157221701Y-80532382D01*
X157176762Y-80423889D01*
X157153837Y-80308639D01*
X157151462Y-77177521D01*
X157131590Y-77090760D01*
X157076041Y-77021212D01*
X156995818Y-76982654D01*
X156906810Y-76982721D01*
X156826645Y-77021401D01*
X156809881Y-77036412D01*
X155827653Y-78020866D01*
X155784135Y-78060309D01*
X155682381Y-78128298D01*
X155573889Y-78173237D01*
X155458670Y-78196156D01*
X146904863Y-78199997D01*
X146832647Y-78196450D01*
X146822754Y-78196209D01*
X137485493Y-78199887D01*
X137398724Y-78219727D01*
X137387257Y-78226279D01*
X137273889Y-78273237D01*
X137158436Y-78296203D01*
X135804632Y-78299986D01*
X135746136Y-78297112D01*
X135626110Y-78273237D01*
X135517617Y-78228298D01*
X135419084Y-78162460D01*
X135409872Y-78153443D01*
X135334006Y-78106894D01*
X135269860Y-78096364D01*
X128404856Y-78099997D01*
X128332661Y-78096450D01*
X128322766Y-78096209D01*
X118804867Y-78099998D01*
X118732685Y-78096452D01*
X118722791Y-78096211D01*
X109404868Y-78099997D01*
X109332636Y-78096449D01*
X109322743Y-78096208D01*
X99604870Y-78099998D01*
X99532636Y-78096449D01*
X99522743Y-78096208D01*
X89804870Y-78099998D01*
X89732966Y-78096465D01*
X89723052Y-78096224D01*
X82104857Y-78099997D01*
X82046136Y-78097112D01*
X81926110Y-78073237D01*
X81817617Y-78028298D01*
X81719759Y-77962912D01*
X80687027Y-76935536D01*
X80647690Y-76892135D01*
X80579700Y-76790381D01*
X80534761Y-76681888D01*
X80511838Y-76566647D01*
X80508003Y-70915834D01*
X80511465Y-70845349D01*
X80511706Y-70835350D01*
X80508004Y-66908811D01*
X80510887Y-66850136D01*
X80534762Y-66730110D01*
X80579701Y-66621617D01*
X80644943Y-66523975D01*
X80727975Y-66440943D01*
X80825617Y-66375701D01*
X80934110Y-66330762D01*
X81049285Y-66307852D01*
X81166715Y-66307852D01*
X81281889Y-66330762D01*
G37*
X145067181Y-63153541D02*
X145077083Y-63153782D01*
X153495138Y-63150002D01*
X153553863Y-63152887D01*
X153673889Y-63176762D01*
X153782381Y-63221700D01*
X153880376Y-63287178D01*
X154509084Y-63910586D01*
X154548309Y-63953864D01*
X154606454Y-64040885D01*
X154606456Y-64040887D01*
X154616298Y-64055617D01*
X154661237Y-64164110D01*
X154684176Y-64279428D01*
X154687992Y-66899242D01*
X154684534Y-66969647D01*
X154684293Y-66979649D01*
X154687995Y-70906188D01*
X154685112Y-70964863D01*
X154661237Y-71084889D01*
X154616298Y-71193382D01*
X154551056Y-71291024D01*
X154468024Y-71374056D01*
X154370382Y-71439298D01*
X154261889Y-71484237D01*
X154146715Y-71507148D01*
X154029285Y-71507148D01*
X153914110Y-71484237D01*
X153805617Y-71439298D01*
X153707975Y-71374056D01*
X153624943Y-71291024D01*
X153559701Y-71193382D01*
X153514762Y-71084889D01*
X153491833Y-70969621D01*
X153488004Y-66908810D01*
X153491389Y-66839915D01*
X153491630Y-66829811D01*
X153488479Y-64666572D01*
X153468546Y-64579824D01*
X153429300Y-64524844D01*
X153307744Y-64404313D01*
X153232179Y-64357277D01*
X153166833Y-64346332D01*
X145328356Y-64349852D01*
X145241588Y-64369697D01*
X145186449Y-64409009D01*
X145042755Y-64553881D01*
X144995707Y-64629439D01*
X144984752Y-64695018D01*
X144987992Y-66899243D01*
X144984534Y-66969647D01*
X144984293Y-66979649D01*
X144987995Y-70906188D01*
X144985112Y-70964863D01*
X144961237Y-71084889D01*
X144916298Y-71193382D01*
X144851056Y-71291024D01*
X144768024Y-71374056D01*
X144670382Y-71439298D01*
X144561889Y-71484237D01*
X144446715Y-71507148D01*
X144329285Y-71507148D01*
X144214110Y-71484237D01*
X144105617Y-71439298D01*
X144007975Y-71374056D01*
X143924943Y-71291024D01*
X143859701Y-71193382D01*
X143814762Y-71084889D01*
X143791833Y-70969621D01*
X143788004Y-66908809D01*
X143791387Y-66839954D01*
X143791628Y-66829848D01*
X143788271Y-64546396D01*
X143768337Y-64459648D01*
X143712739Y-64390141D01*
X143632488Y-64351639D01*
X143588198Y-64346690D01*
X135484948Y-64349641D01*
X135398179Y-64369479D01*
X135328609Y-64425000D01*
X135290019Y-64505208D01*
X135285021Y-64549894D01*
X135287993Y-66899222D01*
X135284534Y-66969647D01*
X135284293Y-66979649D01*
X135287995Y-70906188D01*
X135285112Y-70964863D01*
X135261237Y-71084889D01*
X135216298Y-71193382D01*
X135151056Y-71291024D01*
X135068024Y-71374056D01*
X134970382Y-71439298D01*
X134861889Y-71484237D01*
X134746715Y-71507148D01*
X134629285Y-71507148D01*
X134514110Y-71484237D01*
X134405617Y-71439298D01*
X134307975Y-71374056D01*
X134224943Y-71291024D01*
X134159701Y-71193382D01*
X134114762Y-71084889D01*
X134091833Y-70969621D01*
X134088004Y-66908808D01*
X134091417Y-66839334D01*
X134091658Y-66829270D01*
X134088769Y-64546172D01*
X134068853Y-64459420D01*
X134013269Y-64389901D01*
X133933026Y-64351383D01*
X133888689Y-64346425D01*
X125785103Y-64349684D01*
X125698334Y-64369525D01*
X125628767Y-64425049D01*
X125590180Y-64505258D01*
X125585183Y-64549923D01*
X125587993Y-66899215D01*
X125584534Y-66969647D01*
X125584293Y-66979649D01*
X125587995Y-70906188D01*
X125585112Y-70964863D01*
X125561237Y-71084889D01*
X125516298Y-71193382D01*
X125451056Y-71291024D01*
X125368024Y-71374056D01*
X125270382Y-71439298D01*
X125161889Y-71484237D01*
X125046715Y-71507148D01*
X124929285Y-71507148D01*
X124814110Y-71484237D01*
X124705617Y-71439298D01*
X124607975Y-71374056D01*
X124524943Y-71291024D01*
X124459701Y-71193382D01*
X124414762Y-71084889D01*
X124391833Y-70969621D01*
X124388004Y-66908807D01*
X124391427Y-66839124D01*
X124391668Y-66829074D01*
X124388938Y-64546257D01*
X124369028Y-64459504D01*
X124313449Y-64389981D01*
X124233209Y-64351457D01*
X124188860Y-64346496D01*
X116085083Y-64349672D01*
X115998314Y-64369512D01*
X115928746Y-64425035D01*
X115890158Y-64505244D01*
X115885161Y-64549913D01*
X115887993Y-66899216D01*
X115884534Y-66969647D01*
X115884293Y-66979649D01*
X115887995Y-70906188D01*
X115885112Y-70964863D01*
X115861237Y-71084889D01*
X115816298Y-71193382D01*
X115751056Y-71291024D01*
X115668024Y-71374056D01*
X115570382Y-71439298D01*
X115461889Y-71484237D01*
X115346715Y-71507148D01*
X115229285Y-71507148D01*
X115114110Y-71484237D01*
X115005617Y-71439298D01*
X114907975Y-71374056D01*
X114824943Y-71291024D01*
X114759701Y-71193382D01*
X114714762Y-71084889D01*
X114691833Y-70969621D01*
X114688004Y-66908809D01*
X114691426Y-66839155D01*
X114691667Y-66829102D01*
X114688914Y-64546253D01*
X114669003Y-64459500D01*
X114613423Y-64389977D01*
X114533183Y-64351455D01*
X114488831Y-64346494D01*
X106384701Y-64349841D01*
X106297933Y-64369683D01*
X106228366Y-64425208D01*
X106189780Y-64505417D01*
X106184784Y-64550114D01*
X106187993Y-66899232D01*
X106184534Y-66969647D01*
X106184293Y-66979649D01*
X106187995Y-70906188D01*
X106185112Y-70964863D01*
X106161237Y-71084889D01*
X106116298Y-71193382D01*
X106051056Y-71291024D01*
X105968024Y-71374056D01*
X105870382Y-71439298D01*
X105761889Y-71484237D01*
X105646715Y-71507148D01*
X105529285Y-71507148D01*
X105414110Y-71484237D01*
X105305617Y-71439298D01*
X105207975Y-71374056D01*
X105124943Y-71291024D01*
X105059701Y-71193382D01*
X105014762Y-71084889D01*
X104991833Y-70969621D01*
X104988004Y-66908808D01*
X104991402Y-66839639D01*
X104991643Y-66829555D01*
X104988525Y-64546367D01*
X104968600Y-64459617D01*
X104913009Y-64390104D01*
X104832763Y-64351594D01*
X104788449Y-64346640D01*
X96685017Y-64349738D01*
X96598247Y-64369577D01*
X96528679Y-64425100D01*
X96490090Y-64505308D01*
X96485093Y-64549985D01*
X96487993Y-66899219D01*
X96484534Y-66969647D01*
X96484293Y-66979649D01*
X96487995Y-70906188D01*
X96485112Y-70964863D01*
X96461237Y-71084889D01*
X96416298Y-71193382D01*
X96351056Y-71291024D01*
X96268024Y-71374056D01*
X96170382Y-71439298D01*
X96061889Y-71484237D01*
X95946715Y-71507148D01*
X95829285Y-71507148D01*
X95714110Y-71484237D01*
X95605617Y-71439298D01*
X95507975Y-71374056D01*
X95424943Y-71291024D01*
X95359701Y-71193382D01*
X95314762Y-71084889D01*
X95291833Y-70969621D01*
X95288004Y-66908809D01*
X95291422Y-66839242D01*
X95291663Y-66829183D01*
X95288845Y-64546320D01*
X95268932Y-64459568D01*
X95213350Y-64390047D01*
X95133108Y-64351527D01*
X95088760Y-64346567D01*
X87327807Y-64349860D01*
X87241039Y-64369703D01*
X87186027Y-64408883D01*
X86842937Y-64754134D01*
X86795819Y-64829648D01*
X86784802Y-64895429D01*
X86787991Y-66899256D01*
X86784534Y-66969647D01*
X86784293Y-66979649D01*
X86787995Y-70906188D01*
X86785112Y-70964863D01*
X86761237Y-71084889D01*
X86716298Y-71193382D01*
X86651056Y-71291024D01*
X86568024Y-71374056D01*
X86470382Y-71439298D01*
X86361889Y-71484237D01*
X86246715Y-71507148D01*
X86129285Y-71507148D01*
X86014110Y-71484237D01*
X85905617Y-71439298D01*
X85807975Y-71374056D01*
X85724943Y-71291024D01*
X85659701Y-71193382D01*
X85614762Y-71084889D01*
X85591833Y-70969621D01*
X85588004Y-66908809D01*
X85591369Y-66840319D01*
X85591610Y-66830189D01*
X85588008Y-64566743D01*
X85590887Y-64508136D01*
X85614762Y-64388110D01*
X85659701Y-64279618D01*
X85664047Y-64273114D01*
X85664048Y-64273113D01*
X85725117Y-64181714D01*
X86572503Y-63328990D01*
X86615865Y-63289690D01*
X86717617Y-63221701D01*
X86826110Y-63176762D01*
X86941327Y-63153843D01*
X95995137Y-63150002D01*
X96067391Y-63153551D01*
X96077279Y-63153792D01*
X105995134Y-63150001D01*
X106067295Y-63153546D01*
X106077189Y-63153787D01*
X115245134Y-63150002D01*
X115317359Y-63153550D01*
X115327250Y-63153791D01*
X124995133Y-63150001D01*
X125067328Y-63153548D01*
X125077220Y-63153789D01*
X134495134Y-63150001D01*
X134567448Y-63153554D01*
X134577333Y-63153795D01*
X144995130Y-63150001D01*
X145067181Y-63153541D01*
G36*
X145067181Y-63153541D02*
G01*
X145077083Y-63153782D01*
X153495138Y-63150002D01*
X153553863Y-63152887D01*
X153673889Y-63176762D01*
X153782381Y-63221700D01*
X153880376Y-63287178D01*
X154509084Y-63910586D01*
X154548309Y-63953864D01*
X154606454Y-64040885D01*
X154606456Y-64040887D01*
X154616298Y-64055617D01*
X154661237Y-64164110D01*
X154684176Y-64279428D01*
X154687992Y-66899242D01*
X154684534Y-66969647D01*
X154684293Y-66979649D01*
X154687995Y-70906188D01*
X154685112Y-70964863D01*
X154661237Y-71084889D01*
X154616298Y-71193382D01*
X154551056Y-71291024D01*
X154468024Y-71374056D01*
X154370382Y-71439298D01*
X154261889Y-71484237D01*
X154146715Y-71507148D01*
X154029285Y-71507148D01*
X153914110Y-71484237D01*
X153805617Y-71439298D01*
X153707975Y-71374056D01*
X153624943Y-71291024D01*
X153559701Y-71193382D01*
X153514762Y-71084889D01*
X153491833Y-70969621D01*
X153488004Y-66908810D01*
X153491389Y-66839915D01*
X153491630Y-66829811D01*
X153488479Y-64666572D01*
X153468546Y-64579824D01*
X153429300Y-64524844D01*
X153307744Y-64404313D01*
X153232179Y-64357277D01*
X153166833Y-64346332D01*
X145328356Y-64349852D01*
X145241588Y-64369697D01*
X145186449Y-64409009D01*
X145042755Y-64553881D01*
X144995707Y-64629439D01*
X144984752Y-64695018D01*
X144987992Y-66899243D01*
X144984534Y-66969647D01*
X144984293Y-66979649D01*
X144987995Y-70906188D01*
X144985112Y-70964863D01*
X144961237Y-71084889D01*
X144916298Y-71193382D01*
X144851056Y-71291024D01*
X144768024Y-71374056D01*
X144670382Y-71439298D01*
X144561889Y-71484237D01*
X144446715Y-71507148D01*
X144329285Y-71507148D01*
X144214110Y-71484237D01*
X144105617Y-71439298D01*
X144007975Y-71374056D01*
X143924943Y-71291024D01*
X143859701Y-71193382D01*
X143814762Y-71084889D01*
X143791833Y-70969621D01*
X143788004Y-66908809D01*
X143791387Y-66839954D01*
X143791628Y-66829848D01*
X143788271Y-64546396D01*
X143768337Y-64459648D01*
X143712739Y-64390141D01*
X143632488Y-64351639D01*
X143588198Y-64346690D01*
X135484948Y-64349641D01*
X135398179Y-64369479D01*
X135328609Y-64425000D01*
X135290019Y-64505208D01*
X135285021Y-64549894D01*
X135287993Y-66899222D01*
X135284534Y-66969647D01*
X135284293Y-66979649D01*
X135287995Y-70906188D01*
X135285112Y-70964863D01*
X135261237Y-71084889D01*
X135216298Y-71193382D01*
X135151056Y-71291024D01*
X135068024Y-71374056D01*
X134970382Y-71439298D01*
X134861889Y-71484237D01*
X134746715Y-71507148D01*
X134629285Y-71507148D01*
X134514110Y-71484237D01*
X134405617Y-71439298D01*
X134307975Y-71374056D01*
X134224943Y-71291024D01*
X134159701Y-71193382D01*
X134114762Y-71084889D01*
X134091833Y-70969621D01*
X134088004Y-66908808D01*
X134091417Y-66839334D01*
X134091658Y-66829270D01*
X134088769Y-64546172D01*
X134068853Y-64459420D01*
X134013269Y-64389901D01*
X133933026Y-64351383D01*
X133888689Y-64346425D01*
X125785103Y-64349684D01*
X125698334Y-64369525D01*
X125628767Y-64425049D01*
X125590180Y-64505258D01*
X125585183Y-64549923D01*
X125587993Y-66899215D01*
X125584534Y-66969647D01*
X125584293Y-66979649D01*
X125587995Y-70906188D01*
X125585112Y-70964863D01*
X125561237Y-71084889D01*
X125516298Y-71193382D01*
X125451056Y-71291024D01*
X125368024Y-71374056D01*
X125270382Y-71439298D01*
X125161889Y-71484237D01*
X125046715Y-71507148D01*
X124929285Y-71507148D01*
X124814110Y-71484237D01*
X124705617Y-71439298D01*
X124607975Y-71374056D01*
X124524943Y-71291024D01*
X124459701Y-71193382D01*
X124414762Y-71084889D01*
X124391833Y-70969621D01*
X124388004Y-66908807D01*
X124391427Y-66839124D01*
X124391668Y-66829074D01*
X124388938Y-64546257D01*
X124369028Y-64459504D01*
X124313449Y-64389981D01*
X124233209Y-64351457D01*
X124188860Y-64346496D01*
X116085083Y-64349672D01*
X115998314Y-64369512D01*
X115928746Y-64425035D01*
X115890158Y-64505244D01*
X115885161Y-64549913D01*
X115887993Y-66899216D01*
X115884534Y-66969647D01*
X115884293Y-66979649D01*
X115887995Y-70906188D01*
X115885112Y-70964863D01*
X115861237Y-71084889D01*
X115816298Y-71193382D01*
X115751056Y-71291024D01*
X115668024Y-71374056D01*
X115570382Y-71439298D01*
X115461889Y-71484237D01*
X115346715Y-71507148D01*
X115229285Y-71507148D01*
X115114110Y-71484237D01*
X115005617Y-71439298D01*
X114907975Y-71374056D01*
X114824943Y-71291024D01*
X114759701Y-71193382D01*
X114714762Y-71084889D01*
X114691833Y-70969621D01*
X114688004Y-66908809D01*
X114691426Y-66839155D01*
X114691667Y-66829102D01*
X114688914Y-64546253D01*
X114669003Y-64459500D01*
X114613423Y-64389977D01*
X114533183Y-64351455D01*
X114488831Y-64346494D01*
X106384701Y-64349841D01*
X106297933Y-64369683D01*
X106228366Y-64425208D01*
X106189780Y-64505417D01*
X106184784Y-64550114D01*
X106187993Y-66899232D01*
X106184534Y-66969647D01*
X106184293Y-66979649D01*
X106187995Y-70906188D01*
X106185112Y-70964863D01*
X106161237Y-71084889D01*
X106116298Y-71193382D01*
X106051056Y-71291024D01*
X105968024Y-71374056D01*
X105870382Y-71439298D01*
X105761889Y-71484237D01*
X105646715Y-71507148D01*
X105529285Y-71507148D01*
X105414110Y-71484237D01*
X105305617Y-71439298D01*
X105207975Y-71374056D01*
X105124943Y-71291024D01*
X105059701Y-71193382D01*
X105014762Y-71084889D01*
X104991833Y-70969621D01*
X104988004Y-66908808D01*
X104991402Y-66839639D01*
X104991643Y-66829555D01*
X104988525Y-64546367D01*
X104968600Y-64459617D01*
X104913009Y-64390104D01*
X104832763Y-64351594D01*
X104788449Y-64346640D01*
X96685017Y-64349738D01*
X96598247Y-64369577D01*
X96528679Y-64425100D01*
X96490090Y-64505308D01*
X96485093Y-64549985D01*
X96487993Y-66899219D01*
X96484534Y-66969647D01*
X96484293Y-66979649D01*
X96487995Y-70906188D01*
X96485112Y-70964863D01*
X96461237Y-71084889D01*
X96416298Y-71193382D01*
X96351056Y-71291024D01*
X96268024Y-71374056D01*
X96170382Y-71439298D01*
X96061889Y-71484237D01*
X95946715Y-71507148D01*
X95829285Y-71507148D01*
X95714110Y-71484237D01*
X95605617Y-71439298D01*
X95507975Y-71374056D01*
X95424943Y-71291024D01*
X95359701Y-71193382D01*
X95314762Y-71084889D01*
X95291833Y-70969621D01*
X95288004Y-66908809D01*
X95291422Y-66839242D01*
X95291663Y-66829183D01*
X95288845Y-64546320D01*
X95268932Y-64459568D01*
X95213350Y-64390047D01*
X95133108Y-64351527D01*
X95088760Y-64346567D01*
X87327807Y-64349860D01*
X87241039Y-64369703D01*
X87186027Y-64408883D01*
X86842937Y-64754134D01*
X86795819Y-64829648D01*
X86784802Y-64895429D01*
X86787991Y-66899256D01*
X86784534Y-66969647D01*
X86784293Y-66979649D01*
X86787995Y-70906188D01*
X86785112Y-70964863D01*
X86761237Y-71084889D01*
X86716298Y-71193382D01*
X86651056Y-71291024D01*
X86568024Y-71374056D01*
X86470382Y-71439298D01*
X86361889Y-71484237D01*
X86246715Y-71507148D01*
X86129285Y-71507148D01*
X86014110Y-71484237D01*
X85905617Y-71439298D01*
X85807975Y-71374056D01*
X85724943Y-71291024D01*
X85659701Y-71193382D01*
X85614762Y-71084889D01*
X85591833Y-70969621D01*
X85588004Y-66908809D01*
X85591369Y-66840319D01*
X85591610Y-66830189D01*
X85588008Y-64566743D01*
X85590887Y-64508136D01*
X85614762Y-64388110D01*
X85659701Y-64279618D01*
X85664047Y-64273114D01*
X85664048Y-64273113D01*
X85725117Y-64181714D01*
X86572503Y-63328990D01*
X86615865Y-63289690D01*
X86717617Y-63221701D01*
X86826110Y-63176762D01*
X86941327Y-63153843D01*
X95995137Y-63150002D01*
X96067391Y-63153551D01*
X96077279Y-63153792D01*
X105995134Y-63150001D01*
X106067295Y-63153546D01*
X106077189Y-63153787D01*
X115245134Y-63150002D01*
X115317359Y-63153550D01*
X115327250Y-63153791D01*
X124995133Y-63150001D01*
X125067328Y-63153548D01*
X125077220Y-63153789D01*
X134495134Y-63150001D01*
X134567448Y-63153554D01*
X134577333Y-63153795D01*
X144995130Y-63150001D01*
X145067181Y-63153541D01*
G37*
X127831616Y-60267297D02*
X127852208Y-60375606D01*
X127910536Y-60469163D01*
X127998721Y-60535333D01*
X128104855Y-60565177D01*
X128131882Y-60566373D01*
X146446863Y-60550047D01*
X153809734Y-63249766D01*
X154667044Y-64450000D01*
X86047940Y-64450000D01*
X86019484Y-60321637D01*
X122426798Y-60496854D01*
X122535265Y-60477110D01*
X122629276Y-60419517D01*
X122696133Y-60331852D01*
X122726807Y-60225955D01*
X122728221Y-60196027D01*
X122700832Y-51050000D01*
X127800922Y-51050000D01*
X127831616Y-60267297D01*
G36*
X127831616Y-60267297D02*
G01*
X127852208Y-60375606D01*
X127910536Y-60469163D01*
X127998721Y-60535333D01*
X128104855Y-60565177D01*
X128131882Y-60566373D01*
X146446863Y-60550047D01*
X153809734Y-63249766D01*
X154667044Y-64450000D01*
X86047940Y-64450000D01*
X86019484Y-60321637D01*
X122426798Y-60496854D01*
X122535265Y-60477110D01*
X122629276Y-60419517D01*
X122696133Y-60331852D01*
X122726807Y-60225955D01*
X122728221Y-60196027D01*
X122700832Y-51050000D01*
X127800922Y-51050000D01*
X127831616Y-60267297D01*
G37*
D11*
%TO.C,J7*%
X139308000Y-70911000D03*
D12*
X141848000Y-70911000D03*
X144388000Y-70911000D03*
%TD*%
D11*
%TO.C,J16*%
X149008000Y-66904000D03*
D12*
X154088000Y-66904000D03*
%TD*%
D11*
%TO.C,J13*%
X119908000Y-66904000D03*
D12*
X124988000Y-66904000D03*
%TD*%
D11*
%TO.C,J6*%
X129608000Y-70911000D03*
D12*
X132148000Y-70911000D03*
X134688000Y-70911000D03*
%TD*%
D11*
%TO.C,J14*%
X129608000Y-66904000D03*
D12*
X134688000Y-66904000D03*
%TD*%
D11*
%TO.C,J4*%
X110208000Y-70911000D03*
D12*
X112748000Y-70911000D03*
X115288000Y-70911000D03*
%TD*%
D13*
%TO.C,H3*%
X165000000Y-45000000D03*
%TD*%
D11*
%TO.C,J10*%
X90808000Y-66904000D03*
D12*
X95888000Y-66904000D03*
%TD*%
D13*
%TO.C,H1*%
X72800000Y-45000000D03*
%TD*%
D11*
%TO.C,J1*%
X81108000Y-70911000D03*
D12*
X83648000Y-70911000D03*
X86188000Y-70911000D03*
%TD*%
D11*
%TO.C,J11*%
X100508000Y-66904000D03*
D12*
X105588000Y-66904000D03*
%TD*%
D11*
%TO.C,J5*%
X119908000Y-70911000D03*
D12*
X122448000Y-70911000D03*
X124988000Y-70911000D03*
%TD*%
D13*
%TO.C,H2*%
X72800000Y-75000000D03*
%TD*%
D11*
%TO.C,J2*%
X90808000Y-70911000D03*
D12*
X93348000Y-70911000D03*
X95888000Y-70911000D03*
%TD*%
D11*
%TO.C,J12*%
X110208000Y-66904000D03*
D12*
X115288000Y-66904000D03*
%TD*%
D11*
%TO.C,J9*%
X81108000Y-66904000D03*
D12*
X86188000Y-66904000D03*
%TD*%
D11*
%TO.C,J15*%
X139308000Y-66904000D03*
D12*
X144388000Y-66904000D03*
%TD*%
D11*
%TO.C,J3*%
X100508000Y-70911000D03*
D12*
X103048000Y-70911000D03*
X105588000Y-70911000D03*
%TD*%
D14*
%TO.C,J18*%
X82550000Y-47117000D03*
D15*
X85090000Y-47117000D03*
X82550000Y-49657000D03*
X85090000Y-49657000D03*
X82550000Y-52197000D03*
X85090000Y-52197000D03*
X82550000Y-54737000D03*
X85090000Y-54737000D03*
X82550000Y-57277000D03*
X85090000Y-57277000D03*
%TD*%
D16*
%TO.C,CN1*%
X148100000Y-57200000D03*
X155300000Y-57200000D03*
D17*
X158450000Y-51200000D03*
X144950000Y-51200000D03*
%TD*%
D11*
%TO.C,J8*%
X149008000Y-70911000D03*
D12*
X151548000Y-70911000D03*
X154088000Y-70911000D03*
%TD*%
D13*
%TO.C,H4*%
X165000000Y-75000000D03*
%TD*%
M02*
