%TF.GenerationSoftware,KiCad,Pcbnew,8.0.3*%
%TF.CreationDate,2024-11-21T16:05:02+01:00*%
%TF.ProjectId,LED Board,4c454420-426f-4617-9264-2e6b69636164,rev?*%
%TF.SameCoordinates,Original*%
%TF.FileFunction,Copper,L1,Top*%
%TF.FilePolarity,Positive*%
%FSLAX46Y46*%
G04 Gerber Fmt 4.6, Leading zero omitted, Abs format (unit mm)*
G04 Created by KiCad (PCBNEW 8.0.3) date 2024-11-21 16:05:02*
%MOMM*%
%LPD*%
G01*
G04 APERTURE LIST*
G04 Aperture macros list*
%AMRoundRect*
0 Rectangle with rounded corners*
0 $1 Rounding radius*
0 $2 $3 $4 $5 $6 $7 $8 $9 X,Y pos of 4 corners*
0 Add a 4 corners polygon primitive as box body*
4,1,4,$2,$3,$4,$5,$6,$7,$8,$9,$2,$3,0*
0 Add four circle primitives for the rounded corners*
1,1,$1+$1,$2,$3*
1,1,$1+$1,$4,$5*
1,1,$1+$1,$6,$7*
1,1,$1+$1,$8,$9*
0 Add four rect primitives between the rounded corners*
20,1,$1+$1,$2,$3,$4,$5,0*
20,1,$1+$1,$4,$5,$6,$7,0*
20,1,$1+$1,$6,$7,$8,$9,0*
20,1,$1+$1,$8,$9,$2,$3,0*%
G04 Aperture macros list end*
%TA.AperFunction,SMDPad,CuDef*%
%ADD10RoundRect,0.200000X-0.275000X0.200000X-0.275000X-0.200000X0.275000X-0.200000X0.275000X0.200000X0*%
%TD*%
%TA.AperFunction,ComponentPad*%
%ADD11R,1.700000X1.700000*%
%TD*%
%TA.AperFunction,ComponentPad*%
%ADD12O,1.700000X1.700000*%
%TD*%
%TA.AperFunction,ComponentPad*%
%ADD13C,3.600000*%
%TD*%
%TA.AperFunction,ConnectorPad*%
%ADD14C,5.600000*%
%TD*%
%TA.AperFunction,SMDPad,CuDef*%
%ADD15RoundRect,0.200000X-0.200000X-0.275000X0.200000X-0.275000X0.200000X0.275000X-0.200000X0.275000X0*%
%TD*%
%TA.AperFunction,SMDPad,CuDef*%
%ADD16R,1.250000X0.700000*%
%TD*%
%TA.AperFunction,SMDPad,CuDef*%
%ADD17RoundRect,0.250000X-0.337500X-0.475000X0.337500X-0.475000X0.337500X0.475000X-0.337500X0.475000X0*%
%TD*%
%TA.AperFunction,SMDPad,CuDef*%
%ADD18RoundRect,0.250000X-1.000000X-0.650000X1.000000X-0.650000X1.000000X0.650000X-1.000000X0.650000X0*%
%TD*%
%TA.AperFunction,SMDPad,CuDef*%
%ADD19RoundRect,0.250000X-1.500000X-1.000000X1.500000X-1.000000X1.500000X1.000000X-1.500000X1.000000X0*%
%TD*%
%TA.AperFunction,ComponentPad*%
%ADD20RoundRect,0.250000X-0.600000X-0.600000X0.600000X-0.600000X0.600000X0.600000X-0.600000X0.600000X0*%
%TD*%
%TA.AperFunction,ComponentPad*%
%ADD21C,1.700000*%
%TD*%
%TA.AperFunction,SMDPad,CuDef*%
%ADD22R,1.400000X3.800000*%
%TD*%
%TA.AperFunction,SMDPad,CuDef*%
%ADD23R,10.700000X8.800000*%
%TD*%
%TA.AperFunction,SMDPad,CuDef*%
%ADD24RoundRect,0.100000X-0.637500X-0.100000X0.637500X-0.100000X0.637500X0.100000X-0.637500X0.100000X0*%
%TD*%
%TA.AperFunction,ComponentPad*%
%ADD25C,3.800000*%
%TD*%
%TA.AperFunction,ComponentPad*%
%ADD26O,1.200000X2.200000*%
%TD*%
%TA.AperFunction,ViaPad*%
%ADD27C,0.800000*%
%TD*%
%TA.AperFunction,Conductor*%
%ADD28C,4.000000*%
%TD*%
%TA.AperFunction,Conductor*%
%ADD29C,2.000000*%
%TD*%
%TA.AperFunction,Conductor*%
%ADD30C,2.500000*%
%TD*%
%TA.AperFunction,Conductor*%
%ADD31C,1.000000*%
%TD*%
%TA.AperFunction,Conductor*%
%ADD32C,0.250000*%
%TD*%
%TA.AperFunction,Conductor*%
%ADD33C,0.500000*%
%TD*%
G04 APERTURE END LIST*
D10*
%TO.P,R2,1*%
%TO.N,Net-(U1-B1)*%
X91600000Y-57305000D03*
%TO.P,R2,2*%
%TO.N,/LED_B_2*%
X91600000Y-58955000D03*
%TD*%
D11*
%TO.P,J7,1,Pin_1*%
%TO.N,GND*%
X139308000Y-70911000D03*
D12*
%TO.P,J7,2,Pin_2*%
%TO.N,/LED_B_7*%
X141848000Y-70911000D03*
%TO.P,J7,3,Pin_3*%
%TO.N,+12V*%
X144388000Y-70911000D03*
%TD*%
D11*
%TO.P,J16,1,Pin_1*%
%TO.N,GND*%
X149008000Y-66904000D03*
D12*
%TO.P,J16,3,Pin_3*%
%TO.N,+12V*%
X154088000Y-66904000D03*
%TD*%
D11*
%TO.P,J13,1,Pin_1*%
%TO.N,GND*%
X119908000Y-66904000D03*
D12*
%TO.P,J13,3,Pin_3*%
%TO.N,+12V*%
X124988000Y-66904000D03*
%TD*%
D11*
%TO.P,J6,1,Pin_1*%
%TO.N,GND*%
X129608000Y-70911000D03*
D12*
%TO.P,J6,2,Pin_2*%
%TO.N,/LED_B_6*%
X132148000Y-70911000D03*
%TO.P,J6,3,Pin_3*%
%TO.N,+12V*%
X134688000Y-70911000D03*
%TD*%
D11*
%TO.P,J14,1,Pin_1*%
%TO.N,GND*%
X129608000Y-66904000D03*
D12*
%TO.P,J14,3,Pin_3*%
%TO.N,+12V*%
X134688000Y-66904000D03*
%TD*%
D11*
%TO.P,J4,1,Pin_1*%
%TO.N,GND*%
X110208000Y-70911000D03*
D12*
%TO.P,J4,2,Pin_2*%
%TO.N,/LED_B_4*%
X112748000Y-70911000D03*
%TO.P,J4,3,Pin_3*%
%TO.N,+12V*%
X115288000Y-70911000D03*
%TD*%
D13*
%TO.P,H3,1,1*%
%TO.N,unconnected-(H3-Pad1)*%
X165000000Y-45000000D03*
D14*
X165000000Y-45000000D03*
%TD*%
D11*
%TO.P,J10,1,Pin_1*%
%TO.N,GND*%
X90808000Y-66904000D03*
D12*
%TO.P,J10,3,Pin_3*%
%TO.N,+12V*%
X95888000Y-66904000D03*
%TD*%
D10*
%TO.P,R7,1*%
%TO.N,Net-(U1-B6)*%
X99562852Y-57305000D03*
%TO.P,R7,2*%
%TO.N,/LED_B_7*%
X99562852Y-58955000D03*
%TD*%
D13*
%TO.P,H1,1,1*%
%TO.N,unconnected-(H1-Pad1)*%
X72800000Y-45000000D03*
D14*
X72800000Y-45000000D03*
%TD*%
D11*
%TO.P,J1,1,Pin_1*%
%TO.N,GND*%
X81108000Y-70911000D03*
D12*
%TO.P,J1,2,Pin_2*%
%TO.N,/LED_B_1*%
X83648000Y-70911000D03*
%TO.P,J1,3,Pin_3*%
%TO.N,+12V*%
X86188000Y-70911000D03*
%TD*%
D15*
%TO.P,R9,1*%
%TO.N,+5V*%
X103804026Y-53259919D03*
%TO.P,R9,2*%
%TO.N,Net-(Q2-B)*%
X105454026Y-53259919D03*
%TD*%
D11*
%TO.P,J11,1,Pin_1*%
%TO.N,GND*%
X100508000Y-66904000D03*
D12*
%TO.P,J11,3,Pin_3*%
%TO.N,+12V*%
X105588000Y-66904000D03*
%TD*%
D16*
%TO.P,Q2,1,E*%
%TO.N,GND*%
X110000000Y-54600000D03*
%TO.P,Q2,2,B*%
%TO.N,Net-(Q2-B)*%
X110000000Y-56500000D03*
%TO.P,Q2,3,C*%
%TO.N,Net-(Q2-C)*%
X107500000Y-55550000D03*
%TD*%
D17*
%TO.P,C1,1*%
%TO.N,+5V*%
X93196500Y-45593000D03*
%TO.P,C1,2*%
%TO.N,GND*%
X95271500Y-45593000D03*
%TD*%
D11*
%TO.P,J5,1,Pin_1*%
%TO.N,GND*%
X119908000Y-70911000D03*
D12*
%TO.P,J5,2,Pin_2*%
%TO.N,/LED_B_5*%
X122448000Y-70911000D03*
%TO.P,J5,3,Pin_3*%
%TO.N,+12V*%
X124988000Y-70911000D03*
%TD*%
D18*
%TO.P,D1,1,K*%
%TO.N,+BATT*%
X163500000Y-51750000D03*
%TO.P,D1,2,A*%
%TO.N,GND*%
X167500000Y-51750000D03*
%TD*%
D15*
%TO.P,R10,1*%
%TO.N,Net-(Q2-C)*%
X112330000Y-53000000D03*
%TO.P,R10,2*%
%TO.N,+BATT*%
X113980000Y-53000000D03*
%TD*%
D10*
%TO.P,R3,1*%
%TO.N,Net-(U1-B2)*%
X93200000Y-57305000D03*
%TO.P,R3,2*%
%TO.N,/LED_B_3*%
X93200000Y-58955000D03*
%TD*%
D13*
%TO.P,H2,1,1*%
%TO.N,unconnected-(H2-Pad1)*%
X72800000Y-75000000D03*
D14*
X72800000Y-75000000D03*
%TD*%
D10*
%TO.P,R5,1*%
%TO.N,Net-(U1-B4)*%
X96400000Y-57305000D03*
%TO.P,R5,2*%
%TO.N,/LED_B_5*%
X96400000Y-58955000D03*
%TD*%
%TO.P,R8,1*%
%TO.N,Net-(U1-B7)*%
X101200000Y-57305000D03*
%TO.P,R8,2*%
%TO.N,/LED_B_8*%
X101200000Y-58955000D03*
%TD*%
D11*
%TO.P,J2,1,Pin_1*%
%TO.N,GND*%
X90808000Y-70911000D03*
D12*
%TO.P,J2,2,Pin_2*%
%TO.N,/LED_B_2*%
X93348000Y-70911000D03*
%TO.P,J2,3,Pin_3*%
%TO.N,+12V*%
X95888000Y-70911000D03*
%TD*%
D19*
%TO.P,C2,1*%
%TO.N,+BATT*%
X133150000Y-46000000D03*
%TO.P,C2,2*%
%TO.N,GND*%
X139650000Y-46000000D03*
%TD*%
D11*
%TO.P,J12,1,Pin_1*%
%TO.N,GND*%
X110208000Y-66904000D03*
D12*
%TO.P,J12,3,Pin_3*%
%TO.N,+12V*%
X115288000Y-66904000D03*
%TD*%
D11*
%TO.P,J9,1,Pin_1*%
%TO.N,GND*%
X81108000Y-66904000D03*
D12*
%TO.P,J9,3,Pin_3*%
%TO.N,+12V*%
X86188000Y-66904000D03*
%TD*%
D10*
%TO.P,R4,1*%
%TO.N,Net-(U1-B3)*%
X94800000Y-57305000D03*
%TO.P,R4,2*%
%TO.N,/LED_B_4*%
X94800000Y-58955000D03*
%TD*%
D11*
%TO.P,J15,1,Pin_1*%
%TO.N,GND*%
X139308000Y-66904000D03*
D12*
%TO.P,J15,3,Pin_3*%
%TO.N,+12V*%
X144388000Y-66904000D03*
%TD*%
D11*
%TO.P,J3,1,Pin_1*%
%TO.N,GND*%
X100508000Y-70911000D03*
D12*
%TO.P,J3,2,Pin_2*%
%TO.N,/LED_B_3*%
X103048000Y-70911000D03*
%TO.P,J3,3,Pin_3*%
%TO.N,+12V*%
X105588000Y-70911000D03*
%TD*%
D10*
%TO.P,R6,1*%
%TO.N,Net-(U1-B5)*%
X98000000Y-57305000D03*
%TO.P,R6,2*%
%TO.N,/LED_B_6*%
X98000000Y-58955000D03*
%TD*%
D20*
%TO.P,J18,1,Pin_1*%
%TO.N,GND*%
X82550000Y-47117000D03*
D21*
%TO.P,J18,2,Pin_2*%
%TO.N,+5V*%
X85090000Y-47117000D03*
%TO.P,J18,3,Pin_3*%
%TO.N,/LED_1*%
X82550000Y-49657000D03*
%TO.P,J18,4,Pin_4*%
%TO.N,/LED_2*%
X85090000Y-49657000D03*
%TO.P,J18,5,Pin_5*%
%TO.N,/LED_3*%
X82550000Y-52197000D03*
%TO.P,J18,6,Pin_6*%
%TO.N,/LED_4*%
X85090000Y-52197000D03*
%TO.P,J18,7,Pin_7*%
%TO.N,/LED_5*%
X82550000Y-54737000D03*
%TO.P,J18,8,Pin_8*%
%TO.N,/LED_6*%
X85090000Y-54737000D03*
%TO.P,J18,9,Pin_9*%
%TO.N,/LED_7*%
X82550000Y-57277000D03*
%TO.P,J18,10,Pin_10*%
%TO.N,/LED_8*%
X85090000Y-57277000D03*
%TD*%
D22*
%TO.P,U2,1,G*%
%TO.N,Net-(Q2-C)*%
X119960000Y-55800000D03*
D23*
%TO.P,U2,2,D*%
%TO.N,+BATT*%
X122500000Y-45000000D03*
D22*
%TO.P,U2,3,S*%
%TO.N,+12V*%
X125040000Y-55800000D03*
%TD*%
D10*
%TO.P,R1,1*%
%TO.N,Net-(U1-B0)*%
X90000000Y-57305000D03*
%TO.P,R1,2*%
%TO.N,/LED_B_1*%
X90000000Y-58955000D03*
%TD*%
D24*
%TO.P,U1,1,A->B*%
%TO.N,+5V*%
X93335000Y-48379000D03*
%TO.P,U1,2,A0*%
%TO.N,/LED_1*%
X93335000Y-49029000D03*
%TO.P,U1,3,A1*%
%TO.N,/LED_2*%
X93335000Y-49679000D03*
%TO.P,U1,4,A2*%
%TO.N,/LED_3*%
X93335000Y-50329000D03*
%TO.P,U1,5,A3*%
%TO.N,/LED_4*%
X93335000Y-50979000D03*
%TO.P,U1,6,A4*%
%TO.N,/LED_5*%
X93335000Y-51629000D03*
%TO.P,U1,7,A5*%
%TO.N,/LED_6*%
X93335000Y-52279000D03*
%TO.P,U1,8,A6*%
%TO.N,/LED_7*%
X93335000Y-52929000D03*
%TO.P,U1,9,A7*%
%TO.N,/LED_8*%
X93335000Y-53579000D03*
%TO.P,U1,10,GND*%
%TO.N,GND*%
X93335000Y-54229000D03*
%TO.P,U1,11,B7*%
%TO.N,Net-(U1-B7)*%
X99060000Y-54229000D03*
%TO.P,U1,12,B6*%
%TO.N,Net-(U1-B6)*%
X99060000Y-53579000D03*
%TO.P,U1,13,B5*%
%TO.N,Net-(U1-B5)*%
X99060000Y-52929000D03*
%TO.P,U1,14,B4*%
%TO.N,Net-(U1-B4)*%
X99060000Y-52279000D03*
%TO.P,U1,15,B3*%
%TO.N,Net-(U1-B3)*%
X99060000Y-51629000D03*
%TO.P,U1,16,B2*%
%TO.N,Net-(U1-B2)*%
X99060000Y-50979000D03*
%TO.P,U1,17,B1*%
%TO.N,Net-(U1-B1)*%
X99060000Y-50329000D03*
%TO.P,U1,18,B0*%
%TO.N,Net-(U1-B0)*%
X99060000Y-49679000D03*
%TO.P,U1,19,CE*%
%TO.N,GND*%
X99060000Y-49029000D03*
%TO.P,U1,20,VCC*%
%TO.N,+5V*%
X99060000Y-48379000D03*
%TD*%
D25*
%TO.P,CN1,1,-*%
%TO.N,GND*%
X148100000Y-57200000D03*
%TO.P,CN1,2,+*%
%TO.N,+BATT*%
X155300000Y-57200000D03*
D26*
%TO.P,CN1,3,3*%
%TO.N,unconnected-(CN1-Pad3)*%
X158450000Y-51200000D03*
%TO.P,CN1,4,4*%
%TO.N,unconnected-(CN1-Pad4)*%
X144950000Y-51200000D03*
%TD*%
D11*
%TO.P,J8,1,Pin_1*%
%TO.N,GND*%
X149008000Y-70911000D03*
D12*
%TO.P,J8,2,Pin_2*%
%TO.N,/LED_B_8*%
X151548000Y-70911000D03*
%TO.P,J8,3,Pin_3*%
%TO.N,+12V*%
X154088000Y-70911000D03*
%TD*%
D13*
%TO.P,H4,1,1*%
%TO.N,unconnected-(H4-Pad1)*%
X165000000Y-75000000D03*
D14*
X165000000Y-75000000D03*
%TD*%
D27*
%TO.N,+BATT*%
X149500000Y-43750000D03*
X149500000Y-46750000D03*
X149500000Y-41000000D03*
X149500000Y-45250000D03*
X149500000Y-42500000D03*
X150750000Y-43750000D03*
X150750000Y-46750000D03*
X150750000Y-41000000D03*
X150750000Y-45250000D03*
X150750000Y-42500000D03*
X152000000Y-43750000D03*
X152000000Y-46750000D03*
X152000000Y-41000000D03*
X152000000Y-45250000D03*
X152000000Y-42500000D03*
%TO.N,+12V*%
X123500000Y-52750000D03*
X123000000Y-56750000D03*
X123000000Y-53750000D03*
X123000000Y-55250000D03*
X123000000Y-59500000D03*
X123000000Y-58000000D03*
%TO.N,+BATT*%
X126500000Y-46750000D03*
X127750000Y-47750000D03*
X127750000Y-45250000D03*
X126500000Y-44250000D03*
X127750000Y-42750000D03*
X124000000Y-46750000D03*
X125250000Y-47750000D03*
X125250000Y-45250000D03*
X124000000Y-44250000D03*
X125250000Y-42750000D03*
X122500000Y-42500000D03*
X120000000Y-42500000D03*
X117500000Y-47500000D03*
X120000000Y-47500000D03*
X121250000Y-44000000D03*
X120000000Y-45000000D03*
X118750000Y-46250000D03*
X118750000Y-43750000D03*
X122500000Y-45000000D03*
X122500000Y-47500000D03*
X121250000Y-46500000D03*
X117500000Y-45000000D03*
X117500000Y-42500000D03*
X153500000Y-42500000D03*
X153500000Y-45250000D03*
%TO.N,+12V*%
X127250000Y-58000000D03*
%TO.N,+BATT*%
X156500000Y-41000000D03*
X156500000Y-45250000D03*
%TO.N,+12V*%
X127250000Y-59500000D03*
X124500000Y-52250000D03*
%TO.N,+BATT*%
X155000000Y-41000000D03*
%TO.N,+12V*%
X124500000Y-59500000D03*
X126000000Y-59500000D03*
%TO.N,+BATT*%
X156500000Y-46750000D03*
%TO.N,+12V*%
X125750000Y-52250000D03*
%TO.N,+BATT*%
X153500000Y-41000000D03*
X153500000Y-46750000D03*
X155000000Y-46750000D03*
%TO.N,+12V*%
X126000000Y-58500000D03*
X124500000Y-58500000D03*
X127250000Y-55250000D03*
%TO.N,+BATT*%
X155000000Y-43750000D03*
%TO.N,+12V*%
X127250000Y-53750000D03*
%TO.N,+BATT*%
X155000000Y-45250000D03*
X155000000Y-42500000D03*
X156500000Y-42500000D03*
%TO.N,+12V*%
X126750000Y-52500000D03*
X127250000Y-56750000D03*
%TO.N,+BATT*%
X156500000Y-43750000D03*
X153500000Y-43750000D03*
%TO.N,GND*%
X137500000Y-55500000D03*
X140500000Y-56500000D03*
X137500000Y-53500000D03*
X140500000Y-52500000D03*
X139000000Y-52500000D03*
X140500000Y-55500000D03*
X137500000Y-56500000D03*
X140500000Y-54500000D03*
X139000000Y-54500000D03*
X137500000Y-54500000D03*
X139000000Y-57500000D03*
X137500000Y-52500000D03*
X139000000Y-55500000D03*
X139000000Y-53500000D03*
X140500000Y-53500000D03*
X140500000Y-57500000D03*
X139000000Y-56500000D03*
X137500000Y-57500000D03*
X157750000Y-80250000D03*
X159250000Y-76250000D03*
X160750000Y-80250000D03*
X160750000Y-76250000D03*
X160750000Y-77250000D03*
X157750000Y-79250000D03*
X159250000Y-79250000D03*
X159250000Y-75250000D03*
X159250000Y-77250000D03*
X157750000Y-78250000D03*
X160750000Y-75250000D03*
X157750000Y-76250000D03*
X159250000Y-80250000D03*
X157750000Y-77250000D03*
X160750000Y-78250000D03*
X157750000Y-75250000D03*
X159250000Y-78250000D03*
X160750000Y-79250000D03*
%TD*%
D28*
%TO.N,GND*%
X139000000Y-57500000D02*
X144250000Y-62750000D01*
X144250000Y-62750000D02*
X156750000Y-62750000D01*
X156750000Y-62750000D02*
X159250000Y-65250000D01*
X159250000Y-65250000D02*
X159250000Y-79250000D01*
D29*
%TO.N,+BATT*%
X163500000Y-51750000D02*
X163500000Y-50500000D01*
X163500000Y-50500000D02*
X156750000Y-43750000D01*
X156750000Y-43750000D02*
X156500000Y-43750000D01*
D30*
X133150000Y-46000000D02*
X137400000Y-41750000D01*
X137400000Y-41750000D02*
X145850000Y-41750000D01*
X145850000Y-41750000D02*
X155300000Y-51200000D01*
X155300000Y-51200000D02*
X155300000Y-57200000D01*
D29*
%TO.N,GND*%
X160750000Y-75250000D02*
X160750000Y-80250000D01*
X157750000Y-75250000D02*
X157750000Y-80250000D01*
X137500000Y-52500000D02*
X137500000Y-57500000D01*
X140500000Y-52500000D02*
X140500000Y-57500000D01*
X139000000Y-52500000D02*
X139000000Y-57500000D01*
D30*
%TO.N,+BATT*%
X133150000Y-46000000D02*
X123500000Y-46000000D01*
X123500000Y-46000000D02*
X122500000Y-45000000D01*
D31*
%TO.N,+5V*%
X86614000Y-45593000D02*
X93196500Y-45593000D01*
D32*
X102259919Y-53259919D02*
X102000000Y-53000000D01*
D33*
X93335000Y-45731500D02*
X93196500Y-45593000D01*
D32*
X102000000Y-49280500D02*
X101098500Y-48379000D01*
X102000000Y-53000000D02*
X102000000Y-49280500D01*
D31*
X85090000Y-47117000D02*
X86614000Y-45593000D01*
D32*
X103804026Y-53259919D02*
X102259919Y-53259919D01*
D33*
X93335000Y-48379000D02*
X99060000Y-48379000D01*
X93335000Y-48379000D02*
X93335000Y-45731500D01*
D32*
X101098500Y-48379000D02*
X99060000Y-48379000D01*
%TO.N,+BATT*%
X117500000Y-49300000D02*
X117500000Y-47500000D01*
X113800000Y-53000000D02*
X117500000Y-49300000D01*
%TO.N,/LED_B_1*%
X83648000Y-65352000D02*
X90045000Y-58955000D01*
X83648000Y-70911000D02*
X83648000Y-65352000D01*
%TO.N,/LED_B_2*%
X93348000Y-70911000D02*
X93400000Y-70859000D01*
X93348000Y-70911000D02*
X93348000Y-60703000D01*
X93348000Y-60703000D02*
X91600000Y-58955000D01*
%TO.N,/LED_B_3*%
X103048000Y-70911000D02*
X103048000Y-65048000D01*
X99200000Y-61200000D02*
X95000000Y-61200000D01*
X95000000Y-61200000D02*
X93200000Y-59400000D01*
X103048000Y-65048000D02*
X99200000Y-61200000D01*
X93200000Y-59400000D02*
X93200000Y-58955000D01*
%TO.N,/LED_B_4*%
X99450000Y-60850000D02*
X102326371Y-63726371D01*
X111226371Y-63726371D02*
X112748000Y-65248000D01*
X94800000Y-58955000D02*
X96695000Y-60850000D01*
X102326371Y-63726371D02*
X111226371Y-63726371D01*
X112748000Y-65248000D02*
X112748000Y-70911000D01*
X96695000Y-60850000D02*
X99450000Y-60850000D01*
%TO.N,/LED_B_5*%
X122448000Y-65448000D02*
X120246000Y-63246000D01*
X102446000Y-63246000D02*
X99700000Y-60500000D01*
X122448000Y-70911000D02*
X122448000Y-65448000D01*
X99700000Y-60500000D02*
X97945000Y-60500000D01*
X97945000Y-60500000D02*
X96400000Y-58955000D01*
X120246000Y-63246000D02*
X102446000Y-63246000D01*
%TO.N,/LED_B_6*%
X132148000Y-70911000D02*
X132148000Y-64148000D01*
X99195000Y-60150000D02*
X98000000Y-58955000D01*
X99950000Y-60150000D02*
X99195000Y-60150000D01*
X130796000Y-62796000D02*
X102596000Y-62796000D01*
X102596000Y-62796000D02*
X99950000Y-60150000D01*
X132148000Y-64148000D02*
X130796000Y-62796000D01*
%TO.N,/LED_B_7*%
X99562852Y-59355000D02*
X99562852Y-58955000D01*
X102553852Y-62346000D02*
X99562852Y-59355000D01*
X141848000Y-66951554D02*
X137242446Y-62346000D01*
X137242446Y-62346000D02*
X102553852Y-62346000D01*
X141848000Y-70911000D02*
X141848000Y-66951554D01*
%TO.N,/LED_B_8*%
X104141000Y-61896000D02*
X101200000Y-58955000D01*
X151548000Y-70911000D02*
X149637000Y-69000000D01*
X149637000Y-69000000D02*
X144500000Y-69000000D01*
X144500000Y-69000000D02*
X137396000Y-61896000D01*
X137396000Y-61896000D02*
X104141000Y-61896000D01*
%TO.N,/LED_1*%
X83725000Y-48482000D02*
X91345000Y-48482000D01*
X91345000Y-48482000D02*
X91892000Y-49029000D01*
X82550000Y-49657000D02*
X83725000Y-48482000D01*
X91892000Y-49029000D02*
X93335000Y-49029000D01*
%TO.N,/LED_2*%
X85112000Y-49679000D02*
X85090000Y-49657000D01*
X93335000Y-49679000D02*
X85112000Y-49679000D01*
%TO.N,/LED_3*%
X93335000Y-50329000D02*
X86196000Y-50329000D01*
X85503000Y-51022000D02*
X83725000Y-51022000D01*
X83725000Y-51022000D02*
X82550000Y-52197000D01*
X86196000Y-50329000D02*
X85503000Y-51022000D01*
%TO.N,/LED_4*%
X86308000Y-50979000D02*
X85090000Y-52197000D01*
X93335000Y-50979000D02*
X86308000Y-50979000D01*
%TO.N,/LED_5*%
X85576701Y-53562000D02*
X83725000Y-53562000D01*
X83725000Y-53562000D02*
X82550000Y-54737000D01*
X87509701Y-51629000D02*
X85576701Y-53562000D01*
X93335000Y-51629000D02*
X87509701Y-51629000D01*
%TO.N,/LED_8*%
X85090000Y-57277000D02*
X88788000Y-53579000D01*
X88788000Y-53579000D02*
X93335000Y-53579000D01*
%TO.N,/LED_7*%
X93335000Y-52929000D02*
X88749701Y-52929000D01*
X85576701Y-56102000D02*
X83725000Y-56102000D01*
X83725000Y-56102000D02*
X82550000Y-57277000D01*
X88749701Y-52929000D02*
X85576701Y-56102000D01*
%TO.N,/LED_6*%
X87548000Y-52279000D02*
X85090000Y-54737000D01*
X93335000Y-52279000D02*
X87548000Y-52279000D01*
%TO.N,Net-(U1-B0)*%
X90000000Y-57305000D02*
X90000000Y-57000000D01*
X93400000Y-56000000D02*
X91305000Y-56000000D01*
X98013624Y-49679000D02*
X94397500Y-53295124D01*
X99060000Y-49679000D02*
X98013624Y-49679000D01*
X91305000Y-56000000D02*
X90000000Y-57305000D01*
X94397500Y-53295124D02*
X94397500Y-55002500D01*
X94397500Y-55002500D02*
X93400000Y-56000000D01*
%TO.N,Net-(U1-B1)*%
X98000020Y-50329000D02*
X99060000Y-50329000D01*
X94747500Y-53581520D02*
X98000020Y-50329000D01*
X94747500Y-55152500D02*
X94747500Y-53581520D01*
X92505000Y-56400000D02*
X93500000Y-56400000D01*
X93500000Y-56400000D02*
X94747500Y-55152500D01*
X91600000Y-57305000D02*
X92505000Y-56400000D01*
%TO.N,Net-(U1-B2)*%
X95097500Y-55302500D02*
X93200000Y-57200000D01*
X97986416Y-50979000D02*
X95097500Y-53867916D01*
X93200000Y-57200000D02*
X93200000Y-57305000D01*
X95097500Y-53867916D02*
X95097500Y-55302500D01*
X99060000Y-50979000D02*
X97986416Y-50979000D01*
%TO.N,Net-(U1-B3)*%
X97972812Y-51629000D02*
X95600000Y-54001812D01*
X95600000Y-54001812D02*
X95600000Y-56505000D01*
X95600000Y-56505000D02*
X94800000Y-57305000D01*
X99060000Y-51629000D02*
X97972812Y-51629000D01*
%TO.N,Net-(U1-B4)*%
X99060000Y-52279000D02*
X97959208Y-52279000D01*
X96400000Y-53838208D02*
X96400000Y-57305000D01*
X97959208Y-52279000D02*
X96400000Y-53838208D01*
%TO.N,Net-(U1-B5)*%
X97086000Y-56391000D02*
X98000000Y-57305000D01*
X97086000Y-53788604D02*
X97086000Y-56391000D01*
X97945604Y-52929000D02*
X97086000Y-53788604D01*
X99060000Y-52929000D02*
X97945604Y-52929000D01*
%TO.N,Net-(U1-B6)*%
X99060000Y-53579000D02*
X97932000Y-53579000D01*
X97800000Y-55542148D02*
X97800000Y-53711000D01*
X99562852Y-57305000D02*
X97800000Y-55542148D01*
X97932000Y-53579000D02*
X97800000Y-53711000D01*
%TO.N,Net-(U1-B7)*%
X99060000Y-54229000D02*
X100029000Y-54229000D01*
X100029000Y-54229000D02*
X101200000Y-55400000D01*
X101200000Y-55400000D02*
X101200000Y-57305000D01*
%TO.N,Net-(Q2-C)*%
X112330000Y-53000000D02*
X110050000Y-53000000D01*
X107500000Y-55550000D02*
X119710000Y-55550000D01*
X119710000Y-55550000D02*
X119960000Y-55800000D01*
X107500000Y-55550000D02*
X110050000Y-53000000D01*
%TO.N,Net-(Q2-B)*%
X105454026Y-55129026D02*
X106825000Y-56500000D01*
X105454026Y-53259919D02*
X105454026Y-55129026D01*
X106825000Y-56500000D02*
X110000000Y-56500000D01*
%TD*%
%TA.AperFunction,Conductor*%
%TO.N,GND*%
G36*
X127498315Y-39770685D02*
G01*
X127544070Y-39823489D01*
X127554014Y-39892647D01*
X127552441Y-39901364D01*
X127529639Y-40006155D01*
X127539895Y-40149671D01*
X127554742Y-40217941D01*
X127560050Y-40232174D01*
X127565029Y-40301866D01*
X127531540Y-40363187D01*
X127470215Y-40396668D01*
X127443865Y-40399500D01*
X117130247Y-40399500D01*
X117071770Y-40411131D01*
X117071769Y-40411132D01*
X117005447Y-40455447D01*
X116961132Y-40521769D01*
X116961131Y-40521770D01*
X116949500Y-40580247D01*
X116949500Y-42235176D01*
X116940061Y-42282628D01*
X116914957Y-42343234D01*
X116914955Y-42343239D01*
X116894318Y-42499998D01*
X116894318Y-42500001D01*
X116914955Y-42656760D01*
X116914956Y-42656762D01*
X116940061Y-42717370D01*
X116949500Y-42764823D01*
X116949500Y-44735176D01*
X116940061Y-44782628D01*
X116914957Y-44843234D01*
X116914955Y-44843239D01*
X116894318Y-44999998D01*
X116894318Y-45000001D01*
X116914955Y-45156760D01*
X116914956Y-45156762D01*
X116940061Y-45217370D01*
X116949500Y-45264823D01*
X116949500Y-47235176D01*
X116940061Y-47282628D01*
X116914957Y-47343234D01*
X116914955Y-47343239D01*
X116894318Y-47499998D01*
X116894318Y-47500001D01*
X116914955Y-47656760D01*
X116914956Y-47656762D01*
X116940061Y-47717370D01*
X116949500Y-47764823D01*
X116949500Y-49338810D01*
X116929815Y-49405849D01*
X116913181Y-49426491D01*
X114051490Y-52288181D01*
X113990167Y-52321666D01*
X113963810Y-52324500D01*
X113748482Y-52324500D01*
X113667519Y-52337323D01*
X113654696Y-52339354D01*
X113541658Y-52396950D01*
X113541657Y-52396951D01*
X113541652Y-52396954D01*
X113451954Y-52486652D01*
X113451951Y-52486657D01*
X113394352Y-52599698D01*
X113379500Y-52693475D01*
X113379500Y-53306517D01*
X113388259Y-53361819D01*
X113394354Y-53400304D01*
X113451950Y-53513342D01*
X113451952Y-53513344D01*
X113451954Y-53513347D01*
X113541652Y-53603045D01*
X113541654Y-53603046D01*
X113541658Y-53603050D01*
X113653860Y-53660220D01*
X113654698Y-53660647D01*
X113748475Y-53675499D01*
X113748481Y-53675500D01*
X114211518Y-53675499D01*
X114305304Y-53660646D01*
X114418342Y-53603050D01*
X114508050Y-53513342D01*
X114565646Y-53400304D01*
X114565646Y-53400302D01*
X114565647Y-53400301D01*
X114580499Y-53306524D01*
X114580500Y-53306519D01*
X114580499Y-52731187D01*
X114600183Y-52664149D01*
X114616813Y-52643512D01*
X116352187Y-50908139D01*
X121994500Y-50908139D01*
X121994500Y-59991859D01*
X121995583Y-60024942D01*
X121996644Y-60041131D01*
X121999887Y-60074049D01*
X122013730Y-60179198D01*
X122026630Y-60244054D01*
X122035008Y-60275323D01*
X122056262Y-60337934D01*
X122056266Y-60337945D01*
X122093714Y-60428354D01*
X122122970Y-60487680D01*
X122139149Y-60515702D01*
X122175880Y-60570673D01*
X122175885Y-60570680D01*
X122235468Y-60648330D01*
X122248175Y-60662819D01*
X122279070Y-60698048D01*
X122301950Y-60720928D01*
X122301956Y-60720933D01*
X122351669Y-60764531D01*
X122429319Y-60824114D01*
X122429325Y-60824118D01*
X122484296Y-60860849D01*
X122512318Y-60877028D01*
X122512322Y-60877030D01*
X122512329Y-60877034D01*
X122571635Y-60906280D01*
X122571640Y-60906282D01*
X122571644Y-60906284D01*
X122616848Y-60925008D01*
X122662062Y-60943736D01*
X122724674Y-60964990D01*
X122755941Y-60973368D01*
X122820793Y-60986268D01*
X122866649Y-60992305D01*
X122866652Y-60992306D01*
X122866652Y-60992305D01*
X122900361Y-60996743D01*
X122912922Y-60998397D01*
X122912922Y-60998398D01*
X122925946Y-61000113D01*
X122951993Y-61002678D01*
X122958862Y-61003355D01*
X122958867Y-61003355D01*
X122958874Y-61003356D01*
X122975059Y-61004417D01*
X123008126Y-61005500D01*
X123008140Y-61005500D01*
X127741860Y-61005500D01*
X127741874Y-61005500D01*
X127774943Y-61004417D01*
X127791127Y-61003356D01*
X127824042Y-61000114D01*
X127835382Y-60998621D01*
X127929208Y-60986268D01*
X127994058Y-60973368D01*
X128025325Y-60964990D01*
X128087937Y-60943736D01*
X128178364Y-60906280D01*
X128237670Y-60877034D01*
X128265703Y-60860849D01*
X128320680Y-60824114D01*
X128398330Y-60764531D01*
X128448043Y-60720933D01*
X128470933Y-60698043D01*
X128514531Y-60648330D01*
X128574114Y-60570680D01*
X128610849Y-60515703D01*
X128627034Y-60487670D01*
X128656280Y-60428364D01*
X128693736Y-60337937D01*
X128714990Y-60275325D01*
X128723368Y-60244058D01*
X128736268Y-60179209D01*
X128750114Y-60074045D01*
X128753356Y-60041125D01*
X128754417Y-60024939D01*
X128755500Y-59991874D01*
X128755500Y-57199994D01*
X145695255Y-57199994D01*
X145695255Y-57200005D01*
X145714215Y-57501383D01*
X145714216Y-57501390D01*
X145770805Y-57798040D01*
X145864125Y-58085247D01*
X145864127Y-58085252D01*
X145992704Y-58358491D01*
X145992707Y-58358497D01*
X146154516Y-58613469D01*
X146235311Y-58711133D01*
X146913128Y-58033316D01*
X146993994Y-58144618D01*
X147155382Y-58306006D01*
X147266681Y-58386870D01*
X146586564Y-59066987D01*
X146586565Y-59066989D01*
X146811461Y-59230385D01*
X146811479Y-59230397D01*
X147076109Y-59375878D01*
X147076117Y-59375882D01*
X147356889Y-59487047D01*
X147356892Y-59487048D01*
X147649399Y-59562150D01*
X147948995Y-59599999D01*
X147949007Y-59600000D01*
X148250993Y-59600000D01*
X148251004Y-59599999D01*
X148550600Y-59562150D01*
X148843107Y-59487048D01*
X148843110Y-59487047D01*
X149123882Y-59375882D01*
X149123890Y-59375878D01*
X149388520Y-59230397D01*
X149388530Y-59230390D01*
X149613433Y-59066987D01*
X149613434Y-59066987D01*
X148933317Y-58386870D01*
X149044618Y-58306006D01*
X149206006Y-58144618D01*
X149286870Y-58033317D01*
X149964687Y-58711134D01*
X150045486Y-58613464D01*
X150207292Y-58358497D01*
X150207295Y-58358491D01*
X150335872Y-58085252D01*
X150335874Y-58085247D01*
X150429194Y-57798040D01*
X150485783Y-57501390D01*
X150485784Y-57501383D01*
X150504745Y-57200005D01*
X150504745Y-57199994D01*
X150485784Y-56898616D01*
X150485783Y-56898609D01*
X150429194Y-56601959D01*
X150335874Y-56314752D01*
X150335872Y-56314747D01*
X150207295Y-56041508D01*
X150207292Y-56041502D01*
X150045483Y-55786530D01*
X149964686Y-55688864D01*
X149286869Y-56366681D01*
X149206006Y-56255382D01*
X149044618Y-56093994D01*
X148933316Y-56013128D01*
X149613434Y-55333011D01*
X149613433Y-55333009D01*
X149388538Y-55169614D01*
X149388520Y-55169602D01*
X149123890Y-55024121D01*
X149123882Y-55024117D01*
X148843110Y-54912952D01*
X148843107Y-54912951D01*
X148550600Y-54837849D01*
X148251004Y-54800000D01*
X147948995Y-54800000D01*
X147649399Y-54837849D01*
X147356892Y-54912951D01*
X147356889Y-54912952D01*
X147076117Y-55024117D01*
X147076109Y-55024121D01*
X146811476Y-55169604D01*
X146811471Y-55169607D01*
X146586565Y-55333010D01*
X146586564Y-55333011D01*
X147266682Y-56013129D01*
X147155382Y-56093994D01*
X146993994Y-56255382D01*
X146913129Y-56366682D01*
X146235311Y-55688864D01*
X146154520Y-55786525D01*
X146154518Y-55786528D01*
X145992707Y-56041502D01*
X145992704Y-56041508D01*
X145864127Y-56314747D01*
X145864125Y-56314752D01*
X145770805Y-56601959D01*
X145714216Y-56898609D01*
X145714215Y-56898616D01*
X145695255Y-57199994D01*
X128755500Y-57199994D01*
X128755500Y-50908125D01*
X128754417Y-50875060D01*
X128753356Y-50858874D01*
X128750114Y-50825954D01*
X128736268Y-50720790D01*
X128723368Y-50655941D01*
X128714990Y-50624674D01*
X128693736Y-50562062D01*
X128656280Y-50471635D01*
X128627034Y-50412329D01*
X128610849Y-50384296D01*
X128574114Y-50329319D01*
X128514531Y-50251669D01*
X128470933Y-50201956D01*
X128470928Y-50201950D01*
X128448048Y-50179070D01*
X128398336Y-50135473D01*
X128320695Y-50075896D01*
X128320690Y-50075893D01*
X128320684Y-50075888D01*
X128265697Y-50039146D01*
X128265693Y-50039143D01*
X128265680Y-50039135D01*
X128237673Y-50022967D01*
X128237663Y-50022961D01*
X128237650Y-50022954D01*
X128237636Y-50022947D01*
X128178365Y-49993719D01*
X128178357Y-49993715D01*
X128087945Y-49956266D01*
X128087934Y-49956262D01*
X128025323Y-49935008D01*
X127994054Y-49926630D01*
X127960203Y-49919897D01*
X127929204Y-49913731D01*
X127929201Y-49913730D01*
X127929198Y-49913730D01*
X127824049Y-49899887D01*
X127824043Y-49899886D01*
X127824040Y-49899886D01*
X127817883Y-49899279D01*
X127791131Y-49896644D01*
X127774942Y-49895583D01*
X127772736Y-49895510D01*
X127741874Y-49894500D01*
X123008126Y-49894500D01*
X122975059Y-49895583D01*
X122958858Y-49896645D01*
X122925957Y-49899885D01*
X122820803Y-49913729D01*
X122820801Y-49913729D01*
X122820796Y-49913730D01*
X122755952Y-49926628D01*
X122755947Y-49926629D01*
X122724692Y-49935003D01*
X122724684Y-49935005D01*
X122662076Y-49956256D01*
X122662052Y-49956265D01*
X122571666Y-49993703D01*
X122571630Y-49993720D01*
X122512324Y-50022966D01*
X122484296Y-50039149D01*
X122429325Y-50075879D01*
X122429297Y-50075900D01*
X122351666Y-50135469D01*
X122301937Y-50179082D01*
X122279082Y-50201937D01*
X122235469Y-50251666D01*
X122175887Y-50329313D01*
X122175876Y-50329328D01*
X122139149Y-50384295D01*
X122139137Y-50384314D01*
X122122960Y-50412336D01*
X122093720Y-50471631D01*
X122056266Y-50562053D01*
X122056262Y-50562064D01*
X122035008Y-50624675D01*
X122026630Y-50655944D01*
X122019399Y-50692300D01*
X122015365Y-50712583D01*
X122013733Y-50720786D01*
X122013731Y-50720792D01*
X121999887Y-50825949D01*
X121996644Y-50858867D01*
X121995583Y-50875056D01*
X121994500Y-50908139D01*
X116352187Y-50908139D01*
X117623508Y-49636819D01*
X117684831Y-49603334D01*
X117711189Y-49600500D01*
X127869750Y-49600500D01*
X127869751Y-49600499D01*
X127884568Y-49597552D01*
X127928229Y-49588868D01*
X127928229Y-49588867D01*
X127928231Y-49588867D01*
X127994552Y-49544552D01*
X128038867Y-49478231D01*
X128038867Y-49478230D01*
X128039605Y-49477126D01*
X128093217Y-49432321D01*
X128162542Y-49423614D01*
X128194219Y-49433223D01*
X128251613Y-49459434D01*
X128264541Y-49465338D01*
X128331580Y-49485023D01*
X128331584Y-49485024D01*
X128474000Y-49505500D01*
X128474003Y-49505500D01*
X135631267Y-49505500D01*
X135631274Y-49505500D01*
X135727975Y-49496164D01*
X135774538Y-49487089D01*
X135817229Y-49474409D01*
X135867651Y-49459434D01*
X135867652Y-49459432D01*
X135867656Y-49459432D01*
X135991961Y-49386976D01*
X136046703Y-49343558D01*
X136046704Y-49343557D01*
X136056364Y-49333342D01*
X136145559Y-49239016D01*
X136146258Y-49237648D01*
X136210959Y-49110857D01*
X136233537Y-49044736D01*
X136233537Y-49044735D01*
X136233537Y-49044732D01*
X136233565Y-49044652D01*
X136233777Y-49043456D01*
X136260180Y-48903344D01*
X136261196Y-48879989D01*
X136282005Y-48401358D01*
X136340761Y-47049986D01*
X137400001Y-47049986D01*
X137410494Y-47152697D01*
X137465641Y-47319119D01*
X137465643Y-47319124D01*
X137557684Y-47468345D01*
X137681654Y-47592315D01*
X137830875Y-47684356D01*
X137830880Y-47684358D01*
X137997302Y-47739505D01*
X137997309Y-47739506D01*
X138100019Y-47749999D01*
X139399999Y-47749999D01*
X139900000Y-47749999D01*
X141199972Y-47749999D01*
X141199986Y-47749998D01*
X141302697Y-47739505D01*
X141469119Y-47684358D01*
X141469124Y-47684356D01*
X141618345Y-47592315D01*
X141742315Y-47468345D01*
X141834356Y-47319124D01*
X141834358Y-47319119D01*
X141889505Y-47152697D01*
X141889506Y-47152690D01*
X141899999Y-47049986D01*
X141900000Y-47049973D01*
X141900000Y-46250000D01*
X139900000Y-46250000D01*
X139900000Y-47749999D01*
X139399999Y-47749999D01*
X139400000Y-47749998D01*
X139400000Y-46250000D01*
X137400001Y-46250000D01*
X137400001Y-47049986D01*
X136340761Y-47049986D01*
X136432064Y-44950013D01*
X137400000Y-44950013D01*
X137400000Y-45750000D01*
X139400000Y-45750000D01*
X139900000Y-45750000D01*
X141899999Y-45750000D01*
X141899999Y-44950028D01*
X141899998Y-44950013D01*
X141889505Y-44847302D01*
X141834358Y-44680880D01*
X141834356Y-44680875D01*
X141742315Y-44531654D01*
X141618345Y-44407684D01*
X141469124Y-44315643D01*
X141469119Y-44315641D01*
X141302697Y-44260494D01*
X141302690Y-44260493D01*
X141199986Y-44250000D01*
X139900000Y-44250000D01*
X139900000Y-45750000D01*
X139400000Y-45750000D01*
X139400000Y-44250000D01*
X138100028Y-44250000D01*
X138100012Y-44250001D01*
X137997302Y-44260494D01*
X137830880Y-44315641D01*
X137830875Y-44315643D01*
X137681654Y-44407684D01*
X137557684Y-44531654D01*
X137465643Y-44680875D01*
X137465641Y-44680880D01*
X137410494Y-44847302D01*
X137410493Y-44847309D01*
X137400000Y-44950013D01*
X136432064Y-44950013D01*
X136438185Y-44809221D01*
X136460762Y-44743103D01*
X136474380Y-44726935D01*
X137409498Y-43791819D01*
X137470821Y-43758334D01*
X137497179Y-43755500D01*
X144120500Y-43755500D01*
X144187539Y-43775185D01*
X144233294Y-43827989D01*
X144244500Y-43879500D01*
X144244500Y-49376000D01*
X144244501Y-49376009D01*
X144256052Y-49483450D01*
X144256054Y-49483462D01*
X144267260Y-49534972D01*
X144301383Y-49637497D01*
X144301386Y-49637503D01*
X144379171Y-49758537D01*
X144379179Y-49758548D01*
X144424925Y-49811342D01*
X144424927Y-49811345D01*
X144482369Y-49861119D01*
X144520143Y-49919897D01*
X144520143Y-49989767D01*
X144482368Y-50048544D01*
X144470059Y-50057932D01*
X144439709Y-50078211D01*
X144328213Y-50189707D01*
X144328210Y-50189711D01*
X144240609Y-50320814D01*
X144240602Y-50320827D01*
X144180264Y-50466498D01*
X144180261Y-50466510D01*
X144149500Y-50621153D01*
X144149500Y-51778846D01*
X144180261Y-51933489D01*
X144180264Y-51933501D01*
X144240602Y-52079172D01*
X144240609Y-52079185D01*
X144328210Y-52210288D01*
X144328213Y-52210292D01*
X144439707Y-52321786D01*
X144439711Y-52321789D01*
X144570814Y-52409390D01*
X144570827Y-52409397D01*
X144716498Y-52469735D01*
X144716503Y-52469737D01*
X144871153Y-52500499D01*
X144871156Y-52500500D01*
X144871158Y-52500500D01*
X145028844Y-52500500D01*
X145028845Y-52500499D01*
X145183497Y-52469737D01*
X145329179Y-52409394D01*
X145460289Y-52321789D01*
X145571789Y-52210289D01*
X145659394Y-52079179D01*
X145719737Y-51933497D01*
X145750500Y-51778842D01*
X145750500Y-50621158D01*
X145750500Y-50621155D01*
X145750499Y-50621153D01*
X145727928Y-50507684D01*
X145719737Y-50466503D01*
X145698670Y-50415643D01*
X145659397Y-50320827D01*
X145659390Y-50320814D01*
X145577589Y-50198391D01*
X145556711Y-50131714D01*
X145575195Y-50064333D01*
X145627174Y-50017643D01*
X145680691Y-50005500D01*
X151870500Y-50005500D01*
X151937539Y-50025185D01*
X151983294Y-50077989D01*
X151994500Y-50129500D01*
X151994500Y-57199999D01*
X151994500Y-60125500D01*
X151994501Y-60125509D01*
X152006052Y-60232950D01*
X152006054Y-60232962D01*
X152017260Y-60284472D01*
X152051383Y-60386997D01*
X152051386Y-60387003D01*
X152129171Y-60508037D01*
X152129179Y-60508048D01*
X152174923Y-60560840D01*
X152174926Y-60560843D01*
X152174930Y-60560847D01*
X152283664Y-60655067D01*
X152283667Y-60655068D01*
X152283668Y-60655069D01*
X152379020Y-60698616D01*
X152414541Y-60714838D01*
X152481580Y-60734523D01*
X152481584Y-60734524D01*
X152624000Y-60755000D01*
X156882279Y-60755000D01*
X156885759Y-60755049D01*
X156901821Y-60755500D01*
X156901826Y-60755500D01*
X158375990Y-60755500D01*
X158376000Y-60755500D01*
X158483456Y-60743947D01*
X158534967Y-60732741D01*
X158570459Y-60720928D01*
X158637497Y-60698616D01*
X158637501Y-60698613D01*
X158637504Y-60698613D01*
X158758543Y-60620825D01*
X158811347Y-60575070D01*
X158905567Y-60466336D01*
X158965338Y-60335459D01*
X158985023Y-60268420D01*
X158985024Y-60268416D01*
X159005500Y-60126000D01*
X159005500Y-54374000D01*
X158993947Y-54266544D01*
X158982741Y-54215033D01*
X158982637Y-54214722D01*
X158948616Y-54112502D01*
X158948613Y-54112496D01*
X158870828Y-53991462D01*
X158870825Y-53991457D01*
X158867517Y-53987639D01*
X158825076Y-53938659D01*
X158825072Y-53938656D01*
X158825070Y-53938653D01*
X158716336Y-53844433D01*
X158716333Y-53844431D01*
X158716331Y-53844430D01*
X158585465Y-53784664D01*
X158585460Y-53784662D01*
X158585459Y-53784662D01*
X158540766Y-53771538D01*
X158518417Y-53764976D01*
X158470944Y-53758150D01*
X158376000Y-53744500D01*
X158375998Y-53744500D01*
X158129500Y-53744500D01*
X158062461Y-53724815D01*
X158016706Y-53672011D01*
X158005500Y-53620500D01*
X158005500Y-52567915D01*
X158025185Y-52500876D01*
X158077989Y-52455121D01*
X158147147Y-52445177D01*
X158176951Y-52453354D01*
X158179160Y-52454269D01*
X158216497Y-52469735D01*
X158216499Y-52469735D01*
X158216503Y-52469737D01*
X158371153Y-52500499D01*
X158371156Y-52500500D01*
X158371158Y-52500500D01*
X158528844Y-52500500D01*
X158528845Y-52500499D01*
X158683497Y-52469737D01*
X158829179Y-52409394D01*
X158960289Y-52321789D01*
X159071789Y-52210289D01*
X159159394Y-52079179D01*
X159219737Y-51933497D01*
X159250500Y-51778842D01*
X159250500Y-50621158D01*
X159250500Y-50621155D01*
X159250499Y-50621153D01*
X159227928Y-50507684D01*
X159219737Y-50466503D01*
X159198670Y-50415643D01*
X159159397Y-50320827D01*
X159159390Y-50320814D01*
X159071789Y-50189711D01*
X159071786Y-50189707D01*
X158960292Y-50078213D01*
X158960288Y-50078210D01*
X158829185Y-49990609D01*
X158829172Y-49990602D01*
X158683501Y-49930264D01*
X158683489Y-49930261D01*
X158528845Y-49899500D01*
X158528842Y-49899500D01*
X158371158Y-49899500D01*
X158371155Y-49899500D01*
X158216510Y-49930261D01*
X158216498Y-49930264D01*
X158176952Y-49946645D01*
X158107483Y-49954114D01*
X158045004Y-49922838D01*
X158009352Y-49862749D01*
X158005500Y-49832084D01*
X158005500Y-47002625D01*
X158025185Y-46935586D01*
X158077989Y-46889831D01*
X158147147Y-46879887D01*
X158210703Y-46908912D01*
X158217181Y-46914944D01*
X162065998Y-50763761D01*
X162099483Y-50825084D01*
X162095359Y-50892396D01*
X162052353Y-51015301D01*
X162049500Y-51045730D01*
X162049500Y-52454269D01*
X162052353Y-52484699D01*
X162052353Y-52484701D01*
X162097206Y-52612880D01*
X162097207Y-52612882D01*
X162177850Y-52722150D01*
X162287118Y-52802793D01*
X162306866Y-52809703D01*
X162415299Y-52847646D01*
X162445730Y-52850500D01*
X162445734Y-52850500D01*
X162985755Y-52850500D01*
X163034075Y-52862102D01*
X163034664Y-52860681D01*
X163039161Y-52862543D01*
X163039168Y-52862547D01*
X163160488Y-52901966D01*
X163218881Y-52920940D01*
X163405514Y-52950500D01*
X163405519Y-52950500D01*
X163594486Y-52950500D01*
X163781118Y-52920940D01*
X163800218Y-52914734D01*
X163960832Y-52862547D01*
X163960842Y-52862541D01*
X163965336Y-52860681D01*
X163965924Y-52862102D01*
X164014245Y-52850500D01*
X164554270Y-52850500D01*
X164584699Y-52847646D01*
X164584701Y-52847646D01*
X164648790Y-52825219D01*
X164712882Y-52802793D01*
X164822150Y-52722150D01*
X164902793Y-52612882D01*
X164925219Y-52548790D01*
X164947646Y-52484701D01*
X164947646Y-52484699D01*
X164950500Y-52454269D01*
X164950500Y-52449986D01*
X165750001Y-52449986D01*
X165760494Y-52552697D01*
X165815641Y-52719119D01*
X165815643Y-52719124D01*
X165907684Y-52868345D01*
X166031654Y-52992315D01*
X166180875Y-53084356D01*
X166180880Y-53084358D01*
X166347302Y-53139505D01*
X166347309Y-53139506D01*
X166450019Y-53149999D01*
X167249999Y-53149999D01*
X167750000Y-53149999D01*
X168549972Y-53149999D01*
X168549986Y-53149998D01*
X168652697Y-53139505D01*
X168819119Y-53084358D01*
X168819124Y-53084356D01*
X168968345Y-52992315D01*
X169092315Y-52868345D01*
X169184356Y-52719124D01*
X169184358Y-52719119D01*
X169239505Y-52552697D01*
X169239506Y-52552690D01*
X169249999Y-52449986D01*
X169250000Y-52449973D01*
X169250000Y-52000000D01*
X167750000Y-52000000D01*
X167750000Y-53149999D01*
X167249999Y-53149999D01*
X167250000Y-53149998D01*
X167250000Y-52000000D01*
X165750001Y-52000000D01*
X165750001Y-52449986D01*
X164950500Y-52449986D01*
X164950500Y-51050013D01*
X165750000Y-51050013D01*
X165750000Y-51500000D01*
X167250000Y-51500000D01*
X167750000Y-51500000D01*
X169249999Y-51500000D01*
X169249999Y-51050028D01*
X169249998Y-51050013D01*
X169239505Y-50947302D01*
X169184358Y-50780880D01*
X169184356Y-50780875D01*
X169092315Y-50631654D01*
X168968345Y-50507684D01*
X168819124Y-50415643D01*
X168819119Y-50415641D01*
X168652697Y-50360494D01*
X168652690Y-50360493D01*
X168549986Y-50350000D01*
X167750000Y-50350000D01*
X167750000Y-51500000D01*
X167250000Y-51500000D01*
X167250000Y-50350000D01*
X166450028Y-50350000D01*
X166450012Y-50350001D01*
X166347302Y-50360494D01*
X166180880Y-50415641D01*
X166180875Y-50415643D01*
X166031654Y-50507684D01*
X165907684Y-50631654D01*
X165815643Y-50780875D01*
X165815641Y-50780880D01*
X165760494Y-50947302D01*
X165760493Y-50947309D01*
X165750000Y-51050013D01*
X164950500Y-51050013D01*
X164950500Y-51045730D01*
X164947646Y-51015300D01*
X164947646Y-51015298D01*
X164910149Y-50908140D01*
X164902793Y-50887118D01*
X164822150Y-50777850D01*
X164750866Y-50725240D01*
X164708615Y-50669592D01*
X164700500Y-50625470D01*
X164700500Y-50405513D01*
X164670940Y-50218881D01*
X164641898Y-50129500D01*
X164612547Y-50039168D01*
X164612545Y-50039165D01*
X164612545Y-50039163D01*
X164553274Y-49922838D01*
X164526760Y-49870801D01*
X164415690Y-49717927D01*
X164282073Y-49584310D01*
X159697760Y-44999996D01*
X161994415Y-44999996D01*
X161994415Y-45000003D01*
X162014738Y-45348927D01*
X162014739Y-45348938D01*
X162075428Y-45693127D01*
X162075430Y-45693134D01*
X162175674Y-46027972D01*
X162314107Y-46348895D01*
X162314113Y-46348908D01*
X162488870Y-46651597D01*
X162697584Y-46931949D01*
X162697589Y-46931955D01*
X162810067Y-47051174D01*
X162937442Y-47186183D01*
X163052381Y-47282628D01*
X163205186Y-47410847D01*
X163205194Y-47410853D01*
X163497203Y-47602911D01*
X163497207Y-47602913D01*
X163809549Y-47759777D01*
X164137989Y-47879319D01*
X164478086Y-47959923D01*
X164825241Y-48000500D01*
X164825248Y-48000500D01*
X165174752Y-48000500D01*
X165174759Y-48000500D01*
X165521914Y-47959923D01*
X165862011Y-47879319D01*
X166190451Y-47759777D01*
X166502793Y-47602913D01*
X166657148Y-47501392D01*
X166794805Y-47410853D01*
X166794805Y-47410852D01*
X166794811Y-47410849D01*
X167062558Y-47186183D01*
X167302412Y-46931953D01*
X167511130Y-46651596D01*
X167685889Y-46348904D01*
X167824326Y-46027971D01*
X167924569Y-45693136D01*
X167985262Y-45348927D01*
X168002594Y-45051350D01*
X168005585Y-45000003D01*
X168005585Y-44999996D01*
X167998851Y-44884384D01*
X167985262Y-44651073D01*
X167985012Y-44649654D01*
X167924571Y-44306872D01*
X167924569Y-44306865D01*
X167924569Y-44306864D01*
X167824326Y-43972029D01*
X167685889Y-43651096D01*
X167511130Y-43348404D01*
X167511129Y-43348402D01*
X167302415Y-43068050D01*
X167302410Y-43068044D01*
X167186433Y-42945117D01*
X167062558Y-42813817D01*
X166875387Y-42656762D01*
X166794813Y-42589152D01*
X166794805Y-42589146D01*
X166502796Y-42397088D01*
X166190458Y-42240226D01*
X166190452Y-42240223D01*
X165862012Y-42120681D01*
X165862009Y-42120680D01*
X165521915Y-42040077D01*
X165478519Y-42035004D01*
X165174759Y-41999500D01*
X164825241Y-41999500D01*
X164521480Y-42035004D01*
X164478085Y-42040077D01*
X164478083Y-42040077D01*
X164137990Y-42120680D01*
X164137987Y-42120681D01*
X163809547Y-42240223D01*
X163809541Y-42240226D01*
X163497203Y-42397088D01*
X163205194Y-42589146D01*
X163205186Y-42589152D01*
X162937442Y-42813817D01*
X162937440Y-42813819D01*
X162697589Y-43068044D01*
X162697584Y-43068050D01*
X162488870Y-43348402D01*
X162314113Y-43651091D01*
X162314107Y-43651104D01*
X162175674Y-43972027D01*
X162075430Y-44306865D01*
X162075428Y-44306872D01*
X162014739Y-44651061D01*
X162014738Y-44651072D01*
X161994415Y-44999996D01*
X159697760Y-44999996D01*
X158041819Y-43344055D01*
X158008334Y-43282732D01*
X158005500Y-43256374D01*
X158005500Y-40123694D01*
X158005499Y-40123687D01*
X157994081Y-40016854D01*
X157983003Y-39965623D01*
X157965907Y-39913940D01*
X157963544Y-39844111D01*
X157999308Y-39784089D01*
X158061845Y-39752930D01*
X158083635Y-39751000D01*
X170310000Y-39751000D01*
X170377039Y-39770685D01*
X170422794Y-39823489D01*
X170434000Y-39875000D01*
X170434000Y-82045000D01*
X170414315Y-82112039D01*
X170361511Y-82157794D01*
X170310000Y-82169000D01*
X68196000Y-82169000D01*
X68128961Y-82149315D01*
X68083206Y-82096511D01*
X68072000Y-82045000D01*
X68072000Y-74999996D01*
X69794415Y-74999996D01*
X69794415Y-75000003D01*
X69814738Y-75348927D01*
X69814739Y-75348938D01*
X69875428Y-75693127D01*
X69875430Y-75693134D01*
X69975674Y-76027972D01*
X70114107Y-76348895D01*
X70114113Y-76348908D01*
X70288870Y-76651597D01*
X70497584Y-76931949D01*
X70497589Y-76931955D01*
X70621463Y-77063253D01*
X70737442Y-77186183D01*
X70913903Y-77334251D01*
X71005186Y-77410847D01*
X71005194Y-77410853D01*
X71297203Y-77602911D01*
X71297207Y-77602913D01*
X71609549Y-77759777D01*
X71937989Y-77879319D01*
X72278086Y-77959923D01*
X72625241Y-78000500D01*
X72625248Y-78000500D01*
X72974752Y-78000500D01*
X72974759Y-78000500D01*
X73321914Y-77959923D01*
X73662011Y-77879319D01*
X73990451Y-77759777D01*
X74302793Y-77602913D01*
X74594811Y-77410849D01*
X74862558Y-77186183D01*
X75102412Y-76931953D01*
X75311130Y-76651596D01*
X75485889Y-76348904D01*
X75624326Y-76027971D01*
X75724569Y-75693136D01*
X75785262Y-75348927D01*
X75805585Y-75000000D01*
X75805585Y-74999996D01*
X161994415Y-74999996D01*
X161994415Y-75000003D01*
X162014738Y-75348927D01*
X162014739Y-75348938D01*
X162075428Y-75693127D01*
X162075430Y-75693134D01*
X162175674Y-76027972D01*
X162314107Y-76348895D01*
X162314113Y-76348908D01*
X162488870Y-76651597D01*
X162697584Y-76931949D01*
X162697589Y-76931955D01*
X162821463Y-77063253D01*
X162937442Y-77186183D01*
X163113903Y-77334251D01*
X163205186Y-77410847D01*
X163205194Y-77410853D01*
X163497203Y-77602911D01*
X163497207Y-77602913D01*
X163809549Y-77759777D01*
X164137989Y-77879319D01*
X164478086Y-77959923D01*
X164825241Y-78000500D01*
X164825248Y-78000500D01*
X165174752Y-78000500D01*
X165174759Y-78000500D01*
X165521914Y-77959923D01*
X165862011Y-77879319D01*
X166190451Y-77759777D01*
X166502793Y-77602913D01*
X166794811Y-77410849D01*
X167062558Y-77186183D01*
X167302412Y-76931953D01*
X167511130Y-76651596D01*
X167685889Y-76348904D01*
X167824326Y-76027971D01*
X167924569Y-75693136D01*
X167985262Y-75348927D01*
X168005585Y-75000000D01*
X167985262Y-74651073D01*
X167985260Y-74651061D01*
X167924571Y-74306872D01*
X167924569Y-74306865D01*
X167824325Y-73972027D01*
X167685892Y-73651104D01*
X167685889Y-73651096D01*
X167511130Y-73348404D01*
X167511129Y-73348402D01*
X167302415Y-73068050D01*
X167302410Y-73068044D01*
X167186433Y-72945117D01*
X167062558Y-72813817D01*
X166914488Y-72689572D01*
X166794813Y-72589152D01*
X166794805Y-72589146D01*
X166502796Y-72397088D01*
X166190458Y-72240226D01*
X166190452Y-72240223D01*
X165862012Y-72120681D01*
X165862009Y-72120680D01*
X165521915Y-72040077D01*
X165478519Y-72035004D01*
X165174759Y-71999500D01*
X164825241Y-71999500D01*
X164521480Y-72035004D01*
X164478085Y-72040077D01*
X164478083Y-72040077D01*
X164137990Y-72120680D01*
X164137987Y-72120681D01*
X163809547Y-72240223D01*
X163809541Y-72240226D01*
X163497203Y-72397088D01*
X163205194Y-72589146D01*
X163205186Y-72589152D01*
X162937442Y-72813817D01*
X162937440Y-72813819D01*
X162697589Y-73068044D01*
X162697584Y-73068050D01*
X162488870Y-73348402D01*
X162314113Y-73651091D01*
X162314107Y-73651104D01*
X162175674Y-73972027D01*
X162075430Y-74306865D01*
X162075428Y-74306872D01*
X162014739Y-74651061D01*
X162014738Y-74651072D01*
X161994415Y-74999996D01*
X75805585Y-74999996D01*
X75785262Y-74651073D01*
X75785260Y-74651061D01*
X75724571Y-74306872D01*
X75724569Y-74306865D01*
X75624325Y-73972027D01*
X75485892Y-73651104D01*
X75485889Y-73651096D01*
X75311130Y-73348404D01*
X75311129Y-73348402D01*
X75102415Y-73068050D01*
X75102410Y-73068044D01*
X74986433Y-72945117D01*
X74862558Y-72813817D01*
X74714488Y-72689572D01*
X74594813Y-72589152D01*
X74594805Y-72589146D01*
X74302796Y-72397088D01*
X73990458Y-72240226D01*
X73990452Y-72240223D01*
X73662012Y-72120681D01*
X73662009Y-72120680D01*
X73321915Y-72040077D01*
X73278519Y-72035004D01*
X72974759Y-71999500D01*
X72625241Y-71999500D01*
X72321480Y-72035004D01*
X72278085Y-72040077D01*
X72278083Y-72040077D01*
X71937990Y-72120680D01*
X71937987Y-72120681D01*
X71609547Y-72240223D01*
X71609541Y-72240226D01*
X71297203Y-72397088D01*
X71005194Y-72589146D01*
X71005186Y-72589152D01*
X70737442Y-72813817D01*
X70737440Y-72813819D01*
X70497589Y-73068044D01*
X70497584Y-73068050D01*
X70288870Y-73348402D01*
X70114113Y-73651091D01*
X70114107Y-73651104D01*
X69975674Y-73972027D01*
X69875430Y-74306865D01*
X69875428Y-74306872D01*
X69814739Y-74651061D01*
X69814738Y-74651072D01*
X69794415Y-74999996D01*
X68072000Y-74999996D01*
X68072000Y-70013155D01*
X79758000Y-70013155D01*
X79758000Y-70661000D01*
X80674988Y-70661000D01*
X80642075Y-70718007D01*
X80608000Y-70845174D01*
X80608000Y-70976826D01*
X80642075Y-71103993D01*
X80674988Y-71161000D01*
X79758000Y-71161000D01*
X79758000Y-71808844D01*
X79764401Y-71868372D01*
X79764403Y-71868379D01*
X79814645Y-72003086D01*
X79814649Y-72003093D01*
X79900809Y-72118187D01*
X79900812Y-72118190D01*
X80015906Y-72204350D01*
X80015913Y-72204354D01*
X80150620Y-72254596D01*
X80150627Y-72254598D01*
X80210155Y-72260999D01*
X80210172Y-72261000D01*
X80858000Y-72261000D01*
X80858000Y-71344012D01*
X80915007Y-71376925D01*
X81042174Y-71411000D01*
X81173826Y-71411000D01*
X81300993Y-71376925D01*
X81358000Y-71344012D01*
X81358000Y-72261000D01*
X82005828Y-72261000D01*
X82005844Y-72260999D01*
X82065372Y-72254598D01*
X82065379Y-72254596D01*
X82200086Y-72204354D01*
X82200093Y-72204350D01*
X82315187Y-72118190D01*
X82315190Y-72118187D01*
X82401350Y-72003093D01*
X82401354Y-72003086D01*
X82451596Y-71868379D01*
X82451598Y-71868372D01*
X82457999Y-71808844D01*
X82458000Y-71808827D01*
X82458000Y-71408186D01*
X82477685Y-71341147D01*
X82530489Y-71295392D01*
X82599647Y-71285448D01*
X82663203Y-71314473D01*
X82691356Y-71349729D01*
X82770315Y-71497450D01*
X82770317Y-71497452D01*
X82901589Y-71657410D01*
X82998209Y-71736702D01*
X83061550Y-71788685D01*
X83244046Y-71886232D01*
X83442066Y-71946300D01*
X83442065Y-71946300D01*
X83460529Y-71948118D01*
X83648000Y-71966583D01*
X83853934Y-71946300D01*
X84051954Y-71886232D01*
X84234450Y-71788685D01*
X84394410Y-71657410D01*
X84525685Y-71497450D01*
X84623232Y-71314954D01*
X84683300Y-71116934D01*
X84703583Y-70911000D01*
X85132417Y-70911000D01*
X85152699Y-71116932D01*
X85152700Y-71116934D01*
X85212768Y-71314954D01*
X85310315Y-71497450D01*
X85310317Y-71497452D01*
X85441589Y-71657410D01*
X85538209Y-71736702D01*
X85601550Y-71788685D01*
X85784046Y-71886232D01*
X85982066Y-71946300D01*
X85982065Y-71946300D01*
X86000529Y-71948118D01*
X86188000Y-71966583D01*
X86393934Y-71946300D01*
X86591954Y-71886232D01*
X86774450Y-71788685D01*
X86934410Y-71657410D01*
X87065685Y-71497450D01*
X87163232Y-71314954D01*
X87223300Y-71116934D01*
X87243583Y-70911000D01*
X87223300Y-70705066D01*
X87163232Y-70507046D01*
X87065685Y-70324550D01*
X87013702Y-70261209D01*
X86934410Y-70164589D01*
X86774452Y-70033317D01*
X86774453Y-70033317D01*
X86774450Y-70033315D01*
X86736734Y-70013155D01*
X89458000Y-70013155D01*
X89458000Y-70661000D01*
X90374988Y-70661000D01*
X90342075Y-70718007D01*
X90308000Y-70845174D01*
X90308000Y-70976826D01*
X90342075Y-71103993D01*
X90374988Y-71161000D01*
X89458000Y-71161000D01*
X89458000Y-71808844D01*
X89464401Y-71868372D01*
X89464403Y-71868379D01*
X89514645Y-72003086D01*
X89514649Y-72003093D01*
X89600809Y-72118187D01*
X89600812Y-72118190D01*
X89715906Y-72204350D01*
X89715913Y-72204354D01*
X89850620Y-72254596D01*
X89850627Y-72254598D01*
X89910155Y-72260999D01*
X89910172Y-72261000D01*
X90558000Y-72261000D01*
X90558000Y-71344012D01*
X90615007Y-71376925D01*
X90742174Y-71411000D01*
X90873826Y-71411000D01*
X91000993Y-71376925D01*
X91058000Y-71344012D01*
X91058000Y-72261000D01*
X91705828Y-72261000D01*
X91705844Y-72260999D01*
X91765372Y-72254598D01*
X91765379Y-72254596D01*
X91900086Y-72204354D01*
X91900093Y-72204350D01*
X92015187Y-72118190D01*
X92015190Y-72118187D01*
X92101350Y-72003093D01*
X92101354Y-72003086D01*
X92151596Y-71868379D01*
X92151598Y-71868372D01*
X92157999Y-71808844D01*
X92158000Y-71808827D01*
X92158000Y-71408186D01*
X92177685Y-71341147D01*
X92230489Y-71295392D01*
X92299647Y-71285448D01*
X92363203Y-71314473D01*
X92391356Y-71349729D01*
X92470315Y-71497450D01*
X92470317Y-71497452D01*
X92601589Y-71657410D01*
X92698209Y-71736702D01*
X92761550Y-71788685D01*
X92944046Y-71886232D01*
X93142066Y-71946300D01*
X93142065Y-71946300D01*
X93160529Y-71948118D01*
X93348000Y-71966583D01*
X93553934Y-71946300D01*
X93751954Y-71886232D01*
X93934450Y-71788685D01*
X94094410Y-71657410D01*
X94225685Y-71497450D01*
X94323232Y-71314954D01*
X94383300Y-71116934D01*
X94403583Y-70911000D01*
X94832417Y-70911000D01*
X94852699Y-71116932D01*
X94852700Y-71116934D01*
X94912768Y-71314954D01*
X95010315Y-71497450D01*
X95010317Y-71497452D01*
X95141589Y-71657410D01*
X95238209Y-71736702D01*
X95301550Y-71788685D01*
X95484046Y-71886232D01*
X95682066Y-71946300D01*
X95682065Y-71946300D01*
X95700529Y-71948118D01*
X95888000Y-71966583D01*
X96093934Y-71946300D01*
X96291954Y-71886232D01*
X96474450Y-71788685D01*
X96634410Y-71657410D01*
X96765685Y-71497450D01*
X96863232Y-71314954D01*
X96923300Y-71116934D01*
X96943583Y-70911000D01*
X96923300Y-70705066D01*
X96863232Y-70507046D01*
X96765685Y-70324550D01*
X96713702Y-70261209D01*
X96634410Y-70164589D01*
X96474452Y-70033317D01*
X96474453Y-70033317D01*
X96474450Y-70033315D01*
X96291954Y-69935768D01*
X96093934Y-69875700D01*
X96093932Y-69875699D01*
X96093934Y-69875699D01*
X95888000Y-69855417D01*
X95682067Y-69875699D01*
X95506692Y-69928898D01*
X95492476Y-69933211D01*
X95484043Y-69935769D01*
X95450634Y-69953627D01*
X95301550Y-70033315D01*
X95301548Y-70033316D01*
X95301547Y-70033317D01*
X95141589Y-70164589D01*
X95010317Y-70324547D01*
X94912769Y-70507043D01*
X94852699Y-70705067D01*
X94832417Y-70911000D01*
X94403583Y-70911000D01*
X94383300Y-70705066D01*
X94323232Y-70507046D01*
X94225685Y-70324550D01*
X94173702Y-70261209D01*
X94094410Y-70164589D01*
X93934452Y-70033317D01*
X93934453Y-70033317D01*
X93934450Y-70033315D01*
X93751954Y-69935768D01*
X93750049Y-69934979D01*
X93749203Y-69934298D01*
X93746581Y-69932896D01*
X93746846Y-69932398D01*
X93695645Y-69891138D01*
X93673579Y-69824844D01*
X93673500Y-69820417D01*
X93673500Y-66904000D01*
X94832417Y-66904000D01*
X94852699Y-67109932D01*
X94863940Y-67146988D01*
X94912768Y-67307954D01*
X95010315Y-67490450D01*
X95010317Y-67490452D01*
X95141589Y-67650410D01*
X95238209Y-67729702D01*
X95301550Y-67781685D01*
X95484046Y-67879232D01*
X95682066Y-67939300D01*
X95682065Y-67939300D01*
X95700529Y-67941118D01*
X95888000Y-67959583D01*
X96093934Y-67939300D01*
X96291954Y-67879232D01*
X96474450Y-67781685D01*
X96634410Y-67650410D01*
X96765685Y-67490450D01*
X96863232Y-67307954D01*
X96923300Y-67109934D01*
X96943583Y-66904000D01*
X96923300Y-66698066D01*
X96863232Y-66500046D01*
X96765685Y-66317550D01*
X96713702Y-66254209D01*
X96634410Y-66157589D01*
X96474452Y-66026317D01*
X96474453Y-66026317D01*
X96474450Y-66026315D01*
X96436734Y-66006155D01*
X99158000Y-66006155D01*
X99158000Y-66654000D01*
X100074988Y-66654000D01*
X100042075Y-66711007D01*
X100008000Y-66838174D01*
X100008000Y-66969826D01*
X100042075Y-67096993D01*
X100074988Y-67154000D01*
X99158000Y-67154000D01*
X99158000Y-67801844D01*
X99164401Y-67861372D01*
X99164403Y-67861379D01*
X99214645Y-67996086D01*
X99214649Y-67996093D01*
X99300809Y-68111187D01*
X99300812Y-68111190D01*
X99415906Y-68197350D01*
X99415913Y-68197354D01*
X99550620Y-68247596D01*
X99550627Y-68247598D01*
X99610155Y-68253999D01*
X99610172Y-68254000D01*
X100258000Y-68254000D01*
X100258000Y-67337012D01*
X100315007Y-67369925D01*
X100442174Y-67404000D01*
X100573826Y-67404000D01*
X100700993Y-67369925D01*
X100758000Y-67337012D01*
X100758000Y-68254000D01*
X101405828Y-68254000D01*
X101405844Y-68253999D01*
X101465372Y-68247598D01*
X101465379Y-68247596D01*
X101600086Y-68197354D01*
X101600093Y-68197350D01*
X101715187Y-68111190D01*
X101715190Y-68111187D01*
X101801350Y-67996093D01*
X101801354Y-67996086D01*
X101851596Y-67861379D01*
X101851598Y-67861372D01*
X101857999Y-67801844D01*
X101858000Y-67801827D01*
X101858000Y-67154000D01*
X100941012Y-67154000D01*
X100973925Y-67096993D01*
X101008000Y-66969826D01*
X101008000Y-66838174D01*
X100973925Y-66711007D01*
X100941012Y-66654000D01*
X101858000Y-66654000D01*
X101858000Y-66006172D01*
X101857999Y-66006155D01*
X101851598Y-65946627D01*
X101851596Y-65946620D01*
X101801354Y-65811913D01*
X101801350Y-65811906D01*
X101715190Y-65696812D01*
X101715187Y-65696809D01*
X101600093Y-65610649D01*
X101600086Y-65610645D01*
X101465379Y-65560403D01*
X101465372Y-65560401D01*
X101405844Y-65554000D01*
X100758000Y-65554000D01*
X100758000Y-66470988D01*
X100700993Y-66438075D01*
X100573826Y-66404000D01*
X100442174Y-66404000D01*
X100315007Y-66438075D01*
X100258000Y-66470988D01*
X100258000Y-65554000D01*
X99610155Y-65554000D01*
X99550627Y-65560401D01*
X99550620Y-65560403D01*
X99415913Y-65610645D01*
X99415906Y-65610649D01*
X99300812Y-65696809D01*
X99300809Y-65696812D01*
X99214649Y-65811906D01*
X99214645Y-65811913D01*
X99164403Y-65946620D01*
X99164401Y-65946627D01*
X99158000Y-66006155D01*
X96436734Y-66006155D01*
X96291954Y-65928768D01*
X96093934Y-65868700D01*
X96093932Y-65868699D01*
X96093934Y-65868699D01*
X95888000Y-65848417D01*
X95682067Y-65868699D01*
X95484043Y-65928769D01*
X95450634Y-65946627D01*
X95301550Y-66026315D01*
X95301548Y-66026316D01*
X95301547Y-66026317D01*
X95141589Y-66157589D01*
X95010317Y-66317547D01*
X94912769Y-66500043D01*
X94852699Y-66698067D01*
X94832417Y-66904000D01*
X93673500Y-66904000D01*
X93673500Y-60660149D01*
X93672439Y-60652091D01*
X93674060Y-60651877D01*
X93675493Y-60591546D01*
X93714652Y-60533682D01*
X93778879Y-60506174D01*
X93847782Y-60517756D01*
X93881288Y-60541615D01*
X94739534Y-61399861D01*
X94739535Y-61399862D01*
X94800138Y-61460465D01*
X94800140Y-61460466D01*
X94800144Y-61460469D01*
X94874355Y-61503314D01*
X94874362Y-61503318D01*
X94957147Y-61525500D01*
X95042853Y-61525500D01*
X99013811Y-61525500D01*
X99080850Y-61545185D01*
X99101492Y-61561819D01*
X102686181Y-65146507D01*
X102719666Y-65207830D01*
X102722500Y-65234188D01*
X102722500Y-69820417D01*
X102702815Y-69887456D01*
X102650011Y-69933211D01*
X102645951Y-69934979D01*
X102644045Y-69935768D01*
X102610634Y-69953627D01*
X102461550Y-70033315D01*
X102461548Y-70033316D01*
X102461547Y-70033317D01*
X102301589Y-70164589D01*
X102170317Y-70324547D01*
X102170315Y-70324550D01*
X102098887Y-70458181D01*
X102091358Y-70472267D01*
X102042395Y-70522111D01*
X101974257Y-70537571D01*
X101908578Y-70513739D01*
X101866209Y-70458181D01*
X101858000Y-70413813D01*
X101858000Y-70013172D01*
X101857999Y-70013155D01*
X101851598Y-69953627D01*
X101851596Y-69953620D01*
X101801354Y-69818913D01*
X101801350Y-69818906D01*
X101715190Y-69703812D01*
X101715187Y-69703809D01*
X101600093Y-69617649D01*
X101600086Y-69617645D01*
X101465379Y-69567403D01*
X101465372Y-69567401D01*
X101405844Y-69561000D01*
X100758000Y-69561000D01*
X100758000Y-70477988D01*
X100700993Y-70445075D01*
X100573826Y-70411000D01*
X100442174Y-70411000D01*
X100315007Y-70445075D01*
X100258000Y-70477988D01*
X100258000Y-69561000D01*
X99610155Y-69561000D01*
X99550627Y-69567401D01*
X99550620Y-69567403D01*
X99415913Y-69617645D01*
X99415906Y-69617649D01*
X99300812Y-69703809D01*
X99300809Y-69703812D01*
X99214649Y-69818906D01*
X99214645Y-69818913D01*
X99164403Y-69953620D01*
X99164401Y-69953627D01*
X99158000Y-70013155D01*
X99158000Y-70661000D01*
X100074988Y-70661000D01*
X100042075Y-70718007D01*
X100008000Y-70845174D01*
X100008000Y-70976826D01*
X100042075Y-71103993D01*
X100074988Y-71161000D01*
X99158000Y-71161000D01*
X99158000Y-71808844D01*
X99164401Y-71868372D01*
X99164403Y-71868379D01*
X99214645Y-72003086D01*
X99214649Y-72003093D01*
X99300809Y-72118187D01*
X99300812Y-72118190D01*
X99415906Y-72204350D01*
X99415913Y-72204354D01*
X99550620Y-72254596D01*
X99550627Y-72254598D01*
X99610155Y-72260999D01*
X99610172Y-72261000D01*
X100258000Y-72261000D01*
X100258000Y-71344012D01*
X100315007Y-71376925D01*
X100442174Y-71411000D01*
X100573826Y-71411000D01*
X100700993Y-71376925D01*
X100758000Y-71344012D01*
X100758000Y-72261000D01*
X101405828Y-72261000D01*
X101405844Y-72260999D01*
X101465372Y-72254598D01*
X101465379Y-72254596D01*
X101600086Y-72204354D01*
X101600093Y-72204350D01*
X101715187Y-72118190D01*
X101715190Y-72118187D01*
X101801350Y-72003093D01*
X101801354Y-72003086D01*
X101851596Y-71868379D01*
X101851598Y-71868372D01*
X101857999Y-71808844D01*
X101858000Y-71808827D01*
X101858000Y-71408186D01*
X101877685Y-71341147D01*
X101930489Y-71295392D01*
X101999647Y-71285448D01*
X102063203Y-71314473D01*
X102091356Y-71349729D01*
X102170315Y-71497450D01*
X102170317Y-71497452D01*
X102301589Y-71657410D01*
X102398209Y-71736702D01*
X102461550Y-71788685D01*
X102644046Y-71886232D01*
X102842066Y-71946300D01*
X102842065Y-71946300D01*
X102860529Y-71948118D01*
X103048000Y-71966583D01*
X103253934Y-71946300D01*
X103451954Y-71886232D01*
X103634450Y-71788685D01*
X103794410Y-71657410D01*
X103925685Y-71497450D01*
X104023232Y-71314954D01*
X104083300Y-71116934D01*
X104103583Y-70911000D01*
X104532417Y-70911000D01*
X104552699Y-71116932D01*
X104552700Y-71116934D01*
X104612768Y-71314954D01*
X104710315Y-71497450D01*
X104710317Y-71497452D01*
X104841589Y-71657410D01*
X104938209Y-71736702D01*
X105001550Y-71788685D01*
X105184046Y-71886232D01*
X105382066Y-71946300D01*
X105382065Y-71946300D01*
X105400529Y-71948118D01*
X105588000Y-71966583D01*
X105793934Y-71946300D01*
X105991954Y-71886232D01*
X106174450Y-71788685D01*
X106334410Y-71657410D01*
X106465685Y-71497450D01*
X106563232Y-71314954D01*
X106623300Y-71116934D01*
X106643583Y-70911000D01*
X106623300Y-70705066D01*
X106563232Y-70507046D01*
X106465685Y-70324550D01*
X106413702Y-70261209D01*
X106334410Y-70164589D01*
X106174452Y-70033317D01*
X106174453Y-70033317D01*
X106174450Y-70033315D01*
X105991954Y-69935768D01*
X105793934Y-69875700D01*
X105793932Y-69875699D01*
X105793934Y-69875699D01*
X105588000Y-69855417D01*
X105382067Y-69875699D01*
X105206692Y-69928898D01*
X105192476Y-69933211D01*
X105184043Y-69935769D01*
X105150634Y-69953627D01*
X105001550Y-70033315D01*
X105001548Y-70033316D01*
X105001547Y-70033317D01*
X104841589Y-70164589D01*
X104710317Y-70324547D01*
X104612769Y-70507043D01*
X104552699Y-70705067D01*
X104532417Y-70911000D01*
X104103583Y-70911000D01*
X104083300Y-70705066D01*
X104023232Y-70507046D01*
X103925685Y-70324550D01*
X103873702Y-70261209D01*
X103794410Y-70164589D01*
X103634452Y-70033317D01*
X103634453Y-70033317D01*
X103634450Y-70033315D01*
X103451954Y-69935768D01*
X103450049Y-69934979D01*
X103449203Y-69934298D01*
X103446581Y-69932896D01*
X103446846Y-69932398D01*
X103395645Y-69891138D01*
X103373579Y-69824844D01*
X103373500Y-69820417D01*
X103373500Y-66904000D01*
X104532417Y-66904000D01*
X104552699Y-67109932D01*
X104563940Y-67146988D01*
X104612768Y-67307954D01*
X104710315Y-67490450D01*
X104710317Y-67490452D01*
X104841589Y-67650410D01*
X104938209Y-67729702D01*
X105001550Y-67781685D01*
X105184046Y-67879232D01*
X105382066Y-67939300D01*
X105382065Y-67939300D01*
X105400529Y-67941118D01*
X105588000Y-67959583D01*
X105793934Y-67939300D01*
X105991954Y-67879232D01*
X106174450Y-67781685D01*
X106334410Y-67650410D01*
X106465685Y-67490450D01*
X106563232Y-67307954D01*
X106623300Y-67109934D01*
X106643583Y-66904000D01*
X106623300Y-66698066D01*
X106563232Y-66500046D01*
X106465685Y-66317550D01*
X106413702Y-66254209D01*
X106334410Y-66157589D01*
X106174452Y-66026317D01*
X106174453Y-66026317D01*
X106174450Y-66026315D01*
X106136734Y-66006155D01*
X108858000Y-66006155D01*
X108858000Y-66654000D01*
X109774988Y-66654000D01*
X109742075Y-66711007D01*
X109708000Y-66838174D01*
X109708000Y-66969826D01*
X109742075Y-67096993D01*
X109774988Y-67154000D01*
X108858000Y-67154000D01*
X108858000Y-67801844D01*
X108864401Y-67861372D01*
X108864403Y-67861379D01*
X108914645Y-67996086D01*
X108914649Y-67996093D01*
X109000809Y-68111187D01*
X109000812Y-68111190D01*
X109115906Y-68197350D01*
X109115913Y-68197354D01*
X109250620Y-68247596D01*
X109250627Y-68247598D01*
X109310155Y-68253999D01*
X109310172Y-68254000D01*
X109958000Y-68254000D01*
X109958000Y-67337012D01*
X110015007Y-67369925D01*
X110142174Y-67404000D01*
X110273826Y-67404000D01*
X110400993Y-67369925D01*
X110458000Y-67337012D01*
X110458000Y-68254000D01*
X111105828Y-68254000D01*
X111105844Y-68253999D01*
X111165372Y-68247598D01*
X111165379Y-68247596D01*
X111300086Y-68197354D01*
X111300093Y-68197350D01*
X111415187Y-68111190D01*
X111415190Y-68111187D01*
X111501350Y-67996093D01*
X111501354Y-67996086D01*
X111551596Y-67861379D01*
X111551598Y-67861372D01*
X111557999Y-67801844D01*
X111558000Y-67801827D01*
X111558000Y-67154000D01*
X110641012Y-67154000D01*
X110673925Y-67096993D01*
X110708000Y-66969826D01*
X110708000Y-66838174D01*
X110673925Y-66711007D01*
X110641012Y-66654000D01*
X111558000Y-66654000D01*
X111558000Y-66006172D01*
X111557999Y-66006155D01*
X111551598Y-65946627D01*
X111551596Y-65946620D01*
X111501354Y-65811913D01*
X111501350Y-65811906D01*
X111415190Y-65696812D01*
X111415187Y-65696809D01*
X111300093Y-65610649D01*
X111300086Y-65610645D01*
X111165379Y-65560403D01*
X111165372Y-65560401D01*
X111105844Y-65554000D01*
X110458000Y-65554000D01*
X110458000Y-66470988D01*
X110400993Y-66438075D01*
X110273826Y-66404000D01*
X110142174Y-66404000D01*
X110015007Y-66438075D01*
X109958000Y-66470988D01*
X109958000Y-65554000D01*
X109310155Y-65554000D01*
X109250627Y-65560401D01*
X109250620Y-65560403D01*
X109115913Y-65610645D01*
X109115906Y-65610649D01*
X109000812Y-65696809D01*
X109000809Y-65696812D01*
X108914649Y-65811906D01*
X108914645Y-65811913D01*
X108864403Y-65946620D01*
X108864401Y-65946627D01*
X108858000Y-66006155D01*
X106136734Y-66006155D01*
X105991954Y-65928768D01*
X105793934Y-65868700D01*
X105793932Y-65868699D01*
X105793934Y-65868699D01*
X105588000Y-65848417D01*
X105382067Y-65868699D01*
X105184043Y-65928769D01*
X105150634Y-65946627D01*
X105001550Y-66026315D01*
X105001548Y-66026316D01*
X105001547Y-66026317D01*
X104841589Y-66157589D01*
X104710317Y-66317547D01*
X104612769Y-66500043D01*
X104552699Y-66698067D01*
X104532417Y-66904000D01*
X103373500Y-66904000D01*
X103373500Y-65005149D01*
X103373500Y-65005147D01*
X103355543Y-64938130D01*
X103355542Y-64938122D01*
X103351318Y-64922362D01*
X103351318Y-64922361D01*
X103329891Y-64885250D01*
X103308465Y-64848138D01*
X103247862Y-64787535D01*
X103247861Y-64787534D01*
X103243531Y-64783204D01*
X103243520Y-64783194D01*
X102723878Y-64263552D01*
X102690393Y-64202229D01*
X102695377Y-64132537D01*
X102737249Y-64076604D01*
X102802713Y-64052187D01*
X102811559Y-64051871D01*
X111040182Y-64051871D01*
X111107221Y-64071556D01*
X111127863Y-64088190D01*
X112386181Y-65346508D01*
X112419666Y-65407831D01*
X112422500Y-65434189D01*
X112422500Y-69820417D01*
X112402815Y-69887456D01*
X112350011Y-69933211D01*
X112345951Y-69934979D01*
X112344045Y-69935768D01*
X112310634Y-69953627D01*
X112161550Y-70033315D01*
X112161548Y-70033316D01*
X112161547Y-70033317D01*
X112001589Y-70164589D01*
X111870317Y-70324547D01*
X111870315Y-70324550D01*
X111798887Y-70458181D01*
X111791358Y-70472267D01*
X111742395Y-70522111D01*
X111674257Y-70537571D01*
X111608578Y-70513739D01*
X111566209Y-70458181D01*
X111558000Y-70413813D01*
X111558000Y-70013172D01*
X111557999Y-70013155D01*
X111551598Y-69953627D01*
X111551596Y-69953620D01*
X111501354Y-69818913D01*
X111501350Y-69818906D01*
X111415190Y-69703812D01*
X111415187Y-69703809D01*
X111300093Y-69617649D01*
X111300086Y-69617645D01*
X111165379Y-69567403D01*
X111165372Y-69567401D01*
X111105844Y-69561000D01*
X110458000Y-69561000D01*
X110458000Y-70477988D01*
X110400993Y-70445075D01*
X110273826Y-70411000D01*
X110142174Y-70411000D01*
X110015007Y-70445075D01*
X109958000Y-70477988D01*
X109958000Y-69561000D01*
X109310155Y-69561000D01*
X109250627Y-69567401D01*
X109250620Y-69567403D01*
X109115913Y-69617645D01*
X109115906Y-69617649D01*
X109000812Y-69703809D01*
X109000809Y-69703812D01*
X108914649Y-69818906D01*
X108914645Y-69818913D01*
X108864403Y-69953620D01*
X108864401Y-69953627D01*
X108858000Y-70013155D01*
X108858000Y-70661000D01*
X109774988Y-70661000D01*
X109742075Y-70718007D01*
X109708000Y-70845174D01*
X109708000Y-70976826D01*
X109742075Y-71103993D01*
X109774988Y-71161000D01*
X108858000Y-71161000D01*
X108858000Y-71808844D01*
X108864401Y-71868372D01*
X108864403Y-71868379D01*
X108914645Y-72003086D01*
X108914649Y-72003093D01*
X109000809Y-72118187D01*
X109000812Y-72118190D01*
X109115906Y-72204350D01*
X109115913Y-72204354D01*
X109250620Y-72254596D01*
X109250627Y-72254598D01*
X109310155Y-72260999D01*
X109310172Y-72261000D01*
X109958000Y-72261000D01*
X109958000Y-71344012D01*
X110015007Y-71376925D01*
X110142174Y-71411000D01*
X110273826Y-71411000D01*
X110400993Y-71376925D01*
X110458000Y-71344012D01*
X110458000Y-72261000D01*
X111105828Y-72261000D01*
X111105844Y-72260999D01*
X111165372Y-72254598D01*
X111165379Y-72254596D01*
X111300086Y-72204354D01*
X111300093Y-72204350D01*
X111415187Y-72118190D01*
X111415190Y-72118187D01*
X111501350Y-72003093D01*
X111501354Y-72003086D01*
X111551596Y-71868379D01*
X111551598Y-71868372D01*
X111557999Y-71808844D01*
X111558000Y-71808827D01*
X111558000Y-71408186D01*
X111577685Y-71341147D01*
X111630489Y-71295392D01*
X111699647Y-71285448D01*
X111763203Y-71314473D01*
X111791356Y-71349729D01*
X111870315Y-71497450D01*
X111870317Y-71497452D01*
X112001589Y-71657410D01*
X112098209Y-71736702D01*
X112161550Y-71788685D01*
X112344046Y-71886232D01*
X112542066Y-71946300D01*
X112542065Y-71946300D01*
X112560529Y-71948118D01*
X112748000Y-71966583D01*
X112953934Y-71946300D01*
X113151954Y-71886232D01*
X113334450Y-71788685D01*
X113494410Y-71657410D01*
X113625685Y-71497450D01*
X113723232Y-71314954D01*
X113783300Y-71116934D01*
X113803583Y-70911000D01*
X114232417Y-70911000D01*
X114252699Y-71116932D01*
X114252700Y-71116934D01*
X114312768Y-71314954D01*
X114410315Y-71497450D01*
X114410317Y-71497452D01*
X114541589Y-71657410D01*
X114638209Y-71736702D01*
X114701550Y-71788685D01*
X114884046Y-71886232D01*
X115082066Y-71946300D01*
X115082065Y-71946300D01*
X115100529Y-71948118D01*
X115288000Y-71966583D01*
X115493934Y-71946300D01*
X115691954Y-71886232D01*
X115874450Y-71788685D01*
X116034410Y-71657410D01*
X116165685Y-71497450D01*
X116263232Y-71314954D01*
X116323300Y-71116934D01*
X116343583Y-70911000D01*
X116323300Y-70705066D01*
X116263232Y-70507046D01*
X116165685Y-70324550D01*
X116113702Y-70261209D01*
X116034410Y-70164589D01*
X115874452Y-70033317D01*
X115874453Y-70033317D01*
X115874450Y-70033315D01*
X115691954Y-69935768D01*
X115493934Y-69875700D01*
X115493932Y-69875699D01*
X115493934Y-69875699D01*
X115288000Y-69855417D01*
X115082067Y-69875699D01*
X114906692Y-69928898D01*
X114892476Y-69933211D01*
X114884043Y-69935769D01*
X114850634Y-69953627D01*
X114701550Y-70033315D01*
X114701548Y-70033316D01*
X114701547Y-70033317D01*
X114541589Y-70164589D01*
X114410317Y-70324547D01*
X114312769Y-70507043D01*
X114252699Y-70705067D01*
X114232417Y-70911000D01*
X113803583Y-70911000D01*
X113783300Y-70705066D01*
X113723232Y-70507046D01*
X113625685Y-70324550D01*
X113573702Y-70261209D01*
X113494410Y-70164589D01*
X113334452Y-70033317D01*
X113334453Y-70033317D01*
X113334450Y-70033315D01*
X113151954Y-69935768D01*
X113150049Y-69934979D01*
X113149203Y-69934298D01*
X113146581Y-69932896D01*
X113146846Y-69932398D01*
X113095645Y-69891138D01*
X113073579Y-69824844D01*
X113073500Y-69820417D01*
X113073500Y-66904000D01*
X114232417Y-66904000D01*
X114252699Y-67109932D01*
X114263940Y-67146988D01*
X114312768Y-67307954D01*
X114410315Y-67490450D01*
X114410317Y-67490452D01*
X114541589Y-67650410D01*
X114638209Y-67729702D01*
X114701550Y-67781685D01*
X114884046Y-67879232D01*
X115082066Y-67939300D01*
X115082065Y-67939300D01*
X115100529Y-67941118D01*
X115288000Y-67959583D01*
X115493934Y-67939300D01*
X115691954Y-67879232D01*
X115874450Y-67781685D01*
X116034410Y-67650410D01*
X116165685Y-67490450D01*
X116263232Y-67307954D01*
X116323300Y-67109934D01*
X116343583Y-66904000D01*
X116323300Y-66698066D01*
X116263232Y-66500046D01*
X116165685Y-66317550D01*
X116113702Y-66254209D01*
X116034410Y-66157589D01*
X115874452Y-66026317D01*
X115874453Y-66026317D01*
X115874450Y-66026315D01*
X115836734Y-66006155D01*
X118558000Y-66006155D01*
X118558000Y-66654000D01*
X119474988Y-66654000D01*
X119442075Y-66711007D01*
X119408000Y-66838174D01*
X119408000Y-66969826D01*
X119442075Y-67096993D01*
X119474988Y-67154000D01*
X118558000Y-67154000D01*
X118558000Y-67801844D01*
X118564401Y-67861372D01*
X118564403Y-67861379D01*
X118614645Y-67996086D01*
X118614649Y-67996093D01*
X118700809Y-68111187D01*
X118700812Y-68111190D01*
X118815906Y-68197350D01*
X118815913Y-68197354D01*
X118950620Y-68247596D01*
X118950627Y-68247598D01*
X119010155Y-68253999D01*
X119010172Y-68254000D01*
X119658000Y-68254000D01*
X119658000Y-67337012D01*
X119715007Y-67369925D01*
X119842174Y-67404000D01*
X119973826Y-67404000D01*
X120100993Y-67369925D01*
X120158000Y-67337012D01*
X120158000Y-68254000D01*
X120805828Y-68254000D01*
X120805844Y-68253999D01*
X120865372Y-68247598D01*
X120865379Y-68247596D01*
X121000086Y-68197354D01*
X121000093Y-68197350D01*
X121115187Y-68111190D01*
X121115190Y-68111187D01*
X121201350Y-67996093D01*
X121201354Y-67996086D01*
X121251596Y-67861379D01*
X121251598Y-67861372D01*
X121257999Y-67801844D01*
X121258000Y-67801827D01*
X121258000Y-67154000D01*
X120341012Y-67154000D01*
X120373925Y-67096993D01*
X120408000Y-66969826D01*
X120408000Y-66838174D01*
X120373925Y-66711007D01*
X120341012Y-66654000D01*
X121258000Y-66654000D01*
X121258000Y-66006172D01*
X121257999Y-66006155D01*
X121251598Y-65946627D01*
X121251596Y-65946620D01*
X121201354Y-65811913D01*
X121201350Y-65811906D01*
X121115190Y-65696812D01*
X121115187Y-65696809D01*
X121000093Y-65610649D01*
X121000086Y-65610645D01*
X120865379Y-65560403D01*
X120865372Y-65560401D01*
X120805844Y-65554000D01*
X120158000Y-65554000D01*
X120158000Y-66470988D01*
X120100993Y-66438075D01*
X119973826Y-66404000D01*
X119842174Y-66404000D01*
X119715007Y-66438075D01*
X119658000Y-66470988D01*
X119658000Y-65554000D01*
X119010155Y-65554000D01*
X118950627Y-65560401D01*
X118950620Y-65560403D01*
X118815913Y-65610645D01*
X118815906Y-65610649D01*
X118700812Y-65696809D01*
X118700809Y-65696812D01*
X118614649Y-65811906D01*
X118614645Y-65811913D01*
X118564403Y-65946620D01*
X118564401Y-65946627D01*
X118558000Y-66006155D01*
X115836734Y-66006155D01*
X115691954Y-65928768D01*
X115493934Y-65868700D01*
X115493932Y-65868699D01*
X115493934Y-65868699D01*
X115288000Y-65848417D01*
X115082067Y-65868699D01*
X114884043Y-65928769D01*
X114850634Y-65946627D01*
X114701550Y-66026315D01*
X114701548Y-66026316D01*
X114701547Y-66026317D01*
X114541589Y-66157589D01*
X114410317Y-66317547D01*
X114312769Y-66500043D01*
X114252699Y-66698067D01*
X114232417Y-66904000D01*
X113073500Y-66904000D01*
X113073500Y-65205149D01*
X113073500Y-65205147D01*
X113051318Y-65122362D01*
X113051314Y-65122355D01*
X113008469Y-65048144D01*
X113008463Y-65048136D01*
X111743508Y-63783181D01*
X111710023Y-63721858D01*
X111715007Y-63652166D01*
X111756879Y-63596233D01*
X111822343Y-63571816D01*
X111831189Y-63571500D01*
X120059811Y-63571500D01*
X120126850Y-63591185D01*
X120147492Y-63607819D01*
X122086181Y-65546508D01*
X122119666Y-65607831D01*
X122122500Y-65634189D01*
X122122500Y-69820417D01*
X122102815Y-69887456D01*
X122050011Y-69933211D01*
X122045951Y-69934979D01*
X122044045Y-69935768D01*
X122010634Y-69953627D01*
X121861550Y-70033315D01*
X121861548Y-70033316D01*
X121861547Y-70033317D01*
X121701589Y-70164589D01*
X121570317Y-70324547D01*
X121570315Y-70324550D01*
X121498887Y-70458181D01*
X121491358Y-70472267D01*
X121442395Y-70522111D01*
X121374257Y-70537571D01*
X121308578Y-70513739D01*
X121266209Y-70458181D01*
X121258000Y-70413813D01*
X121258000Y-70013172D01*
X121257999Y-70013155D01*
X121251598Y-69953627D01*
X121251596Y-69953620D01*
X121201354Y-69818913D01*
X121201350Y-69818906D01*
X121115190Y-69703812D01*
X121115187Y-69703809D01*
X121000093Y-69617649D01*
X121000086Y-69617645D01*
X120865379Y-69567403D01*
X120865372Y-69567401D01*
X120805844Y-69561000D01*
X120158000Y-69561000D01*
X120158000Y-70477988D01*
X120100993Y-70445075D01*
X119973826Y-70411000D01*
X119842174Y-70411000D01*
X119715007Y-70445075D01*
X119658000Y-70477988D01*
X119658000Y-69561000D01*
X119010155Y-69561000D01*
X118950627Y-69567401D01*
X118950620Y-69567403D01*
X118815913Y-69617645D01*
X118815906Y-69617649D01*
X118700812Y-69703809D01*
X118700809Y-69703812D01*
X118614649Y-69818906D01*
X118614645Y-69818913D01*
X118564403Y-69953620D01*
X118564401Y-69953627D01*
X118558000Y-70013155D01*
X118558000Y-70661000D01*
X119474988Y-70661000D01*
X119442075Y-70718007D01*
X119408000Y-70845174D01*
X119408000Y-70976826D01*
X119442075Y-71103993D01*
X119474988Y-71161000D01*
X118558000Y-71161000D01*
X118558000Y-71808844D01*
X118564401Y-71868372D01*
X118564403Y-71868379D01*
X118614645Y-72003086D01*
X118614649Y-72003093D01*
X118700809Y-72118187D01*
X118700812Y-72118190D01*
X118815906Y-72204350D01*
X118815913Y-72204354D01*
X118950620Y-72254596D01*
X118950627Y-72254598D01*
X119010155Y-72260999D01*
X119010172Y-72261000D01*
X119658000Y-72261000D01*
X119658000Y-71344012D01*
X119715007Y-71376925D01*
X119842174Y-71411000D01*
X119973826Y-71411000D01*
X120100993Y-71376925D01*
X120158000Y-71344012D01*
X120158000Y-72261000D01*
X120805828Y-72261000D01*
X120805844Y-72260999D01*
X120865372Y-72254598D01*
X120865379Y-72254596D01*
X121000086Y-72204354D01*
X121000093Y-72204350D01*
X121115187Y-72118190D01*
X121115190Y-72118187D01*
X121201350Y-72003093D01*
X121201354Y-72003086D01*
X121251596Y-71868379D01*
X121251598Y-71868372D01*
X121257999Y-71808844D01*
X121258000Y-71808827D01*
X121258000Y-71408186D01*
X121277685Y-71341147D01*
X121330489Y-71295392D01*
X121399647Y-71285448D01*
X121463203Y-71314473D01*
X121491356Y-71349729D01*
X121570315Y-71497450D01*
X121570317Y-71497452D01*
X121701589Y-71657410D01*
X121798209Y-71736702D01*
X121861550Y-71788685D01*
X122044046Y-71886232D01*
X122242066Y-71946300D01*
X122242065Y-71946300D01*
X122260529Y-71948118D01*
X122448000Y-71966583D01*
X122653934Y-71946300D01*
X122851954Y-71886232D01*
X123034450Y-71788685D01*
X123194410Y-71657410D01*
X123325685Y-71497450D01*
X123423232Y-71314954D01*
X123483300Y-71116934D01*
X123503583Y-70911000D01*
X123932417Y-70911000D01*
X123952699Y-71116932D01*
X123952700Y-71116934D01*
X124012768Y-71314954D01*
X124110315Y-71497450D01*
X124110317Y-71497452D01*
X124241589Y-71657410D01*
X124338209Y-71736702D01*
X124401550Y-71788685D01*
X124584046Y-71886232D01*
X124782066Y-71946300D01*
X124782065Y-71946300D01*
X124800529Y-71948118D01*
X124988000Y-71966583D01*
X125193934Y-71946300D01*
X125391954Y-71886232D01*
X125574450Y-71788685D01*
X125734410Y-71657410D01*
X125865685Y-71497450D01*
X125963232Y-71314954D01*
X126023300Y-71116934D01*
X126043583Y-70911000D01*
X126023300Y-70705066D01*
X125963232Y-70507046D01*
X125865685Y-70324550D01*
X125813702Y-70261209D01*
X125734410Y-70164589D01*
X125574452Y-70033317D01*
X125574453Y-70033317D01*
X125574450Y-70033315D01*
X125391954Y-69935768D01*
X125193934Y-69875700D01*
X125193932Y-69875699D01*
X125193934Y-69875699D01*
X124988000Y-69855417D01*
X124782067Y-69875699D01*
X124606692Y-69928898D01*
X124592476Y-69933211D01*
X124584043Y-69935769D01*
X124550634Y-69953627D01*
X124401550Y-70033315D01*
X124401548Y-70033316D01*
X124401547Y-70033317D01*
X124241589Y-70164589D01*
X124110317Y-70324547D01*
X124012769Y-70507043D01*
X123952699Y-70705067D01*
X123932417Y-70911000D01*
X123503583Y-70911000D01*
X123483300Y-70705066D01*
X123423232Y-70507046D01*
X123325685Y-70324550D01*
X123273702Y-70261209D01*
X123194410Y-70164589D01*
X123034452Y-70033317D01*
X123034453Y-70033317D01*
X123034450Y-70033315D01*
X122851954Y-69935768D01*
X122850049Y-69934979D01*
X122849203Y-69934298D01*
X122846581Y-69932896D01*
X122846846Y-69932398D01*
X122795645Y-69891138D01*
X122773579Y-69824844D01*
X122773500Y-69820417D01*
X122773500Y-66904000D01*
X123932417Y-66904000D01*
X123952699Y-67109932D01*
X123963940Y-67146988D01*
X124012768Y-67307954D01*
X124110315Y-67490450D01*
X124110317Y-67490452D01*
X124241589Y-67650410D01*
X124338209Y-67729702D01*
X124401550Y-67781685D01*
X124584046Y-67879232D01*
X124782066Y-67939300D01*
X124782065Y-67939300D01*
X124800529Y-67941118D01*
X124988000Y-67959583D01*
X125193934Y-67939300D01*
X125391954Y-67879232D01*
X125574450Y-67781685D01*
X125734410Y-67650410D01*
X125865685Y-67490450D01*
X125963232Y-67307954D01*
X126023300Y-67109934D01*
X126043583Y-66904000D01*
X126023300Y-66698066D01*
X125963232Y-66500046D01*
X125865685Y-66317550D01*
X125813702Y-66254209D01*
X125734410Y-66157589D01*
X125574452Y-66026317D01*
X125574453Y-66026317D01*
X125574450Y-66026315D01*
X125536734Y-66006155D01*
X128258000Y-66006155D01*
X128258000Y-66654000D01*
X129174988Y-66654000D01*
X129142075Y-66711007D01*
X129108000Y-66838174D01*
X129108000Y-66969826D01*
X129142075Y-67096993D01*
X129174988Y-67154000D01*
X128258000Y-67154000D01*
X128258000Y-67801844D01*
X128264401Y-67861372D01*
X128264403Y-67861379D01*
X128314645Y-67996086D01*
X128314649Y-67996093D01*
X128400809Y-68111187D01*
X128400812Y-68111190D01*
X128515906Y-68197350D01*
X128515913Y-68197354D01*
X128650620Y-68247596D01*
X128650627Y-68247598D01*
X128710155Y-68253999D01*
X128710172Y-68254000D01*
X129358000Y-68254000D01*
X129358000Y-67337012D01*
X129415007Y-67369925D01*
X129542174Y-67404000D01*
X129673826Y-67404000D01*
X129800993Y-67369925D01*
X129858000Y-67337012D01*
X129858000Y-68254000D01*
X130505828Y-68254000D01*
X130505844Y-68253999D01*
X130565372Y-68247598D01*
X130565379Y-68247596D01*
X130700086Y-68197354D01*
X130700093Y-68197350D01*
X130815187Y-68111190D01*
X130815190Y-68111187D01*
X130901350Y-67996093D01*
X130901354Y-67996086D01*
X130951596Y-67861379D01*
X130951598Y-67861372D01*
X130957999Y-67801844D01*
X130958000Y-67801827D01*
X130958000Y-67154000D01*
X130041012Y-67154000D01*
X130073925Y-67096993D01*
X130108000Y-66969826D01*
X130108000Y-66838174D01*
X130073925Y-66711007D01*
X130041012Y-66654000D01*
X130958000Y-66654000D01*
X130958000Y-66006172D01*
X130957999Y-66006155D01*
X130951598Y-65946627D01*
X130951596Y-65946620D01*
X130901354Y-65811913D01*
X130901350Y-65811906D01*
X130815190Y-65696812D01*
X130815187Y-65696809D01*
X130700093Y-65610649D01*
X130700086Y-65610645D01*
X130565379Y-65560403D01*
X130565372Y-65560401D01*
X130505844Y-65554000D01*
X129858000Y-65554000D01*
X129858000Y-66470988D01*
X129800993Y-66438075D01*
X129673826Y-66404000D01*
X129542174Y-66404000D01*
X129415007Y-66438075D01*
X129358000Y-66470988D01*
X129358000Y-65554000D01*
X128710155Y-65554000D01*
X128650627Y-65560401D01*
X128650620Y-65560403D01*
X128515913Y-65610645D01*
X128515906Y-65610649D01*
X128400812Y-65696809D01*
X128400809Y-65696812D01*
X128314649Y-65811906D01*
X128314645Y-65811913D01*
X128264403Y-65946620D01*
X128264401Y-65946627D01*
X128258000Y-66006155D01*
X125536734Y-66006155D01*
X125391954Y-65928768D01*
X125193934Y-65868700D01*
X125193932Y-65868699D01*
X125193934Y-65868699D01*
X124988000Y-65848417D01*
X124782067Y-65868699D01*
X124584043Y-65928769D01*
X124550634Y-65946627D01*
X124401550Y-66026315D01*
X124401548Y-66026316D01*
X124401547Y-66026317D01*
X124241589Y-66157589D01*
X124110317Y-66317547D01*
X124012769Y-66500043D01*
X123952699Y-66698067D01*
X123932417Y-66904000D01*
X122773500Y-66904000D01*
X122773500Y-65405149D01*
X122773500Y-65405147D01*
X122751318Y-65322362D01*
X122751318Y-65322361D01*
X122708465Y-65248138D01*
X120793508Y-63333181D01*
X120760023Y-63271858D01*
X120765007Y-63202166D01*
X120806879Y-63146233D01*
X120872343Y-63121816D01*
X120881189Y-63121500D01*
X130609811Y-63121500D01*
X130676850Y-63141185D01*
X130697492Y-63157819D01*
X131786181Y-64246507D01*
X131819666Y-64307830D01*
X131822500Y-64334188D01*
X131822500Y-69820417D01*
X131802815Y-69887456D01*
X131750011Y-69933211D01*
X131745951Y-69934979D01*
X131744045Y-69935768D01*
X131710634Y-69953627D01*
X131561550Y-70033315D01*
X131561548Y-70033316D01*
X131561547Y-70033317D01*
X131401589Y-70164589D01*
X131270317Y-70324547D01*
X131270315Y-70324550D01*
X131198887Y-70458181D01*
X131191358Y-70472267D01*
X131142395Y-70522111D01*
X131074257Y-70537571D01*
X131008578Y-70513739D01*
X130966209Y-70458181D01*
X130958000Y-70413813D01*
X130958000Y-70013172D01*
X130957999Y-70013155D01*
X130951598Y-69953627D01*
X130951596Y-69953620D01*
X130901354Y-69818913D01*
X130901350Y-69818906D01*
X130815190Y-69703812D01*
X130815187Y-69703809D01*
X130700093Y-69617649D01*
X130700086Y-69617645D01*
X130565379Y-69567403D01*
X130565372Y-69567401D01*
X130505844Y-69561000D01*
X129858000Y-69561000D01*
X129858000Y-70477988D01*
X129800993Y-70445075D01*
X129673826Y-70411000D01*
X129542174Y-70411000D01*
X129415007Y-70445075D01*
X129358000Y-70477988D01*
X129358000Y-69561000D01*
X128710155Y-69561000D01*
X128650627Y-69567401D01*
X128650620Y-69567403D01*
X128515913Y-69617645D01*
X128515906Y-69617649D01*
X128400812Y-69703809D01*
X128400809Y-69703812D01*
X128314649Y-69818906D01*
X128314645Y-69818913D01*
X128264403Y-69953620D01*
X128264401Y-69953627D01*
X128258000Y-70013155D01*
X128258000Y-70661000D01*
X129174988Y-70661000D01*
X129142075Y-70718007D01*
X129108000Y-70845174D01*
X129108000Y-70976826D01*
X129142075Y-71103993D01*
X129174988Y-71161000D01*
X128258000Y-71161000D01*
X128258000Y-71808844D01*
X128264401Y-71868372D01*
X128264403Y-71868379D01*
X128314645Y-72003086D01*
X128314649Y-72003093D01*
X128400809Y-72118187D01*
X128400812Y-72118190D01*
X128515906Y-72204350D01*
X128515913Y-72204354D01*
X128650620Y-72254596D01*
X128650627Y-72254598D01*
X128710155Y-72260999D01*
X128710172Y-72261000D01*
X129358000Y-72261000D01*
X129358000Y-71344012D01*
X129415007Y-71376925D01*
X129542174Y-71411000D01*
X129673826Y-71411000D01*
X129800993Y-71376925D01*
X129858000Y-71344012D01*
X129858000Y-72261000D01*
X130505828Y-72261000D01*
X130505844Y-72260999D01*
X130565372Y-72254598D01*
X130565379Y-72254596D01*
X130700086Y-72204354D01*
X130700093Y-72204350D01*
X130815187Y-72118190D01*
X130815190Y-72118187D01*
X130901350Y-72003093D01*
X130901354Y-72003086D01*
X130951596Y-71868379D01*
X130951598Y-71868372D01*
X130957999Y-71808844D01*
X130958000Y-71808827D01*
X130958000Y-71408186D01*
X130977685Y-71341147D01*
X131030489Y-71295392D01*
X131099647Y-71285448D01*
X131163203Y-71314473D01*
X131191356Y-71349729D01*
X131270315Y-71497450D01*
X131270317Y-71497452D01*
X131401589Y-71657410D01*
X131498209Y-71736702D01*
X131561550Y-71788685D01*
X131744046Y-71886232D01*
X131942066Y-71946300D01*
X131942065Y-71946300D01*
X131960529Y-71948118D01*
X132148000Y-71966583D01*
X132353934Y-71946300D01*
X132551954Y-71886232D01*
X132734450Y-71788685D01*
X132894410Y-71657410D01*
X133025685Y-71497450D01*
X133123232Y-71314954D01*
X133183300Y-71116934D01*
X133203583Y-70911000D01*
X133632417Y-70911000D01*
X133652699Y-71116932D01*
X133652700Y-71116934D01*
X133712768Y-71314954D01*
X133810315Y-71497450D01*
X133810317Y-71497452D01*
X133941589Y-71657410D01*
X134038209Y-71736702D01*
X134101550Y-71788685D01*
X134284046Y-71886232D01*
X134482066Y-71946300D01*
X134482065Y-71946300D01*
X134500529Y-71948118D01*
X134688000Y-71966583D01*
X134893934Y-71946300D01*
X135091954Y-71886232D01*
X135274450Y-71788685D01*
X135434410Y-71657410D01*
X135565685Y-71497450D01*
X135663232Y-71314954D01*
X135723300Y-71116934D01*
X135743583Y-70911000D01*
X135723300Y-70705066D01*
X135663232Y-70507046D01*
X135565685Y-70324550D01*
X135513702Y-70261209D01*
X135434410Y-70164589D01*
X135274452Y-70033317D01*
X135274453Y-70033317D01*
X135274450Y-70033315D01*
X135091954Y-69935768D01*
X134893934Y-69875700D01*
X134893932Y-69875699D01*
X134893934Y-69875699D01*
X134688000Y-69855417D01*
X134482067Y-69875699D01*
X134306692Y-69928898D01*
X134292476Y-69933211D01*
X134284043Y-69935769D01*
X134250634Y-69953627D01*
X134101550Y-70033315D01*
X134101548Y-70033316D01*
X134101547Y-70033317D01*
X133941589Y-70164589D01*
X133810317Y-70324547D01*
X133712769Y-70507043D01*
X133652699Y-70705067D01*
X133632417Y-70911000D01*
X133203583Y-70911000D01*
X133183300Y-70705066D01*
X133123232Y-70507046D01*
X133025685Y-70324550D01*
X132973702Y-70261209D01*
X132894410Y-70164589D01*
X132734452Y-70033317D01*
X132734453Y-70033317D01*
X132734450Y-70033315D01*
X132551954Y-69935768D01*
X132550049Y-69934979D01*
X132549203Y-69934298D01*
X132546581Y-69932896D01*
X132546846Y-69932398D01*
X132495645Y-69891138D01*
X132473579Y-69824844D01*
X132473500Y-69820417D01*
X132473500Y-66904000D01*
X133632417Y-66904000D01*
X133652699Y-67109932D01*
X133663940Y-67146988D01*
X133712768Y-67307954D01*
X133810315Y-67490450D01*
X133810317Y-67490452D01*
X133941589Y-67650410D01*
X134038209Y-67729702D01*
X134101550Y-67781685D01*
X134284046Y-67879232D01*
X134482066Y-67939300D01*
X134482065Y-67939300D01*
X134500529Y-67941118D01*
X134688000Y-67959583D01*
X134893934Y-67939300D01*
X135091954Y-67879232D01*
X135274450Y-67781685D01*
X135434410Y-67650410D01*
X135565685Y-67490450D01*
X135663232Y-67307954D01*
X135723300Y-67109934D01*
X135743583Y-66904000D01*
X135723300Y-66698066D01*
X135663232Y-66500046D01*
X135565685Y-66317550D01*
X135513702Y-66254209D01*
X135434410Y-66157589D01*
X135274452Y-66026317D01*
X135274453Y-66026317D01*
X135274450Y-66026315D01*
X135091954Y-65928768D01*
X134893934Y-65868700D01*
X134893932Y-65868699D01*
X134893934Y-65868699D01*
X134688000Y-65848417D01*
X134482067Y-65868699D01*
X134284043Y-65928769D01*
X134250634Y-65946627D01*
X134101550Y-66026315D01*
X134101548Y-66026316D01*
X134101547Y-66026317D01*
X133941589Y-66157589D01*
X133810317Y-66317547D01*
X133712769Y-66500043D01*
X133652699Y-66698067D01*
X133632417Y-66904000D01*
X132473500Y-66904000D01*
X132473500Y-64200855D01*
X132473501Y-64200842D01*
X132473501Y-64105148D01*
X132468957Y-64088190D01*
X132451318Y-64022361D01*
X132429891Y-63985250D01*
X132408465Y-63948138D01*
X132347862Y-63887535D01*
X132347861Y-63887534D01*
X132343531Y-63883204D01*
X132343520Y-63883194D01*
X131343508Y-62883181D01*
X131310023Y-62821858D01*
X131315007Y-62752166D01*
X131356879Y-62696233D01*
X131422343Y-62671816D01*
X131431189Y-62671500D01*
X137056257Y-62671500D01*
X137123296Y-62691185D01*
X137143938Y-62707819D01*
X139778438Y-65342319D01*
X139811923Y-65403642D01*
X139806939Y-65473334D01*
X139765067Y-65529267D01*
X139699603Y-65553684D01*
X139690757Y-65554000D01*
X139558000Y-65554000D01*
X139558000Y-66470988D01*
X139500993Y-66438075D01*
X139373826Y-66404000D01*
X139242174Y-66404000D01*
X139115007Y-66438075D01*
X139058000Y-66470988D01*
X139058000Y-65554000D01*
X138410155Y-65554000D01*
X138350627Y-65560401D01*
X138350620Y-65560403D01*
X138215913Y-65610645D01*
X138215906Y-65610649D01*
X138100812Y-65696809D01*
X138100809Y-65696812D01*
X138014649Y-65811906D01*
X138014645Y-65811913D01*
X137964403Y-65946620D01*
X137964401Y-65946627D01*
X137958000Y-66006155D01*
X137958000Y-66654000D01*
X138874988Y-66654000D01*
X138842075Y-66711007D01*
X138808000Y-66838174D01*
X138808000Y-66969826D01*
X138842075Y-67096993D01*
X138874988Y-67154000D01*
X137958000Y-67154000D01*
X137958000Y-67801844D01*
X137964401Y-67861372D01*
X137964403Y-67861379D01*
X138014645Y-67996086D01*
X138014649Y-67996093D01*
X138100809Y-68111187D01*
X138100812Y-68111190D01*
X138215906Y-68197350D01*
X138215913Y-68197354D01*
X138350620Y-68247596D01*
X138350627Y-68247598D01*
X138410155Y-68253999D01*
X138410172Y-68254000D01*
X139058000Y-68254000D01*
X139058000Y-67337012D01*
X139115007Y-67369925D01*
X139242174Y-67404000D01*
X139373826Y-67404000D01*
X139500993Y-67369925D01*
X139558000Y-67337012D01*
X139558000Y-68254000D01*
X140205828Y-68254000D01*
X140205844Y-68253999D01*
X140265372Y-68247598D01*
X140265379Y-68247596D01*
X140400086Y-68197354D01*
X140400093Y-68197350D01*
X140515187Y-68111190D01*
X140515190Y-68111187D01*
X140601350Y-67996093D01*
X140601354Y-67996086D01*
X140651596Y-67861379D01*
X140651598Y-67861372D01*
X140657999Y-67801844D01*
X140658000Y-67801827D01*
X140658000Y-67154000D01*
X139741012Y-67154000D01*
X139773925Y-67096993D01*
X139808000Y-66969826D01*
X139808000Y-66838174D01*
X139773925Y-66711007D01*
X139741012Y-66654000D01*
X140658000Y-66654000D01*
X140658000Y-66521243D01*
X140677685Y-66454204D01*
X140730489Y-66408449D01*
X140799647Y-66398505D01*
X140863203Y-66427530D01*
X140869681Y-66433562D01*
X141486181Y-67050062D01*
X141519666Y-67111385D01*
X141522500Y-67137743D01*
X141522500Y-69820417D01*
X141502815Y-69887456D01*
X141450011Y-69933211D01*
X141445951Y-69934979D01*
X141444045Y-69935768D01*
X141410634Y-69953627D01*
X141261550Y-70033315D01*
X141261548Y-70033316D01*
X141261547Y-70033317D01*
X141101589Y-70164589D01*
X140970317Y-70324547D01*
X140970315Y-70324550D01*
X140898887Y-70458181D01*
X140891358Y-70472267D01*
X140842395Y-70522111D01*
X140774257Y-70537571D01*
X140708578Y-70513739D01*
X140666209Y-70458181D01*
X140658000Y-70413813D01*
X140658000Y-70013172D01*
X140657999Y-70013155D01*
X140651598Y-69953627D01*
X140651596Y-69953620D01*
X140601354Y-69818913D01*
X140601350Y-69818906D01*
X140515190Y-69703812D01*
X140515187Y-69703809D01*
X140400093Y-69617649D01*
X140400086Y-69617645D01*
X140265379Y-69567403D01*
X140265372Y-69567401D01*
X140205844Y-69561000D01*
X139558000Y-69561000D01*
X139558000Y-70477988D01*
X139500993Y-70445075D01*
X139373826Y-70411000D01*
X139242174Y-70411000D01*
X139115007Y-70445075D01*
X139058000Y-70477988D01*
X139058000Y-69561000D01*
X138410155Y-69561000D01*
X138350627Y-69567401D01*
X138350620Y-69567403D01*
X138215913Y-69617645D01*
X138215906Y-69617649D01*
X138100812Y-69703809D01*
X138100809Y-69703812D01*
X138014649Y-69818906D01*
X138014645Y-69818913D01*
X137964403Y-69953620D01*
X137964401Y-69953627D01*
X137958000Y-70013155D01*
X137958000Y-70661000D01*
X138874988Y-70661000D01*
X138842075Y-70718007D01*
X138808000Y-70845174D01*
X138808000Y-70976826D01*
X138842075Y-71103993D01*
X138874988Y-71161000D01*
X137958000Y-71161000D01*
X137958000Y-71808844D01*
X137964401Y-71868372D01*
X137964403Y-71868379D01*
X138014645Y-72003086D01*
X138014649Y-72003093D01*
X138100809Y-72118187D01*
X138100812Y-72118190D01*
X138215906Y-72204350D01*
X138215913Y-72204354D01*
X138350620Y-72254596D01*
X138350627Y-72254598D01*
X138410155Y-72260999D01*
X138410172Y-72261000D01*
X139058000Y-72261000D01*
X139058000Y-71344012D01*
X139115007Y-71376925D01*
X139242174Y-71411000D01*
X139373826Y-71411000D01*
X139500993Y-71376925D01*
X139558000Y-71344012D01*
X139558000Y-72261000D01*
X140205828Y-72261000D01*
X140205844Y-72260999D01*
X140265372Y-72254598D01*
X140265379Y-72254596D01*
X140400086Y-72204354D01*
X140400093Y-72204350D01*
X140515187Y-72118190D01*
X140515190Y-72118187D01*
X140601350Y-72003093D01*
X140601354Y-72003086D01*
X140651596Y-71868379D01*
X140651598Y-71868372D01*
X140657999Y-71808844D01*
X140658000Y-71808827D01*
X140658000Y-71408186D01*
X140677685Y-71341147D01*
X140730489Y-71295392D01*
X140799647Y-71285448D01*
X140863203Y-71314473D01*
X140891356Y-71349729D01*
X140970315Y-71497450D01*
X140970317Y-71497452D01*
X141101589Y-71657410D01*
X141198209Y-71736702D01*
X141261550Y-71788685D01*
X141444046Y-71886232D01*
X141642066Y-71946300D01*
X141642065Y-71946300D01*
X141660529Y-71948118D01*
X141848000Y-71966583D01*
X142053934Y-71946300D01*
X142251954Y-71886232D01*
X142434450Y-71788685D01*
X142594410Y-71657410D01*
X142725685Y-71497450D01*
X142823232Y-71314954D01*
X142883300Y-71116934D01*
X142903583Y-70911000D01*
X143332417Y-70911000D01*
X143352699Y-71116932D01*
X143352700Y-71116934D01*
X143412768Y-71314954D01*
X143510315Y-71497450D01*
X143510317Y-71497452D01*
X143641589Y-71657410D01*
X143738209Y-71736702D01*
X143801550Y-71788685D01*
X143984046Y-71886232D01*
X144182066Y-71946300D01*
X144182065Y-71946300D01*
X144200529Y-71948118D01*
X144388000Y-71966583D01*
X144593934Y-71946300D01*
X144791954Y-71886232D01*
X144974450Y-71788685D01*
X145134410Y-71657410D01*
X145265685Y-71497450D01*
X145363232Y-71314954D01*
X145423300Y-71116934D01*
X145443583Y-70911000D01*
X145423300Y-70705066D01*
X145363232Y-70507046D01*
X145265685Y-70324550D01*
X145213702Y-70261209D01*
X145134410Y-70164589D01*
X144974452Y-70033317D01*
X144974453Y-70033317D01*
X144974450Y-70033315D01*
X144791954Y-69935768D01*
X144593934Y-69875700D01*
X144593932Y-69875699D01*
X144593934Y-69875699D01*
X144388000Y-69855417D01*
X144182067Y-69875699D01*
X144006692Y-69928898D01*
X143992476Y-69933211D01*
X143984043Y-69935769D01*
X143950634Y-69953627D01*
X143801550Y-70033315D01*
X143801548Y-70033316D01*
X143801547Y-70033317D01*
X143641589Y-70164589D01*
X143510317Y-70324547D01*
X143412769Y-70507043D01*
X143352699Y-70705067D01*
X143332417Y-70911000D01*
X142903583Y-70911000D01*
X142883300Y-70705066D01*
X142823232Y-70507046D01*
X142725685Y-70324550D01*
X142673702Y-70261209D01*
X142594410Y-70164589D01*
X142434452Y-70033317D01*
X142434453Y-70033317D01*
X142434450Y-70033315D01*
X142251954Y-69935768D01*
X142250049Y-69934979D01*
X142249203Y-69934298D01*
X142246581Y-69932896D01*
X142246846Y-69932398D01*
X142195645Y-69891138D01*
X142173579Y-69824844D01*
X142173500Y-69820417D01*
X142173500Y-67433189D01*
X142193185Y-67366150D01*
X142245989Y-67320395D01*
X142315147Y-67310451D01*
X142378703Y-67339476D01*
X142385181Y-67345508D01*
X144300138Y-69260465D01*
X144374361Y-69303318D01*
X144457147Y-69325500D01*
X144542853Y-69325500D01*
X148011902Y-69325500D01*
X148078941Y-69345185D01*
X148124696Y-69397989D01*
X148134640Y-69467147D01*
X148105615Y-69530703D01*
X148055235Y-69565682D01*
X147915913Y-69617645D01*
X147915906Y-69617649D01*
X147800812Y-69703809D01*
X147800809Y-69703812D01*
X147714649Y-69818906D01*
X147714645Y-69818913D01*
X147664403Y-69953620D01*
X147664401Y-69953627D01*
X147658000Y-70013155D01*
X147658000Y-70661000D01*
X148574988Y-70661000D01*
X148542075Y-70718007D01*
X148508000Y-70845174D01*
X148508000Y-70976826D01*
X148542075Y-71103993D01*
X148574988Y-71161000D01*
X147658000Y-71161000D01*
X147658000Y-71808844D01*
X147664401Y-71868372D01*
X147664403Y-71868379D01*
X147714645Y-72003086D01*
X147714649Y-72003093D01*
X147800809Y-72118187D01*
X147800812Y-72118190D01*
X147915906Y-72204350D01*
X147915913Y-72204354D01*
X148050620Y-72254596D01*
X148050627Y-72254598D01*
X148110155Y-72260999D01*
X148110172Y-72261000D01*
X148758000Y-72261000D01*
X148758000Y-71344012D01*
X148815007Y-71376925D01*
X148942174Y-71411000D01*
X149073826Y-71411000D01*
X149200993Y-71376925D01*
X149258000Y-71344012D01*
X149258000Y-72261000D01*
X149905828Y-72261000D01*
X149905844Y-72260999D01*
X149965372Y-72254598D01*
X149965379Y-72254596D01*
X150100086Y-72204354D01*
X150100093Y-72204350D01*
X150215187Y-72118190D01*
X150215190Y-72118187D01*
X150301350Y-72003093D01*
X150301354Y-72003086D01*
X150351596Y-71868379D01*
X150351598Y-71868372D01*
X150357999Y-71808844D01*
X150358000Y-71808827D01*
X150358000Y-71408186D01*
X150377685Y-71341147D01*
X150430489Y-71295392D01*
X150499647Y-71285448D01*
X150563203Y-71314473D01*
X150591356Y-71349729D01*
X150670315Y-71497450D01*
X150670317Y-71497452D01*
X150801589Y-71657410D01*
X150898209Y-71736702D01*
X150961550Y-71788685D01*
X151144046Y-71886232D01*
X151342066Y-71946300D01*
X151342065Y-71946300D01*
X151360529Y-71948118D01*
X151548000Y-71966583D01*
X151753934Y-71946300D01*
X151951954Y-71886232D01*
X152134450Y-71788685D01*
X152294410Y-71657410D01*
X152425685Y-71497450D01*
X152523232Y-71314954D01*
X152583300Y-71116934D01*
X152603583Y-70911000D01*
X153032417Y-70911000D01*
X153052699Y-71116932D01*
X153052700Y-71116934D01*
X153112768Y-71314954D01*
X153210315Y-71497450D01*
X153210317Y-71497452D01*
X153341589Y-71657410D01*
X153438209Y-71736702D01*
X153501550Y-71788685D01*
X153684046Y-71886232D01*
X153882066Y-71946300D01*
X153882065Y-71946300D01*
X153900529Y-71948118D01*
X154088000Y-71966583D01*
X154293934Y-71946300D01*
X154491954Y-71886232D01*
X154674450Y-71788685D01*
X154834410Y-71657410D01*
X154965685Y-71497450D01*
X155063232Y-71314954D01*
X155123300Y-71116934D01*
X155143583Y-70911000D01*
X155123300Y-70705066D01*
X155063232Y-70507046D01*
X154965685Y-70324550D01*
X154913702Y-70261209D01*
X154834410Y-70164589D01*
X154674452Y-70033317D01*
X154674453Y-70033317D01*
X154674450Y-70033315D01*
X154491954Y-69935768D01*
X154293934Y-69875700D01*
X154293932Y-69875699D01*
X154293934Y-69875699D01*
X154088000Y-69855417D01*
X153882067Y-69875699D01*
X153706692Y-69928898D01*
X153692476Y-69933211D01*
X153684043Y-69935769D01*
X153650634Y-69953627D01*
X153501550Y-70033315D01*
X153501548Y-70033316D01*
X153501547Y-70033317D01*
X153341589Y-70164589D01*
X153210317Y-70324547D01*
X153112769Y-70507043D01*
X153052699Y-70705067D01*
X153032417Y-70911000D01*
X152603583Y-70911000D01*
X152583300Y-70705066D01*
X152523232Y-70507046D01*
X152425685Y-70324550D01*
X152373702Y-70261209D01*
X152294410Y-70164589D01*
X152134452Y-70033317D01*
X152134453Y-70033317D01*
X152134450Y-70033315D01*
X151951954Y-69935768D01*
X151753934Y-69875700D01*
X151753932Y-69875699D01*
X151753934Y-69875699D01*
X151548000Y-69855417D01*
X151342067Y-69875699D01*
X151230054Y-69909678D01*
X151144046Y-69935768D01*
X151144043Y-69935769D01*
X151144041Y-69935770D01*
X151142132Y-69936561D01*
X151141051Y-69936677D01*
X151138217Y-69937537D01*
X151138053Y-69936999D01*
X151072662Y-69944026D01*
X151010185Y-69912747D01*
X151007005Y-69909678D01*
X149836864Y-68739537D01*
X149836862Y-68739535D01*
X149799750Y-68718108D01*
X149762640Y-68696682D01*
X149721246Y-68685591D01*
X149679853Y-68674500D01*
X149679852Y-68674500D01*
X144686189Y-68674500D01*
X144619150Y-68654815D01*
X144598508Y-68638181D01*
X144113822Y-68153495D01*
X144080337Y-68092172D01*
X144085321Y-68022480D01*
X144127193Y-67966547D01*
X144192657Y-67942130D01*
X144213651Y-67942410D01*
X144388000Y-67959583D01*
X144593934Y-67939300D01*
X144791954Y-67879232D01*
X144974450Y-67781685D01*
X145134410Y-67650410D01*
X145265685Y-67490450D01*
X145363232Y-67307954D01*
X145423300Y-67109934D01*
X145443583Y-66904000D01*
X145423300Y-66698066D01*
X145363232Y-66500046D01*
X145265685Y-66317550D01*
X145213702Y-66254209D01*
X145134410Y-66157589D01*
X144974452Y-66026317D01*
X144974453Y-66026317D01*
X144974450Y-66026315D01*
X144936734Y-66006155D01*
X147658000Y-66006155D01*
X147658000Y-66654000D01*
X148574988Y-66654000D01*
X148542075Y-66711007D01*
X148508000Y-66838174D01*
X148508000Y-66969826D01*
X148542075Y-67096993D01*
X148574988Y-67154000D01*
X147658000Y-67154000D01*
X147658000Y-67801844D01*
X147664401Y-67861372D01*
X147664403Y-67861379D01*
X147714645Y-67996086D01*
X147714649Y-67996093D01*
X147800809Y-68111187D01*
X147800812Y-68111190D01*
X147915906Y-68197350D01*
X147915913Y-68197354D01*
X148050620Y-68247596D01*
X148050627Y-68247598D01*
X148110155Y-68253999D01*
X148110172Y-68254000D01*
X148758000Y-68254000D01*
X148758000Y-67337012D01*
X148815007Y-67369925D01*
X148942174Y-67404000D01*
X149073826Y-67404000D01*
X149200993Y-67369925D01*
X149258000Y-67337012D01*
X149258000Y-68254000D01*
X149905828Y-68254000D01*
X149905844Y-68253999D01*
X149965372Y-68247598D01*
X149965379Y-68247596D01*
X150100086Y-68197354D01*
X150100093Y-68197350D01*
X150215187Y-68111190D01*
X150215190Y-68111187D01*
X150301350Y-67996093D01*
X150301354Y-67996086D01*
X150351596Y-67861379D01*
X150351598Y-67861372D01*
X150357999Y-67801844D01*
X150358000Y-67801827D01*
X150358000Y-67154000D01*
X149441012Y-67154000D01*
X149473925Y-67096993D01*
X149508000Y-66969826D01*
X149508000Y-66904000D01*
X153032417Y-66904000D01*
X153052699Y-67109932D01*
X153063940Y-67146988D01*
X153112768Y-67307954D01*
X153210315Y-67490450D01*
X153210317Y-67490452D01*
X153341589Y-67650410D01*
X153438209Y-67729702D01*
X153501550Y-67781685D01*
X153684046Y-67879232D01*
X153882066Y-67939300D01*
X153882065Y-67939300D01*
X153900529Y-67941118D01*
X154088000Y-67959583D01*
X154293934Y-67939300D01*
X154491954Y-67879232D01*
X154674450Y-67781685D01*
X154834410Y-67650410D01*
X154965685Y-67490450D01*
X155063232Y-67307954D01*
X155123300Y-67109934D01*
X155143583Y-66904000D01*
X155123300Y-66698066D01*
X155063232Y-66500046D01*
X154965685Y-66317550D01*
X154913702Y-66254209D01*
X154834410Y-66157589D01*
X154674452Y-66026317D01*
X154674453Y-66026317D01*
X154674450Y-66026315D01*
X154491954Y-65928768D01*
X154293934Y-65868700D01*
X154293932Y-65868699D01*
X154293934Y-65868699D01*
X154088000Y-65848417D01*
X153882067Y-65868699D01*
X153684043Y-65928769D01*
X153650634Y-65946627D01*
X153501550Y-66026315D01*
X153501548Y-66026316D01*
X153501547Y-66026317D01*
X153341589Y-66157589D01*
X153210317Y-66317547D01*
X153112769Y-66500043D01*
X153052699Y-66698067D01*
X153032417Y-66904000D01*
X149508000Y-66904000D01*
X149508000Y-66838174D01*
X149473925Y-66711007D01*
X149441012Y-66654000D01*
X150358000Y-66654000D01*
X150358000Y-66006172D01*
X150357999Y-66006155D01*
X150351598Y-65946627D01*
X150351596Y-65946620D01*
X150301354Y-65811913D01*
X150301350Y-65811906D01*
X150215190Y-65696812D01*
X150215187Y-65696809D01*
X150100093Y-65610649D01*
X150100086Y-65610645D01*
X149965379Y-65560403D01*
X149965372Y-65560401D01*
X149905844Y-65554000D01*
X149258000Y-65554000D01*
X149258000Y-66470988D01*
X149200993Y-66438075D01*
X149073826Y-66404000D01*
X148942174Y-66404000D01*
X148815007Y-66438075D01*
X148758000Y-66470988D01*
X148758000Y-65554000D01*
X148110155Y-65554000D01*
X148050627Y-65560401D01*
X148050620Y-65560403D01*
X147915913Y-65610645D01*
X147915906Y-65610649D01*
X147800812Y-65696809D01*
X147800809Y-65696812D01*
X147714649Y-65811906D01*
X147714645Y-65811913D01*
X147664403Y-65946620D01*
X147664401Y-65946627D01*
X147658000Y-66006155D01*
X144936734Y-66006155D01*
X144791954Y-65928768D01*
X144593934Y-65868700D01*
X144593932Y-65868699D01*
X144593934Y-65868699D01*
X144388000Y-65848417D01*
X144182067Y-65868699D01*
X143984043Y-65928769D01*
X143950634Y-65946627D01*
X143801550Y-66026315D01*
X143801548Y-66026316D01*
X143801547Y-66026317D01*
X143641589Y-66157589D01*
X143510317Y-66317547D01*
X143412769Y-66500043D01*
X143352699Y-66698067D01*
X143332417Y-66904000D01*
X143349588Y-67078342D01*
X143336569Y-67146988D01*
X143288504Y-67197698D01*
X143220653Y-67214373D01*
X143154559Y-67191717D01*
X143138504Y-67178177D01*
X137595864Y-61635537D01*
X137595862Y-61635535D01*
X137558750Y-61614108D01*
X137521640Y-61592682D01*
X137480246Y-61581591D01*
X137438853Y-61570500D01*
X137438852Y-61570500D01*
X104327189Y-61570500D01*
X104260150Y-61550815D01*
X104239508Y-61534181D01*
X101911818Y-59206491D01*
X101878333Y-59145168D01*
X101875499Y-59118810D01*
X101875499Y-58723482D01*
X101873543Y-58711133D01*
X101860646Y-58629696D01*
X101803050Y-58516658D01*
X101803046Y-58516654D01*
X101803045Y-58516652D01*
X101713347Y-58426954D01*
X101713344Y-58426952D01*
X101713342Y-58426950D01*
X101636517Y-58387805D01*
X101600301Y-58369352D01*
X101506524Y-58354500D01*
X100893482Y-58354500D01*
X100812519Y-58367323D01*
X100799696Y-58369354D01*
X100686658Y-58426950D01*
X100686657Y-58426951D01*
X100686652Y-58426954D01*
X100596954Y-58516652D01*
X100596951Y-58516657D01*
X100539352Y-58629698D01*
X100524500Y-58723475D01*
X100524500Y-59186517D01*
X100531800Y-59232605D01*
X100539354Y-59280304D01*
X100596950Y-59393342D01*
X100596952Y-59393344D01*
X100596954Y-59393347D01*
X100686652Y-59483045D01*
X100686654Y-59483046D01*
X100686658Y-59483050D01*
X100799694Y-59540645D01*
X100799698Y-59540647D01*
X100893475Y-59555499D01*
X100893481Y-59555500D01*
X101288810Y-59555499D01*
X101355849Y-59575183D01*
X101376491Y-59591818D01*
X103593492Y-61808819D01*
X103626977Y-61870142D01*
X103621993Y-61939834D01*
X103580121Y-61995767D01*
X103514657Y-62020184D01*
X103505811Y-62020500D01*
X102740040Y-62020500D01*
X102673001Y-62000815D01*
X102652359Y-61984181D01*
X100194373Y-59526194D01*
X100160888Y-59464871D01*
X100165872Y-59395179D01*
X100171570Y-59382217D01*
X100174800Y-59375878D01*
X100223498Y-59280304D01*
X100223498Y-59280302D01*
X100223499Y-59280301D01*
X100238299Y-59186851D01*
X100238352Y-59186519D01*
X100238351Y-58723482D01*
X100223498Y-58629696D01*
X100165902Y-58516658D01*
X100165898Y-58516654D01*
X100165897Y-58516652D01*
X100076199Y-58426954D01*
X100076196Y-58426952D01*
X100076194Y-58426950D01*
X99999369Y-58387805D01*
X99963153Y-58369352D01*
X99869376Y-58354500D01*
X99256334Y-58354500D01*
X99175371Y-58367323D01*
X99162548Y-58369354D01*
X99049510Y-58426950D01*
X99049509Y-58426951D01*
X99049504Y-58426954D01*
X98959806Y-58516652D01*
X98959803Y-58516657D01*
X98959802Y-58516658D01*
X98910477Y-58613464D01*
X98902203Y-58629702D01*
X98899353Y-58638472D01*
X98859911Y-58696145D01*
X98795551Y-58723338D01*
X98726705Y-58711418D01*
X98675233Y-58664170D01*
X98663494Y-58638462D01*
X98660647Y-58629699D01*
X98660646Y-58629697D01*
X98660646Y-58629696D01*
X98603050Y-58516658D01*
X98603046Y-58516654D01*
X98603045Y-58516652D01*
X98513347Y-58426954D01*
X98513344Y-58426952D01*
X98513342Y-58426950D01*
X98436517Y-58387805D01*
X98400301Y-58369352D01*
X98306524Y-58354500D01*
X97693482Y-58354500D01*
X97612519Y-58367323D01*
X97599696Y-58369354D01*
X97486658Y-58426950D01*
X97486657Y-58426951D01*
X97486652Y-58426954D01*
X97396954Y-58516652D01*
X97396951Y-58516657D01*
X97339352Y-58629698D01*
X97324500Y-58723475D01*
X97324500Y-59119811D01*
X97304815Y-59186850D01*
X97252011Y-59232605D01*
X97182853Y-59242549D01*
X97119297Y-59213524D01*
X97112819Y-59207492D01*
X97111818Y-59206491D01*
X97078333Y-59145168D01*
X97075499Y-59118810D01*
X97075499Y-58723482D01*
X97073543Y-58711133D01*
X97060646Y-58629696D01*
X97003050Y-58516658D01*
X97003046Y-58516654D01*
X97003045Y-58516652D01*
X96913347Y-58426954D01*
X96913344Y-58426952D01*
X96913342Y-58426950D01*
X96836517Y-58387805D01*
X96800301Y-58369352D01*
X96706524Y-58354500D01*
X96093482Y-58354500D01*
X96012519Y-58367323D01*
X95999696Y-58369354D01*
X95886658Y-58426950D01*
X95886657Y-58426951D01*
X95886652Y-58426954D01*
X95796954Y-58516652D01*
X95796951Y-58516657D01*
X95739352Y-58629698D01*
X95724500Y-58723475D01*
X95724500Y-59119812D01*
X95704815Y-59186851D01*
X95652011Y-59232606D01*
X95582853Y-59242550D01*
X95519297Y-59213525D01*
X95512819Y-59207493D01*
X95511818Y-59206492D01*
X95478333Y-59145169D01*
X95475499Y-59118811D01*
X95475499Y-58723482D01*
X95473543Y-58711133D01*
X95460646Y-58629696D01*
X95403050Y-58516658D01*
X95403046Y-58516654D01*
X95403045Y-58516652D01*
X95313347Y-58426954D01*
X95313344Y-58426952D01*
X95313342Y-58426950D01*
X95236517Y-58387805D01*
X95200301Y-58369352D01*
X95106524Y-58354500D01*
X94493482Y-58354500D01*
X94412519Y-58367323D01*
X94399696Y-58369354D01*
X94286658Y-58426950D01*
X94286657Y-58426951D01*
X94286652Y-58426954D01*
X94196954Y-58516652D01*
X94196951Y-58516657D01*
X94139352Y-58629698D01*
X94124500Y-58723475D01*
X94124500Y-59186517D01*
X94131800Y-59232605D01*
X94139354Y-59280304D01*
X94196950Y-59393342D01*
X94196952Y-59393344D01*
X94196954Y-59393347D01*
X94286652Y-59483045D01*
X94286654Y-59483046D01*
X94286658Y-59483050D01*
X94399694Y-59540645D01*
X94399698Y-59540647D01*
X94493475Y-59555499D01*
X94493481Y-59555500D01*
X94888810Y-59555499D01*
X94955849Y-59575183D01*
X94976491Y-59591818D01*
X95563882Y-60179209D01*
X96047493Y-60662819D01*
X96080978Y-60724142D01*
X96075994Y-60793834D01*
X96034122Y-60849767D01*
X95968658Y-60874184D01*
X95959812Y-60874500D01*
X95186189Y-60874500D01*
X95119150Y-60854815D01*
X95098508Y-60838181D01*
X93815075Y-59554748D01*
X93781590Y-59493425D01*
X93786574Y-59423733D01*
X93802447Y-59394169D01*
X93803038Y-59393353D01*
X93803050Y-59393342D01*
X93860646Y-59280304D01*
X93860646Y-59280302D01*
X93860647Y-59280301D01*
X93875447Y-59186851D01*
X93875500Y-59186519D01*
X93875499Y-58723482D01*
X93860646Y-58629696D01*
X93803050Y-58516658D01*
X93803046Y-58516654D01*
X93803045Y-58516652D01*
X93713347Y-58426954D01*
X93713344Y-58426952D01*
X93713342Y-58426950D01*
X93636517Y-58387805D01*
X93600301Y-58369352D01*
X93506524Y-58354500D01*
X92893482Y-58354500D01*
X92812519Y-58367323D01*
X92799696Y-58369354D01*
X92686658Y-58426950D01*
X92686657Y-58426951D01*
X92686652Y-58426954D01*
X92596954Y-58516652D01*
X92596951Y-58516657D01*
X92539352Y-58629698D01*
X92524500Y-58723475D01*
X92524500Y-59119811D01*
X92504815Y-59186850D01*
X92452011Y-59232605D01*
X92382853Y-59242549D01*
X92319297Y-59213524D01*
X92312819Y-59207492D01*
X92311818Y-59206491D01*
X92278333Y-59145168D01*
X92275499Y-59118810D01*
X92275499Y-58723482D01*
X92273543Y-58711133D01*
X92260646Y-58629696D01*
X92203050Y-58516658D01*
X92203046Y-58516654D01*
X92203045Y-58516652D01*
X92113347Y-58426954D01*
X92113344Y-58426952D01*
X92113342Y-58426950D01*
X92036517Y-58387805D01*
X92000301Y-58369352D01*
X91906524Y-58354500D01*
X91293482Y-58354500D01*
X91212519Y-58367323D01*
X91199696Y-58369354D01*
X91086658Y-58426950D01*
X91086657Y-58426951D01*
X91086652Y-58426954D01*
X90996954Y-58516652D01*
X90996951Y-58516657D01*
X90939352Y-58629698D01*
X90924500Y-58723475D01*
X90924500Y-59186517D01*
X90931800Y-59232605D01*
X90939354Y-59280304D01*
X90996950Y-59393342D01*
X90996952Y-59393344D01*
X90996954Y-59393347D01*
X91086652Y-59483045D01*
X91086654Y-59483046D01*
X91086658Y-59483050D01*
X91199694Y-59540645D01*
X91199698Y-59540647D01*
X91293475Y-59555499D01*
X91293481Y-59555500D01*
X91688810Y-59555499D01*
X91755849Y-59575183D01*
X91776491Y-59591818D01*
X92986181Y-60801508D01*
X93019666Y-60862831D01*
X93022500Y-60889189D01*
X93022500Y-69820417D01*
X93002815Y-69887456D01*
X92950011Y-69933211D01*
X92945951Y-69934979D01*
X92944045Y-69935768D01*
X92910634Y-69953627D01*
X92761550Y-70033315D01*
X92761548Y-70033316D01*
X92761547Y-70033317D01*
X92601589Y-70164589D01*
X92470317Y-70324547D01*
X92470315Y-70324550D01*
X92398887Y-70458181D01*
X92391358Y-70472267D01*
X92342395Y-70522111D01*
X92274257Y-70537571D01*
X92208578Y-70513739D01*
X92166209Y-70458181D01*
X92158000Y-70413813D01*
X92158000Y-70013172D01*
X92157999Y-70013155D01*
X92151598Y-69953627D01*
X92151596Y-69953620D01*
X92101354Y-69818913D01*
X92101350Y-69818906D01*
X92015190Y-69703812D01*
X92015187Y-69703809D01*
X91900093Y-69617649D01*
X91900086Y-69617645D01*
X91765379Y-69567403D01*
X91765372Y-69567401D01*
X91705844Y-69561000D01*
X91058000Y-69561000D01*
X91058000Y-70477988D01*
X91000993Y-70445075D01*
X90873826Y-70411000D01*
X90742174Y-70411000D01*
X90615007Y-70445075D01*
X90558000Y-70477988D01*
X90558000Y-69561000D01*
X89910155Y-69561000D01*
X89850627Y-69567401D01*
X89850620Y-69567403D01*
X89715913Y-69617645D01*
X89715906Y-69617649D01*
X89600812Y-69703809D01*
X89600809Y-69703812D01*
X89514649Y-69818906D01*
X89514645Y-69818913D01*
X89464403Y-69953620D01*
X89464401Y-69953627D01*
X89458000Y-70013155D01*
X86736734Y-70013155D01*
X86591954Y-69935768D01*
X86393934Y-69875700D01*
X86393932Y-69875699D01*
X86393934Y-69875699D01*
X86188000Y-69855417D01*
X85982067Y-69875699D01*
X85806692Y-69928898D01*
X85792476Y-69933211D01*
X85784043Y-69935769D01*
X85750634Y-69953627D01*
X85601550Y-70033315D01*
X85601548Y-70033316D01*
X85601547Y-70033317D01*
X85441589Y-70164589D01*
X85310317Y-70324547D01*
X85212769Y-70507043D01*
X85152699Y-70705067D01*
X85132417Y-70911000D01*
X84703583Y-70911000D01*
X84683300Y-70705066D01*
X84623232Y-70507046D01*
X84525685Y-70324550D01*
X84473702Y-70261209D01*
X84394410Y-70164589D01*
X84234452Y-70033317D01*
X84234453Y-70033317D01*
X84234450Y-70033315D01*
X84051954Y-69935768D01*
X84050049Y-69934979D01*
X84049203Y-69934298D01*
X84046581Y-69932896D01*
X84046846Y-69932398D01*
X83995645Y-69891138D01*
X83973579Y-69824844D01*
X83973500Y-69820417D01*
X83973500Y-66904000D01*
X85132417Y-66904000D01*
X85152699Y-67109932D01*
X85163940Y-67146988D01*
X85212768Y-67307954D01*
X85310315Y-67490450D01*
X85310317Y-67490452D01*
X85441589Y-67650410D01*
X85538209Y-67729702D01*
X85601550Y-67781685D01*
X85784046Y-67879232D01*
X85982066Y-67939300D01*
X85982065Y-67939300D01*
X86000529Y-67941118D01*
X86188000Y-67959583D01*
X86393934Y-67939300D01*
X86591954Y-67879232D01*
X86774450Y-67781685D01*
X86934410Y-67650410D01*
X87065685Y-67490450D01*
X87163232Y-67307954D01*
X87223300Y-67109934D01*
X87243583Y-66904000D01*
X87223300Y-66698066D01*
X87163232Y-66500046D01*
X87065685Y-66317550D01*
X87013702Y-66254209D01*
X86934410Y-66157589D01*
X86774452Y-66026317D01*
X86774453Y-66026317D01*
X86774450Y-66026315D01*
X86736734Y-66006155D01*
X89458000Y-66006155D01*
X89458000Y-66654000D01*
X90374988Y-66654000D01*
X90342075Y-66711007D01*
X90308000Y-66838174D01*
X90308000Y-66969826D01*
X90342075Y-67096993D01*
X90374988Y-67154000D01*
X89458000Y-67154000D01*
X89458000Y-67801844D01*
X89464401Y-67861372D01*
X89464403Y-67861379D01*
X89514645Y-67996086D01*
X89514649Y-67996093D01*
X89600809Y-68111187D01*
X89600812Y-68111190D01*
X89715906Y-68197350D01*
X89715913Y-68197354D01*
X89850620Y-68247596D01*
X89850627Y-68247598D01*
X89910155Y-68253999D01*
X89910172Y-68254000D01*
X90558000Y-68254000D01*
X90558000Y-67337012D01*
X90615007Y-67369925D01*
X90742174Y-67404000D01*
X90873826Y-67404000D01*
X91000993Y-67369925D01*
X91058000Y-67337012D01*
X91058000Y-68254000D01*
X91705828Y-68254000D01*
X91705844Y-68253999D01*
X91765372Y-68247598D01*
X91765379Y-68247596D01*
X91900086Y-68197354D01*
X91900093Y-68197350D01*
X92015187Y-68111190D01*
X92015190Y-68111187D01*
X92101350Y-67996093D01*
X92101354Y-67996086D01*
X92151596Y-67861379D01*
X92151598Y-67861372D01*
X92157999Y-67801844D01*
X92158000Y-67801827D01*
X92158000Y-67154000D01*
X91241012Y-67154000D01*
X91273925Y-67096993D01*
X91308000Y-66969826D01*
X91308000Y-66838174D01*
X91273925Y-66711007D01*
X91241012Y-66654000D01*
X92158000Y-66654000D01*
X92158000Y-66006172D01*
X92157999Y-66006155D01*
X92151598Y-65946627D01*
X92151596Y-65946620D01*
X92101354Y-65811913D01*
X92101350Y-65811906D01*
X92015190Y-65696812D01*
X92015187Y-65696809D01*
X91900093Y-65610649D01*
X91900086Y-65610645D01*
X91765379Y-65560403D01*
X91765372Y-65560401D01*
X91705844Y-65554000D01*
X91058000Y-65554000D01*
X91058000Y-66470988D01*
X91000993Y-66438075D01*
X90873826Y-66404000D01*
X90742174Y-66404000D01*
X90615007Y-66438075D01*
X90558000Y-66470988D01*
X90558000Y-65554000D01*
X89910155Y-65554000D01*
X89850627Y-65560401D01*
X89850620Y-65560403D01*
X89715913Y-65610645D01*
X89715906Y-65610649D01*
X89600812Y-65696809D01*
X89600809Y-65696812D01*
X89514649Y-65811906D01*
X89514645Y-65811913D01*
X89464403Y-65946620D01*
X89464401Y-65946627D01*
X89458000Y-66006155D01*
X86736734Y-66006155D01*
X86591954Y-65928768D01*
X86393934Y-65868700D01*
X86393932Y-65868699D01*
X86393934Y-65868699D01*
X86188000Y-65848417D01*
X85982067Y-65868699D01*
X85784043Y-65928769D01*
X85750634Y-65946627D01*
X85601550Y-66026315D01*
X85601548Y-66026316D01*
X85601547Y-66026317D01*
X85441589Y-66157589D01*
X85310317Y-66317547D01*
X85212769Y-66500043D01*
X85152699Y-66698067D01*
X85132417Y-66904000D01*
X83973500Y-66904000D01*
X83973500Y-65538188D01*
X83993185Y-65471149D01*
X84009814Y-65450512D01*
X89868508Y-59591817D01*
X89929831Y-59558333D01*
X89956189Y-59555499D01*
X90306517Y-59555499D01*
X90306518Y-59555499D01*
X90400304Y-59540646D01*
X90513342Y-59483050D01*
X90603050Y-59393342D01*
X90660646Y-59280304D01*
X90660646Y-59280302D01*
X90660647Y-59280301D01*
X90675447Y-59186851D01*
X90675500Y-59186519D01*
X90675499Y-58723482D01*
X90660646Y-58629696D01*
X90603050Y-58516658D01*
X90603046Y-58516654D01*
X90603045Y-58516652D01*
X90513347Y-58426954D01*
X90513344Y-58426952D01*
X90513342Y-58426950D01*
X90436517Y-58387805D01*
X90400301Y-58369352D01*
X90306524Y-58354500D01*
X89693482Y-58354500D01*
X89612519Y-58367323D01*
X89599696Y-58369354D01*
X89486658Y-58426950D01*
X89486657Y-58426951D01*
X89486652Y-58426954D01*
X89396954Y-58516652D01*
X89396951Y-58516657D01*
X89339352Y-58629698D01*
X89324500Y-58723475D01*
X89324500Y-59163809D01*
X89304815Y-59230848D01*
X89288181Y-59251490D01*
X83387537Y-65152135D01*
X83387533Y-65152141D01*
X83344681Y-65226361D01*
X83344682Y-65226362D01*
X83322500Y-65309147D01*
X83322500Y-69820417D01*
X83302815Y-69887456D01*
X83250011Y-69933211D01*
X83245951Y-69934979D01*
X83244045Y-69935768D01*
X83210634Y-69953627D01*
X83061550Y-70033315D01*
X83061548Y-70033316D01*
X83061547Y-70033317D01*
X82901589Y-70164589D01*
X82770317Y-70324547D01*
X82770315Y-70324550D01*
X82698887Y-70458181D01*
X82691358Y-70472267D01*
X82642395Y-70522111D01*
X82574257Y-70537571D01*
X82508578Y-70513739D01*
X82466209Y-70458181D01*
X82458000Y-70413813D01*
X82458000Y-70013172D01*
X82457999Y-70013155D01*
X82451598Y-69953627D01*
X82451596Y-69953620D01*
X82401354Y-69818913D01*
X82401350Y-69818906D01*
X82315190Y-69703812D01*
X82315187Y-69703809D01*
X82200093Y-69617649D01*
X82200086Y-69617645D01*
X82065379Y-69567403D01*
X82065372Y-69567401D01*
X82005844Y-69561000D01*
X81358000Y-69561000D01*
X81358000Y-70477988D01*
X81300993Y-70445075D01*
X81173826Y-70411000D01*
X81042174Y-70411000D01*
X80915007Y-70445075D01*
X80858000Y-70477988D01*
X80858000Y-69561000D01*
X80210155Y-69561000D01*
X80150627Y-69567401D01*
X80150620Y-69567403D01*
X80015913Y-69617645D01*
X80015906Y-69617649D01*
X79900812Y-69703809D01*
X79900809Y-69703812D01*
X79814649Y-69818906D01*
X79814645Y-69818913D01*
X79764403Y-69953620D01*
X79764401Y-69953627D01*
X79758000Y-70013155D01*
X68072000Y-70013155D01*
X68072000Y-66006155D01*
X79758000Y-66006155D01*
X79758000Y-66654000D01*
X80674988Y-66654000D01*
X80642075Y-66711007D01*
X80608000Y-66838174D01*
X80608000Y-66969826D01*
X80642075Y-67096993D01*
X80674988Y-67154000D01*
X79758000Y-67154000D01*
X79758000Y-67801844D01*
X79764401Y-67861372D01*
X79764403Y-67861379D01*
X79814645Y-67996086D01*
X79814649Y-67996093D01*
X79900809Y-68111187D01*
X79900812Y-68111190D01*
X80015906Y-68197350D01*
X80015913Y-68197354D01*
X80150620Y-68247596D01*
X80150627Y-68247598D01*
X80210155Y-68253999D01*
X80210172Y-68254000D01*
X80858000Y-68254000D01*
X80858000Y-67337012D01*
X80915007Y-67369925D01*
X81042174Y-67404000D01*
X81173826Y-67404000D01*
X81300993Y-67369925D01*
X81358000Y-67337012D01*
X81358000Y-68254000D01*
X82005828Y-68254000D01*
X82005844Y-68253999D01*
X82065372Y-68247598D01*
X82065379Y-68247596D01*
X82200086Y-68197354D01*
X82200093Y-68197350D01*
X82315187Y-68111190D01*
X82315190Y-68111187D01*
X82401350Y-67996093D01*
X82401354Y-67996086D01*
X82451596Y-67861379D01*
X82451598Y-67861372D01*
X82457999Y-67801844D01*
X82458000Y-67801827D01*
X82458000Y-67154000D01*
X81541012Y-67154000D01*
X81573925Y-67096993D01*
X81608000Y-66969826D01*
X81608000Y-66838174D01*
X81573925Y-66711007D01*
X81541012Y-66654000D01*
X82458000Y-66654000D01*
X82458000Y-66006172D01*
X82457999Y-66006155D01*
X82451598Y-65946627D01*
X82451596Y-65946620D01*
X82401354Y-65811913D01*
X82401350Y-65811906D01*
X82315190Y-65696812D01*
X82315187Y-65696809D01*
X82200093Y-65610649D01*
X82200086Y-65610645D01*
X82065379Y-65560403D01*
X82065372Y-65560401D01*
X82005844Y-65554000D01*
X81358000Y-65554000D01*
X81358000Y-66470988D01*
X81300993Y-66438075D01*
X81173826Y-66404000D01*
X81042174Y-66404000D01*
X80915007Y-66438075D01*
X80858000Y-66470988D01*
X80858000Y-65554000D01*
X80210155Y-65554000D01*
X80150627Y-65560401D01*
X80150620Y-65560403D01*
X80015913Y-65610645D01*
X80015906Y-65610649D01*
X79900812Y-65696809D01*
X79900809Y-65696812D01*
X79814649Y-65811906D01*
X79814645Y-65811913D01*
X79764403Y-65946620D01*
X79764401Y-65946627D01*
X79758000Y-66006155D01*
X68072000Y-66006155D01*
X68072000Y-44999996D01*
X69794415Y-44999996D01*
X69794415Y-45000003D01*
X69814738Y-45348927D01*
X69814739Y-45348938D01*
X69875428Y-45693127D01*
X69875430Y-45693134D01*
X69975674Y-46027972D01*
X70114107Y-46348895D01*
X70114113Y-46348908D01*
X70288870Y-46651597D01*
X70497584Y-46931949D01*
X70497589Y-46931955D01*
X70610067Y-47051174D01*
X70737442Y-47186183D01*
X70852381Y-47282628D01*
X71005186Y-47410847D01*
X71005194Y-47410853D01*
X71297203Y-47602911D01*
X71297207Y-47602913D01*
X71609549Y-47759777D01*
X71937989Y-47879319D01*
X72278086Y-47959923D01*
X72625241Y-48000500D01*
X72625248Y-48000500D01*
X72974752Y-48000500D01*
X72974759Y-48000500D01*
X73321914Y-47959923D01*
X73662011Y-47879319D01*
X73990451Y-47759777D01*
X74302793Y-47602913D01*
X74457148Y-47501392D01*
X74594805Y-47410853D01*
X74594805Y-47410852D01*
X74594811Y-47410849D01*
X74862558Y-47186183D01*
X75102412Y-46931953D01*
X75311130Y-46651596D01*
X75417699Y-46467013D01*
X81200000Y-46467013D01*
X81200000Y-46867000D01*
X82116988Y-46867000D01*
X82084075Y-46924007D01*
X82050000Y-47051174D01*
X82050000Y-47182826D01*
X82084075Y-47309993D01*
X82116988Y-47367000D01*
X81200001Y-47367000D01*
X81200001Y-47766986D01*
X81210494Y-47869697D01*
X81265641Y-48036119D01*
X81265643Y-48036124D01*
X81357684Y-48185345D01*
X81481654Y-48309315D01*
X81630875Y-48401356D01*
X81630880Y-48401358D01*
X81797302Y-48456505D01*
X81797309Y-48456506D01*
X81900019Y-48466999D01*
X82052812Y-48466999D01*
X82119852Y-48486683D01*
X82165607Y-48539487D01*
X82175551Y-48608645D01*
X82146526Y-48672201D01*
X82111267Y-48700357D01*
X82035570Y-48740819D01*
X81963550Y-48779315D01*
X81963548Y-48779316D01*
X81963547Y-48779317D01*
X81803589Y-48910589D01*
X81672318Y-49070546D01*
X81672315Y-49070550D01*
X81650773Y-49110852D01*
X81574769Y-49253043D01*
X81514699Y-49451067D01*
X81494417Y-49657000D01*
X81514699Y-49862932D01*
X81530109Y-49913731D01*
X81574768Y-50060954D01*
X81672315Y-50243450D01*
X81679060Y-50251669D01*
X81803589Y-50403410D01*
X81880463Y-50466498D01*
X81963550Y-50534685D01*
X82146046Y-50632232D01*
X82344066Y-50692300D01*
X82344065Y-50692300D01*
X82362529Y-50694118D01*
X82550000Y-50712583D01*
X82755934Y-50692300D01*
X82953954Y-50632232D01*
X83136450Y-50534685D01*
X83296410Y-50403410D01*
X83427685Y-50243450D01*
X83525232Y-50060954D01*
X83585300Y-49862934D01*
X83605583Y-49657000D01*
X83585300Y-49451066D01*
X83525232Y-49253046D01*
X83525230Y-49253043D01*
X83525230Y-49253041D01*
X83524444Y-49251144D01*
X83524328Y-49250068D01*
X83523463Y-49247216D01*
X83524003Y-49247051D01*
X83516971Y-49181675D01*
X83548242Y-49119194D01*
X83551261Y-49116064D01*
X83823509Y-48843816D01*
X83884831Y-48810334D01*
X83911189Y-48807500D01*
X84166018Y-48807500D01*
X84233057Y-48827185D01*
X84278812Y-48879989D01*
X84288756Y-48949147D01*
X84261871Y-49010165D01*
X84212317Y-49070546D01*
X84114769Y-49253043D01*
X84054699Y-49451067D01*
X84034417Y-49657000D01*
X84054699Y-49862932D01*
X84070109Y-49913731D01*
X84114768Y-50060954D01*
X84212315Y-50243450D01*
X84327918Y-50384314D01*
X84343590Y-50403410D01*
X84432829Y-50476647D01*
X84472163Y-50534392D01*
X84474034Y-50604237D01*
X84437847Y-50664005D01*
X84375091Y-50694721D01*
X84354164Y-50696500D01*
X83682147Y-50696500D01*
X83599359Y-50718682D01*
X83525138Y-50761535D01*
X83525135Y-50761537D01*
X83090994Y-51195677D01*
X83029671Y-51229162D01*
X82959979Y-51224178D01*
X82955869Y-51222561D01*
X82953958Y-51221769D01*
X82854944Y-51191734D01*
X82755934Y-51161700D01*
X82755932Y-51161699D01*
X82755934Y-51161699D01*
X82550000Y-51141417D01*
X82344067Y-51161699D01*
X82146043Y-51221769D01*
X82085907Y-51253913D01*
X81963550Y-51319315D01*
X81963548Y-51319316D01*
X81963547Y-51319317D01*
X81803589Y-51450589D01*
X81672317Y-51610547D01*
X81574769Y-51793043D01*
X81514699Y-51991067D01*
X81494417Y-52197000D01*
X81514699Y-52402932D01*
X81539503Y-52484699D01*
X81574768Y-52600954D01*
X81672315Y-52783450D01*
X81706969Y-52825677D01*
X81803589Y-52943410D01*
X81822948Y-52959297D01*
X81963550Y-53074685D01*
X82146046Y-53172232D01*
X82344066Y-53232300D01*
X82344065Y-53232300D01*
X82362529Y-53234118D01*
X82550000Y-53252583D01*
X82755934Y-53232300D01*
X82953954Y-53172232D01*
X83136450Y-53074685D01*
X83296410Y-52943410D01*
X83427685Y-52783450D01*
X83525232Y-52600954D01*
X83585300Y-52402934D01*
X83605583Y-52197000D01*
X83585300Y-51991066D01*
X83525232Y-51793046D01*
X83525230Y-51793043D01*
X83525230Y-51793041D01*
X83524444Y-51791144D01*
X83524328Y-51790068D01*
X83523463Y-51787216D01*
X83524003Y-51787051D01*
X83516971Y-51721675D01*
X83548242Y-51659194D01*
X83551261Y-51656064D01*
X83823509Y-51383816D01*
X83884831Y-51350334D01*
X83911189Y-51347500D01*
X84166018Y-51347500D01*
X84233057Y-51367185D01*
X84278812Y-51419989D01*
X84288756Y-51489147D01*
X84261871Y-51550165D01*
X84212317Y-51610546D01*
X84114769Y-51793043D01*
X84054699Y-51991067D01*
X84034417Y-52197000D01*
X84054699Y-52402932D01*
X84079503Y-52484699D01*
X84114768Y-52600954D01*
X84212315Y-52783450D01*
X84336211Y-52934419D01*
X84343590Y-52943410D01*
X84432829Y-53016647D01*
X84472163Y-53074392D01*
X84474034Y-53144237D01*
X84437847Y-53204005D01*
X84375091Y-53234721D01*
X84354164Y-53236500D01*
X83682147Y-53236500D01*
X83599359Y-53258682D01*
X83525138Y-53301535D01*
X83525135Y-53301537D01*
X83090994Y-53735677D01*
X83029671Y-53769162D01*
X82959979Y-53764178D01*
X82955869Y-53762561D01*
X82953958Y-53761769D01*
X82829003Y-53723865D01*
X82755934Y-53701700D01*
X82755932Y-53701699D01*
X82755934Y-53701699D01*
X82550000Y-53681417D01*
X82344067Y-53701699D01*
X82184840Y-53750000D01*
X82166881Y-53755448D01*
X82146043Y-53761769D01*
X82073743Y-53800415D01*
X81963550Y-53859315D01*
X81963548Y-53859316D01*
X81963547Y-53859317D01*
X81803589Y-53990589D01*
X81678817Y-54142627D01*
X81672315Y-54150550D01*
X81648020Y-54196003D01*
X81574769Y-54333043D01*
X81514699Y-54531067D01*
X81494417Y-54737000D01*
X81514699Y-54942932D01*
X81541268Y-55030518D01*
X81574768Y-55140954D01*
X81672315Y-55323450D01*
X81692277Y-55347774D01*
X81803589Y-55483410D01*
X81866242Y-55534827D01*
X81963550Y-55614685D01*
X82146046Y-55712232D01*
X82344066Y-55772300D01*
X82344065Y-55772300D01*
X82362529Y-55774118D01*
X82550000Y-55792583D01*
X82755934Y-55772300D01*
X82953954Y-55712232D01*
X83136450Y-55614685D01*
X83296410Y-55483410D01*
X83427685Y-55323450D01*
X83525232Y-55140954D01*
X83585300Y-54942934D01*
X83605583Y-54737000D01*
X83585300Y-54531066D01*
X83525232Y-54333046D01*
X83525230Y-54333043D01*
X83525230Y-54333041D01*
X83524444Y-54331144D01*
X83524328Y-54330068D01*
X83523463Y-54327216D01*
X83524003Y-54327051D01*
X83516971Y-54261675D01*
X83548242Y-54199194D01*
X83551261Y-54196064D01*
X83823509Y-53923816D01*
X83884831Y-53890334D01*
X83911189Y-53887500D01*
X84166018Y-53887500D01*
X84233057Y-53907185D01*
X84278812Y-53959989D01*
X84288756Y-54029147D01*
X84261871Y-54090165D01*
X84212317Y-54150546D01*
X84114769Y-54333043D01*
X84054699Y-54531067D01*
X84034417Y-54737000D01*
X84054699Y-54942932D01*
X84081268Y-55030518D01*
X84114768Y-55140954D01*
X84212315Y-55323450D01*
X84238994Y-55355959D01*
X84343590Y-55483410D01*
X84432829Y-55556647D01*
X84472163Y-55614392D01*
X84474034Y-55684237D01*
X84437847Y-55744005D01*
X84375091Y-55774721D01*
X84354164Y-55776500D01*
X83682147Y-55776500D01*
X83599359Y-55798682D01*
X83525138Y-55841535D01*
X83525135Y-55841537D01*
X83090994Y-56275677D01*
X83029671Y-56309162D01*
X82959979Y-56304178D01*
X82955869Y-56302561D01*
X82953958Y-56301769D01*
X82854944Y-56271734D01*
X82755934Y-56241700D01*
X82755932Y-56241699D01*
X82755934Y-56241699D01*
X82550000Y-56221417D01*
X82344067Y-56241699D01*
X82146043Y-56301769D01*
X82073743Y-56340415D01*
X81963550Y-56399315D01*
X81963548Y-56399316D01*
X81963547Y-56399317D01*
X81803589Y-56530589D01*
X81672318Y-56690546D01*
X81672315Y-56690550D01*
X81662804Y-56708344D01*
X81574769Y-56873043D01*
X81514699Y-57071067D01*
X81494417Y-57277000D01*
X81514699Y-57482932D01*
X81534612Y-57548577D01*
X81574768Y-57680954D01*
X81672315Y-57863450D01*
X81672317Y-57863452D01*
X81803589Y-58023410D01*
X81878939Y-58085247D01*
X81963550Y-58154685D01*
X82146046Y-58252232D01*
X82344066Y-58312300D01*
X82344065Y-58312300D01*
X82362529Y-58314118D01*
X82550000Y-58332583D01*
X82755934Y-58312300D01*
X82953954Y-58252232D01*
X83136450Y-58154685D01*
X83296410Y-58023410D01*
X83427685Y-57863450D01*
X83525232Y-57680954D01*
X83585300Y-57482934D01*
X83605583Y-57277000D01*
X83585300Y-57071066D01*
X83525232Y-56873046D01*
X83525230Y-56873043D01*
X83525230Y-56873041D01*
X83524444Y-56871144D01*
X83524328Y-56870068D01*
X83523463Y-56867216D01*
X83524003Y-56867051D01*
X83516971Y-56801675D01*
X83548242Y-56739194D01*
X83551261Y-56736064D01*
X83823509Y-56463816D01*
X83884831Y-56430334D01*
X83911189Y-56427500D01*
X84166018Y-56427500D01*
X84233057Y-56447185D01*
X84278812Y-56499989D01*
X84288756Y-56569147D01*
X84261871Y-56630165D01*
X84212317Y-56690546D01*
X84114769Y-56873043D01*
X84054699Y-57071067D01*
X84034417Y-57277000D01*
X84054699Y-57482932D01*
X84074612Y-57548577D01*
X84114768Y-57680954D01*
X84212315Y-57863450D01*
X84212317Y-57863452D01*
X84343589Y-58023410D01*
X84418939Y-58085247D01*
X84503550Y-58154685D01*
X84686046Y-58252232D01*
X84884066Y-58312300D01*
X84884065Y-58312300D01*
X84902529Y-58314118D01*
X85090000Y-58332583D01*
X85295934Y-58312300D01*
X85493954Y-58252232D01*
X85676450Y-58154685D01*
X85836410Y-58023410D01*
X85967685Y-57863450D01*
X86065232Y-57680954D01*
X86125300Y-57482934D01*
X86145583Y-57277000D01*
X86125300Y-57071066D01*
X86065232Y-56873046D01*
X86065230Y-56873043D01*
X86065230Y-56873041D01*
X86064444Y-56871144D01*
X86064328Y-56870068D01*
X86063463Y-56867216D01*
X86064003Y-56867051D01*
X86056971Y-56801675D01*
X86088242Y-56739194D01*
X86091293Y-56736032D01*
X88398325Y-54429001D01*
X92105488Y-54429001D01*
X92112942Y-54485627D01*
X92112944Y-54485633D01*
X92173399Y-54631585D01*
X92269575Y-54756924D01*
X92394913Y-54853100D01*
X92540865Y-54913554D01*
X92540869Y-54913555D01*
X92658176Y-54928999D01*
X93134999Y-54928999D01*
X93135000Y-54928998D01*
X93135000Y-54429000D01*
X92105490Y-54429000D01*
X92105488Y-54429001D01*
X88398325Y-54429001D01*
X88886507Y-53940819D01*
X88947830Y-53907334D01*
X88974188Y-53904500D01*
X91980484Y-53904500D01*
X92047523Y-53924185D01*
X92093278Y-53976989D01*
X92100162Y-54022927D01*
X92105488Y-54029000D01*
X93411000Y-54029000D01*
X93478039Y-54048685D01*
X93523794Y-54101489D01*
X93535000Y-54153000D01*
X93535000Y-54928999D01*
X93711311Y-54928999D01*
X93778350Y-54948684D01*
X93824105Y-55001488D01*
X93834049Y-55070646D01*
X93805024Y-55134202D01*
X93798992Y-55140680D01*
X93301492Y-55638181D01*
X93240169Y-55671666D01*
X93213811Y-55674500D01*
X91355465Y-55674500D01*
X91355449Y-55674499D01*
X91347853Y-55674499D01*
X91262147Y-55674499D01*
X91179361Y-55696682D01*
X91179359Y-55696683D01*
X91152427Y-55712231D01*
X91152428Y-55712232D01*
X91105138Y-55739535D01*
X91105135Y-55739537D01*
X91044533Y-55800140D01*
X90193889Y-56650783D01*
X90132566Y-56684268D01*
X90074116Y-56682877D01*
X90042853Y-56674500D01*
X89957147Y-56674500D01*
X89866513Y-56698785D01*
X89866161Y-56697472D01*
X89830823Y-56704500D01*
X89693482Y-56704500D01*
X89612519Y-56717323D01*
X89599696Y-56719354D01*
X89486658Y-56776950D01*
X89486657Y-56776951D01*
X89486652Y-56776954D01*
X89396954Y-56866652D01*
X89396951Y-56866657D01*
X89396950Y-56866658D01*
X89380986Y-56897989D01*
X89339352Y-56979698D01*
X89324500Y-57073475D01*
X89324500Y-57536517D01*
X89328831Y-57563860D01*
X89339354Y-57630304D01*
X89396950Y-57743342D01*
X89396952Y-57743344D01*
X89396954Y-57743347D01*
X89486652Y-57833045D01*
X89486654Y-57833046D01*
X89486658Y-57833050D01*
X89599694Y-57890645D01*
X89599698Y-57890647D01*
X89693475Y-57905499D01*
X89693481Y-57905500D01*
X90306518Y-57905499D01*
X90400304Y-57890646D01*
X90513342Y-57833050D01*
X90603050Y-57743342D01*
X90660646Y-57630304D01*
X90660646Y-57630302D01*
X90660647Y-57630301D01*
X90675499Y-57536524D01*
X90675500Y-57536519D01*
X90675499Y-57141187D01*
X90695183Y-57074149D01*
X90711813Y-57053512D01*
X90712821Y-57052504D01*
X90774142Y-57019021D01*
X90843834Y-57024005D01*
X90899767Y-57065877D01*
X90924184Y-57131341D01*
X90924500Y-57140187D01*
X90924500Y-57536517D01*
X90928831Y-57563860D01*
X90939354Y-57630304D01*
X90996950Y-57743342D01*
X90996952Y-57743344D01*
X90996954Y-57743347D01*
X91086652Y-57833045D01*
X91086654Y-57833046D01*
X91086658Y-57833050D01*
X91199694Y-57890645D01*
X91199698Y-57890647D01*
X91293475Y-57905499D01*
X91293481Y-57905500D01*
X91906518Y-57905499D01*
X92000304Y-57890646D01*
X92113342Y-57833050D01*
X92203050Y-57743342D01*
X92260646Y-57630304D01*
X92260646Y-57630302D01*
X92260647Y-57630301D01*
X92275499Y-57536524D01*
X92275500Y-57536519D01*
X92275499Y-57141187D01*
X92295183Y-57074149D01*
X92311813Y-57053512D01*
X92312821Y-57052504D01*
X92374142Y-57019021D01*
X92443834Y-57024005D01*
X92499767Y-57065877D01*
X92524184Y-57131341D01*
X92524500Y-57140187D01*
X92524500Y-57536517D01*
X92528831Y-57563860D01*
X92539354Y-57630304D01*
X92596950Y-57743342D01*
X92596952Y-57743344D01*
X92596954Y-57743347D01*
X92686652Y-57833045D01*
X92686654Y-57833046D01*
X92686658Y-57833050D01*
X92799694Y-57890645D01*
X92799698Y-57890647D01*
X92893475Y-57905499D01*
X92893481Y-57905500D01*
X93506518Y-57905499D01*
X93600304Y-57890646D01*
X93713342Y-57833050D01*
X93803050Y-57743342D01*
X93860646Y-57630304D01*
X93860646Y-57630302D01*
X93860647Y-57630301D01*
X93875499Y-57536524D01*
X93875500Y-57536519D01*
X93875499Y-57073482D01*
X93873261Y-57059352D01*
X93882214Y-56990061D01*
X93908050Y-56952275D01*
X93918190Y-56942135D01*
X93979511Y-56908652D01*
X94049203Y-56913636D01*
X94105136Y-56955508D01*
X94129553Y-57020972D01*
X94128343Y-57049214D01*
X94124500Y-57073479D01*
X94124500Y-57536517D01*
X94128831Y-57563860D01*
X94139354Y-57630304D01*
X94196950Y-57743342D01*
X94196952Y-57743344D01*
X94196954Y-57743347D01*
X94286652Y-57833045D01*
X94286654Y-57833046D01*
X94286658Y-57833050D01*
X94399694Y-57890645D01*
X94399698Y-57890647D01*
X94493475Y-57905499D01*
X94493481Y-57905500D01*
X95106518Y-57905499D01*
X95200304Y-57890646D01*
X95313342Y-57833050D01*
X95403050Y-57743342D01*
X95460646Y-57630304D01*
X95460646Y-57630302D01*
X95460647Y-57630301D01*
X95475499Y-57536524D01*
X95475500Y-57536519D01*
X95475499Y-57141187D01*
X95495183Y-57074149D01*
X95511813Y-57053512D01*
X95512821Y-57052504D01*
X95574142Y-57019021D01*
X95643834Y-57024005D01*
X95699767Y-57065877D01*
X95724184Y-57131341D01*
X95724500Y-57140187D01*
X95724500Y-57536517D01*
X95728831Y-57563860D01*
X95739354Y-57630304D01*
X95796950Y-57743342D01*
X95796952Y-57743344D01*
X95796954Y-57743347D01*
X95886652Y-57833045D01*
X95886654Y-57833046D01*
X95886658Y-57833050D01*
X95999694Y-57890645D01*
X95999698Y-57890647D01*
X96093475Y-57905499D01*
X96093481Y-57905500D01*
X96706518Y-57905499D01*
X96800304Y-57890646D01*
X96913342Y-57833050D01*
X97003050Y-57743342D01*
X97060646Y-57630304D01*
X97060646Y-57630302D01*
X97060647Y-57630301D01*
X97075499Y-57536524D01*
X97075500Y-57536519D01*
X97075499Y-57140187D01*
X97095183Y-57073149D01*
X97147987Y-57027394D01*
X97217146Y-57017450D01*
X97280701Y-57046475D01*
X97287180Y-57052507D01*
X97288181Y-57053508D01*
X97321666Y-57114831D01*
X97324500Y-57141189D01*
X97324500Y-57536517D01*
X97328831Y-57563860D01*
X97339354Y-57630304D01*
X97396950Y-57743342D01*
X97396952Y-57743344D01*
X97396954Y-57743347D01*
X97486652Y-57833045D01*
X97486654Y-57833046D01*
X97486658Y-57833050D01*
X97599694Y-57890645D01*
X97599698Y-57890647D01*
X97693475Y-57905499D01*
X97693481Y-57905500D01*
X98306518Y-57905499D01*
X98400304Y-57890646D01*
X98513342Y-57833050D01*
X98603050Y-57743342D01*
X98660646Y-57630304D01*
X98660647Y-57630296D01*
X98663495Y-57621535D01*
X98702933Y-57563860D01*
X98767292Y-57536662D01*
X98836139Y-57548577D01*
X98887614Y-57595822D01*
X98899356Y-57621533D01*
X98902204Y-57630300D01*
X98902205Y-57630303D01*
X98902206Y-57630304D01*
X98959802Y-57743342D01*
X98959804Y-57743344D01*
X98959806Y-57743347D01*
X99049504Y-57833045D01*
X99049506Y-57833046D01*
X99049510Y-57833050D01*
X99162546Y-57890645D01*
X99162550Y-57890647D01*
X99256327Y-57905499D01*
X99256333Y-57905500D01*
X99869370Y-57905499D01*
X99963156Y-57890646D01*
X100076194Y-57833050D01*
X100165902Y-57743342D01*
X100223498Y-57630304D01*
X100223498Y-57630302D01*
X100223499Y-57630301D01*
X100238351Y-57536524D01*
X100238352Y-57536519D01*
X100238351Y-57073482D01*
X100223498Y-56979696D01*
X100165902Y-56866658D01*
X100165898Y-56866654D01*
X100165897Y-56866652D01*
X100076199Y-56776954D01*
X100076196Y-56776952D01*
X100076194Y-56776950D01*
X99995831Y-56736003D01*
X99963153Y-56719352D01*
X99869376Y-56704500D01*
X99869371Y-56704500D01*
X99474041Y-56704500D01*
X99407002Y-56684815D01*
X99386360Y-56668181D01*
X98161819Y-55443640D01*
X98128334Y-55382317D01*
X98125500Y-55355959D01*
X98125500Y-54716651D01*
X98145185Y-54649612D01*
X98197989Y-54603857D01*
X98267147Y-54593913D01*
X98299580Y-54603214D01*
X98352509Y-54626585D01*
X98377635Y-54629500D01*
X99742364Y-54629499D01*
X99742379Y-54629497D01*
X99742382Y-54629497D01*
X99767486Y-54626586D01*
X99767487Y-54626585D01*
X99767491Y-54626585D01*
X99827675Y-54600011D01*
X99896947Y-54590940D01*
X99960133Y-54620762D01*
X99965438Y-54625765D01*
X100838181Y-55498508D01*
X100871666Y-55559831D01*
X100874500Y-55586189D01*
X100874500Y-56605252D01*
X100854815Y-56672291D01*
X100806795Y-56715737D01*
X100799696Y-56719353D01*
X100799696Y-56719354D01*
X100686658Y-56776950D01*
X100686657Y-56776951D01*
X100686652Y-56776954D01*
X100596954Y-56866652D01*
X100596951Y-56866657D01*
X100596950Y-56866658D01*
X100580986Y-56897989D01*
X100539352Y-56979698D01*
X100524500Y-57073475D01*
X100524500Y-57536517D01*
X100528831Y-57563860D01*
X100539354Y-57630304D01*
X100596950Y-57743342D01*
X100596952Y-57743344D01*
X100596954Y-57743347D01*
X100686652Y-57833045D01*
X100686654Y-57833046D01*
X100686658Y-57833050D01*
X100799694Y-57890645D01*
X100799698Y-57890647D01*
X100893475Y-57905499D01*
X100893481Y-57905500D01*
X101506518Y-57905499D01*
X101600304Y-57890646D01*
X101713342Y-57833050D01*
X101803050Y-57743342D01*
X101860646Y-57630304D01*
X101860646Y-57630302D01*
X101860647Y-57630301D01*
X101875499Y-57536524D01*
X101875500Y-57536519D01*
X101875499Y-57073482D01*
X101860646Y-56979696D01*
X101803050Y-56866658D01*
X101803046Y-56866654D01*
X101803045Y-56866652D01*
X101713347Y-56776954D01*
X101713344Y-56776952D01*
X101713342Y-56776950D01*
X101600304Y-56719354D01*
X101600303Y-56719353D01*
X101593205Y-56715737D01*
X101542409Y-56667762D01*
X101525500Y-56605252D01*
X101525500Y-55357149D01*
X101525499Y-55357145D01*
X101525181Y-55355959D01*
X101516471Y-55323450D01*
X101503318Y-55274361D01*
X101460465Y-55200138D01*
X100228862Y-53968535D01*
X100154639Y-53925682D01*
X100081355Y-53906046D01*
X100021695Y-53869681D01*
X99991166Y-53806834D01*
X99993800Y-53753711D01*
X99995082Y-53748995D01*
X99995085Y-53748991D01*
X99998000Y-53723865D01*
X99997999Y-53434136D01*
X99997997Y-53434117D01*
X99995086Y-53409012D01*
X99995085Y-53409008D01*
X99958212Y-53325500D01*
X99949706Y-53306235D01*
X99949705Y-53306234D01*
X99948757Y-53304086D01*
X99939685Y-53234808D01*
X99948757Y-53203913D01*
X99949704Y-53201766D01*
X99949706Y-53201765D01*
X99995085Y-53098991D01*
X99998000Y-53073865D01*
X99997999Y-52784136D01*
X99997920Y-52783452D01*
X99995086Y-52759012D01*
X99995085Y-52759008D01*
X99948757Y-52654086D01*
X99939685Y-52584808D01*
X99948757Y-52553913D01*
X99949704Y-52551766D01*
X99949706Y-52551765D01*
X99995085Y-52448991D01*
X99998000Y-52423865D01*
X99997999Y-52134136D01*
X99997997Y-52134117D01*
X99995086Y-52109012D01*
X99995085Y-52109008D01*
X99948757Y-52004086D01*
X99939685Y-51934808D01*
X99948757Y-51903913D01*
X99949704Y-51901766D01*
X99949706Y-51901765D01*
X99995085Y-51798991D01*
X99998000Y-51773865D01*
X99997999Y-51484136D01*
X99997997Y-51484117D01*
X99995086Y-51459012D01*
X99995085Y-51459008D01*
X99948757Y-51354086D01*
X99939685Y-51284808D01*
X99948757Y-51253913D01*
X99949704Y-51251766D01*
X99949706Y-51251765D01*
X99995085Y-51148991D01*
X99998000Y-51123865D01*
X99997999Y-50834136D01*
X99997050Y-50825949D01*
X99995086Y-50809012D01*
X99995085Y-50809008D01*
X99956135Y-50720795D01*
X99949706Y-50706235D01*
X99949705Y-50706234D01*
X99948757Y-50704086D01*
X99939685Y-50634808D01*
X99948757Y-50603913D01*
X99949704Y-50601766D01*
X99949706Y-50601765D01*
X99995085Y-50498991D01*
X99998000Y-50473865D01*
X99997999Y-50184136D01*
X99997412Y-50179071D01*
X99995086Y-50159012D01*
X99995085Y-50159008D01*
X99953282Y-50064333D01*
X99949706Y-50056235D01*
X99949705Y-50056234D01*
X99948757Y-50054086D01*
X99939685Y-49984808D01*
X99948757Y-49953913D01*
X99949704Y-49951766D01*
X99949706Y-49951765D01*
X99995085Y-49848991D01*
X99998000Y-49823865D01*
X99997999Y-49715850D01*
X100017683Y-49648813D01*
X100046513Y-49617476D01*
X100125423Y-49556926D01*
X100221600Y-49431586D01*
X100282055Y-49285631D01*
X100289512Y-49229000D01*
X97830490Y-49229000D01*
X97830488Y-49229001D01*
X97837942Y-49285627D01*
X97837945Y-49285636D01*
X97838082Y-49285967D01*
X97838114Y-49286268D01*
X97840047Y-49293481D01*
X97838921Y-49293782D01*
X97845548Y-49355436D01*
X97814270Y-49417914D01*
X97811202Y-49421094D01*
X97791967Y-49440330D01*
X97753159Y-49479138D01*
X97753157Y-49479140D01*
X94460324Y-52771971D01*
X94399001Y-52805456D01*
X94329309Y-52800472D01*
X94273376Y-52758600D01*
X94259209Y-52734377D01*
X94241152Y-52693482D01*
X94224706Y-52656235D01*
X94224705Y-52656234D01*
X94223757Y-52654087D01*
X94214685Y-52584809D01*
X94223757Y-52553913D01*
X94224704Y-52551766D01*
X94224706Y-52551765D01*
X94270085Y-52448991D01*
X94273000Y-52423865D01*
X94272999Y-52134136D01*
X94272997Y-52134117D01*
X94270086Y-52109012D01*
X94270085Y-52109008D01*
X94223757Y-52004086D01*
X94214685Y-51934808D01*
X94223757Y-51903913D01*
X94224704Y-51901766D01*
X94224706Y-51901765D01*
X94270085Y-51798991D01*
X94273000Y-51773865D01*
X94272999Y-51484136D01*
X94272997Y-51484117D01*
X94270086Y-51459012D01*
X94270085Y-51459008D01*
X94223757Y-51354086D01*
X94214685Y-51284808D01*
X94223757Y-51253913D01*
X94224704Y-51251766D01*
X94224706Y-51251765D01*
X94270085Y-51148991D01*
X94273000Y-51123865D01*
X94272999Y-50834136D01*
X94272050Y-50825949D01*
X94270086Y-50809012D01*
X94270085Y-50809008D01*
X94231135Y-50720795D01*
X94224706Y-50706235D01*
X94224705Y-50706234D01*
X94223757Y-50704086D01*
X94214685Y-50634808D01*
X94223757Y-50603913D01*
X94224704Y-50601766D01*
X94224706Y-50601765D01*
X94270085Y-50498991D01*
X94273000Y-50473865D01*
X94272999Y-50184136D01*
X94272412Y-50179071D01*
X94270086Y-50159012D01*
X94270085Y-50159008D01*
X94228282Y-50064333D01*
X94224706Y-50056235D01*
X94224705Y-50056234D01*
X94223757Y-50054086D01*
X94214685Y-49984808D01*
X94223757Y-49953913D01*
X94224704Y-49951766D01*
X94224706Y-49951765D01*
X94270085Y-49848991D01*
X94273000Y-49823865D01*
X94272999Y-49534136D01*
X94272997Y-49534117D01*
X94270086Y-49509012D01*
X94270085Y-49509008D01*
X94223757Y-49404086D01*
X94214685Y-49334808D01*
X94223757Y-49303913D01*
X94224704Y-49301766D01*
X94224706Y-49301765D01*
X94270085Y-49198991D01*
X94273000Y-49173865D01*
X94272999Y-48953500D01*
X94292683Y-48886461D01*
X94345487Y-48840706D01*
X94396999Y-48829500D01*
X99123604Y-48829500D01*
X99131233Y-48829000D01*
X100289510Y-48829000D01*
X100294997Y-48822742D01*
X100302342Y-48775648D01*
X100348723Y-48723393D01*
X100414515Y-48704500D01*
X100912311Y-48704500D01*
X100979350Y-48724185D01*
X100999992Y-48740819D01*
X101638181Y-49379007D01*
X101671666Y-49440330D01*
X101674500Y-49466688D01*
X101674500Y-52957147D01*
X101674500Y-53042853D01*
X101682810Y-53073868D01*
X101696682Y-53125640D01*
X101710746Y-53149998D01*
X101739535Y-53199862D01*
X102060057Y-53520384D01*
X102134280Y-53563237D01*
X102217066Y-53585419D01*
X103104279Y-53585419D01*
X103171318Y-53605104D01*
X103214764Y-53653124D01*
X103218379Y-53660219D01*
X103218380Y-53660223D01*
X103275976Y-53773261D01*
X103275977Y-53773262D01*
X103275980Y-53773266D01*
X103365678Y-53862964D01*
X103365680Y-53862965D01*
X103365684Y-53862969D01*
X103478526Y-53920465D01*
X103478724Y-53920566D01*
X103572501Y-53935418D01*
X103572507Y-53935419D01*
X104035544Y-53935418D01*
X104129330Y-53920565D01*
X104242368Y-53862969D01*
X104332076Y-53773261D01*
X104389672Y-53660223D01*
X104389672Y-53660221D01*
X104389673Y-53660220D01*
X104404525Y-53566443D01*
X104404526Y-53566438D01*
X104404525Y-52953401D01*
X104404524Y-52953394D01*
X104853526Y-52953394D01*
X104853526Y-53566436D01*
X104862089Y-53620500D01*
X104868380Y-53660223D01*
X104925976Y-53773261D01*
X104925978Y-53773263D01*
X104925980Y-53773266D01*
X105015678Y-53862964D01*
X105015680Y-53862965D01*
X105015684Y-53862969D01*
X105060822Y-53885968D01*
X105111617Y-53933942D01*
X105128526Y-53996452D01*
X105128526Y-55086173D01*
X105128526Y-55171879D01*
X105131995Y-55184826D01*
X105150708Y-55254666D01*
X105172134Y-55291776D01*
X105193561Y-55328888D01*
X106625138Y-56760465D01*
X106699361Y-56803318D01*
X106782147Y-56825500D01*
X109063934Y-56825500D01*
X109130973Y-56845185D01*
X109176728Y-56897989D01*
X109185551Y-56925309D01*
X109186131Y-56928229D01*
X109186132Y-56928230D01*
X109230447Y-56994552D01*
X109296769Y-57038867D01*
X109296770Y-57038868D01*
X109355247Y-57050499D01*
X109355250Y-57050500D01*
X109355252Y-57050500D01*
X110644750Y-57050500D01*
X110644751Y-57050499D01*
X110664983Y-57046475D01*
X110703229Y-57038868D01*
X110703229Y-57038867D01*
X110703231Y-57038867D01*
X110769552Y-56994552D01*
X110813867Y-56928231D01*
X110813867Y-56928229D01*
X110813868Y-56928229D01*
X110824844Y-56873046D01*
X110825500Y-56869748D01*
X110825500Y-56130252D01*
X110825500Y-56130249D01*
X110825499Y-56130247D01*
X110813868Y-56071771D01*
X110813867Y-56071769D01*
X110811609Y-56068390D01*
X110790732Y-56001715D01*
X110809216Y-55934334D01*
X110861194Y-55887644D01*
X110914712Y-55875500D01*
X118935500Y-55875500D01*
X119002539Y-55895185D01*
X119048294Y-55947989D01*
X119059500Y-55999500D01*
X119059500Y-57719752D01*
X119071131Y-57778229D01*
X119071132Y-57778230D01*
X119115447Y-57844552D01*
X119181769Y-57888867D01*
X119181770Y-57888868D01*
X119240247Y-57900499D01*
X119240250Y-57900500D01*
X119240252Y-57900500D01*
X120679750Y-57900500D01*
X120679751Y-57900499D01*
X120694568Y-57897552D01*
X120738229Y-57888868D01*
X120738229Y-57888867D01*
X120738231Y-57888867D01*
X120804552Y-57844552D01*
X120848867Y-57778231D01*
X120848867Y-57778229D01*
X120848868Y-57778229D01*
X120860499Y-57719752D01*
X120860500Y-57719750D01*
X120860500Y-53880249D01*
X120860499Y-53880247D01*
X120848868Y-53821770D01*
X120848867Y-53821769D01*
X120804552Y-53755447D01*
X120738230Y-53711132D01*
X120738229Y-53711131D01*
X120679752Y-53699500D01*
X120679748Y-53699500D01*
X119240252Y-53699500D01*
X119240247Y-53699500D01*
X119181770Y-53711131D01*
X119181769Y-53711132D01*
X119115447Y-53755447D01*
X119071132Y-53821769D01*
X119071131Y-53821770D01*
X119059500Y-53880247D01*
X119059500Y-55100500D01*
X119039815Y-55167539D01*
X118987011Y-55213294D01*
X118935500Y-55224500D01*
X111234858Y-55224500D01*
X111167819Y-55204815D01*
X111122064Y-55152011D01*
X111112120Y-55082853D01*
X111118281Y-55058716D01*
X111118598Y-55057372D01*
X111124999Y-54997844D01*
X111125000Y-54997827D01*
X111125000Y-54850000D01*
X109874000Y-54850000D01*
X109806961Y-54830315D01*
X109761206Y-54777511D01*
X109750000Y-54726000D01*
X109750000Y-54350000D01*
X110250000Y-54350000D01*
X111125000Y-54350000D01*
X111125000Y-54202172D01*
X111124999Y-54202155D01*
X111118598Y-54142627D01*
X111118596Y-54142620D01*
X111068354Y-54007913D01*
X111068350Y-54007906D01*
X110982190Y-53892812D01*
X110982187Y-53892809D01*
X110867093Y-53806649D01*
X110867086Y-53806645D01*
X110732379Y-53756403D01*
X110732372Y-53756401D01*
X110672844Y-53750000D01*
X110250000Y-53750000D01*
X110250000Y-54350000D01*
X109750000Y-54350000D01*
X109750000Y-53811688D01*
X109769685Y-53744649D01*
X109786319Y-53724007D01*
X110148507Y-53361819D01*
X110209830Y-53328334D01*
X110236188Y-53325500D01*
X111630253Y-53325500D01*
X111697292Y-53345185D01*
X111740738Y-53393205D01*
X111744353Y-53400300D01*
X111744354Y-53400304D01*
X111801950Y-53513342D01*
X111801951Y-53513343D01*
X111801954Y-53513347D01*
X111891652Y-53603045D01*
X111891654Y-53603046D01*
X111891658Y-53603050D01*
X112003860Y-53660220D01*
X112004698Y-53660647D01*
X112098475Y-53675499D01*
X112098481Y-53675500D01*
X112561518Y-53675499D01*
X112655304Y-53660646D01*
X112768342Y-53603050D01*
X112858050Y-53513342D01*
X112915646Y-53400304D01*
X112915646Y-53400302D01*
X112915647Y-53400301D01*
X112930499Y-53306524D01*
X112930500Y-53306519D01*
X112930499Y-52693482D01*
X112915646Y-52599696D01*
X112858050Y-52486658D01*
X112858046Y-52486654D01*
X112858045Y-52486652D01*
X112768347Y-52396954D01*
X112768344Y-52396952D01*
X112768342Y-52396950D01*
X112691517Y-52357805D01*
X112655301Y-52339352D01*
X112561524Y-52324500D01*
X112098482Y-52324500D01*
X112017519Y-52337323D01*
X112004696Y-52339354D01*
X111891658Y-52396950D01*
X111891657Y-52396951D01*
X111891652Y-52396954D01*
X111801954Y-52486652D01*
X111801951Y-52486657D01*
X111801950Y-52486658D01*
X111744571Y-52599271D01*
X111740737Y-52606795D01*
X111692762Y-52657591D01*
X111630252Y-52674500D01*
X110100465Y-52674500D01*
X110100449Y-52674499D01*
X110092853Y-52674499D01*
X110007148Y-52674499D01*
X109980297Y-52681694D01*
X109924360Y-52696682D01*
X109924355Y-52696685D01*
X109850144Y-52739530D01*
X109850136Y-52739536D01*
X107626492Y-54963181D01*
X107565169Y-54996666D01*
X107538811Y-54999500D01*
X106855247Y-54999500D01*
X106796770Y-55011131D01*
X106796769Y-55011132D01*
X106730447Y-55055447D01*
X106686132Y-55121769D01*
X106686131Y-55121770D01*
X106674500Y-55180247D01*
X106674500Y-55589811D01*
X106654815Y-55656850D01*
X106602011Y-55702605D01*
X106532853Y-55712549D01*
X106469297Y-55683524D01*
X106462819Y-55677492D01*
X105815845Y-55030518D01*
X105782360Y-54969195D01*
X105779526Y-54942837D01*
X105779526Y-53996452D01*
X105799211Y-53929413D01*
X105847229Y-53885968D01*
X105892368Y-53862969D01*
X105982076Y-53773261D01*
X106039672Y-53660223D01*
X106039672Y-53660221D01*
X106039673Y-53660220D01*
X106054525Y-53566443D01*
X106054526Y-53566438D01*
X106054525Y-52953401D01*
X106039672Y-52859615D01*
X105982076Y-52746577D01*
X105982072Y-52746573D01*
X105982071Y-52746571D01*
X105892373Y-52656873D01*
X105892370Y-52656871D01*
X105892368Y-52656869D01*
X105789589Y-52604500D01*
X105779327Y-52599271D01*
X105685550Y-52584419D01*
X105222508Y-52584419D01*
X105141545Y-52597242D01*
X105128722Y-52599273D01*
X105015684Y-52656869D01*
X105015683Y-52656870D01*
X105015678Y-52656873D01*
X104925980Y-52746571D01*
X104925977Y-52746576D01*
X104868378Y-52859617D01*
X104853526Y-52953394D01*
X104404524Y-52953394D01*
X104389672Y-52859615D01*
X104332076Y-52746577D01*
X104332072Y-52746573D01*
X104332071Y-52746571D01*
X104242373Y-52656873D01*
X104242370Y-52656871D01*
X104242368Y-52656869D01*
X104139589Y-52604500D01*
X104129327Y-52599271D01*
X104035550Y-52584419D01*
X103572508Y-52584419D01*
X103491545Y-52597242D01*
X103478722Y-52599273D01*
X103365684Y-52656869D01*
X103365683Y-52656870D01*
X103365678Y-52656873D01*
X103275980Y-52746571D01*
X103275977Y-52746576D01*
X103275976Y-52746577D01*
X103218380Y-52859615D01*
X103214763Y-52866714D01*
X103166788Y-52917510D01*
X103104278Y-52934419D01*
X102449500Y-52934419D01*
X102382461Y-52914734D01*
X102336706Y-52861930D01*
X102325500Y-52810419D01*
X102325500Y-49333355D01*
X102325501Y-49333342D01*
X102325501Y-49237649D01*
X102323184Y-49229001D01*
X102303318Y-49154862D01*
X102277912Y-49110857D01*
X102260465Y-49080638D01*
X102199862Y-49020035D01*
X102199861Y-49020034D01*
X102195531Y-49015704D01*
X102195520Y-49015694D01*
X101298364Y-48118537D01*
X101298363Y-48118536D01*
X101298362Y-48118535D01*
X101252804Y-48092232D01*
X101224140Y-48075682D01*
X101181425Y-48064237D01*
X101141353Y-48053500D01*
X101141352Y-48053500D01*
X99947649Y-48053500D01*
X99880610Y-48033815D01*
X99877574Y-48031801D01*
X99870267Y-48026796D01*
X99870265Y-48026794D01*
X99797545Y-47994685D01*
X99767492Y-47981415D01*
X99742368Y-47978500D01*
X99742365Y-47978500D01*
X99300538Y-47978500D01*
X99238537Y-47961886D01*
X99233890Y-47959203D01*
X99233887Y-47959201D01*
X99204388Y-47951297D01*
X99119309Y-47928500D01*
X99119306Y-47928500D01*
X93909500Y-47928500D01*
X93842461Y-47908815D01*
X93796706Y-47856011D01*
X93785500Y-47804500D01*
X93785500Y-46504890D01*
X93805185Y-46437851D01*
X93835866Y-46405119D01*
X93856150Y-46390150D01*
X93936793Y-46280882D01*
X93959158Y-46216964D01*
X93999877Y-46160192D01*
X94064830Y-46134444D01*
X94133392Y-46147900D01*
X94183795Y-46196287D01*
X94193904Y-46218917D01*
X94249642Y-46387121D01*
X94249643Y-46387124D01*
X94341684Y-46536345D01*
X94465654Y-46660315D01*
X94614875Y-46752356D01*
X94614880Y-46752358D01*
X94781302Y-46807505D01*
X94781309Y-46807506D01*
X94884019Y-46817999D01*
X95021499Y-46817999D01*
X95521500Y-46817999D01*
X95658972Y-46817999D01*
X95658986Y-46817998D01*
X95761697Y-46807505D01*
X95928119Y-46752358D01*
X95928124Y-46752356D01*
X96077345Y-46660315D01*
X96201315Y-46536345D01*
X96293356Y-46387124D01*
X96293358Y-46387119D01*
X96348505Y-46220697D01*
X96348506Y-46220690D01*
X96358999Y-46117986D01*
X96359000Y-46117973D01*
X96359000Y-45843000D01*
X95521500Y-45843000D01*
X95521500Y-46817999D01*
X95021499Y-46817999D01*
X95021500Y-46817998D01*
X95021500Y-45343000D01*
X95521500Y-45343000D01*
X96358999Y-45343000D01*
X96358999Y-45068028D01*
X96358998Y-45068013D01*
X96348505Y-44965302D01*
X96293358Y-44798880D01*
X96293356Y-44798875D01*
X96201315Y-44649654D01*
X96077345Y-44525684D01*
X95928124Y-44433643D01*
X95928119Y-44433641D01*
X95761697Y-44378494D01*
X95761690Y-44378493D01*
X95658986Y-44368000D01*
X95521500Y-44368000D01*
X95521500Y-45343000D01*
X95021500Y-45343000D01*
X95021500Y-44368000D01*
X94884027Y-44368000D01*
X94884012Y-44368001D01*
X94781302Y-44378494D01*
X94614880Y-44433641D01*
X94614875Y-44433643D01*
X94465654Y-44525684D01*
X94341684Y-44649654D01*
X94249643Y-44798875D01*
X94249641Y-44798880D01*
X94193905Y-44967082D01*
X94154132Y-45024527D01*
X94089617Y-45051350D01*
X94020841Y-45039035D01*
X93969641Y-44991492D01*
X93959158Y-44969033D01*
X93939924Y-44914066D01*
X93936793Y-44905118D01*
X93856150Y-44795850D01*
X93746882Y-44715207D01*
X93746880Y-44715206D01*
X93618700Y-44670353D01*
X93588270Y-44667500D01*
X93588266Y-44667500D01*
X92804734Y-44667500D01*
X92804730Y-44667500D01*
X92774300Y-44670353D01*
X92774298Y-44670353D01*
X92646119Y-44715206D01*
X92646117Y-44715207D01*
X92536850Y-44795850D01*
X92536848Y-44795851D01*
X92502692Y-44842133D01*
X92447044Y-44884384D01*
X92402921Y-44892500D01*
X86545003Y-44892500D01*
X86436590Y-44914065D01*
X86436589Y-44914065D01*
X86423131Y-44916742D01*
X86409673Y-44919419D01*
X86356864Y-44941293D01*
X86282193Y-44972222D01*
X86282186Y-44972226D01*
X86276866Y-44975782D01*
X86276860Y-44975786D01*
X86167457Y-45048886D01*
X86167453Y-45048889D01*
X85190574Y-46025767D01*
X85129251Y-46059252D01*
X85096091Y-46061180D01*
X85096091Y-46061417D01*
X85092028Y-46061417D01*
X85090756Y-46061491D01*
X85090004Y-46061417D01*
X85090001Y-46061417D01*
X85090000Y-46061417D01*
X85069718Y-46063414D01*
X84884067Y-46081699D01*
X84686043Y-46141769D01*
X84651577Y-46160192D01*
X84503550Y-46239315D01*
X84503548Y-46239316D01*
X84503547Y-46239317D01*
X84343589Y-46370589D01*
X84222204Y-46518500D01*
X84212315Y-46530550D01*
X84206580Y-46541280D01*
X84133357Y-46678268D01*
X84084394Y-46728112D01*
X84016256Y-46743572D01*
X83950577Y-46719740D01*
X83908208Y-46664182D01*
X83899999Y-46619814D01*
X83899999Y-46467028D01*
X83899998Y-46467012D01*
X83889505Y-46364302D01*
X83834358Y-46197880D01*
X83834356Y-46197875D01*
X83742315Y-46048654D01*
X83618345Y-45924684D01*
X83469124Y-45832643D01*
X83469119Y-45832641D01*
X83302697Y-45777494D01*
X83302690Y-45777493D01*
X83199986Y-45767000D01*
X82800000Y-45767000D01*
X82800000Y-46683988D01*
X82742993Y-46651075D01*
X82615826Y-46617000D01*
X82484174Y-46617000D01*
X82357007Y-46651075D01*
X82300000Y-46683988D01*
X82300000Y-45767000D01*
X81900028Y-45767000D01*
X81900012Y-45767001D01*
X81797302Y-45777494D01*
X81630880Y-45832641D01*
X81630875Y-45832643D01*
X81481654Y-45924684D01*
X81357684Y-46048654D01*
X81265643Y-46197875D01*
X81265641Y-46197880D01*
X81210494Y-46364302D01*
X81210493Y-46364309D01*
X81200000Y-46467013D01*
X75417699Y-46467013D01*
X75485889Y-46348904D01*
X75624326Y-46027971D01*
X75724569Y-45693136D01*
X75785262Y-45348927D01*
X75802594Y-45051350D01*
X75805585Y-45000003D01*
X75805585Y-44999996D01*
X75798851Y-44884384D01*
X75785262Y-44651073D01*
X75785012Y-44649654D01*
X75724571Y-44306872D01*
X75724569Y-44306865D01*
X75724569Y-44306864D01*
X75624326Y-43972029D01*
X75485889Y-43651096D01*
X75311130Y-43348404D01*
X75311129Y-43348402D01*
X75102415Y-43068050D01*
X75102410Y-43068044D01*
X74986433Y-42945117D01*
X74862558Y-42813817D01*
X74675387Y-42656762D01*
X74594813Y-42589152D01*
X74594805Y-42589146D01*
X74302796Y-42397088D01*
X73990458Y-42240226D01*
X73990452Y-42240223D01*
X73662012Y-42120681D01*
X73662009Y-42120680D01*
X73321915Y-42040077D01*
X73278519Y-42035004D01*
X72974759Y-41999500D01*
X72625241Y-41999500D01*
X72321480Y-42035004D01*
X72278085Y-42040077D01*
X72278083Y-42040077D01*
X71937990Y-42120680D01*
X71937987Y-42120681D01*
X71609547Y-42240223D01*
X71609541Y-42240226D01*
X71297203Y-42397088D01*
X71005194Y-42589146D01*
X71005186Y-42589152D01*
X70737442Y-42813817D01*
X70737440Y-42813819D01*
X70497589Y-43068044D01*
X70497584Y-43068050D01*
X70288870Y-43348402D01*
X70114113Y-43651091D01*
X70114107Y-43651104D01*
X69975674Y-43972027D01*
X69875430Y-44306865D01*
X69875428Y-44306872D01*
X69814739Y-44651061D01*
X69814738Y-44651072D01*
X69794415Y-44999996D01*
X68072000Y-44999996D01*
X68072000Y-39875000D01*
X68091685Y-39807961D01*
X68144489Y-39762206D01*
X68196000Y-39751000D01*
X127431276Y-39751000D01*
X127498315Y-39770685D01*
G37*
%TD.AperFunction*%
%TD*%
%TA.AperFunction,Conductor*%
%TO.N,+12V*%
G36*
X127758059Y-50401061D02*
G01*
X127863223Y-50414906D01*
X127894491Y-50423284D01*
X127984918Y-50460740D01*
X128012952Y-50476925D01*
X128090602Y-50536509D01*
X128113491Y-50559398D01*
X128173074Y-50637048D01*
X128189259Y-50665081D01*
X128226715Y-50755508D01*
X128235093Y-50786775D01*
X128248939Y-50891939D01*
X128250000Y-50908125D01*
X128250000Y-59991874D01*
X128248939Y-60008060D01*
X128235093Y-60113224D01*
X128226715Y-60144491D01*
X128189259Y-60234918D01*
X128173074Y-60262951D01*
X128113491Y-60340601D01*
X128090601Y-60363491D01*
X128012951Y-60423074D01*
X127984918Y-60439259D01*
X127894491Y-60476715D01*
X127863224Y-60485093D01*
X127769398Y-60497446D01*
X127758058Y-60498939D01*
X127741874Y-60500000D01*
X123008126Y-60500000D01*
X122991941Y-60498939D01*
X122978917Y-60497224D01*
X122886775Y-60485093D01*
X122855508Y-60476715D01*
X122765081Y-60439259D01*
X122737048Y-60423074D01*
X122659398Y-60363491D01*
X122636508Y-60340601D01*
X122576925Y-60262951D01*
X122560740Y-60234918D01*
X122523284Y-60144491D01*
X122514906Y-60113223D01*
X122501061Y-60008059D01*
X122500000Y-59991874D01*
X122500000Y-57747844D01*
X123840000Y-57747844D01*
X123846401Y-57807372D01*
X123846403Y-57807379D01*
X123896645Y-57942086D01*
X123896649Y-57942093D01*
X123982809Y-58057187D01*
X123982812Y-58057190D01*
X124097906Y-58143350D01*
X124097913Y-58143354D01*
X124232620Y-58193596D01*
X124232627Y-58193598D01*
X124292155Y-58199999D01*
X124292172Y-58200000D01*
X124790000Y-58200000D01*
X125290000Y-58200000D01*
X125787828Y-58200000D01*
X125787844Y-58199999D01*
X125847372Y-58193598D01*
X125847379Y-58193596D01*
X125982086Y-58143354D01*
X125982093Y-58143350D01*
X126097187Y-58057190D01*
X126097190Y-58057187D01*
X126183350Y-57942093D01*
X126183354Y-57942086D01*
X126233596Y-57807379D01*
X126233598Y-57807372D01*
X126239999Y-57747844D01*
X126240000Y-57747827D01*
X126240000Y-56050000D01*
X125290000Y-56050000D01*
X125290000Y-58200000D01*
X124790000Y-58200000D01*
X124790000Y-56050000D01*
X123840000Y-56050000D01*
X123840000Y-57747844D01*
X122500000Y-57747844D01*
X122500000Y-53852155D01*
X123840000Y-53852155D01*
X123840000Y-55550000D01*
X124790000Y-55550000D01*
X125290000Y-55550000D01*
X126240000Y-55550000D01*
X126240000Y-53852172D01*
X126239999Y-53852155D01*
X126233598Y-53792627D01*
X126233596Y-53792620D01*
X126183354Y-53657913D01*
X126183350Y-53657906D01*
X126097190Y-53542812D01*
X126097187Y-53542809D01*
X125982093Y-53456649D01*
X125982086Y-53456645D01*
X125847379Y-53406403D01*
X125847372Y-53406401D01*
X125787844Y-53400000D01*
X125290000Y-53400000D01*
X125290000Y-55550000D01*
X124790000Y-55550000D01*
X124790000Y-53400000D01*
X124292155Y-53400000D01*
X124232627Y-53406401D01*
X124232620Y-53406403D01*
X124097913Y-53456645D01*
X124097906Y-53456649D01*
X123982812Y-53542809D01*
X123982809Y-53542812D01*
X123896649Y-53657906D01*
X123896645Y-53657913D01*
X123846403Y-53792620D01*
X123846401Y-53792627D01*
X123840000Y-53852155D01*
X122500000Y-53852155D01*
X122500000Y-50908125D01*
X122501061Y-50891940D01*
X122514906Y-50786776D01*
X122523284Y-50755508D01*
X122560740Y-50665081D01*
X122576923Y-50637050D01*
X122636513Y-50559392D01*
X122659392Y-50536513D01*
X122737050Y-50476923D01*
X122765079Y-50460740D01*
X122855509Y-50423283D01*
X122886775Y-50414906D01*
X122991941Y-50401061D01*
X123008126Y-50400000D01*
X127741874Y-50400000D01*
X127758059Y-50401061D01*
G37*
%TD.AperFunction*%
%TD*%
%TA.AperFunction,Conductor*%
%TO.N,+BATT*%
G36*
X157376310Y-39999692D02*
G01*
X157443298Y-40019543D01*
X157488922Y-40072461D01*
X157500000Y-40123692D01*
X157500000Y-50110650D01*
X157486485Y-50166944D01*
X157430129Y-50277549D01*
X157376597Y-50442302D01*
X157349500Y-50613389D01*
X157349500Y-51786610D01*
X157376597Y-51957697D01*
X157430128Y-52122447D01*
X157486485Y-52233054D01*
X157500000Y-52289349D01*
X157500000Y-54250000D01*
X158376000Y-54250000D01*
X158443039Y-54269685D01*
X158488794Y-54322489D01*
X158500000Y-54374000D01*
X158500000Y-60126000D01*
X158480315Y-60193039D01*
X158427511Y-60238794D01*
X158376000Y-60250000D01*
X156901826Y-60250000D01*
X156893906Y-60249555D01*
X156893899Y-60249695D01*
X156890426Y-60249500D01*
X156890425Y-60249500D01*
X152624000Y-60249500D01*
X152556961Y-60229815D01*
X152511206Y-60177011D01*
X152500000Y-60125500D01*
X152500000Y-57199994D01*
X152895255Y-57199994D01*
X152895255Y-57200005D01*
X152914215Y-57501383D01*
X152914216Y-57501390D01*
X152970805Y-57798040D01*
X153064125Y-58085247D01*
X153064127Y-58085252D01*
X153192704Y-58358491D01*
X153192707Y-58358497D01*
X153354516Y-58613469D01*
X153435311Y-58711133D01*
X154113128Y-58033316D01*
X154193994Y-58144618D01*
X154355382Y-58306006D01*
X154466681Y-58386870D01*
X153786564Y-59066987D01*
X153786565Y-59066989D01*
X154011461Y-59230385D01*
X154011479Y-59230397D01*
X154276109Y-59375878D01*
X154276117Y-59375882D01*
X154556889Y-59487047D01*
X154556892Y-59487048D01*
X154849399Y-59562150D01*
X155148995Y-59599999D01*
X155149007Y-59600000D01*
X155450993Y-59600000D01*
X155451004Y-59599999D01*
X155750600Y-59562150D01*
X156043107Y-59487048D01*
X156043110Y-59487047D01*
X156323882Y-59375882D01*
X156323890Y-59375878D01*
X156588520Y-59230397D01*
X156588530Y-59230390D01*
X156813433Y-59066987D01*
X156813434Y-59066987D01*
X156133317Y-58386870D01*
X156244618Y-58306006D01*
X156406006Y-58144618D01*
X156486870Y-58033317D01*
X157164687Y-58711134D01*
X157245486Y-58613464D01*
X157407292Y-58358497D01*
X157407295Y-58358491D01*
X157535872Y-58085252D01*
X157535874Y-58085247D01*
X157629194Y-57798040D01*
X157685783Y-57501390D01*
X157685784Y-57501383D01*
X157704745Y-57200005D01*
X157704745Y-57199994D01*
X157685784Y-56898616D01*
X157685783Y-56898609D01*
X157629194Y-56601959D01*
X157535874Y-56314752D01*
X157535872Y-56314747D01*
X157407295Y-56041508D01*
X157407292Y-56041502D01*
X157245483Y-55786530D01*
X157164686Y-55688864D01*
X156486869Y-56366681D01*
X156406006Y-56255382D01*
X156244618Y-56093994D01*
X156133316Y-56013128D01*
X156813434Y-55333011D01*
X156813433Y-55333009D01*
X156588538Y-55169614D01*
X156588520Y-55169602D01*
X156323890Y-55024121D01*
X156323882Y-55024117D01*
X156043110Y-54912952D01*
X156043107Y-54912951D01*
X155750600Y-54837849D01*
X155451004Y-54800000D01*
X155148995Y-54800000D01*
X154849399Y-54837849D01*
X154556892Y-54912951D01*
X154556889Y-54912952D01*
X154276117Y-55024117D01*
X154276109Y-55024121D01*
X154011476Y-55169604D01*
X154011471Y-55169607D01*
X153786565Y-55333010D01*
X153786564Y-55333011D01*
X154466682Y-56013129D01*
X154355382Y-56093994D01*
X154193994Y-56255382D01*
X154113129Y-56366682D01*
X153435311Y-55688864D01*
X153354520Y-55786525D01*
X153354518Y-55786528D01*
X153192707Y-56041502D01*
X153192704Y-56041508D01*
X153064127Y-56314747D01*
X153064125Y-56314752D01*
X152970805Y-56601959D01*
X152914216Y-56898609D01*
X152914215Y-56898616D01*
X152895255Y-57199994D01*
X152500000Y-57199994D01*
X152500000Y-49500000D01*
X144874000Y-49500000D01*
X144806961Y-49480315D01*
X144761206Y-49427511D01*
X144750000Y-49376000D01*
X144750000Y-43250000D01*
X136000000Y-43250000D01*
X135755157Y-48881386D01*
X135732579Y-48947507D01*
X135677837Y-48990925D01*
X135631274Y-49000000D01*
X128474000Y-49000000D01*
X128406961Y-48980315D01*
X128361206Y-48927511D01*
X128350000Y-48876000D01*
X128350000Y-47049986D01*
X130900001Y-47049986D01*
X130910494Y-47152697D01*
X130965641Y-47319119D01*
X130965643Y-47319124D01*
X131057684Y-47468345D01*
X131181654Y-47592315D01*
X131330875Y-47684356D01*
X131330880Y-47684358D01*
X131497302Y-47739505D01*
X131497309Y-47739506D01*
X131600019Y-47749999D01*
X132899999Y-47749999D01*
X133400000Y-47749999D01*
X134699972Y-47749999D01*
X134699986Y-47749998D01*
X134802697Y-47739505D01*
X134969119Y-47684358D01*
X134969124Y-47684356D01*
X135118345Y-47592315D01*
X135242315Y-47468345D01*
X135334356Y-47319124D01*
X135334358Y-47319119D01*
X135389505Y-47152697D01*
X135389506Y-47152690D01*
X135399999Y-47049986D01*
X135400000Y-47049973D01*
X135400000Y-46250000D01*
X133400000Y-46250000D01*
X133400000Y-47749999D01*
X132899999Y-47749999D01*
X132900000Y-47749998D01*
X132900000Y-46250000D01*
X130900001Y-46250000D01*
X130900001Y-47049986D01*
X128350000Y-47049986D01*
X128350000Y-45250000D01*
X122374000Y-45250000D01*
X122306961Y-45230315D01*
X122261206Y-45177511D01*
X122250000Y-45126000D01*
X122250000Y-44950013D01*
X130900000Y-44950013D01*
X130900000Y-45750000D01*
X132900000Y-45750000D01*
X133400000Y-45750000D01*
X135399999Y-45750000D01*
X135399999Y-44950028D01*
X135399998Y-44950013D01*
X135389505Y-44847302D01*
X135334358Y-44680880D01*
X135334356Y-44680875D01*
X135242315Y-44531654D01*
X135118345Y-44407684D01*
X134969124Y-44315643D01*
X134969119Y-44315641D01*
X134802697Y-44260494D01*
X134802690Y-44260493D01*
X134699986Y-44250000D01*
X133400000Y-44250000D01*
X133400000Y-45750000D01*
X132900000Y-45750000D01*
X132900000Y-44250000D01*
X131600028Y-44250000D01*
X131600012Y-44250001D01*
X131497302Y-44260494D01*
X131330880Y-44315641D01*
X131330875Y-44315643D01*
X131181654Y-44407684D01*
X131057684Y-44531654D01*
X130965643Y-44680875D01*
X130965641Y-44680880D01*
X130910494Y-44847302D01*
X130910493Y-44847309D01*
X130900000Y-44950013D01*
X122250000Y-44950013D01*
X122250000Y-44874000D01*
X122269685Y-44806961D01*
X122322489Y-44761206D01*
X122374000Y-44750000D01*
X128350000Y-44750000D01*
X128350000Y-40552172D01*
X128349999Y-40552155D01*
X128343598Y-40492627D01*
X128343596Y-40492620D01*
X128293354Y-40357913D01*
X128293350Y-40357906D01*
X128207190Y-40242812D01*
X128207187Y-40242809D01*
X128084989Y-40151331D01*
X128086921Y-40148749D01*
X128048697Y-40110520D01*
X128033849Y-40042246D01*
X128058271Y-39976783D01*
X128114207Y-39934915D01*
X128157839Y-39927100D01*
X157376310Y-39999692D01*
G37*
%TD.AperFunction*%
%TD*%
M02*
