%TF.GenerationSoftware,KiCad,Pcbnew,8.0.3*%
%TF.CreationDate,2024-11-25T10:27:06+01:00*%
%TF.ProjectId,Teensy Board,5465656e-7379-4204-926f-6172642e6b69,rev?*%
%TF.SameCoordinates,Original*%
%TF.FileFunction,Soldermask,Top*%
%TF.FilePolarity,Negative*%
%FSLAX46Y46*%
G04 Gerber Fmt 4.6, Leading zero omitted, Abs format (unit mm)*
G04 Created by KiCad (PCBNEW 8.0.3) date 2024-11-25 10:27:06*
%MOMM*%
%LPD*%
G01*
G04 APERTURE LIST*
G04 Aperture macros list*
%AMRoundRect*
0 Rectangle with rounded corners*
0 $1 Rounding radius*
0 $2 $3 $4 $5 $6 $7 $8 $9 X,Y pos of 4 corners*
0 Add a 4 corners polygon primitive as box body*
4,1,4,$2,$3,$4,$5,$6,$7,$8,$9,$2,$3,0*
0 Add four circle primitives for the rounded corners*
1,1,$1+$1,$2,$3*
1,1,$1+$1,$4,$5*
1,1,$1+$1,$6,$7*
1,1,$1+$1,$8,$9*
0 Add four rect primitives between the rounded corners*
20,1,$1+$1,$2,$3,$4,$5,0*
20,1,$1+$1,$4,$5,$6,$7,0*
20,1,$1+$1,$6,$7,$8,$9,0*
20,1,$1+$1,$8,$9,$2,$3,0*%
G04 Aperture macros list end*
%ADD10C,0.150000*%
%ADD11R,1.700000X1.700000*%
%ADD12O,1.700000X1.700000*%
%ADD13RoundRect,0.250000X0.300000X-2.050000X0.300000X2.050000X-0.300000X2.050000X-0.300000X-2.050000X0*%
%ADD14RoundRect,0.250002X5.149998X-4.449998X5.149998X4.449998X-5.149998X4.449998X-5.149998X-4.449998X0*%
%ADD15RoundRect,0.200000X-0.200000X-0.275000X0.200000X-0.275000X0.200000X0.275000X-0.200000X0.275000X0*%
%ADD16C,2.300000*%
%ADD17RoundRect,0.200000X0.200000X0.275000X-0.200000X0.275000X-0.200000X-0.275000X0.200000X-0.275000X0*%
%ADD18RoundRect,0.250000X-0.600000X-0.600000X0.600000X-0.600000X0.600000X0.600000X-0.600000X0.600000X0*%
%ADD19C,1.700000*%
%ADD20RoundRect,0.200000X-0.275000X0.200000X-0.275000X-0.200000X0.275000X-0.200000X0.275000X0.200000X0*%
%ADD21R,5.400000X2.900000*%
%ADD22C,3.800000*%
%ADD23O,2.200000X1.200000*%
%ADD24C,1.600000*%
%ADD25O,0.700000X1.900000*%
%ADD26O,0.700000X2.100000*%
%ADD27O,2.000000X2.800000*%
%ADD28RoundRect,0.250000X-1.500000X-1.000000X1.500000X-1.000000X1.500000X1.000000X-1.500000X1.000000X0*%
%ADD29R,3.800000X1.400000*%
%ADD30R,8.800000X10.700000*%
%ADD31C,1.500000*%
%ADD32C,3.100000*%
%ADD33R,1.650000X4.500000*%
%ADD34C,3.600000*%
%ADD35C,5.600000*%
%ADD36RoundRect,0.100000X-0.100000X0.637500X-0.100000X-0.637500X0.100000X-0.637500X0.100000X0.637500X0*%
%ADD37RoundRect,0.250000X0.650000X-1.000000X0.650000X1.000000X-0.650000X1.000000X-0.650000X-1.000000X0*%
%ADD38C,3.250000*%
%ADD39C,1.520000*%
%ADD40C,2.500000*%
%ADD41R,1.250000X0.700000*%
%ADD42RoundRect,0.250000X0.475000X-0.337500X0.475000X0.337500X-0.475000X0.337500X-0.475000X-0.337500X0*%
%ADD43R,1.600000X1.600000*%
%ADD44R,1.300000X1.300000*%
%ADD45C,1.300000*%
G04 APERTURE END LIST*
D10*
X155940180Y-117978430D02*
X156192879Y-118046141D01*
X156434577Y-118146255D01*
X156661140Y-118277061D01*
X156868692Y-118436321D01*
X157053679Y-118621308D01*
X157212939Y-118828860D01*
X157343745Y-119055423D01*
X157443859Y-119297121D01*
X157511570Y-119549820D01*
X157545718Y-119809194D01*
X157545718Y-120070807D01*
X157511570Y-120330181D01*
X157443859Y-120582879D01*
X157343745Y-120824577D01*
X157234446Y-121013889D01*
X157333013Y-121068607D01*
X157346552Y-121078638D01*
X157361140Y-121087061D01*
X157451608Y-121156479D01*
X157543213Y-121224353D01*
X157555320Y-121236059D01*
X157568692Y-121246320D01*
X157649337Y-121326965D01*
X157731287Y-121406203D01*
X157741765Y-121419393D01*
X157753680Y-121431308D01*
X157823080Y-121521753D01*
X157894015Y-121611046D01*
X157902686Y-121625498D01*
X157912939Y-121638860D01*
X157969931Y-121737574D01*
X158028613Y-121835377D01*
X158035323Y-121850836D01*
X158043745Y-121865423D01*
X158087358Y-121970715D01*
X158132780Y-122075357D01*
X158137416Y-122091564D01*
X158143860Y-122107121D01*
X158173368Y-122217246D01*
X158204730Y-122326881D01*
X158207208Y-122343539D01*
X158211571Y-122359819D01*
X158226458Y-122472900D01*
X158243235Y-122585644D01*
X158243518Y-122602485D01*
X158245718Y-122619194D01*
X158246072Y-122754353D01*
X158247635Y-122847220D01*
X158246346Y-122858468D01*
X158250000Y-124250000D01*
X158246353Y-124361380D01*
X158250000Y-125750000D01*
X158245718Y-125880806D01*
X158211571Y-126140181D01*
X158143860Y-126392879D01*
X158043745Y-126634577D01*
X157912939Y-126861140D01*
X157753680Y-127068692D01*
X157568692Y-127253680D01*
X157361140Y-127412939D01*
X157134577Y-127543745D01*
X156892879Y-127643860D01*
X156640181Y-127711571D01*
X156581453Y-127719302D01*
X156453842Y-127873442D01*
X154960902Y-129265587D01*
X154929375Y-129292996D01*
X154918692Y-129303680D01*
X154905025Y-129314166D01*
X154862135Y-129351456D01*
X154785595Y-129405807D01*
X154711140Y-129462939D01*
X154679057Y-129481462D01*
X154648831Y-129502926D01*
X154565837Y-129546829D01*
X154484577Y-129593745D01*
X154450345Y-129607924D01*
X154417582Y-129625256D01*
X154329594Y-129657940D01*
X154242879Y-129693860D01*
X154207076Y-129703453D01*
X154172343Y-129716356D01*
X154080868Y-129737270D01*
X153990181Y-129761571D01*
X153953427Y-129766409D01*
X153917313Y-129774667D01*
X153823881Y-129783464D01*
X153730806Y-129795718D01*
X153693370Y-129795753D01*
X153656852Y-129799192D01*
X153567221Y-129795872D01*
X149200000Y-129800000D01*
X149069194Y-129795718D01*
X148809819Y-129761571D01*
X148557121Y-129693860D01*
X148315423Y-129593745D01*
X148088860Y-129462939D01*
X147881308Y-129303680D01*
X147696320Y-129118692D01*
X147537061Y-128911140D01*
X147406255Y-128684577D01*
X147306140Y-128442879D01*
X147238429Y-128190181D01*
X147204282Y-127930806D01*
X147204282Y-127669194D01*
X147238429Y-127409819D01*
X147306140Y-127157121D01*
X147406255Y-126915423D01*
X147537061Y-126688860D01*
X147696320Y-126481308D01*
X147881308Y-126296320D01*
X148088860Y-126137061D01*
X148315423Y-126006255D01*
X148557121Y-125906140D01*
X148809819Y-125838429D01*
X149069194Y-125804282D01*
X152817287Y-125800739D01*
X153639098Y-125034413D01*
X153679513Y-124999275D01*
X153518713Y-124843797D01*
X153355985Y-124638954D01*
X153221387Y-124414623D01*
X153117220Y-124174643D01*
X153045270Y-123923119D01*
X153006765Y-123664356D01*
X153002365Y-123402780D01*
X153032144Y-123142868D01*
X153095594Y-122889066D01*
X153191630Y-122645718D01*
X153318607Y-122416987D01*
X153474353Y-122206787D01*
X153656203Y-122018713D01*
X153684566Y-121996180D01*
X153681308Y-121993680D01*
X153496320Y-121808692D01*
X153337060Y-121601141D01*
X153206255Y-121374577D01*
X153106140Y-121132879D01*
X153038430Y-120880181D01*
X153004282Y-120620806D01*
X153004282Y-120359194D01*
X153038430Y-120099819D01*
X153106140Y-119847121D01*
X153206255Y-119605423D01*
X153337060Y-119378859D01*
X153496320Y-119171308D01*
X154135786Y-118525787D01*
X154231308Y-118436321D01*
X154438859Y-118277061D01*
X154665423Y-118146255D01*
X154907121Y-118046141D01*
X155159819Y-117978430D01*
X155419193Y-117944282D01*
X155680806Y-117944282D01*
X155940180Y-117978430D01*
G36*
X155940180Y-117978430D02*
G01*
X156192879Y-118046141D01*
X156434577Y-118146255D01*
X156661140Y-118277061D01*
X156868692Y-118436321D01*
X157053679Y-118621308D01*
X157212939Y-118828860D01*
X157343745Y-119055423D01*
X157443859Y-119297121D01*
X157511570Y-119549820D01*
X157545718Y-119809194D01*
X157545718Y-120070807D01*
X157511570Y-120330181D01*
X157443859Y-120582879D01*
X157343745Y-120824577D01*
X157234446Y-121013889D01*
X157333013Y-121068607D01*
X157346552Y-121078638D01*
X157361140Y-121087061D01*
X157451608Y-121156479D01*
X157543213Y-121224353D01*
X157555320Y-121236059D01*
X157568692Y-121246320D01*
X157649337Y-121326965D01*
X157731287Y-121406203D01*
X157741765Y-121419393D01*
X157753680Y-121431308D01*
X157823080Y-121521753D01*
X157894015Y-121611046D01*
X157902686Y-121625498D01*
X157912939Y-121638860D01*
X157969931Y-121737574D01*
X158028613Y-121835377D01*
X158035323Y-121850836D01*
X158043745Y-121865423D01*
X158087358Y-121970715D01*
X158132780Y-122075357D01*
X158137416Y-122091564D01*
X158143860Y-122107121D01*
X158173368Y-122217246D01*
X158204730Y-122326881D01*
X158207208Y-122343539D01*
X158211571Y-122359819D01*
X158226458Y-122472900D01*
X158243235Y-122585644D01*
X158243518Y-122602485D01*
X158245718Y-122619194D01*
X158246072Y-122754353D01*
X158247635Y-122847220D01*
X158246346Y-122858468D01*
X158250000Y-124250000D01*
X158246353Y-124361380D01*
X158250000Y-125750000D01*
X158245718Y-125880806D01*
X158211571Y-126140181D01*
X158143860Y-126392879D01*
X158043745Y-126634577D01*
X157912939Y-126861140D01*
X157753680Y-127068692D01*
X157568692Y-127253680D01*
X157361140Y-127412939D01*
X157134577Y-127543745D01*
X156892879Y-127643860D01*
X156640181Y-127711571D01*
X156581453Y-127719302D01*
X156453842Y-127873442D01*
X154960902Y-129265587D01*
X154929375Y-129292996D01*
X154918692Y-129303680D01*
X154905025Y-129314166D01*
X154862135Y-129351456D01*
X154785595Y-129405807D01*
X154711140Y-129462939D01*
X154679057Y-129481462D01*
X154648831Y-129502926D01*
X154565837Y-129546829D01*
X154484577Y-129593745D01*
X154450345Y-129607924D01*
X154417582Y-129625256D01*
X154329594Y-129657940D01*
X154242879Y-129693860D01*
X154207076Y-129703453D01*
X154172343Y-129716356D01*
X154080868Y-129737270D01*
X153990181Y-129761571D01*
X153953427Y-129766409D01*
X153917313Y-129774667D01*
X153823881Y-129783464D01*
X153730806Y-129795718D01*
X153693370Y-129795753D01*
X153656852Y-129799192D01*
X153567221Y-129795872D01*
X149200000Y-129800000D01*
X149069194Y-129795718D01*
X148809819Y-129761571D01*
X148557121Y-129693860D01*
X148315423Y-129593745D01*
X148088860Y-129462939D01*
X147881308Y-129303680D01*
X147696320Y-129118692D01*
X147537061Y-128911140D01*
X147406255Y-128684577D01*
X147306140Y-128442879D01*
X147238429Y-128190181D01*
X147204282Y-127930806D01*
X147204282Y-127669194D01*
X147238429Y-127409819D01*
X147306140Y-127157121D01*
X147406255Y-126915423D01*
X147537061Y-126688860D01*
X147696320Y-126481308D01*
X147881308Y-126296320D01*
X148088860Y-126137061D01*
X148315423Y-126006255D01*
X148557121Y-125906140D01*
X148809819Y-125838429D01*
X149069194Y-125804282D01*
X152817287Y-125800739D01*
X153639098Y-125034413D01*
X153679513Y-124999275D01*
X153518713Y-124843797D01*
X153355985Y-124638954D01*
X153221387Y-124414623D01*
X153117220Y-124174643D01*
X153045270Y-123923119D01*
X153006765Y-123664356D01*
X153002365Y-123402780D01*
X153032144Y-123142868D01*
X153095594Y-122889066D01*
X153191630Y-122645718D01*
X153318607Y-122416987D01*
X153474353Y-122206787D01*
X153656203Y-122018713D01*
X153684566Y-121996180D01*
X153681308Y-121993680D01*
X153496320Y-121808692D01*
X153337060Y-121601141D01*
X153206255Y-121374577D01*
X153106140Y-121132879D01*
X153038430Y-120880181D01*
X153004282Y-120620806D01*
X153004282Y-120359194D01*
X153038430Y-120099819D01*
X153106140Y-119847121D01*
X153206255Y-119605423D01*
X153337060Y-119378859D01*
X153496320Y-119171308D01*
X154135786Y-118525787D01*
X154231308Y-118436321D01*
X154438859Y-118277061D01*
X154665423Y-118146255D01*
X154907121Y-118046141D01*
X155159819Y-117978430D01*
X155419193Y-117944282D01*
X155680806Y-117944282D01*
X155940180Y-117978430D01*
G37*
D11*
%TO.C,J6*%
X134995000Y-123175000D03*
D12*
X137535000Y-123175000D03*
X140075000Y-123175000D03*
%TD*%
D13*
%TO.C,U3*%
X132425000Y-108375000D03*
X134125000Y-108375000D03*
X135825000Y-108375000D03*
D14*
X135825000Y-99225000D03*
D13*
X137525000Y-108375000D03*
X139225000Y-108375000D03*
%TD*%
D15*
%TO.C,R2*%
X85175000Y-102860000D03*
X86825000Y-102860000D03*
%TD*%
D16*
%TO.C,D1*%
X110450000Y-98000000D03*
X124050000Y-98000000D03*
%TD*%
D17*
%TO.C,R3*%
X81825000Y-100860000D03*
X80175000Y-100860000D03*
%TD*%
D18*
%TO.C,J4*%
X164960000Y-74840000D03*
D19*
X167500000Y-74840000D03*
X164960000Y-77380000D03*
X167500000Y-77380000D03*
X164960000Y-79920000D03*
X167500000Y-79920000D03*
X164960000Y-82460000D03*
X167500000Y-82460000D03*
X164960000Y-85000000D03*
X167500000Y-85000000D03*
%TD*%
D20*
%TO.C,R11*%
X62740000Y-105375000D03*
X62740000Y-107025000D03*
%TD*%
D18*
%TO.C,J3*%
X152975000Y-74840000D03*
D19*
X155515000Y-74840000D03*
X152975000Y-77380000D03*
X155515000Y-77380000D03*
X152975000Y-79920000D03*
X155515000Y-79920000D03*
X152975000Y-82460000D03*
X155515000Y-82460000D03*
X152975000Y-85000000D03*
X155515000Y-85000000D03*
%TD*%
D17*
%TO.C,R13*%
X174825000Y-91500000D03*
X173175000Y-91500000D03*
%TD*%
D20*
%TO.C,R10*%
X64400000Y-105375000D03*
X64400000Y-107025000D03*
%TD*%
D21*
%TO.C,L1*%
X96750000Y-95050000D03*
X96750000Y-104950000D03*
%TD*%
D22*
%TO.C,CN1*%
X163000000Y-98500000D03*
X163000000Y-105700000D03*
D23*
X169000000Y-108850000D03*
X169000000Y-95350000D03*
%TD*%
D20*
%TO.C,R6*%
X70800000Y-105375000D03*
X70800000Y-107025000D03*
%TD*%
D24*
%TO.C,C1*%
X60300000Y-105700000D03*
X60300000Y-108200000D03*
%TD*%
D25*
%TO.C,Q1*%
X77750000Y-96690000D03*
D26*
X76250000Y-96780000D03*
D25*
X74750000Y-96690000D03*
D27*
X76250000Y-99530000D03*
%TD*%
D15*
%TO.C,R12*%
X175775000Y-82600000D03*
X177425000Y-82600000D03*
%TD*%
D11*
%TO.C,J8*%
X111075000Y-123150000D03*
D12*
X113615000Y-123150000D03*
X116155000Y-123150000D03*
%TD*%
D18*
%TO.C,J2*%
X140990000Y-74840000D03*
D19*
X143530000Y-74840000D03*
X140990000Y-77380000D03*
X143530000Y-77380000D03*
X140990000Y-79920000D03*
X143530000Y-79920000D03*
X140990000Y-82460000D03*
X143530000Y-82460000D03*
X140990000Y-85000000D03*
X143530000Y-85000000D03*
%TD*%
D28*
%TO.C,C4*%
X106250000Y-107250000D03*
X112750000Y-107250000D03*
%TD*%
D29*
%TO.C,U4*%
X155550000Y-114860000D03*
D30*
X166350000Y-117400000D03*
D29*
X155550000Y-119940000D03*
%TD*%
D20*
%TO.C,R8*%
X67600000Y-105375000D03*
X67600000Y-107025000D03*
%TD*%
D11*
%TO.C,J12*%
X61075000Y-123175000D03*
D12*
X63615000Y-123175000D03*
X66155000Y-123175000D03*
%TD*%
D20*
%TO.C,R5*%
X72400000Y-105375000D03*
X72400000Y-107025000D03*
%TD*%
D31*
%TO.C,USB1*%
X46500000Y-116540000D03*
X49000000Y-116540000D03*
X51000000Y-116550000D03*
X53500000Y-116550000D03*
D32*
X57000000Y-119260000D03*
X43000000Y-119260000D03*
%TD*%
D33*
%TO.C,C2*%
X147500000Y-101500000D03*
X147500000Y-110500000D03*
%TD*%
D11*
%TO.C,J10*%
X86075000Y-123175000D03*
D12*
X88615000Y-123175000D03*
X91155000Y-123175000D03*
%TD*%
D11*
%TO.C,J5*%
X147075000Y-123175000D03*
D12*
X149615000Y-123175000D03*
X152155000Y-123175000D03*
%TD*%
D34*
%TO.C,H3*%
X175000000Y-67500000D03*
D35*
X175000000Y-67500000D03*
%TD*%
D11*
%TO.C,J9*%
X98520000Y-123200000D03*
D12*
X101060000Y-123200000D03*
X103600000Y-123200000D03*
%TD*%
D11*
%TO.C,J7*%
X123075000Y-123200000D03*
D12*
X125615000Y-123200000D03*
X128155000Y-123200000D03*
%TD*%
D34*
%TO.C,H2*%
X34000000Y-122500000D03*
D35*
X34000000Y-122500000D03*
%TD*%
D11*
%TO.C,J11*%
X73985000Y-123175000D03*
D12*
X76525000Y-123175000D03*
X79065000Y-123175000D03*
%TD*%
D20*
%TO.C,R7*%
X69200000Y-105375000D03*
X69200000Y-107025000D03*
%TD*%
%TO.C,R9*%
X66000000Y-105375000D03*
X66000000Y-107025000D03*
%TD*%
D15*
%TO.C,R1*%
X76675000Y-93610000D03*
X78325000Y-93610000D03*
%TD*%
D36*
%TO.C,U2*%
X67000000Y-94000000D03*
X66350000Y-94000000D03*
X65700000Y-94000000D03*
X65050000Y-94000000D03*
X64400000Y-94000000D03*
X63750000Y-94000000D03*
X63100000Y-94000000D03*
X62450000Y-94000000D03*
X61800000Y-94000000D03*
X61150000Y-94000000D03*
X61150000Y-99725000D03*
X61800000Y-99725000D03*
X62450000Y-99725000D03*
X63100000Y-99725000D03*
X63750000Y-99725000D03*
X64400000Y-99725000D03*
X65050000Y-99725000D03*
X65700000Y-99725000D03*
X66350000Y-99725000D03*
X67000000Y-99725000D03*
%TD*%
D20*
%TO.C,R4*%
X74000000Y-105375000D03*
X74000000Y-107025000D03*
%TD*%
D37*
%TO.C,D2*%
X156500000Y-100500000D03*
X156500000Y-96500000D03*
%TD*%
D25*
%TO.C,Q2*%
X84500000Y-99780000D03*
D26*
X86000000Y-99690000D03*
D25*
X87500000Y-99780000D03*
D27*
X86000000Y-96940000D03*
%TD*%
D38*
%TO.C,P1*%
X46976800Y-99650359D03*
X46976800Y-111080359D03*
D39*
X53326800Y-100920359D03*
X55866800Y-102190359D03*
X53326800Y-103460359D03*
X55866800Y-104730359D03*
X53326800Y-106000359D03*
X55866800Y-107270359D03*
X53326800Y-108540359D03*
X55866800Y-109810359D03*
D24*
X41886800Y-99040359D03*
X43596800Y-101580359D03*
X41886800Y-109150359D03*
X43596800Y-111690359D03*
D40*
X50016800Y-97480359D03*
X50016800Y-113230359D03*
%TD*%
D34*
%TO.C,H1*%
X34000000Y-67500000D03*
D35*
X34000000Y-67500000D03*
%TD*%
D41*
%TO.C,Q3*%
X177600000Y-86400000D03*
X177600000Y-88300000D03*
X175100000Y-87350000D03*
%TD*%
D42*
%TO.C,C3*%
X69400000Y-99637500D03*
X69400000Y-97562500D03*
%TD*%
D18*
%TO.C,J1*%
X129005000Y-74840000D03*
D19*
X131545000Y-74840000D03*
X129005000Y-77380000D03*
X131545000Y-77380000D03*
X129005000Y-79920000D03*
X131545000Y-79920000D03*
X129005000Y-82460000D03*
X131545000Y-82460000D03*
X129005000Y-85000000D03*
X131545000Y-85000000D03*
%TD*%
D34*
%TO.C,H4*%
X175000000Y-122500000D03*
D35*
X175000000Y-122500000D03*
%TD*%
D43*
%TO.C,U1*%
X38120000Y-88296000D03*
D24*
X40660000Y-88296000D03*
X43200000Y-88296000D03*
X45740000Y-88296000D03*
X48280000Y-88296000D03*
X50820000Y-88296000D03*
X53360000Y-88296000D03*
X55900000Y-88296000D03*
X58440000Y-88296000D03*
X60980000Y-88296000D03*
X63520000Y-88296000D03*
X66060000Y-88296000D03*
X68600000Y-88296000D03*
X71140000Y-88296000D03*
X73680000Y-88296000D03*
X76220000Y-88296000D03*
X78760000Y-88296000D03*
X81300000Y-88296000D03*
X83840000Y-88296000D03*
X86380000Y-88296000D03*
X88920000Y-88296000D03*
X91460000Y-88296000D03*
X94000000Y-88296000D03*
X96540000Y-88296000D03*
X96540000Y-73056000D03*
X94000000Y-73056000D03*
X91460000Y-73056000D03*
X88920000Y-73056000D03*
X86380000Y-73056000D03*
X83840000Y-73056000D03*
X81300000Y-73056000D03*
X78760000Y-73056000D03*
X76220000Y-73056000D03*
X73680000Y-73056000D03*
X71140000Y-73056000D03*
X68600000Y-73056000D03*
X66060000Y-73056000D03*
X63520000Y-73056000D03*
X60980000Y-73056000D03*
X58440000Y-73056000D03*
X55900000Y-73056000D03*
X53360000Y-73056000D03*
X50820000Y-73056000D03*
X48280000Y-73056000D03*
X45740000Y-73056000D03*
X43200000Y-73056000D03*
X40660000Y-73056000D03*
X38120000Y-73056000D03*
X40660000Y-75596000D03*
X83840000Y-85756000D03*
X83840000Y-83216000D03*
X83840000Y-80676000D03*
X83840000Y-78136000D03*
X83840000Y-75596000D03*
D43*
X44419200Y-85245200D03*
D24*
X46959200Y-85245200D03*
X49499200Y-85245200D03*
X52039200Y-85245200D03*
X54579200Y-85245200D03*
D44*
X51090000Y-75494400D03*
D45*
X51090000Y-77494400D03*
X51090000Y-79494400D03*
X53090000Y-79494400D03*
X53090000Y-77494400D03*
X53090000Y-75494400D03*
X38850000Y-79406000D03*
X38850000Y-81946000D03*
%TD*%
M02*
