M48
; DRILL file {KiCad 8.0.3} date 2024-11-25T10:27:06+0100
; FORMAT={-:-/ absolute / inch / decimal}
; #@! TF.CreationDate,2024-11-25T10:27:06+01:00
; #@! TF.GenerationSoftware,Kicad,Pcbnew,8.0.3
; #@! TF.FileFunction,Plated,1,2,PTH
FMAT,2
INCH
; #@! TA.AperFunction,Plated,PTH,ViaDrill
T1C0.0157
; #@! TA.AperFunction,Plated,PTH,ComponentDrill
T2C0.0236
; #@! TA.AperFunction,Plated,PTH,ComponentDrill
T3C0.0315
; #@! TA.AperFunction,Plated,PTH,ComponentDrill
T4C0.0354
; #@! TA.AperFunction,Plated,PTH,ComponentDrill
T5C0.0360
; #@! TA.AperFunction,Plated,PTH,ComponentDrill
T6C0.0394
; #@! TA.AperFunction,Plated,PTH,ComponentDrill
T7C0.0394
; #@! TA.AperFunction,Plated,PTH,ComponentDrill
T8C0.0402
; #@! TA.AperFunction,Plated,PTH,ComponentDrill
T9C0.0433
; #@! TA.AperFunction,Plated,PTH,ComponentDrill
T10C0.0591
; #@! TA.AperFunction,Plated,PTH,ComponentDrill
T11C0.0669
; #@! TA.AperFunction,Plated,PTH,ComponentDrill
T12C0.0827
; #@! TA.AperFunction,Plated,PTH,ComponentDrill
T13C0.1142
; #@! TA.AperFunction,Plated,PTH,ComponentDrill
T14C0.1260
; #@! TA.AperFunction,Plated,PTH,ComponentDrill
T15C0.1280
%
G90
G05
T1
X1.6692Y-3.6936
X1.6693Y-3.6109
X1.6693Y-3.7323
X1.6693Y-3.6522
X1.8602Y-3.1594
X2.1259Y-3.7205
X2.1295Y-3.8028
X2.1309Y-3.7649
X2.1339Y-3.8425
X2.1496Y-3.2362
X2.1531Y-3.6579
X2.1772Y-3.9114
X2.2992Y-3.7392
X2.4803Y-3.0315
X2.6378Y-3.2087
X2.6772Y-5.0394
X2.7953Y-5.0394
X2.9134Y-5.0394
X2.9724Y-2.998
X3.0315Y-5.0394
X3.1458Y-3.4093
X3.1496Y-5.0394
X3.166Y-3.3488
X3.2677Y-5.0394
X3.3858Y-5.0394
X3.4055Y-4.1535
X3.5039Y-5.0394
X3.5542Y-3.3571
X3.5827Y-3.0413
X3.622Y-5.0394
X3.7401Y-3.432
X3.7402Y-5.0394
X3.8406Y-3.4067
X3.8583Y-5.0394
X3.9729Y-3.4567
X3.9764Y-5.0394
X4.0945Y-5.0394
X4.2126Y-5.0394
X4.3307Y-5.0394
X4.4488Y-2.937
X4.4488Y-5.0394
X4.5669Y-5.0394
X4.685Y-5.0394
X4.8031Y-5.0394
X4.9213Y-5.0394
X5.0394Y-5.0394
X5.0492Y-3.4154
X5.1299Y-2.8406
X5.1575Y-5.0394
X5.2047Y-4.4331
X5.2165Y-3.4252
X5.2756Y-5.0394
X5.2988Y-3.4567
X5.3937Y-5.0394
X5.432Y-3.325
X5.5118Y-5.0394
X5.6299Y-5.0394
X5.748Y-5.0394
X5.7769Y-3.3167
X5.8445Y-3.0197
X5.8661Y-5.0394
X5.9843Y-5.0394
X6.0726Y-3.5004
X6.1024Y-4.8031
X6.1024Y-4.8622
X6.1024Y-4.9213
X6.1024Y-4.9803
X6.1516Y-4.8327
X6.1516Y-4.8917
X6.1516Y-4.9508
T3
X1.5295Y-3.1262
X1.5295Y-3.2262
X2.0114Y-2.9722
X2.0114Y-3.051
X2.0114Y-3.1297
X2.0902Y-2.9722
X2.0902Y-3.051
X2.0902Y-3.1297
T4
X1.8307Y-4.5882
X1.9291Y-4.5882
X2.0079Y-4.5886
X2.1063Y-4.5886
T5
X2.0995Y-3.9732
X2.0995Y-4.0732
X2.0995Y-4.1732
X2.0995Y-4.2732
X2.1995Y-4.0232
X2.1995Y-4.1232
X2.1995Y-4.2232
X2.1995Y-4.3232
T6
X2.374Y-4.1614
X2.374Y-4.2598
T7
X2.4045Y-4.8494
X2.5045Y-4.8494
X2.6045Y-4.8494
X2.9128Y-4.8494
X3.0128Y-4.8494
X3.1128Y-4.8494
X3.3888Y-4.8494
X3.4888Y-4.8494
X3.5888Y-4.8494
X3.8787Y-4.8504
X3.9787Y-4.8504
X4.0787Y-4.8504
X4.373Y-4.8484
X4.473Y-4.8484
X4.573Y-4.8484
X4.8455Y-4.8504
X4.9455Y-4.8504
X5.0455Y-4.8504
X5.0789Y-2.9465
X5.0789Y-3.0465
X5.0789Y-3.1465
X5.0789Y-3.2465
X5.0789Y-3.3465
X5.1789Y-2.9465
X5.1789Y-3.0465
X5.1789Y-3.1465
X5.1789Y-3.2465
X5.1789Y-3.3465
X5.3148Y-4.8494
X5.4148Y-4.8494
X5.5148Y-4.8494
X5.5508Y-2.9465
X5.5508Y-3.0465
X5.5508Y-3.1465
X5.5508Y-3.2465
X5.5508Y-3.3465
X5.6508Y-2.9465
X5.6508Y-3.0465
X5.6508Y-3.1465
X5.6508Y-3.2465
X5.6508Y-3.3465
X5.7904Y-4.8494
X5.8904Y-4.8494
X5.9904Y-4.8494
X6.0226Y-2.9465
X6.0226Y-3.0465
X6.0226Y-3.1465
X6.0226Y-3.2465
X6.0226Y-3.3465
X6.1226Y-2.9465
X6.1226Y-3.0465
X6.1226Y-3.1465
X6.1226Y-3.2465
X6.1226Y-3.3465
X6.4945Y-2.9465
X6.4945Y-3.0465
X6.4945Y-3.1465
X6.4945Y-3.2465
X6.4945Y-3.3465
X6.5945Y-2.9465
X6.5945Y-3.0465
X6.5945Y-3.1465
X6.5945Y-3.2465
X6.5945Y-3.3465
T8
X1.6491Y-3.8992
X1.6491Y-4.2973
X1.7164Y-3.9992
X1.7164Y-4.3973
T9
X1.5008Y-2.8762
X1.5008Y-3.4762
X1.6008Y-2.8762
X1.6008Y-2.9762
X1.6008Y-3.4762
X1.7008Y-2.8762
X1.7008Y-3.4762
X1.7488Y-3.3561
X1.8008Y-2.8762
X1.8008Y-3.4762
X1.8488Y-3.3561
X1.9008Y-2.8762
X1.9008Y-3.4762
X1.9488Y-3.3561
X2.0008Y-2.8762
X2.0008Y-3.4762
X2.0488Y-3.3561
X2.1008Y-2.8762
X2.1008Y-3.4762
X2.1488Y-3.3561
X2.2008Y-2.8762
X2.2008Y-3.4762
X2.3008Y-2.8762
X2.3008Y-3.4762
X2.4008Y-2.8762
X2.4008Y-3.4762
X2.5008Y-2.8762
X2.5008Y-3.4762
X2.6008Y-2.8762
X2.6008Y-3.4762
X2.7008Y-2.8762
X2.7008Y-3.4762
X2.8008Y-2.8762
X2.8008Y-3.4762
X2.9008Y-2.8762
X2.9008Y-3.4762
X3.0008Y-2.8762
X3.0008Y-3.4762
X3.1008Y-2.8762
X3.1008Y-3.4762
X3.2008Y-2.8762
X3.2008Y-3.4762
X3.3008Y-2.8762
X3.3008Y-2.9762
X3.3008Y-3.0762
X3.3008Y-3.1762
X3.3008Y-3.2762
X3.3008Y-3.3762
X3.3008Y-3.4762
X3.4008Y-2.8762
X3.4008Y-3.4762
X3.5008Y-2.8762
X3.5008Y-3.4762
X3.6008Y-2.8762
X3.6008Y-3.4762
X3.7008Y-2.8762
X3.7008Y-3.4762
X3.8008Y-2.8762
X3.8008Y-3.4762
T10
X4.3484Y-3.8583
X4.8839Y-3.8583
T11
X1.9692Y-3.8378
X1.9692Y-4.4579
T12
X1.6929Y-4.6953
X2.2441Y-4.6953
T13
X6.4173Y-3.878
X6.4173Y-4.1614
T14
X1.3386Y-2.6575
X1.3386Y-4.8228
X6.8898Y-2.6575
X6.8898Y-4.8228
T15
X1.8495Y-3.9232
X1.8495Y-4.3732
T2
G00X6.6732Y-3.7539
M15
G01X6.6339Y-3.7539
M16
G05
G00X6.6732Y-4.2854
M15
G01X6.6339Y-4.2854
M16
G05
M30
