%TF.GenerationSoftware,KiCad,Pcbnew,8.0.3*%
%TF.CreationDate,2024-11-25T10:27:06+01:00*%
%TF.ProjectId,Teensy Board,5465656e-7379-4204-926f-6172642e6b69,rev?*%
%TF.SameCoordinates,Original*%
%TF.FileFunction,Soldermask,Bot*%
%TF.FilePolarity,Negative*%
%FSLAX46Y46*%
G04 Gerber Fmt 4.6, Leading zero omitted, Abs format (unit mm)*
G04 Created by KiCad (PCBNEW 8.0.3) date 2024-11-25 10:27:06*
%MOMM*%
%LPD*%
G01*
G04 APERTURE LIST*
G04 Aperture macros list*
%AMRoundRect*
0 Rectangle with rounded corners*
0 $1 Rounding radius*
0 $2 $3 $4 $5 $6 $7 $8 $9 X,Y pos of 4 corners*
0 Add a 4 corners polygon primitive as box body*
4,1,4,$2,$3,$4,$5,$6,$7,$8,$9,$2,$3,0*
0 Add four circle primitives for the rounded corners*
1,1,$1+$1,$2,$3*
1,1,$1+$1,$4,$5*
1,1,$1+$1,$6,$7*
1,1,$1+$1,$8,$9*
0 Add four rect primitives between the rounded corners*
20,1,$1+$1,$2,$3,$4,$5,0*
20,1,$1+$1,$4,$5,$6,$7,0*
20,1,$1+$1,$6,$7,$8,$9,0*
20,1,$1+$1,$8,$9,$2,$3,0*%
G04 Aperture macros list end*
%ADD10C,0.150000*%
%ADD11R,1.700000X1.700000*%
%ADD12O,1.700000X1.700000*%
%ADD13C,2.300000*%
%ADD14RoundRect,0.250000X-0.600000X-0.600000X0.600000X-0.600000X0.600000X0.600000X-0.600000X0.600000X0*%
%ADD15C,1.700000*%
%ADD16C,3.800000*%
%ADD17O,2.200000X1.200000*%
%ADD18C,1.600000*%
%ADD19C,1.500000*%
%ADD20C,3.100000*%
%ADD21C,3.600000*%
%ADD22C,3.250000*%
%ADD23C,1.520000*%
%ADD24C,2.500000*%
%ADD25R,1.600000X1.600000*%
%ADD26R,1.300000X1.300000*%
%ADD27C,1.300000*%
G04 APERTURE END LIST*
D10*
X155940180Y-117933430D02*
X156192879Y-118001141D01*
X156434577Y-118101255D01*
X156661140Y-118232061D01*
X156868692Y-118391321D01*
X157053679Y-118576308D01*
X157212939Y-118783860D01*
X157343745Y-119010423D01*
X157443859Y-119252121D01*
X157511570Y-119504820D01*
X157545718Y-119764194D01*
X157545718Y-120025807D01*
X157511570Y-120285181D01*
X157443859Y-120537879D01*
X157343745Y-120779577D01*
X157212939Y-121006141D01*
X157053679Y-121213692D01*
X157346399Y-122675299D01*
X157250000Y-126750000D01*
X155750000Y-127750000D01*
X155561571Y-128145181D01*
X155493860Y-128397879D01*
X155393745Y-128639577D01*
X155262939Y-128866140D01*
X155103680Y-129073692D01*
X154918692Y-129258680D01*
X154711140Y-129417939D01*
X154484577Y-129548745D01*
X154242879Y-129648860D01*
X153990181Y-129716571D01*
X153730806Y-129750718D01*
X140200000Y-129755000D01*
X140072078Y-129750812D01*
X128600000Y-129755000D01*
X128471940Y-129750807D01*
X116400000Y-129755000D01*
X116271774Y-129750802D01*
X103400000Y-129755000D01*
X103271813Y-129750803D01*
X90600000Y-129755000D01*
X90472179Y-129750815D01*
X79400000Y-129755000D01*
X79271836Y-129750804D01*
X66710000Y-129755000D01*
X66579225Y-129750719D01*
X66579194Y-129750719D01*
X66449506Y-129733644D01*
X66319819Y-129716571D01*
X66067121Y-129648860D01*
X65825423Y-129548745D01*
X65598860Y-129417940D01*
X65391308Y-129258680D01*
X64940786Y-128814214D01*
X64851320Y-128718692D01*
X64692060Y-128511141D01*
X64561255Y-128284577D01*
X64461140Y-128042879D01*
X64393430Y-127790181D01*
X64359282Y-127530806D01*
X64359282Y-127269194D01*
X64393430Y-127009819D01*
X64461140Y-126757121D01*
X64561255Y-126515423D01*
X64692060Y-126288859D01*
X64851320Y-126081308D01*
X65036308Y-125896320D01*
X65243859Y-125737060D01*
X65357970Y-125671178D01*
X65355000Y-122730000D01*
X65359815Y-122631983D01*
X65398060Y-122439715D01*
X65473079Y-122258603D01*
X65581990Y-122095607D01*
X65720607Y-121956990D01*
X65883603Y-121848079D01*
X66064715Y-121773060D01*
X66256983Y-121734815D01*
X66453017Y-121734815D01*
X66645285Y-121773060D01*
X66826397Y-121848079D01*
X66989393Y-121956990D01*
X67128010Y-122095607D01*
X67236921Y-122258603D01*
X67311940Y-122439715D01*
X67350185Y-122631983D01*
X67353254Y-125671886D01*
X67466141Y-125737060D01*
X67494702Y-125758976D01*
X78067880Y-125755444D01*
X78065000Y-123130000D01*
X78069815Y-123031983D01*
X78108060Y-122839715D01*
X78183079Y-122658603D01*
X78291990Y-122495607D01*
X78430607Y-122356990D01*
X78593603Y-122248079D01*
X78774715Y-122173060D01*
X78966983Y-122134815D01*
X79163017Y-122134815D01*
X79355285Y-122173060D01*
X79536397Y-122248079D01*
X79699393Y-122356990D01*
X79838010Y-122495607D01*
X79946921Y-122658603D01*
X80021940Y-122839715D01*
X80060185Y-123031983D01*
X80063177Y-125758981D01*
X90358098Y-125755091D01*
X90355504Y-123724756D01*
X90273079Y-123601396D01*
X90198060Y-123420284D01*
X90159816Y-123228017D01*
X90159816Y-123031983D01*
X90198060Y-122839716D01*
X90273079Y-122658604D01*
X90381989Y-122495606D01*
X90520606Y-122356989D01*
X90683604Y-122248079D01*
X90864716Y-122173060D01*
X91056983Y-122134816D01*
X91253017Y-122134816D01*
X91445284Y-122173060D01*
X91626396Y-122248079D01*
X91789394Y-122356989D01*
X92062107Y-122622893D01*
X92128011Y-122695607D01*
X92150991Y-122730000D01*
X92236921Y-122858603D01*
X92266495Y-122930000D01*
X92311941Y-123039716D01*
X92324926Y-123105000D01*
X92350185Y-123231983D01*
X92353413Y-125758658D01*
X102602783Y-125755263D01*
X102600000Y-123155000D01*
X102604815Y-123056983D01*
X102643060Y-122864715D01*
X102718079Y-122683603D01*
X102826990Y-122520607D01*
X102965607Y-122381990D01*
X103128603Y-122273079D01*
X103309715Y-122198060D01*
X103501983Y-122159815D01*
X103698017Y-122159815D01*
X103890285Y-122198060D01*
X104071397Y-122273079D01*
X104234393Y-122381990D01*
X104373010Y-122520607D01*
X104481921Y-122683603D01*
X104556940Y-122864715D01*
X104595185Y-123056983D01*
X104598077Y-125758848D01*
X115157834Y-125755405D01*
X115155000Y-123105000D01*
X115159815Y-123006983D01*
X115198060Y-122814715D01*
X115273079Y-122633603D01*
X115381990Y-122470607D01*
X115520607Y-122331990D01*
X115683603Y-122223079D01*
X115864715Y-122148060D01*
X116056983Y-122109815D01*
X116253017Y-122109815D01*
X116445285Y-122148060D01*
X116626397Y-122223079D01*
X116789393Y-122331990D01*
X116928010Y-122470607D01*
X117036921Y-122633603D01*
X117111940Y-122814715D01*
X117150185Y-123006983D01*
X117153127Y-125758975D01*
X127157944Y-125755500D01*
X127155000Y-123155000D01*
X127159815Y-123056983D01*
X127198060Y-122864715D01*
X127273079Y-122683603D01*
X127381990Y-122520607D01*
X127520607Y-122381990D01*
X127683603Y-122273079D01*
X127864715Y-122198060D01*
X128056983Y-122159815D01*
X128253017Y-122159815D01*
X128445285Y-122198060D01*
X128626397Y-122273079D01*
X128789393Y-122381990D01*
X128928010Y-122520607D01*
X129036921Y-122683603D01*
X129111940Y-122864715D01*
X129150185Y-123056983D01*
X129153244Y-125759032D01*
X139077835Y-125755409D01*
X139075000Y-122930000D01*
X139079815Y-122831983D01*
X139118060Y-122639715D01*
X139193079Y-122458603D01*
X139301990Y-122295607D01*
X139440607Y-122156990D01*
X139603603Y-122048079D01*
X139784715Y-121973060D01*
X139976983Y-121934815D01*
X140173017Y-121934815D01*
X140365285Y-121973060D01*
X140546397Y-122048079D01*
X140709393Y-122156990D01*
X140848010Y-122295607D01*
X140956921Y-122458603D01*
X141031940Y-122639715D01*
X141070185Y-122831983D01*
X141073122Y-125758964D01*
X151602772Y-125755632D01*
X151600000Y-121845000D01*
X151604282Y-121714194D01*
X151638429Y-121454819D01*
X151706140Y-121202121D01*
X151806255Y-120960423D01*
X151937060Y-120733859D01*
X152096320Y-120526308D01*
X154135786Y-118480787D01*
X154231308Y-118391321D01*
X154438859Y-118232061D01*
X154665423Y-118101255D01*
X154907121Y-118001141D01*
X155159819Y-117933430D01*
X155419193Y-117899282D01*
X155680806Y-117899282D01*
X155940180Y-117933430D01*
G36*
X155940180Y-117933430D02*
G01*
X156192879Y-118001141D01*
X156434577Y-118101255D01*
X156661140Y-118232061D01*
X156868692Y-118391321D01*
X157053679Y-118576308D01*
X157212939Y-118783860D01*
X157343745Y-119010423D01*
X157443859Y-119252121D01*
X157511570Y-119504820D01*
X157545718Y-119764194D01*
X157545718Y-120025807D01*
X157511570Y-120285181D01*
X157443859Y-120537879D01*
X157343745Y-120779577D01*
X157212939Y-121006141D01*
X157053679Y-121213692D01*
X157346399Y-122675299D01*
X157250000Y-126750000D01*
X155750000Y-127750000D01*
X155561571Y-128145181D01*
X155493860Y-128397879D01*
X155393745Y-128639577D01*
X155262939Y-128866140D01*
X155103680Y-129073692D01*
X154918692Y-129258680D01*
X154711140Y-129417939D01*
X154484577Y-129548745D01*
X154242879Y-129648860D01*
X153990181Y-129716571D01*
X153730806Y-129750718D01*
X140200000Y-129755000D01*
X140072078Y-129750812D01*
X128600000Y-129755000D01*
X128471940Y-129750807D01*
X116400000Y-129755000D01*
X116271774Y-129750802D01*
X103400000Y-129755000D01*
X103271813Y-129750803D01*
X90600000Y-129755000D01*
X90472179Y-129750815D01*
X79400000Y-129755000D01*
X79271836Y-129750804D01*
X66710000Y-129755000D01*
X66579225Y-129750719D01*
X66579194Y-129750719D01*
X66449506Y-129733644D01*
X66319819Y-129716571D01*
X66067121Y-129648860D01*
X65825423Y-129548745D01*
X65598860Y-129417940D01*
X65391308Y-129258680D01*
X64940786Y-128814214D01*
X64851320Y-128718692D01*
X64692060Y-128511141D01*
X64561255Y-128284577D01*
X64461140Y-128042879D01*
X64393430Y-127790181D01*
X64359282Y-127530806D01*
X64359282Y-127269194D01*
X64393430Y-127009819D01*
X64461140Y-126757121D01*
X64561255Y-126515423D01*
X64692060Y-126288859D01*
X64851320Y-126081308D01*
X65036308Y-125896320D01*
X65243859Y-125737060D01*
X65357970Y-125671178D01*
X65355000Y-122730000D01*
X65359815Y-122631983D01*
X65398060Y-122439715D01*
X65473079Y-122258603D01*
X65581990Y-122095607D01*
X65720607Y-121956990D01*
X65883603Y-121848079D01*
X66064715Y-121773060D01*
X66256983Y-121734815D01*
X66453017Y-121734815D01*
X66645285Y-121773060D01*
X66826397Y-121848079D01*
X66989393Y-121956990D01*
X67128010Y-122095607D01*
X67236921Y-122258603D01*
X67311940Y-122439715D01*
X67350185Y-122631983D01*
X67353254Y-125671886D01*
X67466141Y-125737060D01*
X67494702Y-125758976D01*
X78067880Y-125755444D01*
X78065000Y-123130000D01*
X78069815Y-123031983D01*
X78108060Y-122839715D01*
X78183079Y-122658603D01*
X78291990Y-122495607D01*
X78430607Y-122356990D01*
X78593603Y-122248079D01*
X78774715Y-122173060D01*
X78966983Y-122134815D01*
X79163017Y-122134815D01*
X79355285Y-122173060D01*
X79536397Y-122248079D01*
X79699393Y-122356990D01*
X79838010Y-122495607D01*
X79946921Y-122658603D01*
X80021940Y-122839715D01*
X80060185Y-123031983D01*
X80063177Y-125758981D01*
X90358098Y-125755091D01*
X90355504Y-123724756D01*
X90273079Y-123601396D01*
X90198060Y-123420284D01*
X90159816Y-123228017D01*
X90159816Y-123031983D01*
X90198060Y-122839716D01*
X90273079Y-122658604D01*
X90381989Y-122495606D01*
X90520606Y-122356989D01*
X90683604Y-122248079D01*
X90864716Y-122173060D01*
X91056983Y-122134816D01*
X91253017Y-122134816D01*
X91445284Y-122173060D01*
X91626396Y-122248079D01*
X91789394Y-122356989D01*
X92062107Y-122622893D01*
X92128011Y-122695607D01*
X92150991Y-122730000D01*
X92236921Y-122858603D01*
X92266495Y-122930000D01*
X92311941Y-123039716D01*
X92324926Y-123105000D01*
X92350185Y-123231983D01*
X92353413Y-125758658D01*
X102602783Y-125755263D01*
X102600000Y-123155000D01*
X102604815Y-123056983D01*
X102643060Y-122864715D01*
X102718079Y-122683603D01*
X102826990Y-122520607D01*
X102965607Y-122381990D01*
X103128603Y-122273079D01*
X103309715Y-122198060D01*
X103501983Y-122159815D01*
X103698017Y-122159815D01*
X103890285Y-122198060D01*
X104071397Y-122273079D01*
X104234393Y-122381990D01*
X104373010Y-122520607D01*
X104481921Y-122683603D01*
X104556940Y-122864715D01*
X104595185Y-123056983D01*
X104598077Y-125758848D01*
X115157834Y-125755405D01*
X115155000Y-123105000D01*
X115159815Y-123006983D01*
X115198060Y-122814715D01*
X115273079Y-122633603D01*
X115381990Y-122470607D01*
X115520607Y-122331990D01*
X115683603Y-122223079D01*
X115864715Y-122148060D01*
X116056983Y-122109815D01*
X116253017Y-122109815D01*
X116445285Y-122148060D01*
X116626397Y-122223079D01*
X116789393Y-122331990D01*
X116928010Y-122470607D01*
X117036921Y-122633603D01*
X117111940Y-122814715D01*
X117150185Y-123006983D01*
X117153127Y-125758975D01*
X127157944Y-125755500D01*
X127155000Y-123155000D01*
X127159815Y-123056983D01*
X127198060Y-122864715D01*
X127273079Y-122683603D01*
X127381990Y-122520607D01*
X127520607Y-122381990D01*
X127683603Y-122273079D01*
X127864715Y-122198060D01*
X128056983Y-122159815D01*
X128253017Y-122159815D01*
X128445285Y-122198060D01*
X128626397Y-122273079D01*
X128789393Y-122381990D01*
X128928010Y-122520607D01*
X129036921Y-122683603D01*
X129111940Y-122864715D01*
X129150185Y-123056983D01*
X129153244Y-125759032D01*
X139077835Y-125755409D01*
X139075000Y-122930000D01*
X139079815Y-122831983D01*
X139118060Y-122639715D01*
X139193079Y-122458603D01*
X139301990Y-122295607D01*
X139440607Y-122156990D01*
X139603603Y-122048079D01*
X139784715Y-121973060D01*
X139976983Y-121934815D01*
X140173017Y-121934815D01*
X140365285Y-121973060D01*
X140546397Y-122048079D01*
X140709393Y-122156990D01*
X140848010Y-122295607D01*
X140956921Y-122458603D01*
X141031940Y-122639715D01*
X141070185Y-122831983D01*
X141073122Y-125758964D01*
X151602772Y-125755632D01*
X151600000Y-121845000D01*
X151604282Y-121714194D01*
X151638429Y-121454819D01*
X151706140Y-121202121D01*
X151806255Y-120960423D01*
X151937060Y-120733859D01*
X152096320Y-120526308D01*
X154135786Y-118480787D01*
X154231308Y-118391321D01*
X154438859Y-118232061D01*
X154665423Y-118101255D01*
X154907121Y-118001141D01*
X155159819Y-117933430D01*
X155419193Y-117899282D01*
X155680806Y-117899282D01*
X155940180Y-117933430D01*
G37*
D11*
%TO.C,J6*%
X134995000Y-123175000D03*
D12*
X137535000Y-123175000D03*
X140075000Y-123175000D03*
%TD*%
D13*
%TO.C,D1*%
X110450000Y-98000000D03*
X124050000Y-98000000D03*
%TD*%
D14*
%TO.C,J4*%
X164960000Y-74840000D03*
D15*
X167500000Y-74840000D03*
X164960000Y-77380000D03*
X167500000Y-77380000D03*
X164960000Y-79920000D03*
X167500000Y-79920000D03*
X164960000Y-82460000D03*
X167500000Y-82460000D03*
X164960000Y-85000000D03*
X167500000Y-85000000D03*
%TD*%
D14*
%TO.C,J3*%
X152975000Y-74840000D03*
D15*
X155515000Y-74840000D03*
X152975000Y-77380000D03*
X155515000Y-77380000D03*
X152975000Y-79920000D03*
X155515000Y-79920000D03*
X152975000Y-82460000D03*
X155515000Y-82460000D03*
X152975000Y-85000000D03*
X155515000Y-85000000D03*
%TD*%
D16*
%TO.C,CN1*%
X163000000Y-98500000D03*
X163000000Y-105700000D03*
D17*
X169000000Y-108850000D03*
X169000000Y-95350000D03*
%TD*%
D18*
%TO.C,C1*%
X60300000Y-105700000D03*
X60300000Y-108200000D03*
%TD*%
D11*
%TO.C,J8*%
X111075000Y-123150000D03*
D12*
X113615000Y-123150000D03*
X116155000Y-123150000D03*
%TD*%
D14*
%TO.C,J2*%
X140990000Y-74840000D03*
D15*
X143530000Y-74840000D03*
X140990000Y-77380000D03*
X143530000Y-77380000D03*
X140990000Y-79920000D03*
X143530000Y-79920000D03*
X140990000Y-82460000D03*
X143530000Y-82460000D03*
X140990000Y-85000000D03*
X143530000Y-85000000D03*
%TD*%
D11*
%TO.C,J12*%
X61075000Y-123175000D03*
D12*
X63615000Y-123175000D03*
X66155000Y-123175000D03*
%TD*%
D19*
%TO.C,USB1*%
X46500000Y-116540000D03*
X49000000Y-116540000D03*
X51000000Y-116550000D03*
X53500000Y-116550000D03*
D20*
X57000000Y-119260000D03*
X43000000Y-119260000D03*
%TD*%
D11*
%TO.C,J10*%
X86075000Y-123175000D03*
D12*
X88615000Y-123175000D03*
X91155000Y-123175000D03*
%TD*%
D11*
%TO.C,J5*%
X147075000Y-123175000D03*
D12*
X149615000Y-123175000D03*
X152155000Y-123175000D03*
%TD*%
D21*
%TO.C,H3*%
X175000000Y-67500000D03*
%TD*%
D11*
%TO.C,J9*%
X98520000Y-123200000D03*
D12*
X101060000Y-123200000D03*
X103600000Y-123200000D03*
%TD*%
D11*
%TO.C,J7*%
X123075000Y-123200000D03*
D12*
X125615000Y-123200000D03*
X128155000Y-123200000D03*
%TD*%
D21*
%TO.C,H2*%
X34000000Y-122500000D03*
%TD*%
D11*
%TO.C,J11*%
X73985000Y-123175000D03*
D12*
X76525000Y-123175000D03*
X79065000Y-123175000D03*
%TD*%
D22*
%TO.C,P1*%
X46976800Y-99650359D03*
X46976800Y-111080359D03*
D23*
X53326800Y-100920359D03*
X55866800Y-102190359D03*
X53326800Y-103460359D03*
X55866800Y-104730359D03*
X53326800Y-106000359D03*
X55866800Y-107270359D03*
X53326800Y-108540359D03*
X55866800Y-109810359D03*
D18*
X41886800Y-99040359D03*
X43596800Y-101580359D03*
X41886800Y-109150359D03*
X43596800Y-111690359D03*
D24*
X50016800Y-97480359D03*
X50016800Y-113230359D03*
%TD*%
D21*
%TO.C,H1*%
X34000000Y-67500000D03*
%TD*%
D14*
%TO.C,J1*%
X129005000Y-74840000D03*
D15*
X131545000Y-74840000D03*
X129005000Y-77380000D03*
X131545000Y-77380000D03*
X129005000Y-79920000D03*
X131545000Y-79920000D03*
X129005000Y-82460000D03*
X131545000Y-82460000D03*
X129005000Y-85000000D03*
X131545000Y-85000000D03*
%TD*%
D21*
%TO.C,H4*%
X175000000Y-122500000D03*
%TD*%
D25*
%TO.C,U1*%
X38120000Y-88296000D03*
D18*
X40660000Y-88296000D03*
X43200000Y-88296000D03*
X45740000Y-88296000D03*
X48280000Y-88296000D03*
X50820000Y-88296000D03*
X53360000Y-88296000D03*
X55900000Y-88296000D03*
X58440000Y-88296000D03*
X60980000Y-88296000D03*
X63520000Y-88296000D03*
X66060000Y-88296000D03*
X68600000Y-88296000D03*
X71140000Y-88296000D03*
X73680000Y-88296000D03*
X76220000Y-88296000D03*
X78760000Y-88296000D03*
X81300000Y-88296000D03*
X83840000Y-88296000D03*
X86380000Y-88296000D03*
X88920000Y-88296000D03*
X91460000Y-88296000D03*
X94000000Y-88296000D03*
X96540000Y-88296000D03*
X96540000Y-73056000D03*
X94000000Y-73056000D03*
X91460000Y-73056000D03*
X88920000Y-73056000D03*
X86380000Y-73056000D03*
X83840000Y-73056000D03*
X81300000Y-73056000D03*
X78760000Y-73056000D03*
X76220000Y-73056000D03*
X73680000Y-73056000D03*
X71140000Y-73056000D03*
X68600000Y-73056000D03*
X66060000Y-73056000D03*
X63520000Y-73056000D03*
X60980000Y-73056000D03*
X58440000Y-73056000D03*
X55900000Y-73056000D03*
X53360000Y-73056000D03*
X50820000Y-73056000D03*
X48280000Y-73056000D03*
X45740000Y-73056000D03*
X43200000Y-73056000D03*
X40660000Y-73056000D03*
X38120000Y-73056000D03*
X40660000Y-75596000D03*
X83840000Y-85756000D03*
X83840000Y-83216000D03*
X83840000Y-80676000D03*
X83840000Y-78136000D03*
X83840000Y-75596000D03*
D25*
X44419200Y-85245200D03*
D18*
X46959200Y-85245200D03*
X49499200Y-85245200D03*
X52039200Y-85245200D03*
X54579200Y-85245200D03*
D26*
X51090000Y-75494400D03*
D27*
X51090000Y-77494400D03*
X51090000Y-79494400D03*
X53090000Y-79494400D03*
X53090000Y-77494400D03*
X53090000Y-75494400D03*
X38850000Y-79406000D03*
X38850000Y-81946000D03*
%TD*%
M02*
