%TF.GenerationSoftware,KiCad,Pcbnew,8.0.3*%
%TF.CreationDate,2024-11-25T10:27:06+01:00*%
%TF.ProjectId,Teensy Board,5465656e-7379-4204-926f-6172642e6b69,rev?*%
%TF.SameCoordinates,Original*%
%TF.FileFunction,Legend,Top*%
%TF.FilePolarity,Positive*%
%FSLAX46Y46*%
G04 Gerber Fmt 4.6, Leading zero omitted, Abs format (unit mm)*
G04 Created by KiCad (PCBNEW 8.0.3) date 2024-11-25 10:27:06*
%MOMM*%
%LPD*%
G01*
G04 APERTURE LIST*
G04 Aperture macros list*
%AMRoundRect*
0 Rectangle with rounded corners*
0 $1 Rounding radius*
0 $2 $3 $4 $5 $6 $7 $8 $9 X,Y pos of 4 corners*
0 Add a 4 corners polygon primitive as box body*
4,1,4,$2,$3,$4,$5,$6,$7,$8,$9,$2,$3,0*
0 Add four circle primitives for the rounded corners*
1,1,$1+$1,$2,$3*
1,1,$1+$1,$4,$5*
1,1,$1+$1,$6,$7*
1,1,$1+$1,$8,$9*
0 Add four rect primitives between the rounded corners*
20,1,$1+$1,$2,$3,$4,$5,0*
20,1,$1+$1,$4,$5,$6,$7,0*
20,1,$1+$1,$6,$7,$8,$9,0*
20,1,$1+$1,$8,$9,$2,$3,0*%
G04 Aperture macros list end*
%ADD10C,0.150000*%
%ADD11C,0.120000*%
%ADD12C,0.000000*%
%ADD13C,0.250000*%
%ADD14C,0.200000*%
%ADD15C,0.100000*%
%ADD16R,1.700000X1.700000*%
%ADD17O,1.700000X1.700000*%
%ADD18RoundRect,0.250000X0.300000X-2.050000X0.300000X2.050000X-0.300000X2.050000X-0.300000X-2.050000X0*%
%ADD19RoundRect,0.250002X5.149998X-4.449998X5.149998X4.449998X-5.149998X4.449998X-5.149998X-4.449998X0*%
%ADD20RoundRect,0.200000X-0.200000X-0.275000X0.200000X-0.275000X0.200000X0.275000X-0.200000X0.275000X0*%
%ADD21C,2.300000*%
%ADD22RoundRect,0.200000X0.200000X0.275000X-0.200000X0.275000X-0.200000X-0.275000X0.200000X-0.275000X0*%
%ADD23RoundRect,0.250000X-0.600000X-0.600000X0.600000X-0.600000X0.600000X0.600000X-0.600000X0.600000X0*%
%ADD24C,1.700000*%
%ADD25RoundRect,0.200000X-0.275000X0.200000X-0.275000X-0.200000X0.275000X-0.200000X0.275000X0.200000X0*%
%ADD26R,5.400000X2.900000*%
%ADD27C,3.800000*%
%ADD28O,2.200000X1.200000*%
%ADD29C,1.600000*%
%ADD30O,0.700000X1.900000*%
%ADD31O,0.700000X2.100000*%
%ADD32O,2.000000X2.800000*%
%ADD33RoundRect,0.250000X-1.500000X-1.000000X1.500000X-1.000000X1.500000X1.000000X-1.500000X1.000000X0*%
%ADD34R,3.800000X1.400000*%
%ADD35R,8.800000X10.700000*%
%ADD36C,1.500000*%
%ADD37C,3.100000*%
%ADD38R,1.650000X4.500000*%
%ADD39C,3.600000*%
%ADD40C,5.600000*%
%ADD41RoundRect,0.100000X-0.100000X0.637500X-0.100000X-0.637500X0.100000X-0.637500X0.100000X0.637500X0*%
%ADD42RoundRect,0.250000X0.650000X-1.000000X0.650000X1.000000X-0.650000X1.000000X-0.650000X-1.000000X0*%
%ADD43C,3.250000*%
%ADD44C,1.520000*%
%ADD45C,2.500000*%
%ADD46R,1.250000X0.700000*%
%ADD47RoundRect,0.250000X0.475000X-0.337500X0.475000X0.337500X-0.475000X0.337500X-0.475000X-0.337500X0*%
%ADD48R,1.600000X1.600000*%
%ADD49R,1.300000X1.300000*%
%ADD50C,1.300000*%
G04 APERTURE END LIST*
D10*
X103178570Y-76039987D02*
X103749998Y-76039987D01*
X103464284Y-77039987D02*
X103464284Y-76039987D01*
X104464284Y-76992368D02*
X104369046Y-77039987D01*
X104369046Y-77039987D02*
X104178570Y-77039987D01*
X104178570Y-77039987D02*
X104083332Y-76992368D01*
X104083332Y-76992368D02*
X104035713Y-76897129D01*
X104035713Y-76897129D02*
X104035713Y-76516177D01*
X104035713Y-76516177D02*
X104083332Y-76420939D01*
X104083332Y-76420939D02*
X104178570Y-76373320D01*
X104178570Y-76373320D02*
X104369046Y-76373320D01*
X104369046Y-76373320D02*
X104464284Y-76420939D01*
X104464284Y-76420939D02*
X104511903Y-76516177D01*
X104511903Y-76516177D02*
X104511903Y-76611415D01*
X104511903Y-76611415D02*
X104035713Y-76706653D01*
X105321427Y-76992368D02*
X105226189Y-77039987D01*
X105226189Y-77039987D02*
X105035713Y-77039987D01*
X105035713Y-77039987D02*
X104940475Y-76992368D01*
X104940475Y-76992368D02*
X104892856Y-76897129D01*
X104892856Y-76897129D02*
X104892856Y-76516177D01*
X104892856Y-76516177D02*
X104940475Y-76420939D01*
X104940475Y-76420939D02*
X105035713Y-76373320D01*
X105035713Y-76373320D02*
X105226189Y-76373320D01*
X105226189Y-76373320D02*
X105321427Y-76420939D01*
X105321427Y-76420939D02*
X105369046Y-76516177D01*
X105369046Y-76516177D02*
X105369046Y-76611415D01*
X105369046Y-76611415D02*
X104892856Y-76706653D01*
X105797618Y-76373320D02*
X105797618Y-77039987D01*
X105797618Y-76468558D02*
X105845237Y-76420939D01*
X105845237Y-76420939D02*
X105940475Y-76373320D01*
X105940475Y-76373320D02*
X106083332Y-76373320D01*
X106083332Y-76373320D02*
X106178570Y-76420939D01*
X106178570Y-76420939D02*
X106226189Y-76516177D01*
X106226189Y-76516177D02*
X106226189Y-77039987D01*
X106654761Y-76992368D02*
X106749999Y-77039987D01*
X106749999Y-77039987D02*
X106940475Y-77039987D01*
X106940475Y-77039987D02*
X107035713Y-76992368D01*
X107035713Y-76992368D02*
X107083332Y-76897129D01*
X107083332Y-76897129D02*
X107083332Y-76849510D01*
X107083332Y-76849510D02*
X107035713Y-76754272D01*
X107035713Y-76754272D02*
X106940475Y-76706653D01*
X106940475Y-76706653D02*
X106797618Y-76706653D01*
X106797618Y-76706653D02*
X106702380Y-76659034D01*
X106702380Y-76659034D02*
X106654761Y-76563796D01*
X106654761Y-76563796D02*
X106654761Y-76516177D01*
X106654761Y-76516177D02*
X106702380Y-76420939D01*
X106702380Y-76420939D02*
X106797618Y-76373320D01*
X106797618Y-76373320D02*
X106940475Y-76373320D01*
X106940475Y-76373320D02*
X107035713Y-76420939D01*
X107416666Y-76373320D02*
X107654761Y-77039987D01*
X107892856Y-76373320D02*
X107654761Y-77039987D01*
X107654761Y-77039987D02*
X107559523Y-77278082D01*
X107559523Y-77278082D02*
X107511904Y-77325701D01*
X107511904Y-77325701D02*
X107416666Y-77373320D01*
X108892857Y-76373320D02*
X109273809Y-76373320D01*
X109035714Y-76039987D02*
X109035714Y-76897129D01*
X109035714Y-76897129D02*
X109083333Y-76992368D01*
X109083333Y-76992368D02*
X109178571Y-77039987D01*
X109178571Y-77039987D02*
X109273809Y-77039987D01*
X109750000Y-77039987D02*
X109654762Y-76992368D01*
X109654762Y-76992368D02*
X109607143Y-76944748D01*
X109607143Y-76944748D02*
X109559524Y-76849510D01*
X109559524Y-76849510D02*
X109559524Y-76563796D01*
X109559524Y-76563796D02*
X109607143Y-76468558D01*
X109607143Y-76468558D02*
X109654762Y-76420939D01*
X109654762Y-76420939D02*
X109750000Y-76373320D01*
X109750000Y-76373320D02*
X109892857Y-76373320D01*
X109892857Y-76373320D02*
X109988095Y-76420939D01*
X109988095Y-76420939D02*
X110035714Y-76468558D01*
X110035714Y-76468558D02*
X110083333Y-76563796D01*
X110083333Y-76563796D02*
X110083333Y-76849510D01*
X110083333Y-76849510D02*
X110035714Y-76944748D01*
X110035714Y-76944748D02*
X109988095Y-76992368D01*
X109988095Y-76992368D02*
X109892857Y-77039987D01*
X109892857Y-77039987D02*
X109750000Y-77039987D01*
X111702381Y-76373320D02*
X111702381Y-77039987D01*
X111464286Y-75992368D02*
X111226191Y-76706653D01*
X111226191Y-76706653D02*
X111845238Y-76706653D01*
X112416667Y-76039987D02*
X112511905Y-76039987D01*
X112511905Y-76039987D02*
X112607143Y-76087606D01*
X112607143Y-76087606D02*
X112654762Y-76135225D01*
X112654762Y-76135225D02*
X112702381Y-76230463D01*
X112702381Y-76230463D02*
X112750000Y-76420939D01*
X112750000Y-76420939D02*
X112750000Y-76659034D01*
X112750000Y-76659034D02*
X112702381Y-76849510D01*
X112702381Y-76849510D02*
X112654762Y-76944748D01*
X112654762Y-76944748D02*
X112607143Y-76992368D01*
X112607143Y-76992368D02*
X112511905Y-77039987D01*
X112511905Y-77039987D02*
X112416667Y-77039987D01*
X112416667Y-77039987D02*
X112321429Y-76992368D01*
X112321429Y-76992368D02*
X112273810Y-76944748D01*
X112273810Y-76944748D02*
X112226191Y-76849510D01*
X112226191Y-76849510D02*
X112178572Y-76659034D01*
X112178572Y-76659034D02*
X112178572Y-76420939D01*
X112178572Y-76420939D02*
X112226191Y-76230463D01*
X112226191Y-76230463D02*
X112273810Y-76135225D01*
X112273810Y-76135225D02*
X112321429Y-76087606D01*
X112321429Y-76087606D02*
X112416667Y-76039987D01*
X113892858Y-76992368D02*
X113988096Y-77039987D01*
X113988096Y-77039987D02*
X114178572Y-77039987D01*
X114178572Y-77039987D02*
X114273810Y-76992368D01*
X114273810Y-76992368D02*
X114321429Y-76897129D01*
X114321429Y-76897129D02*
X114321429Y-76849510D01*
X114321429Y-76849510D02*
X114273810Y-76754272D01*
X114273810Y-76754272D02*
X114178572Y-76706653D01*
X114178572Y-76706653D02*
X114035715Y-76706653D01*
X114035715Y-76706653D02*
X113940477Y-76659034D01*
X113940477Y-76659034D02*
X113892858Y-76563796D01*
X113892858Y-76563796D02*
X113892858Y-76516177D01*
X113892858Y-76516177D02*
X113940477Y-76420939D01*
X113940477Y-76420939D02*
X114035715Y-76373320D01*
X114035715Y-76373320D02*
X114178572Y-76373320D01*
X114178572Y-76373320D02*
X114273810Y-76420939D01*
X114607144Y-76373320D02*
X114988096Y-76373320D01*
X114750001Y-76039987D02*
X114750001Y-76897129D01*
X114750001Y-76897129D02*
X114797620Y-76992368D01*
X114797620Y-76992368D02*
X114892858Y-77039987D01*
X114892858Y-77039987D02*
X114988096Y-77039987D01*
X115321430Y-77039987D02*
X115321430Y-76373320D01*
X115321430Y-76563796D02*
X115369049Y-76468558D01*
X115369049Y-76468558D02*
X115416668Y-76420939D01*
X115416668Y-76420939D02*
X115511906Y-76373320D01*
X115511906Y-76373320D02*
X115607144Y-76373320D01*
X115940478Y-77039987D02*
X115940478Y-76373320D01*
X115940478Y-76039987D02*
X115892859Y-76087606D01*
X115892859Y-76087606D02*
X115940478Y-76135225D01*
X115940478Y-76135225D02*
X115988097Y-76087606D01*
X115988097Y-76087606D02*
X115940478Y-76039987D01*
X115940478Y-76039987D02*
X115940478Y-76135225D01*
X116416668Y-76373320D02*
X116416668Y-77373320D01*
X116416668Y-76420939D02*
X116511906Y-76373320D01*
X116511906Y-76373320D02*
X116702382Y-76373320D01*
X116702382Y-76373320D02*
X116797620Y-76420939D01*
X116797620Y-76420939D02*
X116845239Y-76468558D01*
X116845239Y-76468558D02*
X116892858Y-76563796D01*
X116892858Y-76563796D02*
X116892858Y-76849510D01*
X116892858Y-76849510D02*
X116845239Y-76944748D01*
X116845239Y-76944748D02*
X116797620Y-76992368D01*
X116797620Y-76992368D02*
X116702382Y-77039987D01*
X116702382Y-77039987D02*
X116511906Y-77039987D01*
X116511906Y-77039987D02*
X116416668Y-76992368D01*
X118559525Y-77039987D02*
X118083335Y-77039987D01*
X118083335Y-77039987D02*
X118083335Y-76039987D01*
X119273811Y-76992368D02*
X119178573Y-77039987D01*
X119178573Y-77039987D02*
X118988097Y-77039987D01*
X118988097Y-77039987D02*
X118892859Y-76992368D01*
X118892859Y-76992368D02*
X118845240Y-76897129D01*
X118845240Y-76897129D02*
X118845240Y-76516177D01*
X118845240Y-76516177D02*
X118892859Y-76420939D01*
X118892859Y-76420939D02*
X118988097Y-76373320D01*
X118988097Y-76373320D02*
X119178573Y-76373320D01*
X119178573Y-76373320D02*
X119273811Y-76420939D01*
X119273811Y-76420939D02*
X119321430Y-76516177D01*
X119321430Y-76516177D02*
X119321430Y-76611415D01*
X119321430Y-76611415D02*
X118845240Y-76706653D01*
X120178573Y-77039987D02*
X120178573Y-76039987D01*
X120178573Y-76992368D02*
X120083335Y-77039987D01*
X120083335Y-77039987D02*
X119892859Y-77039987D01*
X119892859Y-77039987D02*
X119797621Y-76992368D01*
X119797621Y-76992368D02*
X119750002Y-76944748D01*
X119750002Y-76944748D02*
X119702383Y-76849510D01*
X119702383Y-76849510D02*
X119702383Y-76563796D01*
X119702383Y-76563796D02*
X119750002Y-76468558D01*
X119750002Y-76468558D02*
X119797621Y-76420939D01*
X119797621Y-76420939D02*
X119892859Y-76373320D01*
X119892859Y-76373320D02*
X120083335Y-76373320D01*
X120083335Y-76373320D02*
X120178573Y-76420939D01*
X107273809Y-77983264D02*
X107511904Y-78649931D01*
X107511904Y-78649931D02*
X107749999Y-77983264D01*
X108083333Y-77745169D02*
X108130952Y-77697550D01*
X108130952Y-77697550D02*
X108226190Y-77649931D01*
X108226190Y-77649931D02*
X108464285Y-77649931D01*
X108464285Y-77649931D02*
X108559523Y-77697550D01*
X108559523Y-77697550D02*
X108607142Y-77745169D01*
X108607142Y-77745169D02*
X108654761Y-77840407D01*
X108654761Y-77840407D02*
X108654761Y-77935645D01*
X108654761Y-77935645D02*
X108607142Y-78078502D01*
X108607142Y-78078502D02*
X108035714Y-78649931D01*
X108035714Y-78649931D02*
X108654761Y-78649931D01*
X110369047Y-78649931D02*
X109797619Y-78649931D01*
X110083333Y-78649931D02*
X110083333Y-77649931D01*
X110083333Y-77649931D02*
X109988095Y-77792788D01*
X109988095Y-77792788D02*
X109892857Y-77888026D01*
X109892857Y-77888026D02*
X109797619Y-77935645D01*
X111321428Y-78649931D02*
X110750000Y-78649931D01*
X111035714Y-78649931D02*
X111035714Y-77649931D01*
X111035714Y-77649931D02*
X110940476Y-77792788D01*
X110940476Y-77792788D02*
X110845238Y-77888026D01*
X110845238Y-77888026D02*
X110750000Y-77935645D01*
X112464285Y-77602312D02*
X111607143Y-78888026D01*
X112750000Y-77745169D02*
X112797619Y-77697550D01*
X112797619Y-77697550D02*
X112892857Y-77649931D01*
X112892857Y-77649931D02*
X113130952Y-77649931D01*
X113130952Y-77649931D02*
X113226190Y-77697550D01*
X113226190Y-77697550D02*
X113273809Y-77745169D01*
X113273809Y-77745169D02*
X113321428Y-77840407D01*
X113321428Y-77840407D02*
X113321428Y-77935645D01*
X113321428Y-77935645D02*
X113273809Y-78078502D01*
X113273809Y-78078502D02*
X112702381Y-78649931D01*
X112702381Y-78649931D02*
X113321428Y-78649931D01*
X113940476Y-77649931D02*
X114035714Y-77649931D01*
X114035714Y-77649931D02*
X114130952Y-77697550D01*
X114130952Y-77697550D02*
X114178571Y-77745169D01*
X114178571Y-77745169D02*
X114226190Y-77840407D01*
X114226190Y-77840407D02*
X114273809Y-78030883D01*
X114273809Y-78030883D02*
X114273809Y-78268978D01*
X114273809Y-78268978D02*
X114226190Y-78459454D01*
X114226190Y-78459454D02*
X114178571Y-78554692D01*
X114178571Y-78554692D02*
X114130952Y-78602312D01*
X114130952Y-78602312D02*
X114035714Y-78649931D01*
X114035714Y-78649931D02*
X113940476Y-78649931D01*
X113940476Y-78649931D02*
X113845238Y-78602312D01*
X113845238Y-78602312D02*
X113797619Y-78554692D01*
X113797619Y-78554692D02*
X113750000Y-78459454D01*
X113750000Y-78459454D02*
X113702381Y-78268978D01*
X113702381Y-78268978D02*
X113702381Y-78030883D01*
X113702381Y-78030883D02*
X113750000Y-77840407D01*
X113750000Y-77840407D02*
X113797619Y-77745169D01*
X113797619Y-77745169D02*
X113845238Y-77697550D01*
X113845238Y-77697550D02*
X113940476Y-77649931D01*
X114654762Y-77745169D02*
X114702381Y-77697550D01*
X114702381Y-77697550D02*
X114797619Y-77649931D01*
X114797619Y-77649931D02*
X115035714Y-77649931D01*
X115035714Y-77649931D02*
X115130952Y-77697550D01*
X115130952Y-77697550D02*
X115178571Y-77745169D01*
X115178571Y-77745169D02*
X115226190Y-77840407D01*
X115226190Y-77840407D02*
X115226190Y-77935645D01*
X115226190Y-77935645D02*
X115178571Y-78078502D01*
X115178571Y-78078502D02*
X114607143Y-78649931D01*
X114607143Y-78649931D02*
X115226190Y-78649931D01*
X116083333Y-77983264D02*
X116083333Y-78649931D01*
X115845238Y-77602312D02*
X115607143Y-78316597D01*
X115607143Y-78316597D02*
X116226190Y-78316597D01*
X105488094Y-80164636D02*
X105440475Y-80212256D01*
X105440475Y-80212256D02*
X105297618Y-80259875D01*
X105297618Y-80259875D02*
X105202380Y-80259875D01*
X105202380Y-80259875D02*
X105059523Y-80212256D01*
X105059523Y-80212256D02*
X104964285Y-80117017D01*
X104964285Y-80117017D02*
X104916666Y-80021779D01*
X104916666Y-80021779D02*
X104869047Y-79831303D01*
X104869047Y-79831303D02*
X104869047Y-79688446D01*
X104869047Y-79688446D02*
X104916666Y-79497970D01*
X104916666Y-79497970D02*
X104964285Y-79402732D01*
X104964285Y-79402732D02*
X105059523Y-79307494D01*
X105059523Y-79307494D02*
X105202380Y-79259875D01*
X105202380Y-79259875D02*
X105297618Y-79259875D01*
X105297618Y-79259875D02*
X105440475Y-79307494D01*
X105440475Y-79307494D02*
X105488094Y-79355113D01*
X106059523Y-80259875D02*
X105964285Y-80212256D01*
X105964285Y-80212256D02*
X105916666Y-80117017D01*
X105916666Y-80117017D02*
X105916666Y-79259875D01*
X106821428Y-80212256D02*
X106726190Y-80259875D01*
X106726190Y-80259875D02*
X106535714Y-80259875D01*
X106535714Y-80259875D02*
X106440476Y-80212256D01*
X106440476Y-80212256D02*
X106392857Y-80117017D01*
X106392857Y-80117017D02*
X106392857Y-79736065D01*
X106392857Y-79736065D02*
X106440476Y-79640827D01*
X106440476Y-79640827D02*
X106535714Y-79593208D01*
X106535714Y-79593208D02*
X106726190Y-79593208D01*
X106726190Y-79593208D02*
X106821428Y-79640827D01*
X106821428Y-79640827D02*
X106869047Y-79736065D01*
X106869047Y-79736065D02*
X106869047Y-79831303D01*
X106869047Y-79831303D02*
X106392857Y-79926541D01*
X106726190Y-79212256D02*
X106583333Y-79355113D01*
X107297619Y-80259875D02*
X107297619Y-79593208D01*
X107297619Y-79688446D02*
X107345238Y-79640827D01*
X107345238Y-79640827D02*
X107440476Y-79593208D01*
X107440476Y-79593208D02*
X107583333Y-79593208D01*
X107583333Y-79593208D02*
X107678571Y-79640827D01*
X107678571Y-79640827D02*
X107726190Y-79736065D01*
X107726190Y-79736065D02*
X107726190Y-80259875D01*
X107726190Y-79736065D02*
X107773809Y-79640827D01*
X107773809Y-79640827D02*
X107869047Y-79593208D01*
X107869047Y-79593208D02*
X108011904Y-79593208D01*
X108011904Y-79593208D02*
X108107143Y-79640827D01*
X108107143Y-79640827D02*
X108154762Y-79736065D01*
X108154762Y-79736065D02*
X108154762Y-80259875D01*
X109011904Y-80212256D02*
X108916666Y-80259875D01*
X108916666Y-80259875D02*
X108726190Y-80259875D01*
X108726190Y-80259875D02*
X108630952Y-80212256D01*
X108630952Y-80212256D02*
X108583333Y-80117017D01*
X108583333Y-80117017D02*
X108583333Y-79736065D01*
X108583333Y-79736065D02*
X108630952Y-79640827D01*
X108630952Y-79640827D02*
X108726190Y-79593208D01*
X108726190Y-79593208D02*
X108916666Y-79593208D01*
X108916666Y-79593208D02*
X109011904Y-79640827D01*
X109011904Y-79640827D02*
X109059523Y-79736065D01*
X109059523Y-79736065D02*
X109059523Y-79831303D01*
X109059523Y-79831303D02*
X108583333Y-79926541D01*
X109488095Y-79593208D02*
X109488095Y-80259875D01*
X109488095Y-79688446D02*
X109535714Y-79640827D01*
X109535714Y-79640827D02*
X109630952Y-79593208D01*
X109630952Y-79593208D02*
X109773809Y-79593208D01*
X109773809Y-79593208D02*
X109869047Y-79640827D01*
X109869047Y-79640827D02*
X109916666Y-79736065D01*
X109916666Y-79736065D02*
X109916666Y-80259875D01*
X110250000Y-79593208D02*
X110630952Y-79593208D01*
X110392857Y-79259875D02*
X110392857Y-80117017D01*
X110392857Y-80117017D02*
X110440476Y-80212256D01*
X110440476Y-80212256D02*
X110535714Y-80259875D01*
X110535714Y-80259875D02*
X110630952Y-80259875D01*
X111678572Y-80212256D02*
X111821429Y-80259875D01*
X111821429Y-80259875D02*
X112059524Y-80259875D01*
X112059524Y-80259875D02*
X112154762Y-80212256D01*
X112154762Y-80212256D02*
X112202381Y-80164636D01*
X112202381Y-80164636D02*
X112250000Y-80069398D01*
X112250000Y-80069398D02*
X112250000Y-79974160D01*
X112250000Y-79974160D02*
X112202381Y-79878922D01*
X112202381Y-79878922D02*
X112154762Y-79831303D01*
X112154762Y-79831303D02*
X112059524Y-79783684D01*
X112059524Y-79783684D02*
X111869048Y-79736065D01*
X111869048Y-79736065D02*
X111773810Y-79688446D01*
X111773810Y-79688446D02*
X111726191Y-79640827D01*
X111726191Y-79640827D02*
X111678572Y-79545589D01*
X111678572Y-79545589D02*
X111678572Y-79450351D01*
X111678572Y-79450351D02*
X111726191Y-79355113D01*
X111726191Y-79355113D02*
X111773810Y-79307494D01*
X111773810Y-79307494D02*
X111869048Y-79259875D01*
X111869048Y-79259875D02*
X112107143Y-79259875D01*
X112107143Y-79259875D02*
X112250000Y-79307494D01*
X112630953Y-79974160D02*
X113107143Y-79974160D01*
X112535715Y-80259875D02*
X112869048Y-79259875D01*
X112869048Y-79259875D02*
X113202381Y-80259875D01*
X113535715Y-80259875D02*
X113535715Y-79259875D01*
X114488095Y-80259875D02*
X114011905Y-80259875D01*
X114011905Y-80259875D02*
X114011905Y-79259875D01*
X115297619Y-80259875D02*
X114821429Y-80259875D01*
X114821429Y-80259875D02*
X114821429Y-79259875D01*
X115583334Y-79974160D02*
X116059524Y-79974160D01*
X115488096Y-80259875D02*
X115821429Y-79259875D01*
X115821429Y-79259875D02*
X116154762Y-80259875D01*
X116488096Y-80259875D02*
X116488096Y-79259875D01*
X116488096Y-79259875D02*
X117059524Y-80259875D01*
X117059524Y-80259875D02*
X117059524Y-79259875D01*
X117392858Y-79259875D02*
X117964286Y-79259875D01*
X117678572Y-80259875D02*
X117678572Y-79259875D01*
X101940475Y-81203152D02*
X101940475Y-82203152D01*
X101940475Y-81250771D02*
X102035713Y-81203152D01*
X102035713Y-81203152D02*
X102226189Y-81203152D01*
X102226189Y-81203152D02*
X102321427Y-81250771D01*
X102321427Y-81250771D02*
X102369046Y-81298390D01*
X102369046Y-81298390D02*
X102416665Y-81393628D01*
X102416665Y-81393628D02*
X102416665Y-81679342D01*
X102416665Y-81679342D02*
X102369046Y-81774580D01*
X102369046Y-81774580D02*
X102321427Y-81822200D01*
X102321427Y-81822200D02*
X102226189Y-81869819D01*
X102226189Y-81869819D02*
X102035713Y-81869819D01*
X102035713Y-81869819D02*
X101940475Y-81822200D01*
X102988094Y-81869819D02*
X102892856Y-81822200D01*
X102892856Y-81822200D02*
X102845237Y-81774580D01*
X102845237Y-81774580D02*
X102797618Y-81679342D01*
X102797618Y-81679342D02*
X102797618Y-81393628D01*
X102797618Y-81393628D02*
X102845237Y-81298390D01*
X102845237Y-81298390D02*
X102892856Y-81250771D01*
X102892856Y-81250771D02*
X102988094Y-81203152D01*
X102988094Y-81203152D02*
X103130951Y-81203152D01*
X103130951Y-81203152D02*
X103226189Y-81250771D01*
X103226189Y-81250771D02*
X103273808Y-81298390D01*
X103273808Y-81298390D02*
X103321427Y-81393628D01*
X103321427Y-81393628D02*
X103321427Y-81679342D01*
X103321427Y-81679342D02*
X103273808Y-81774580D01*
X103273808Y-81774580D02*
X103226189Y-81822200D01*
X103226189Y-81822200D02*
X103130951Y-81869819D01*
X103130951Y-81869819D02*
X102988094Y-81869819D01*
X104178570Y-81203152D02*
X104178570Y-81869819D01*
X103749999Y-81203152D02*
X103749999Y-81726961D01*
X103749999Y-81726961D02*
X103797618Y-81822200D01*
X103797618Y-81822200D02*
X103892856Y-81869819D01*
X103892856Y-81869819D02*
X104035713Y-81869819D01*
X104035713Y-81869819D02*
X104130951Y-81822200D01*
X104130951Y-81822200D02*
X104178570Y-81774580D01*
X104654761Y-81869819D02*
X104654761Y-81203152D01*
X104654761Y-81393628D02*
X104702380Y-81298390D01*
X104702380Y-81298390D02*
X104749999Y-81250771D01*
X104749999Y-81250771D02*
X104845237Y-81203152D01*
X104845237Y-81203152D02*
X104940475Y-81203152D01*
X106035714Y-81869819D02*
X106035714Y-80869819D01*
X106130952Y-81488866D02*
X106416666Y-81869819D01*
X106416666Y-81203152D02*
X106035714Y-81584104D01*
X106988095Y-81869819D02*
X106892857Y-81822200D01*
X106892857Y-81822200D02*
X106845238Y-81774580D01*
X106845238Y-81774580D02*
X106797619Y-81679342D01*
X106797619Y-81679342D02*
X106797619Y-81393628D01*
X106797619Y-81393628D02*
X106845238Y-81298390D01*
X106845238Y-81298390D02*
X106892857Y-81250771D01*
X106892857Y-81250771D02*
X106988095Y-81203152D01*
X106988095Y-81203152D02*
X107130952Y-81203152D01*
X107130952Y-81203152D02*
X107226190Y-81250771D01*
X107226190Y-81250771D02*
X107273809Y-81298390D01*
X107273809Y-81298390D02*
X107321428Y-81393628D01*
X107321428Y-81393628D02*
X107321428Y-81679342D01*
X107321428Y-81679342D02*
X107273809Y-81774580D01*
X107273809Y-81774580D02*
X107226190Y-81822200D01*
X107226190Y-81822200D02*
X107130952Y-81869819D01*
X107130952Y-81869819D02*
X106988095Y-81869819D01*
X107750000Y-81869819D02*
X107750000Y-81203152D01*
X107750000Y-81298390D02*
X107797619Y-81250771D01*
X107797619Y-81250771D02*
X107892857Y-81203152D01*
X107892857Y-81203152D02*
X108035714Y-81203152D01*
X108035714Y-81203152D02*
X108130952Y-81250771D01*
X108130952Y-81250771D02*
X108178571Y-81346009D01*
X108178571Y-81346009D02*
X108178571Y-81869819D01*
X108178571Y-81346009D02*
X108226190Y-81250771D01*
X108226190Y-81250771D02*
X108321428Y-81203152D01*
X108321428Y-81203152D02*
X108464285Y-81203152D01*
X108464285Y-81203152D02*
X108559524Y-81250771D01*
X108559524Y-81250771D02*
X108607143Y-81346009D01*
X108607143Y-81346009D02*
X108607143Y-81869819D01*
X109083333Y-81203152D02*
X109083333Y-82203152D01*
X109083333Y-81250771D02*
X109178571Y-81203152D01*
X109178571Y-81203152D02*
X109369047Y-81203152D01*
X109369047Y-81203152D02*
X109464285Y-81250771D01*
X109464285Y-81250771D02*
X109511904Y-81298390D01*
X109511904Y-81298390D02*
X109559523Y-81393628D01*
X109559523Y-81393628D02*
X109559523Y-81679342D01*
X109559523Y-81679342D02*
X109511904Y-81774580D01*
X109511904Y-81774580D02*
X109464285Y-81822200D01*
X109464285Y-81822200D02*
X109369047Y-81869819D01*
X109369047Y-81869819D02*
X109178571Y-81869819D01*
X109178571Y-81869819D02*
X109083333Y-81822200D01*
X110130952Y-81869819D02*
X110035714Y-81822200D01*
X110035714Y-81822200D02*
X109988095Y-81726961D01*
X109988095Y-81726961D02*
X109988095Y-80869819D01*
X110892857Y-81822200D02*
X110797619Y-81869819D01*
X110797619Y-81869819D02*
X110607143Y-81869819D01*
X110607143Y-81869819D02*
X110511905Y-81822200D01*
X110511905Y-81822200D02*
X110464286Y-81726961D01*
X110464286Y-81726961D02*
X110464286Y-81346009D01*
X110464286Y-81346009D02*
X110511905Y-81250771D01*
X110511905Y-81250771D02*
X110607143Y-81203152D01*
X110607143Y-81203152D02*
X110797619Y-81203152D01*
X110797619Y-81203152D02*
X110892857Y-81250771D01*
X110892857Y-81250771D02*
X110940476Y-81346009D01*
X110940476Y-81346009D02*
X110940476Y-81441247D01*
X110940476Y-81441247D02*
X110464286Y-81536485D01*
X111273810Y-81869819D02*
X111797619Y-81203152D01*
X111273810Y-81203152D02*
X111797619Y-81869819D01*
X112940477Y-81869819D02*
X112940477Y-80869819D01*
X113035715Y-81488866D02*
X113321429Y-81869819D01*
X113321429Y-81203152D02*
X112940477Y-81584104D01*
X114178572Y-81869819D02*
X114178572Y-81346009D01*
X114178572Y-81346009D02*
X114130953Y-81250771D01*
X114130953Y-81250771D02*
X114035715Y-81203152D01*
X114035715Y-81203152D02*
X113845239Y-81203152D01*
X113845239Y-81203152D02*
X113750001Y-81250771D01*
X114178572Y-81822200D02*
X114083334Y-81869819D01*
X114083334Y-81869819D02*
X113845239Y-81869819D01*
X113845239Y-81869819D02*
X113750001Y-81822200D01*
X113750001Y-81822200D02*
X113702382Y-81726961D01*
X113702382Y-81726961D02*
X113702382Y-81631723D01*
X113702382Y-81631723D02*
X113750001Y-81536485D01*
X113750001Y-81536485D02*
X113845239Y-81488866D01*
X113845239Y-81488866D02*
X114083334Y-81488866D01*
X114083334Y-81488866D02*
X114178572Y-81441247D01*
X114654763Y-81203152D02*
X114654763Y-82203152D01*
X114654763Y-81250771D02*
X114750001Y-81203152D01*
X114750001Y-81203152D02*
X114940477Y-81203152D01*
X114940477Y-81203152D02*
X115035715Y-81250771D01*
X115035715Y-81250771D02*
X115083334Y-81298390D01*
X115083334Y-81298390D02*
X115130953Y-81393628D01*
X115130953Y-81393628D02*
X115130953Y-81679342D01*
X115130953Y-81679342D02*
X115083334Y-81774580D01*
X115083334Y-81774580D02*
X115035715Y-81822200D01*
X115035715Y-81822200D02*
X114940477Y-81869819D01*
X114940477Y-81869819D02*
X114750001Y-81869819D01*
X114750001Y-81869819D02*
X114654763Y-81822200D01*
X115559525Y-81869819D02*
X115559525Y-80869819D01*
X115988096Y-81869819D02*
X115988096Y-81346009D01*
X115988096Y-81346009D02*
X115940477Y-81250771D01*
X115940477Y-81250771D02*
X115845239Y-81203152D01*
X115845239Y-81203152D02*
X115702382Y-81203152D01*
X115702382Y-81203152D02*
X115607144Y-81250771D01*
X115607144Y-81250771D02*
X115559525Y-81298390D01*
X116892858Y-81869819D02*
X116892858Y-81346009D01*
X116892858Y-81346009D02*
X116845239Y-81250771D01*
X116845239Y-81250771D02*
X116750001Y-81203152D01*
X116750001Y-81203152D02*
X116559525Y-81203152D01*
X116559525Y-81203152D02*
X116464287Y-81250771D01*
X116892858Y-81822200D02*
X116797620Y-81869819D01*
X116797620Y-81869819D02*
X116559525Y-81869819D01*
X116559525Y-81869819D02*
X116464287Y-81822200D01*
X116464287Y-81822200D02*
X116416668Y-81726961D01*
X116416668Y-81726961D02*
X116416668Y-81631723D01*
X116416668Y-81631723D02*
X116464287Y-81536485D01*
X116464287Y-81536485D02*
X116559525Y-81488866D01*
X116559525Y-81488866D02*
X116797620Y-81488866D01*
X116797620Y-81488866D02*
X116892858Y-81441247D01*
X117369049Y-81869819D02*
X117369049Y-81203152D01*
X117369049Y-81393628D02*
X117416668Y-81298390D01*
X117416668Y-81298390D02*
X117464287Y-81250771D01*
X117464287Y-81250771D02*
X117559525Y-81203152D01*
X117559525Y-81203152D02*
X117654763Y-81203152D01*
X117988097Y-81203152D02*
X117988097Y-81869819D01*
X117988097Y-81298390D02*
X118035716Y-81250771D01*
X118035716Y-81250771D02*
X118130954Y-81203152D01*
X118130954Y-81203152D02*
X118273811Y-81203152D01*
X118273811Y-81203152D02*
X118369049Y-81250771D01*
X118369049Y-81250771D02*
X118416668Y-81346009D01*
X118416668Y-81346009D02*
X118416668Y-81869819D01*
X119321430Y-81869819D02*
X119321430Y-81346009D01*
X119321430Y-81346009D02*
X119273811Y-81250771D01*
X119273811Y-81250771D02*
X119178573Y-81203152D01*
X119178573Y-81203152D02*
X118988097Y-81203152D01*
X118988097Y-81203152D02*
X118892859Y-81250771D01*
X119321430Y-81822200D02*
X119226192Y-81869819D01*
X119226192Y-81869819D02*
X118988097Y-81869819D01*
X118988097Y-81869819D02*
X118892859Y-81822200D01*
X118892859Y-81822200D02*
X118845240Y-81726961D01*
X118845240Y-81726961D02*
X118845240Y-81631723D01*
X118845240Y-81631723D02*
X118892859Y-81536485D01*
X118892859Y-81536485D02*
X118988097Y-81488866D01*
X118988097Y-81488866D02*
X119226192Y-81488866D01*
X119226192Y-81488866D02*
X119321430Y-81441247D01*
X120226192Y-81203152D02*
X120226192Y-81869819D01*
X119797621Y-81203152D02*
X119797621Y-81726961D01*
X119797621Y-81726961D02*
X119845240Y-81822200D01*
X119845240Y-81822200D02*
X119940478Y-81869819D01*
X119940478Y-81869819D02*
X120083335Y-81869819D01*
X120083335Y-81869819D02*
X120178573Y-81822200D01*
X120178573Y-81822200D02*
X120226192Y-81774580D01*
X119845240Y-80869819D02*
X119892859Y-80917438D01*
X119892859Y-80917438D02*
X119845240Y-80965057D01*
X119845240Y-80965057D02*
X119797621Y-80917438D01*
X119797621Y-80917438D02*
X119845240Y-80869819D01*
X119845240Y-80869819D02*
X119845240Y-80965057D01*
X120226192Y-80869819D02*
X120273811Y-80917438D01*
X120273811Y-80917438D02*
X120226192Y-80965057D01*
X120226192Y-80965057D02*
X120178573Y-80917438D01*
X120178573Y-80917438D02*
X120226192Y-80869819D01*
X120226192Y-80869819D02*
X120226192Y-80965057D01*
X120702383Y-81869819D02*
X120702383Y-81203152D01*
X120702383Y-81298390D02*
X120750002Y-81250771D01*
X120750002Y-81250771D02*
X120845240Y-81203152D01*
X120845240Y-81203152D02*
X120988097Y-81203152D01*
X120988097Y-81203152D02*
X121083335Y-81250771D01*
X121083335Y-81250771D02*
X121130954Y-81346009D01*
X121130954Y-81346009D02*
X121130954Y-81869819D01*
X121130954Y-81346009D02*
X121178573Y-81250771D01*
X121178573Y-81250771D02*
X121273811Y-81203152D01*
X121273811Y-81203152D02*
X121416668Y-81203152D01*
X121416668Y-81203152D02*
X121511907Y-81250771D01*
X121511907Y-81250771D02*
X121559526Y-81346009D01*
X121559526Y-81346009D02*
X121559526Y-81869819D01*
X164178571Y-64954819D02*
X163607143Y-64954819D01*
X163892857Y-64954819D02*
X163892857Y-63954819D01*
X163892857Y-63954819D02*
X163797619Y-64097676D01*
X163797619Y-64097676D02*
X163702381Y-64192914D01*
X163702381Y-64192914D02*
X163607143Y-64240533D01*
X165035714Y-64288152D02*
X165035714Y-64954819D01*
X164797619Y-63907200D02*
X164559524Y-64621485D01*
X164559524Y-64621485D02*
X165178571Y-64621485D01*
X166083333Y-64954819D02*
X165511905Y-64954819D01*
X165797619Y-64954819D02*
X165797619Y-63954819D01*
X165797619Y-63954819D02*
X165702381Y-64097676D01*
X165702381Y-64097676D02*
X165607143Y-64192914D01*
X165607143Y-64192914D02*
X165511905Y-64240533D01*
X166511905Y-64859580D02*
X166559524Y-64907200D01*
X166559524Y-64907200D02*
X166511905Y-64954819D01*
X166511905Y-64954819D02*
X166464286Y-64907200D01*
X166464286Y-64907200D02*
X166511905Y-64859580D01*
X166511905Y-64859580D02*
X166511905Y-64954819D01*
X167178571Y-63954819D02*
X167273809Y-63954819D01*
X167273809Y-63954819D02*
X167369047Y-64002438D01*
X167369047Y-64002438D02*
X167416666Y-64050057D01*
X167416666Y-64050057D02*
X167464285Y-64145295D01*
X167464285Y-64145295D02*
X167511904Y-64335771D01*
X167511904Y-64335771D02*
X167511904Y-64573866D01*
X167511904Y-64573866D02*
X167464285Y-64764342D01*
X167464285Y-64764342D02*
X167416666Y-64859580D01*
X167416666Y-64859580D02*
X167369047Y-64907200D01*
X167369047Y-64907200D02*
X167273809Y-64954819D01*
X167273809Y-64954819D02*
X167178571Y-64954819D01*
X167178571Y-64954819D02*
X167083333Y-64907200D01*
X167083333Y-64907200D02*
X167035714Y-64859580D01*
X167035714Y-64859580D02*
X166988095Y-64764342D01*
X166988095Y-64764342D02*
X166940476Y-64573866D01*
X166940476Y-64573866D02*
X166940476Y-64335771D01*
X166940476Y-64335771D02*
X166988095Y-64145295D01*
X166988095Y-64145295D02*
X167035714Y-64050057D01*
X167035714Y-64050057D02*
X167083333Y-64002438D01*
X167083333Y-64002438D02*
X167178571Y-63954819D01*
X168130952Y-63954819D02*
X168226190Y-63954819D01*
X168226190Y-63954819D02*
X168321428Y-64002438D01*
X168321428Y-64002438D02*
X168369047Y-64050057D01*
X168369047Y-64050057D02*
X168416666Y-64145295D01*
X168416666Y-64145295D02*
X168464285Y-64335771D01*
X168464285Y-64335771D02*
X168464285Y-64573866D01*
X168464285Y-64573866D02*
X168416666Y-64764342D01*
X168416666Y-64764342D02*
X168369047Y-64859580D01*
X168369047Y-64859580D02*
X168321428Y-64907200D01*
X168321428Y-64907200D02*
X168226190Y-64954819D01*
X168226190Y-64954819D02*
X168130952Y-64954819D01*
X168130952Y-64954819D02*
X168035714Y-64907200D01*
X168035714Y-64907200D02*
X167988095Y-64859580D01*
X167988095Y-64859580D02*
X167940476Y-64764342D01*
X167940476Y-64764342D02*
X167892857Y-64573866D01*
X167892857Y-64573866D02*
X167892857Y-64335771D01*
X167892857Y-64335771D02*
X167940476Y-64145295D01*
X167940476Y-64145295D02*
X167988095Y-64050057D01*
X167988095Y-64050057D02*
X168035714Y-64002438D01*
X168035714Y-64002438D02*
X168130952Y-63954819D01*
X169654762Y-64954819D02*
X169654762Y-64288152D01*
X169654762Y-64383390D02*
X169702381Y-64335771D01*
X169702381Y-64335771D02*
X169797619Y-64288152D01*
X169797619Y-64288152D02*
X169940476Y-64288152D01*
X169940476Y-64288152D02*
X170035714Y-64335771D01*
X170035714Y-64335771D02*
X170083333Y-64431009D01*
X170083333Y-64431009D02*
X170083333Y-64954819D01*
X170083333Y-64431009D02*
X170130952Y-64335771D01*
X170130952Y-64335771D02*
X170226190Y-64288152D01*
X170226190Y-64288152D02*
X170369047Y-64288152D01*
X170369047Y-64288152D02*
X170464286Y-64335771D01*
X170464286Y-64335771D02*
X170511905Y-64431009D01*
X170511905Y-64431009D02*
X170511905Y-64954819D01*
X170988095Y-64954819D02*
X170988095Y-64288152D01*
X170988095Y-64383390D02*
X171035714Y-64335771D01*
X171035714Y-64335771D02*
X171130952Y-64288152D01*
X171130952Y-64288152D02*
X171273809Y-64288152D01*
X171273809Y-64288152D02*
X171369047Y-64335771D01*
X171369047Y-64335771D02*
X171416666Y-64431009D01*
X171416666Y-64431009D02*
X171416666Y-64954819D01*
X171416666Y-64431009D02*
X171464285Y-64335771D01*
X171464285Y-64335771D02*
X171559523Y-64288152D01*
X171559523Y-64288152D02*
X171702380Y-64288152D01*
X171702380Y-64288152D02*
X171797619Y-64335771D01*
X171797619Y-64335771D02*
X171845238Y-64431009D01*
X171845238Y-64431009D02*
X171845238Y-64954819D01*
X34000000Y-67000000D02*
X34000000Y-62913580D01*
X175000000Y-67000000D02*
X175000000Y-62913580D01*
X34000000Y-63500000D02*
X175000000Y-63500000D01*
X34000000Y-63500000D02*
X175000000Y-63500000D01*
X34000000Y-63500000D02*
X35126504Y-62913579D01*
X34000000Y-63500000D02*
X35126504Y-64086421D01*
X175000000Y-63500000D02*
X173873496Y-64086421D01*
X175000000Y-63500000D02*
X173873496Y-62913579D01*
X181204819Y-77892856D02*
X181204819Y-78369046D01*
X181204819Y-78369046D02*
X181681009Y-78416665D01*
X181681009Y-78416665D02*
X181633390Y-78369046D01*
X181633390Y-78369046D02*
X181585771Y-78273808D01*
X181585771Y-78273808D02*
X181585771Y-78035713D01*
X181585771Y-78035713D02*
X181633390Y-77940475D01*
X181633390Y-77940475D02*
X181681009Y-77892856D01*
X181681009Y-77892856D02*
X181776247Y-77845237D01*
X181776247Y-77845237D02*
X182014342Y-77845237D01*
X182014342Y-77845237D02*
X182109580Y-77892856D01*
X182109580Y-77892856D02*
X182157200Y-77940475D01*
X182157200Y-77940475D02*
X182204819Y-78035713D01*
X182204819Y-78035713D02*
X182204819Y-78273808D01*
X182204819Y-78273808D02*
X182157200Y-78369046D01*
X182157200Y-78369046D02*
X182109580Y-78416665D01*
X181204819Y-76940475D02*
X181204819Y-77416665D01*
X181204819Y-77416665D02*
X181681009Y-77464284D01*
X181681009Y-77464284D02*
X181633390Y-77416665D01*
X181633390Y-77416665D02*
X181585771Y-77321427D01*
X181585771Y-77321427D02*
X181585771Y-77083332D01*
X181585771Y-77083332D02*
X181633390Y-76988094D01*
X181633390Y-76988094D02*
X181681009Y-76940475D01*
X181681009Y-76940475D02*
X181776247Y-76892856D01*
X181776247Y-76892856D02*
X182014342Y-76892856D01*
X182014342Y-76892856D02*
X182109580Y-76940475D01*
X182109580Y-76940475D02*
X182157200Y-76988094D01*
X182157200Y-76988094D02*
X182204819Y-77083332D01*
X182204819Y-77083332D02*
X182204819Y-77321427D01*
X182204819Y-77321427D02*
X182157200Y-77416665D01*
X182157200Y-77416665D02*
X182109580Y-77464284D01*
X182109580Y-76464284D02*
X182157200Y-76416665D01*
X182157200Y-76416665D02*
X182204819Y-76464284D01*
X182204819Y-76464284D02*
X182157200Y-76511903D01*
X182157200Y-76511903D02*
X182109580Y-76464284D01*
X182109580Y-76464284D02*
X182204819Y-76464284D01*
X181204819Y-75797618D02*
X181204819Y-75702380D01*
X181204819Y-75702380D02*
X181252438Y-75607142D01*
X181252438Y-75607142D02*
X181300057Y-75559523D01*
X181300057Y-75559523D02*
X181395295Y-75511904D01*
X181395295Y-75511904D02*
X181585771Y-75464285D01*
X181585771Y-75464285D02*
X181823866Y-75464285D01*
X181823866Y-75464285D02*
X182014342Y-75511904D01*
X182014342Y-75511904D02*
X182109580Y-75559523D01*
X182109580Y-75559523D02*
X182157200Y-75607142D01*
X182157200Y-75607142D02*
X182204819Y-75702380D01*
X182204819Y-75702380D02*
X182204819Y-75797618D01*
X182204819Y-75797618D02*
X182157200Y-75892856D01*
X182157200Y-75892856D02*
X182109580Y-75940475D01*
X182109580Y-75940475D02*
X182014342Y-75988094D01*
X182014342Y-75988094D02*
X181823866Y-76035713D01*
X181823866Y-76035713D02*
X181585771Y-76035713D01*
X181585771Y-76035713D02*
X181395295Y-75988094D01*
X181395295Y-75988094D02*
X181300057Y-75940475D01*
X181300057Y-75940475D02*
X181252438Y-75892856D01*
X181252438Y-75892856D02*
X181204819Y-75797618D01*
X181204819Y-74845237D02*
X181204819Y-74749999D01*
X181204819Y-74749999D02*
X181252438Y-74654761D01*
X181252438Y-74654761D02*
X181300057Y-74607142D01*
X181300057Y-74607142D02*
X181395295Y-74559523D01*
X181395295Y-74559523D02*
X181585771Y-74511904D01*
X181585771Y-74511904D02*
X181823866Y-74511904D01*
X181823866Y-74511904D02*
X182014342Y-74559523D01*
X182014342Y-74559523D02*
X182109580Y-74607142D01*
X182109580Y-74607142D02*
X182157200Y-74654761D01*
X182157200Y-74654761D02*
X182204819Y-74749999D01*
X182204819Y-74749999D02*
X182204819Y-74845237D01*
X182204819Y-74845237D02*
X182157200Y-74940475D01*
X182157200Y-74940475D02*
X182109580Y-74988094D01*
X182109580Y-74988094D02*
X182014342Y-75035713D01*
X182014342Y-75035713D02*
X181823866Y-75083332D01*
X181823866Y-75083332D02*
X181585771Y-75083332D01*
X181585771Y-75083332D02*
X181395295Y-75035713D01*
X181395295Y-75035713D02*
X181300057Y-74988094D01*
X181300057Y-74988094D02*
X181252438Y-74940475D01*
X181252438Y-74940475D02*
X181204819Y-74845237D01*
X182204819Y-73321427D02*
X181538152Y-73321427D01*
X181633390Y-73321427D02*
X181585771Y-73273808D01*
X181585771Y-73273808D02*
X181538152Y-73178570D01*
X181538152Y-73178570D02*
X181538152Y-73035713D01*
X181538152Y-73035713D02*
X181585771Y-72940475D01*
X181585771Y-72940475D02*
X181681009Y-72892856D01*
X181681009Y-72892856D02*
X182204819Y-72892856D01*
X181681009Y-72892856D02*
X181585771Y-72845237D01*
X181585771Y-72845237D02*
X181538152Y-72749999D01*
X181538152Y-72749999D02*
X181538152Y-72607142D01*
X181538152Y-72607142D02*
X181585771Y-72511903D01*
X181585771Y-72511903D02*
X181681009Y-72464284D01*
X181681009Y-72464284D02*
X182204819Y-72464284D01*
X182204819Y-71988094D02*
X181538152Y-71988094D01*
X181633390Y-71988094D02*
X181585771Y-71940475D01*
X181585771Y-71940475D02*
X181538152Y-71845237D01*
X181538152Y-71845237D02*
X181538152Y-71702380D01*
X181538152Y-71702380D02*
X181585771Y-71607142D01*
X181585771Y-71607142D02*
X181681009Y-71559523D01*
X181681009Y-71559523D02*
X182204819Y-71559523D01*
X181681009Y-71559523D02*
X181585771Y-71511904D01*
X181585771Y-71511904D02*
X181538152Y-71416666D01*
X181538152Y-71416666D02*
X181538152Y-71273809D01*
X181538152Y-71273809D02*
X181585771Y-71178570D01*
X181585771Y-71178570D02*
X181681009Y-71130951D01*
X181681009Y-71130951D02*
X182204819Y-71130951D01*
X175500000Y-67500000D02*
X180586420Y-67500000D01*
X175500000Y-122500000D02*
X180586420Y-122500000D01*
X180000000Y-67500000D02*
X180000000Y-122500000D01*
X180000000Y-67500000D02*
X180000000Y-122500000D01*
X180000000Y-67500000D02*
X180586421Y-68626504D01*
X180000000Y-67500000D02*
X179413579Y-68626504D01*
X180000000Y-122500000D02*
X179413579Y-121373496D01*
X180000000Y-122500000D02*
X180586421Y-121373496D01*
X131679819Y-123508333D02*
X132394104Y-123508333D01*
X132394104Y-123508333D02*
X132536961Y-123555952D01*
X132536961Y-123555952D02*
X132632200Y-123651190D01*
X132632200Y-123651190D02*
X132679819Y-123794047D01*
X132679819Y-123794047D02*
X132679819Y-123889285D01*
X131679819Y-122603571D02*
X131679819Y-122794047D01*
X131679819Y-122794047D02*
X131727438Y-122889285D01*
X131727438Y-122889285D02*
X131775057Y-122936904D01*
X131775057Y-122936904D02*
X131917914Y-123032142D01*
X131917914Y-123032142D02*
X132108390Y-123079761D01*
X132108390Y-123079761D02*
X132489342Y-123079761D01*
X132489342Y-123079761D02*
X132584580Y-123032142D01*
X132584580Y-123032142D02*
X132632200Y-122984523D01*
X132632200Y-122984523D02*
X132679819Y-122889285D01*
X132679819Y-122889285D02*
X132679819Y-122698809D01*
X132679819Y-122698809D02*
X132632200Y-122603571D01*
X132632200Y-122603571D02*
X132584580Y-122555952D01*
X132584580Y-122555952D02*
X132489342Y-122508333D01*
X132489342Y-122508333D02*
X132251247Y-122508333D01*
X132251247Y-122508333D02*
X132156009Y-122555952D01*
X132156009Y-122555952D02*
X132108390Y-122603571D01*
X132108390Y-122603571D02*
X132060771Y-122698809D01*
X132060771Y-122698809D02*
X132060771Y-122889285D01*
X132060771Y-122889285D02*
X132108390Y-122984523D01*
X132108390Y-122984523D02*
X132156009Y-123032142D01*
X132156009Y-123032142D02*
X132251247Y-123079761D01*
X165896666Y-68194819D02*
X165896666Y-68909104D01*
X165896666Y-68909104D02*
X165849047Y-69051961D01*
X165849047Y-69051961D02*
X165753809Y-69147200D01*
X165753809Y-69147200D02*
X165610952Y-69194819D01*
X165610952Y-69194819D02*
X165515714Y-69194819D01*
X166801428Y-68528152D02*
X166801428Y-69194819D01*
X166563333Y-68147200D02*
X166325238Y-68861485D01*
X166325238Y-68861485D02*
X166944285Y-68861485D01*
X153911666Y-68194819D02*
X153911666Y-68909104D01*
X153911666Y-68909104D02*
X153864047Y-69051961D01*
X153864047Y-69051961D02*
X153768809Y-69147200D01*
X153768809Y-69147200D02*
X153625952Y-69194819D01*
X153625952Y-69194819D02*
X153530714Y-69194819D01*
X154292619Y-68194819D02*
X154911666Y-68194819D01*
X154911666Y-68194819D02*
X154578333Y-68575771D01*
X154578333Y-68575771D02*
X154721190Y-68575771D01*
X154721190Y-68575771D02*
X154816428Y-68623390D01*
X154816428Y-68623390D02*
X154864047Y-68671009D01*
X154864047Y-68671009D02*
X154911666Y-68766247D01*
X154911666Y-68766247D02*
X154911666Y-69004342D01*
X154911666Y-69004342D02*
X154864047Y-69099580D01*
X154864047Y-69099580D02*
X154816428Y-69147200D01*
X154816428Y-69147200D02*
X154721190Y-69194819D01*
X154721190Y-69194819D02*
X154435476Y-69194819D01*
X154435476Y-69194819D02*
X154340238Y-69147200D01*
X154340238Y-69147200D02*
X154292619Y-69099580D01*
X107759819Y-123483333D02*
X108474104Y-123483333D01*
X108474104Y-123483333D02*
X108616961Y-123530952D01*
X108616961Y-123530952D02*
X108712200Y-123626190D01*
X108712200Y-123626190D02*
X108759819Y-123769047D01*
X108759819Y-123769047D02*
X108759819Y-123864285D01*
X108188390Y-122864285D02*
X108140771Y-122959523D01*
X108140771Y-122959523D02*
X108093152Y-123007142D01*
X108093152Y-123007142D02*
X107997914Y-123054761D01*
X107997914Y-123054761D02*
X107950295Y-123054761D01*
X107950295Y-123054761D02*
X107855057Y-123007142D01*
X107855057Y-123007142D02*
X107807438Y-122959523D01*
X107807438Y-122959523D02*
X107759819Y-122864285D01*
X107759819Y-122864285D02*
X107759819Y-122673809D01*
X107759819Y-122673809D02*
X107807438Y-122578571D01*
X107807438Y-122578571D02*
X107855057Y-122530952D01*
X107855057Y-122530952D02*
X107950295Y-122483333D01*
X107950295Y-122483333D02*
X107997914Y-122483333D01*
X107997914Y-122483333D02*
X108093152Y-122530952D01*
X108093152Y-122530952D02*
X108140771Y-122578571D01*
X108140771Y-122578571D02*
X108188390Y-122673809D01*
X108188390Y-122673809D02*
X108188390Y-122864285D01*
X108188390Y-122864285D02*
X108236009Y-122959523D01*
X108236009Y-122959523D02*
X108283628Y-123007142D01*
X108283628Y-123007142D02*
X108378866Y-123054761D01*
X108378866Y-123054761D02*
X108569342Y-123054761D01*
X108569342Y-123054761D02*
X108664580Y-123007142D01*
X108664580Y-123007142D02*
X108712200Y-122959523D01*
X108712200Y-122959523D02*
X108759819Y-122864285D01*
X108759819Y-122864285D02*
X108759819Y-122673809D01*
X108759819Y-122673809D02*
X108712200Y-122578571D01*
X108712200Y-122578571D02*
X108664580Y-122530952D01*
X108664580Y-122530952D02*
X108569342Y-122483333D01*
X108569342Y-122483333D02*
X108378866Y-122483333D01*
X108378866Y-122483333D02*
X108283628Y-122530952D01*
X108283628Y-122530952D02*
X108236009Y-122578571D01*
X108236009Y-122578571D02*
X108188390Y-122673809D01*
X141926666Y-68194819D02*
X141926666Y-68909104D01*
X141926666Y-68909104D02*
X141879047Y-69051961D01*
X141879047Y-69051961D02*
X141783809Y-69147200D01*
X141783809Y-69147200D02*
X141640952Y-69194819D01*
X141640952Y-69194819D02*
X141545714Y-69194819D01*
X142355238Y-68290057D02*
X142402857Y-68242438D01*
X142402857Y-68242438D02*
X142498095Y-68194819D01*
X142498095Y-68194819D02*
X142736190Y-68194819D01*
X142736190Y-68194819D02*
X142831428Y-68242438D01*
X142831428Y-68242438D02*
X142879047Y-68290057D01*
X142879047Y-68290057D02*
X142926666Y-68385295D01*
X142926666Y-68385295D02*
X142926666Y-68480533D01*
X142926666Y-68480533D02*
X142879047Y-68623390D01*
X142879047Y-68623390D02*
X142307619Y-69194819D01*
X142307619Y-69194819D02*
X142926666Y-69194819D01*
X160188095Y-123394819D02*
X160188095Y-124204342D01*
X160188095Y-124204342D02*
X160235714Y-124299580D01*
X160235714Y-124299580D02*
X160283333Y-124347200D01*
X160283333Y-124347200D02*
X160378571Y-124394819D01*
X160378571Y-124394819D02*
X160569047Y-124394819D01*
X160569047Y-124394819D02*
X160664285Y-124347200D01*
X160664285Y-124347200D02*
X160711904Y-124299580D01*
X160711904Y-124299580D02*
X160759523Y-124204342D01*
X160759523Y-124204342D02*
X160759523Y-123394819D01*
X161664285Y-123728152D02*
X161664285Y-124394819D01*
X161426190Y-123347200D02*
X161188095Y-124061485D01*
X161188095Y-124061485D02*
X161807142Y-124061485D01*
X57759819Y-123984523D02*
X58474104Y-123984523D01*
X58474104Y-123984523D02*
X58616961Y-124032142D01*
X58616961Y-124032142D02*
X58712200Y-124127380D01*
X58712200Y-124127380D02*
X58759819Y-124270237D01*
X58759819Y-124270237D02*
X58759819Y-124365475D01*
X58759819Y-122984523D02*
X58759819Y-123555951D01*
X58759819Y-123270237D02*
X57759819Y-123270237D01*
X57759819Y-123270237D02*
X57902676Y-123365475D01*
X57902676Y-123365475D02*
X57997914Y-123460713D01*
X57997914Y-123460713D02*
X58045533Y-123555951D01*
X57855057Y-122603570D02*
X57807438Y-122555951D01*
X57807438Y-122555951D02*
X57759819Y-122460713D01*
X57759819Y-122460713D02*
X57759819Y-122222618D01*
X57759819Y-122222618D02*
X57807438Y-122127380D01*
X57807438Y-122127380D02*
X57855057Y-122079761D01*
X57855057Y-122079761D02*
X57950295Y-122032142D01*
X57950295Y-122032142D02*
X58045533Y-122032142D01*
X58045533Y-122032142D02*
X58188390Y-122079761D01*
X58188390Y-122079761D02*
X58759819Y-122651189D01*
X58759819Y-122651189D02*
X58759819Y-122032142D01*
X82759819Y-123984523D02*
X83474104Y-123984523D01*
X83474104Y-123984523D02*
X83616961Y-124032142D01*
X83616961Y-124032142D02*
X83712200Y-124127380D01*
X83712200Y-124127380D02*
X83759819Y-124270237D01*
X83759819Y-124270237D02*
X83759819Y-124365475D01*
X83759819Y-122984523D02*
X83759819Y-123555951D01*
X83759819Y-123270237D02*
X82759819Y-123270237D01*
X82759819Y-123270237D02*
X82902676Y-123365475D01*
X82902676Y-123365475D02*
X82997914Y-123460713D01*
X82997914Y-123460713D02*
X83045533Y-123555951D01*
X82759819Y-122365475D02*
X82759819Y-122270237D01*
X82759819Y-122270237D02*
X82807438Y-122174999D01*
X82807438Y-122174999D02*
X82855057Y-122127380D01*
X82855057Y-122127380D02*
X82950295Y-122079761D01*
X82950295Y-122079761D02*
X83140771Y-122032142D01*
X83140771Y-122032142D02*
X83378866Y-122032142D01*
X83378866Y-122032142D02*
X83569342Y-122079761D01*
X83569342Y-122079761D02*
X83664580Y-122127380D01*
X83664580Y-122127380D02*
X83712200Y-122174999D01*
X83712200Y-122174999D02*
X83759819Y-122270237D01*
X83759819Y-122270237D02*
X83759819Y-122365475D01*
X83759819Y-122365475D02*
X83712200Y-122460713D01*
X83712200Y-122460713D02*
X83664580Y-122508332D01*
X83664580Y-122508332D02*
X83569342Y-122555951D01*
X83569342Y-122555951D02*
X83378866Y-122603570D01*
X83378866Y-122603570D02*
X83140771Y-122603570D01*
X83140771Y-122603570D02*
X82950295Y-122555951D01*
X82950295Y-122555951D02*
X82855057Y-122508332D01*
X82855057Y-122508332D02*
X82807438Y-122460713D01*
X82807438Y-122460713D02*
X82759819Y-122365475D01*
X143759819Y-123508333D02*
X144474104Y-123508333D01*
X144474104Y-123508333D02*
X144616961Y-123555952D01*
X144616961Y-123555952D02*
X144712200Y-123651190D01*
X144712200Y-123651190D02*
X144759819Y-123794047D01*
X144759819Y-123794047D02*
X144759819Y-123889285D01*
X143759819Y-122555952D02*
X143759819Y-123032142D01*
X143759819Y-123032142D02*
X144236009Y-123079761D01*
X144236009Y-123079761D02*
X144188390Y-123032142D01*
X144188390Y-123032142D02*
X144140771Y-122936904D01*
X144140771Y-122936904D02*
X144140771Y-122698809D01*
X144140771Y-122698809D02*
X144188390Y-122603571D01*
X144188390Y-122603571D02*
X144236009Y-122555952D01*
X144236009Y-122555952D02*
X144331247Y-122508333D01*
X144331247Y-122508333D02*
X144569342Y-122508333D01*
X144569342Y-122508333D02*
X144664580Y-122555952D01*
X144664580Y-122555952D02*
X144712200Y-122603571D01*
X144712200Y-122603571D02*
X144759819Y-122698809D01*
X144759819Y-122698809D02*
X144759819Y-122936904D01*
X144759819Y-122936904D02*
X144712200Y-123032142D01*
X144712200Y-123032142D02*
X144664580Y-123079761D01*
X95204819Y-123533333D02*
X95919104Y-123533333D01*
X95919104Y-123533333D02*
X96061961Y-123580952D01*
X96061961Y-123580952D02*
X96157200Y-123676190D01*
X96157200Y-123676190D02*
X96204819Y-123819047D01*
X96204819Y-123819047D02*
X96204819Y-123914285D01*
X96204819Y-123009523D02*
X96204819Y-122819047D01*
X96204819Y-122819047D02*
X96157200Y-122723809D01*
X96157200Y-122723809D02*
X96109580Y-122676190D01*
X96109580Y-122676190D02*
X95966723Y-122580952D01*
X95966723Y-122580952D02*
X95776247Y-122533333D01*
X95776247Y-122533333D02*
X95395295Y-122533333D01*
X95395295Y-122533333D02*
X95300057Y-122580952D01*
X95300057Y-122580952D02*
X95252438Y-122628571D01*
X95252438Y-122628571D02*
X95204819Y-122723809D01*
X95204819Y-122723809D02*
X95204819Y-122914285D01*
X95204819Y-122914285D02*
X95252438Y-123009523D01*
X95252438Y-123009523D02*
X95300057Y-123057142D01*
X95300057Y-123057142D02*
X95395295Y-123104761D01*
X95395295Y-123104761D02*
X95633390Y-123104761D01*
X95633390Y-123104761D02*
X95728628Y-123057142D01*
X95728628Y-123057142D02*
X95776247Y-123009523D01*
X95776247Y-123009523D02*
X95823866Y-122914285D01*
X95823866Y-122914285D02*
X95823866Y-122723809D01*
X95823866Y-122723809D02*
X95776247Y-122628571D01*
X95776247Y-122628571D02*
X95728628Y-122580952D01*
X95728628Y-122580952D02*
X95633390Y-122533333D01*
X119759819Y-123533333D02*
X120474104Y-123533333D01*
X120474104Y-123533333D02*
X120616961Y-123580952D01*
X120616961Y-123580952D02*
X120712200Y-123676190D01*
X120712200Y-123676190D02*
X120759819Y-123819047D01*
X120759819Y-123819047D02*
X120759819Y-123914285D01*
X119759819Y-123152380D02*
X119759819Y-122485714D01*
X119759819Y-122485714D02*
X120759819Y-122914285D01*
X70669819Y-123984523D02*
X71384104Y-123984523D01*
X71384104Y-123984523D02*
X71526961Y-124032142D01*
X71526961Y-124032142D02*
X71622200Y-124127380D01*
X71622200Y-124127380D02*
X71669819Y-124270237D01*
X71669819Y-124270237D02*
X71669819Y-124365475D01*
X71669819Y-122984523D02*
X71669819Y-123555951D01*
X71669819Y-123270237D02*
X70669819Y-123270237D01*
X70669819Y-123270237D02*
X70812676Y-123365475D01*
X70812676Y-123365475D02*
X70907914Y-123460713D01*
X70907914Y-123460713D02*
X70955533Y-123555951D01*
X71669819Y-122032142D02*
X71669819Y-122603570D01*
X71669819Y-122317856D02*
X70669819Y-122317856D01*
X70669819Y-122317856D02*
X70812676Y-122413094D01*
X70812676Y-122413094D02*
X70907914Y-122508332D01*
X70907914Y-122508332D02*
X70955533Y-122603570D01*
X92050057Y-98455238D02*
X92002438Y-98550476D01*
X92002438Y-98550476D02*
X91907200Y-98645714D01*
X91907200Y-98645714D02*
X91764342Y-98788571D01*
X91764342Y-98788571D02*
X91716723Y-98883809D01*
X91716723Y-98883809D02*
X91716723Y-98979047D01*
X91954819Y-98931428D02*
X91907200Y-99026666D01*
X91907200Y-99026666D02*
X91811961Y-99121904D01*
X91811961Y-99121904D02*
X91621485Y-99169523D01*
X91621485Y-99169523D02*
X91288152Y-99169523D01*
X91288152Y-99169523D02*
X91097676Y-99121904D01*
X91097676Y-99121904D02*
X91002438Y-99026666D01*
X91002438Y-99026666D02*
X90954819Y-98931428D01*
X90954819Y-98931428D02*
X90954819Y-98740952D01*
X90954819Y-98740952D02*
X91002438Y-98645714D01*
X91002438Y-98645714D02*
X91097676Y-98550476D01*
X91097676Y-98550476D02*
X91288152Y-98502857D01*
X91288152Y-98502857D02*
X91621485Y-98502857D01*
X91621485Y-98502857D02*
X91811961Y-98550476D01*
X91811961Y-98550476D02*
X91907200Y-98645714D01*
X91907200Y-98645714D02*
X91954819Y-98740952D01*
X91954819Y-98740952D02*
X91954819Y-98931428D01*
X91050057Y-98121904D02*
X91002438Y-98074285D01*
X91002438Y-98074285D02*
X90954819Y-97979047D01*
X90954819Y-97979047D02*
X90954819Y-97740952D01*
X90954819Y-97740952D02*
X91002438Y-97645714D01*
X91002438Y-97645714D02*
X91050057Y-97598095D01*
X91050057Y-97598095D02*
X91145295Y-97550476D01*
X91145295Y-97550476D02*
X91240533Y-97550476D01*
X91240533Y-97550476D02*
X91383390Y-97598095D01*
X91383390Y-97598095D02*
X91954819Y-98169523D01*
X91954819Y-98169523D02*
X91954819Y-97550476D01*
X129941666Y-68194819D02*
X129941666Y-68909104D01*
X129941666Y-68909104D02*
X129894047Y-69051961D01*
X129894047Y-69051961D02*
X129798809Y-69147200D01*
X129798809Y-69147200D02*
X129655952Y-69194819D01*
X129655952Y-69194819D02*
X129560714Y-69194819D01*
X130941666Y-69194819D02*
X130370238Y-69194819D01*
X130655952Y-69194819D02*
X130655952Y-68194819D01*
X130655952Y-68194819D02*
X130560714Y-68337676D01*
X130560714Y-68337676D02*
X130465476Y-68432914D01*
X130465476Y-68432914D02*
X130370238Y-68480533D01*
X66376033Y-83759333D02*
X65676033Y-83759333D01*
X65676033Y-83759333D02*
X66176033Y-83526000D01*
X66176033Y-83526000D02*
X65676033Y-83292666D01*
X65676033Y-83292666D02*
X66376033Y-83292666D01*
X66376033Y-82959333D02*
X65676033Y-82959333D01*
X66376033Y-82626000D02*
X65676033Y-82626000D01*
X65676033Y-82626000D02*
X66176033Y-82392667D01*
X66176033Y-82392667D02*
X65676033Y-82159333D01*
X65676033Y-82159333D02*
X66376033Y-82159333D01*
X65676033Y-81892667D02*
X66376033Y-81426000D01*
X65676033Y-81426000D02*
X66376033Y-81892667D01*
X66376033Y-80759333D02*
X66042700Y-80992666D01*
X66376033Y-81159333D02*
X65676033Y-81159333D01*
X65676033Y-81159333D02*
X65676033Y-80892666D01*
X65676033Y-80892666D02*
X65709366Y-80826000D01*
X65709366Y-80826000D02*
X65742700Y-80792666D01*
X65742700Y-80792666D02*
X65809366Y-80759333D01*
X65809366Y-80759333D02*
X65909366Y-80759333D01*
X65909366Y-80759333D02*
X65976033Y-80792666D01*
X65976033Y-80792666D02*
X66009366Y-80826000D01*
X66009366Y-80826000D02*
X66042700Y-80892666D01*
X66042700Y-80892666D02*
X66042700Y-81159333D01*
X65676033Y-80559333D02*
X65676033Y-80159333D01*
X66376033Y-80359333D02*
X65676033Y-80359333D01*
X66376033Y-79559333D02*
X66376033Y-79959333D01*
X66376033Y-79759333D02*
X65676033Y-79759333D01*
X65676033Y-79759333D02*
X65776033Y-79826000D01*
X65776033Y-79826000D02*
X65842700Y-79892667D01*
X65842700Y-79892667D02*
X65876033Y-79959333D01*
X65676033Y-79126000D02*
X65676033Y-79059333D01*
X65676033Y-79059333D02*
X65709366Y-78992666D01*
X65709366Y-78992666D02*
X65742700Y-78959333D01*
X65742700Y-78959333D02*
X65809366Y-78926000D01*
X65809366Y-78926000D02*
X65942700Y-78892666D01*
X65942700Y-78892666D02*
X66109366Y-78892666D01*
X66109366Y-78892666D02*
X66242700Y-78926000D01*
X66242700Y-78926000D02*
X66309366Y-78959333D01*
X66309366Y-78959333D02*
X66342700Y-78992666D01*
X66342700Y-78992666D02*
X66376033Y-79059333D01*
X66376033Y-79059333D02*
X66376033Y-79126000D01*
X66376033Y-79126000D02*
X66342700Y-79192666D01*
X66342700Y-79192666D02*
X66309366Y-79226000D01*
X66309366Y-79226000D02*
X66242700Y-79259333D01*
X66242700Y-79259333D02*
X66109366Y-79292666D01*
X66109366Y-79292666D02*
X65942700Y-79292666D01*
X65942700Y-79292666D02*
X65809366Y-79259333D01*
X65809366Y-79259333D02*
X65742700Y-79226000D01*
X65742700Y-79226000D02*
X65709366Y-79192666D01*
X65709366Y-79192666D02*
X65676033Y-79126000D01*
X65676033Y-78292666D02*
X65676033Y-78425999D01*
X65676033Y-78425999D02*
X65709366Y-78492666D01*
X65709366Y-78492666D02*
X65742700Y-78525999D01*
X65742700Y-78525999D02*
X65842700Y-78592666D01*
X65842700Y-78592666D02*
X65976033Y-78625999D01*
X65976033Y-78625999D02*
X66242700Y-78625999D01*
X66242700Y-78625999D02*
X66309366Y-78592666D01*
X66309366Y-78592666D02*
X66342700Y-78559333D01*
X66342700Y-78559333D02*
X66376033Y-78492666D01*
X66376033Y-78492666D02*
X66376033Y-78359333D01*
X66376033Y-78359333D02*
X66342700Y-78292666D01*
X66342700Y-78292666D02*
X66309366Y-78259333D01*
X66309366Y-78259333D02*
X66242700Y-78225999D01*
X66242700Y-78225999D02*
X66076033Y-78225999D01*
X66076033Y-78225999D02*
X66009366Y-78259333D01*
X66009366Y-78259333D02*
X65976033Y-78292666D01*
X65976033Y-78292666D02*
X65942700Y-78359333D01*
X65942700Y-78359333D02*
X65942700Y-78492666D01*
X65942700Y-78492666D02*
X65976033Y-78559333D01*
X65976033Y-78559333D02*
X66009366Y-78592666D01*
X66009366Y-78592666D02*
X66076033Y-78625999D01*
X65742700Y-77959332D02*
X65709366Y-77925999D01*
X65709366Y-77925999D02*
X65676033Y-77859332D01*
X65676033Y-77859332D02*
X65676033Y-77692666D01*
X65676033Y-77692666D02*
X65709366Y-77625999D01*
X65709366Y-77625999D02*
X65742700Y-77592666D01*
X65742700Y-77592666D02*
X65809366Y-77559332D01*
X65809366Y-77559332D02*
X65876033Y-77559332D01*
X65876033Y-77559332D02*
X65976033Y-77592666D01*
X65976033Y-77592666D02*
X66376033Y-77992666D01*
X66376033Y-77992666D02*
X66376033Y-77559332D01*
X88340952Y-81130819D02*
X88340952Y-80130819D01*
X88340952Y-80130819D02*
X88674285Y-80845104D01*
X88674285Y-80845104D02*
X89007618Y-80130819D01*
X89007618Y-80130819D02*
X89007618Y-81130819D01*
X89483809Y-81130819D02*
X89483809Y-80464152D01*
X89483809Y-80130819D02*
X89436190Y-80178438D01*
X89436190Y-80178438D02*
X89483809Y-80226057D01*
X89483809Y-80226057D02*
X89531428Y-80178438D01*
X89531428Y-80178438D02*
X89483809Y-80130819D01*
X89483809Y-80130819D02*
X89483809Y-80226057D01*
X90388570Y-81083200D02*
X90293332Y-81130819D01*
X90293332Y-81130819D02*
X90102856Y-81130819D01*
X90102856Y-81130819D02*
X90007618Y-81083200D01*
X90007618Y-81083200D02*
X89959999Y-81035580D01*
X89959999Y-81035580D02*
X89912380Y-80940342D01*
X89912380Y-80940342D02*
X89912380Y-80654628D01*
X89912380Y-80654628D02*
X89959999Y-80559390D01*
X89959999Y-80559390D02*
X90007618Y-80511771D01*
X90007618Y-80511771D02*
X90102856Y-80464152D01*
X90102856Y-80464152D02*
X90293332Y-80464152D01*
X90293332Y-80464152D02*
X90388570Y-80511771D01*
X90817142Y-81130819D02*
X90817142Y-80464152D01*
X90817142Y-80654628D02*
X90864761Y-80559390D01*
X90864761Y-80559390D02*
X90912380Y-80511771D01*
X90912380Y-80511771D02*
X91007618Y-80464152D01*
X91007618Y-80464152D02*
X91102856Y-80464152D01*
X91579047Y-81130819D02*
X91483809Y-81083200D01*
X91483809Y-81083200D02*
X91436190Y-81035580D01*
X91436190Y-81035580D02*
X91388571Y-80940342D01*
X91388571Y-80940342D02*
X91388571Y-80654628D01*
X91388571Y-80654628D02*
X91436190Y-80559390D01*
X91436190Y-80559390D02*
X91483809Y-80511771D01*
X91483809Y-80511771D02*
X91579047Y-80464152D01*
X91579047Y-80464152D02*
X91721904Y-80464152D01*
X91721904Y-80464152D02*
X91817142Y-80511771D01*
X91817142Y-80511771D02*
X91864761Y-80559390D01*
X91864761Y-80559390D02*
X91912380Y-80654628D01*
X91912380Y-80654628D02*
X91912380Y-80940342D01*
X91912380Y-80940342D02*
X91864761Y-81035580D01*
X91864761Y-81035580D02*
X91817142Y-81083200D01*
X91817142Y-81083200D02*
X91721904Y-81130819D01*
X91721904Y-81130819D02*
X91579047Y-81130819D01*
X93055238Y-81083200D02*
X93198095Y-81130819D01*
X93198095Y-81130819D02*
X93436190Y-81130819D01*
X93436190Y-81130819D02*
X93531428Y-81083200D01*
X93531428Y-81083200D02*
X93579047Y-81035580D01*
X93579047Y-81035580D02*
X93626666Y-80940342D01*
X93626666Y-80940342D02*
X93626666Y-80845104D01*
X93626666Y-80845104D02*
X93579047Y-80749866D01*
X93579047Y-80749866D02*
X93531428Y-80702247D01*
X93531428Y-80702247D02*
X93436190Y-80654628D01*
X93436190Y-80654628D02*
X93245714Y-80607009D01*
X93245714Y-80607009D02*
X93150476Y-80559390D01*
X93150476Y-80559390D02*
X93102857Y-80511771D01*
X93102857Y-80511771D02*
X93055238Y-80416533D01*
X93055238Y-80416533D02*
X93055238Y-80321295D01*
X93055238Y-80321295D02*
X93102857Y-80226057D01*
X93102857Y-80226057D02*
X93150476Y-80178438D01*
X93150476Y-80178438D02*
X93245714Y-80130819D01*
X93245714Y-80130819D02*
X93483809Y-80130819D01*
X93483809Y-80130819D02*
X93626666Y-80178438D01*
X94055238Y-81130819D02*
X94055238Y-80130819D01*
X94055238Y-80130819D02*
X94293333Y-80130819D01*
X94293333Y-80130819D02*
X94436190Y-80178438D01*
X94436190Y-80178438D02*
X94531428Y-80273676D01*
X94531428Y-80273676D02*
X94579047Y-80368914D01*
X94579047Y-80368914D02*
X94626666Y-80559390D01*
X94626666Y-80559390D02*
X94626666Y-80702247D01*
X94626666Y-80702247D02*
X94579047Y-80892723D01*
X94579047Y-80892723D02*
X94531428Y-80987961D01*
X94531428Y-80987961D02*
X94436190Y-81083200D01*
X94436190Y-81083200D02*
X94293333Y-81130819D01*
X94293333Y-81130819D02*
X94055238Y-81130819D01*
X40114819Y-81937904D02*
X40924342Y-81937904D01*
X40924342Y-81937904D02*
X41019580Y-81890285D01*
X41019580Y-81890285D02*
X41067200Y-81842666D01*
X41067200Y-81842666D02*
X41114819Y-81747428D01*
X41114819Y-81747428D02*
X41114819Y-81556952D01*
X41114819Y-81556952D02*
X41067200Y-81461714D01*
X41067200Y-81461714D02*
X41019580Y-81414095D01*
X41019580Y-81414095D02*
X40924342Y-81366476D01*
X40924342Y-81366476D02*
X40114819Y-81366476D01*
X41067200Y-80937904D02*
X41114819Y-80795047D01*
X41114819Y-80795047D02*
X41114819Y-80556952D01*
X41114819Y-80556952D02*
X41067200Y-80461714D01*
X41067200Y-80461714D02*
X41019580Y-80414095D01*
X41019580Y-80414095D02*
X40924342Y-80366476D01*
X40924342Y-80366476D02*
X40829104Y-80366476D01*
X40829104Y-80366476D02*
X40733866Y-80414095D01*
X40733866Y-80414095D02*
X40686247Y-80461714D01*
X40686247Y-80461714D02*
X40638628Y-80556952D01*
X40638628Y-80556952D02*
X40591009Y-80747428D01*
X40591009Y-80747428D02*
X40543390Y-80842666D01*
X40543390Y-80842666D02*
X40495771Y-80890285D01*
X40495771Y-80890285D02*
X40400533Y-80937904D01*
X40400533Y-80937904D02*
X40305295Y-80937904D01*
X40305295Y-80937904D02*
X40210057Y-80890285D01*
X40210057Y-80890285D02*
X40162438Y-80842666D01*
X40162438Y-80842666D02*
X40114819Y-80747428D01*
X40114819Y-80747428D02*
X40114819Y-80509333D01*
X40114819Y-80509333D02*
X40162438Y-80366476D01*
X40591009Y-79604571D02*
X40638628Y-79461714D01*
X40638628Y-79461714D02*
X40686247Y-79414095D01*
X40686247Y-79414095D02*
X40781485Y-79366476D01*
X40781485Y-79366476D02*
X40924342Y-79366476D01*
X40924342Y-79366476D02*
X41019580Y-79414095D01*
X41019580Y-79414095D02*
X41067200Y-79461714D01*
X41067200Y-79461714D02*
X41114819Y-79556952D01*
X41114819Y-79556952D02*
X41114819Y-79937904D01*
X41114819Y-79937904D02*
X40114819Y-79937904D01*
X40114819Y-79937904D02*
X40114819Y-79604571D01*
X40114819Y-79604571D02*
X40162438Y-79509333D01*
X40162438Y-79509333D02*
X40210057Y-79461714D01*
X40210057Y-79461714D02*
X40305295Y-79414095D01*
X40305295Y-79414095D02*
X40400533Y-79414095D01*
X40400533Y-79414095D02*
X40495771Y-79461714D01*
X40495771Y-79461714D02*
X40543390Y-79509333D01*
X40543390Y-79509333D02*
X40591009Y-79604571D01*
X40591009Y-79604571D02*
X40591009Y-79937904D01*
X45554676Y-82620019D02*
X45554676Y-83429542D01*
X45554676Y-83429542D02*
X45602295Y-83524780D01*
X45602295Y-83524780D02*
X45649914Y-83572400D01*
X45649914Y-83572400D02*
X45745152Y-83620019D01*
X45745152Y-83620019D02*
X45935628Y-83620019D01*
X45935628Y-83620019D02*
X46030866Y-83572400D01*
X46030866Y-83572400D02*
X46078485Y-83524780D01*
X46078485Y-83524780D02*
X46126104Y-83429542D01*
X46126104Y-83429542D02*
X46126104Y-82620019D01*
X46554676Y-83572400D02*
X46697533Y-83620019D01*
X46697533Y-83620019D02*
X46935628Y-83620019D01*
X46935628Y-83620019D02*
X47030866Y-83572400D01*
X47030866Y-83572400D02*
X47078485Y-83524780D01*
X47078485Y-83524780D02*
X47126104Y-83429542D01*
X47126104Y-83429542D02*
X47126104Y-83334304D01*
X47126104Y-83334304D02*
X47078485Y-83239066D01*
X47078485Y-83239066D02*
X47030866Y-83191447D01*
X47030866Y-83191447D02*
X46935628Y-83143828D01*
X46935628Y-83143828D02*
X46745152Y-83096209D01*
X46745152Y-83096209D02*
X46649914Y-83048590D01*
X46649914Y-83048590D02*
X46602295Y-83000971D01*
X46602295Y-83000971D02*
X46554676Y-82905733D01*
X46554676Y-82905733D02*
X46554676Y-82810495D01*
X46554676Y-82810495D02*
X46602295Y-82715257D01*
X46602295Y-82715257D02*
X46649914Y-82667638D01*
X46649914Y-82667638D02*
X46745152Y-82620019D01*
X46745152Y-82620019D02*
X46983247Y-82620019D01*
X46983247Y-82620019D02*
X47126104Y-82667638D01*
X47888009Y-83096209D02*
X48030866Y-83143828D01*
X48030866Y-83143828D02*
X48078485Y-83191447D01*
X48078485Y-83191447D02*
X48126104Y-83286685D01*
X48126104Y-83286685D02*
X48126104Y-83429542D01*
X48126104Y-83429542D02*
X48078485Y-83524780D01*
X48078485Y-83524780D02*
X48030866Y-83572400D01*
X48030866Y-83572400D02*
X47935628Y-83620019D01*
X47935628Y-83620019D02*
X47554676Y-83620019D01*
X47554676Y-83620019D02*
X47554676Y-82620019D01*
X47554676Y-82620019D02*
X47888009Y-82620019D01*
X47888009Y-82620019D02*
X47983247Y-82667638D01*
X47983247Y-82667638D02*
X48030866Y-82715257D01*
X48030866Y-82715257D02*
X48078485Y-82810495D01*
X48078485Y-82810495D02*
X48078485Y-82905733D01*
X48078485Y-82905733D02*
X48030866Y-83000971D01*
X48030866Y-83000971D02*
X47983247Y-83048590D01*
X47983247Y-83048590D02*
X47888009Y-83096209D01*
X47888009Y-83096209D02*
X47554676Y-83096209D01*
X49316581Y-83620019D02*
X49316581Y-82620019D01*
X49316581Y-83096209D02*
X49888009Y-83096209D01*
X49888009Y-83620019D02*
X49888009Y-82620019D01*
X50507057Y-83620019D02*
X50411819Y-83572400D01*
X50411819Y-83572400D02*
X50364200Y-83524780D01*
X50364200Y-83524780D02*
X50316581Y-83429542D01*
X50316581Y-83429542D02*
X50316581Y-83143828D01*
X50316581Y-83143828D02*
X50364200Y-83048590D01*
X50364200Y-83048590D02*
X50411819Y-83000971D01*
X50411819Y-83000971D02*
X50507057Y-82953352D01*
X50507057Y-82953352D02*
X50649914Y-82953352D01*
X50649914Y-82953352D02*
X50745152Y-83000971D01*
X50745152Y-83000971D02*
X50792771Y-83048590D01*
X50792771Y-83048590D02*
X50840390Y-83143828D01*
X50840390Y-83143828D02*
X50840390Y-83429542D01*
X50840390Y-83429542D02*
X50792771Y-83524780D01*
X50792771Y-83524780D02*
X50745152Y-83572400D01*
X50745152Y-83572400D02*
X50649914Y-83620019D01*
X50649914Y-83620019D02*
X50507057Y-83620019D01*
X51221343Y-83572400D02*
X51316581Y-83620019D01*
X51316581Y-83620019D02*
X51507057Y-83620019D01*
X51507057Y-83620019D02*
X51602295Y-83572400D01*
X51602295Y-83572400D02*
X51649914Y-83477161D01*
X51649914Y-83477161D02*
X51649914Y-83429542D01*
X51649914Y-83429542D02*
X51602295Y-83334304D01*
X51602295Y-83334304D02*
X51507057Y-83286685D01*
X51507057Y-83286685D02*
X51364200Y-83286685D01*
X51364200Y-83286685D02*
X51268962Y-83239066D01*
X51268962Y-83239066D02*
X51221343Y-83143828D01*
X51221343Y-83143828D02*
X51221343Y-83096209D01*
X51221343Y-83096209D02*
X51268962Y-83000971D01*
X51268962Y-83000971D02*
X51364200Y-82953352D01*
X51364200Y-82953352D02*
X51507057Y-82953352D01*
X51507057Y-82953352D02*
X51602295Y-83000971D01*
X51935629Y-82953352D02*
X52316581Y-82953352D01*
X52078486Y-82620019D02*
X52078486Y-83477161D01*
X52078486Y-83477161D02*
X52126105Y-83572400D01*
X52126105Y-83572400D02*
X52221343Y-83620019D01*
X52221343Y-83620019D02*
X52316581Y-83620019D01*
X55196009Y-80256543D02*
X55196009Y-79923210D01*
X55719819Y-79780353D02*
X55719819Y-80256543D01*
X55719819Y-80256543D02*
X54719819Y-80256543D01*
X54719819Y-80256543D02*
X54719819Y-79780353D01*
X55053152Y-79494638D02*
X55053152Y-79113686D01*
X54719819Y-79351781D02*
X55576961Y-79351781D01*
X55576961Y-79351781D02*
X55672200Y-79304162D01*
X55672200Y-79304162D02*
X55719819Y-79208924D01*
X55719819Y-79208924D02*
X55719819Y-79113686D01*
X55719819Y-78780352D02*
X54719819Y-78780352D01*
X55719819Y-78351781D02*
X55196009Y-78351781D01*
X55196009Y-78351781D02*
X55100771Y-78399400D01*
X55100771Y-78399400D02*
X55053152Y-78494638D01*
X55053152Y-78494638D02*
X55053152Y-78637495D01*
X55053152Y-78637495D02*
X55100771Y-78732733D01*
X55100771Y-78732733D02*
X55148390Y-78780352D01*
X55672200Y-77494638D02*
X55719819Y-77589876D01*
X55719819Y-77589876D02*
X55719819Y-77780352D01*
X55719819Y-77780352D02*
X55672200Y-77875590D01*
X55672200Y-77875590D02*
X55576961Y-77923209D01*
X55576961Y-77923209D02*
X55196009Y-77923209D01*
X55196009Y-77923209D02*
X55100771Y-77875590D01*
X55100771Y-77875590D02*
X55053152Y-77780352D01*
X55053152Y-77780352D02*
X55053152Y-77589876D01*
X55053152Y-77589876D02*
X55100771Y-77494638D01*
X55100771Y-77494638D02*
X55196009Y-77447019D01*
X55196009Y-77447019D02*
X55291247Y-77447019D01*
X55291247Y-77447019D02*
X55386485Y-77923209D01*
X55719819Y-77018447D02*
X55053152Y-77018447D01*
X55243628Y-77018447D02*
X55148390Y-76970828D01*
X55148390Y-76970828D02*
X55100771Y-76923209D01*
X55100771Y-76923209D02*
X55053152Y-76827971D01*
X55053152Y-76827971D02*
X55053152Y-76732733D01*
X55053152Y-76399399D02*
X55719819Y-76399399D01*
X55148390Y-76399399D02*
X55100771Y-76351780D01*
X55100771Y-76351780D02*
X55053152Y-76256542D01*
X55053152Y-76256542D02*
X55053152Y-76113685D01*
X55053152Y-76113685D02*
X55100771Y-76018447D01*
X55100771Y-76018447D02*
X55196009Y-75970828D01*
X55196009Y-75970828D02*
X55719819Y-75970828D01*
X55672200Y-75113685D02*
X55719819Y-75208923D01*
X55719819Y-75208923D02*
X55719819Y-75399399D01*
X55719819Y-75399399D02*
X55672200Y-75494637D01*
X55672200Y-75494637D02*
X55576961Y-75542256D01*
X55576961Y-75542256D02*
X55196009Y-75542256D01*
X55196009Y-75542256D02*
X55100771Y-75494637D01*
X55100771Y-75494637D02*
X55053152Y-75399399D01*
X55053152Y-75399399D02*
X55053152Y-75208923D01*
X55053152Y-75208923D02*
X55100771Y-75113685D01*
X55100771Y-75113685D02*
X55196009Y-75066066D01*
X55196009Y-75066066D02*
X55291247Y-75066066D01*
X55291247Y-75066066D02*
X55386485Y-75542256D01*
X55053152Y-74780351D02*
X55053152Y-74399399D01*
X54719819Y-74637494D02*
X55576961Y-74637494D01*
X55576961Y-74637494D02*
X55672200Y-74589875D01*
X55672200Y-74589875D02*
X55719819Y-74494637D01*
X55719819Y-74494637D02*
X55719819Y-74399399D01*
X65106033Y-81879333D02*
X64406033Y-81879333D01*
X64406033Y-81879333D02*
X64406033Y-81712666D01*
X64406033Y-81712666D02*
X64439366Y-81612666D01*
X64439366Y-81612666D02*
X64506033Y-81546000D01*
X64506033Y-81546000D02*
X64572700Y-81512666D01*
X64572700Y-81512666D02*
X64706033Y-81479333D01*
X64706033Y-81479333D02*
X64806033Y-81479333D01*
X64806033Y-81479333D02*
X64939366Y-81512666D01*
X64939366Y-81512666D02*
X65006033Y-81546000D01*
X65006033Y-81546000D02*
X65072700Y-81612666D01*
X65072700Y-81612666D02*
X65106033Y-81712666D01*
X65106033Y-81712666D02*
X65106033Y-81879333D01*
X64406033Y-81279333D02*
X65106033Y-81046000D01*
X65106033Y-81046000D02*
X64406033Y-80812666D01*
X64406033Y-80379333D02*
X64906033Y-80379333D01*
X64906033Y-80379333D02*
X65006033Y-80412666D01*
X65006033Y-80412666D02*
X65072700Y-80479333D01*
X65072700Y-80479333D02*
X65106033Y-80579333D01*
X65106033Y-80579333D02*
X65106033Y-80646000D01*
X64406033Y-79746000D02*
X64406033Y-79879333D01*
X64406033Y-79879333D02*
X64439366Y-79946000D01*
X64439366Y-79946000D02*
X64472700Y-79979333D01*
X64472700Y-79979333D02*
X64572700Y-80046000D01*
X64572700Y-80046000D02*
X64706033Y-80079333D01*
X64706033Y-80079333D02*
X64972700Y-80079333D01*
X64972700Y-80079333D02*
X65039366Y-80046000D01*
X65039366Y-80046000D02*
X65072700Y-80012667D01*
X65072700Y-80012667D02*
X65106033Y-79946000D01*
X65106033Y-79946000D02*
X65106033Y-79812667D01*
X65106033Y-79812667D02*
X65072700Y-79746000D01*
X65072700Y-79746000D02*
X65039366Y-79712667D01*
X65039366Y-79712667D02*
X64972700Y-79679333D01*
X64972700Y-79679333D02*
X64806033Y-79679333D01*
X64806033Y-79679333D02*
X64739366Y-79712667D01*
X64739366Y-79712667D02*
X64706033Y-79746000D01*
X64706033Y-79746000D02*
X64672700Y-79812667D01*
X64672700Y-79812667D02*
X64672700Y-79946000D01*
X64672700Y-79946000D02*
X64706033Y-80012667D01*
X64706033Y-80012667D02*
X64739366Y-80046000D01*
X64739366Y-80046000D02*
X64806033Y-80079333D01*
X64906033Y-79412666D02*
X64906033Y-79079333D01*
X65106033Y-79479333D02*
X64406033Y-79246000D01*
X64406033Y-79246000D02*
X65106033Y-79012666D01*
D11*
%TO.C,J6*%
X133665000Y-121845000D02*
X134995000Y-121845000D01*
X133665000Y-123175000D02*
X133665000Y-121845000D01*
X136265000Y-121845000D02*
X141405000Y-121845000D01*
X136265000Y-124505000D02*
X136265000Y-121845000D01*
X136265000Y-124505000D02*
X141405000Y-124505000D01*
X141405000Y-124505000D02*
X141405000Y-121845000D01*
D12*
%TO.C,G\u002A\u002A\u002A*%
G36*
X121249813Y-68591134D02*
G01*
X121302972Y-68713947D01*
X121256468Y-68903439D01*
X121061053Y-68947895D01*
X120841642Y-68880234D01*
X120819134Y-68713947D01*
X120950953Y-68515065D01*
X121061053Y-68480000D01*
X121249813Y-68591134D01*
G37*
G36*
X121825939Y-68524610D02*
G01*
X121863158Y-68680526D01*
X121779569Y-68898270D01*
X121662632Y-68947895D01*
X121499324Y-68836443D01*
X121462105Y-68680526D01*
X121545694Y-68462783D01*
X121662632Y-68413158D01*
X121825939Y-68524610D01*
G37*
G36*
X105000436Y-66395367D02*
G01*
X104968729Y-66643569D01*
X104934688Y-66775526D01*
X104837123Y-67017230D01*
X104687473Y-67041282D01*
X104438573Y-66881288D01*
X104293383Y-66746710D01*
X104330610Y-66640845D01*
X104578980Y-66494893D01*
X104605678Y-66481054D01*
X104892598Y-66352990D01*
X105000436Y-66395367D01*
G37*
G36*
X104394240Y-67112422D02*
G01*
X104216300Y-67376281D01*
X103959708Y-67727482D01*
X103670049Y-68106439D01*
X103392909Y-68453568D01*
X103173873Y-68709284D01*
X103058525Y-68814003D01*
X103056538Y-68814211D01*
X103013691Y-68715239D01*
X103013684Y-68713384D01*
X103090930Y-68564335D01*
X103290705Y-68287587D01*
X103565071Y-67940560D01*
X103866087Y-67580675D01*
X104145813Y-67265352D01*
X104356308Y-67052013D01*
X104447944Y-66995488D01*
X104394240Y-67112422D01*
G37*
G36*
X103982895Y-69105702D02*
G01*
X104153508Y-69156373D01*
X104243852Y-69290949D01*
X104278820Y-69576607D01*
X104283684Y-69917350D01*
X104292711Y-70351502D01*
X104336351Y-70581947D01*
X104439445Y-70672164D01*
X104584474Y-70686034D01*
X104828708Y-70763313D01*
X104885263Y-70953158D01*
X104845902Y-71120242D01*
X104682460Y-71199251D01*
X104326901Y-71220424D01*
X104283684Y-71220526D01*
X103682105Y-71220526D01*
X103682105Y-70141755D01*
X103685971Y-69609099D01*
X103707628Y-69291825D01*
X103762164Y-69137963D01*
X103864669Y-69095540D01*
X103982895Y-69105702D01*
G37*
G36*
X115493770Y-71837340D02*
G01*
X115765458Y-72029127D01*
X116133750Y-72325480D01*
X116267525Y-72439676D01*
X116669680Y-72768584D01*
X117006817Y-73009334D01*
X117221336Y-73121894D01*
X117253164Y-73124682D01*
X117387628Y-73204758D01*
X117550800Y-73417631D01*
X117676500Y-73657128D01*
X117698546Y-73817077D01*
X117690532Y-73826342D01*
X117551665Y-73810375D01*
X117284474Y-73731084D01*
X117020112Y-73586052D01*
X116916842Y-73428403D01*
X116821626Y-73263156D01*
X116569055Y-72982462D01*
X116208743Y-72640132D01*
X116109886Y-72553166D01*
X115742783Y-72220774D01*
X115481025Y-71955836D01*
X115368410Y-71803678D01*
X115369772Y-71787246D01*
X115493770Y-71837340D01*
G37*
G36*
X106006458Y-69097929D02*
G01*
X106175751Y-69163382D01*
X106197616Y-69302544D01*
X106195191Y-69315526D01*
X106049308Y-69496733D01*
X105851178Y-69507650D01*
X105605179Y-69543957D01*
X105553684Y-69665457D01*
X105667481Y-69837700D01*
X105854474Y-69907807D01*
X106089644Y-70017071D01*
X106155263Y-70151053D01*
X106041467Y-70323995D01*
X105854474Y-70394298D01*
X105599075Y-70485918D01*
X105583544Y-70605655D01*
X105799672Y-70681910D01*
X105887895Y-70685790D01*
X106149970Y-70748453D01*
X106222105Y-70953158D01*
X106182744Y-71120242D01*
X106019302Y-71199251D01*
X105663743Y-71220424D01*
X105620526Y-71220526D01*
X105018947Y-71220526D01*
X105018947Y-70151053D01*
X105018947Y-69081579D01*
X105630329Y-69081579D01*
X106006458Y-69097929D01*
G37*
G36*
X112257701Y-69107314D02*
G01*
X112740746Y-69213325D01*
X112990402Y-69446420D01*
X113011832Y-69812945D01*
X112965334Y-69976893D01*
X112753901Y-70294888D01*
X112535994Y-70394298D01*
X112313675Y-70492740D01*
X112239662Y-70750493D01*
X112237895Y-70828772D01*
X112193633Y-71118146D01*
X112030312Y-71217497D01*
X111970526Y-71220526D01*
X111837695Y-71198342D01*
X111757903Y-71096056D01*
X111717846Y-70860063D01*
X111704218Y-70436761D01*
X111703158Y-70143366D01*
X111703158Y-69750000D01*
X112237895Y-69750000D01*
X112264854Y-69962486D01*
X112365656Y-69941129D01*
X112398316Y-69910421D01*
X112489903Y-69728505D01*
X112398316Y-69589579D01*
X112278594Y-69523775D01*
X112238871Y-69685657D01*
X112237895Y-69750000D01*
X111703158Y-69750000D01*
X111703158Y-69066206D01*
X112257701Y-69107314D01*
G37*
G36*
X106174085Y-64295044D02*
G01*
X106587429Y-64350388D01*
X106810576Y-64468748D01*
X106897890Y-64617251D01*
X106918158Y-64986958D01*
X106761913Y-65334653D01*
X106484733Y-65555656D01*
X106385864Y-65581666D01*
X106163945Y-65680404D01*
X106090144Y-65938858D01*
X106088421Y-66016140D01*
X106044160Y-66305514D01*
X105880839Y-66404866D01*
X105821053Y-66407895D01*
X105688203Y-66385704D01*
X105608409Y-66283391D01*
X105568359Y-66047345D01*
X105554741Y-65623955D01*
X105553684Y-65331096D01*
X105553684Y-64870526D01*
X106088421Y-64870526D01*
X106160607Y-65048429D01*
X106222105Y-65071053D01*
X106340707Y-64962774D01*
X106355790Y-64870526D01*
X106283604Y-64692624D01*
X106222105Y-64670000D01*
X106103503Y-64778279D01*
X106088421Y-64870526D01*
X105553684Y-64870526D01*
X105553684Y-64254298D01*
X106174085Y-64295044D01*
G37*
G36*
X99748567Y-69141363D02*
G01*
X99956956Y-69348397D01*
X100055329Y-69744207D01*
X100072632Y-70151053D01*
X100035267Y-70702024D01*
X99905871Y-71035445D01*
X99658489Y-71192843D01*
X99404211Y-71220526D01*
X99078200Y-71162165D01*
X98896211Y-71060105D01*
X98799349Y-70825403D01*
X98748462Y-70428350D01*
X98745490Y-70151053D01*
X99270526Y-70151053D01*
X99294573Y-70532349D01*
X99356056Y-70774366D01*
X99404211Y-70819474D01*
X99480470Y-70699242D01*
X99528873Y-70391828D01*
X99537895Y-70151053D01*
X99513848Y-69769756D01*
X99452366Y-69527740D01*
X99404211Y-69482632D01*
X99327951Y-69602864D01*
X99279548Y-69910277D01*
X99270526Y-70151053D01*
X98745490Y-70151053D01*
X98743550Y-69969985D01*
X98784613Y-69551342D01*
X98871650Y-69273459D01*
X98896211Y-69242000D01*
X99146191Y-69118470D01*
X99404211Y-69081579D01*
X99748567Y-69141363D01*
G37*
G36*
X119835433Y-69107933D02*
G01*
X120012108Y-69152152D01*
X120137604Y-69271525D01*
X120241196Y-69521645D01*
X120352162Y-69958104D01*
X120402372Y-70184474D01*
X120628288Y-71220526D01*
X120309934Y-71220526D01*
X120053049Y-71147888D01*
X119991579Y-71020000D01*
X119884569Y-70842766D01*
X119791053Y-70819474D01*
X119613818Y-70926484D01*
X119590526Y-71020000D01*
X119477638Y-71182925D01*
X119307566Y-71220526D01*
X119104645Y-71171566D01*
X119091231Y-70975981D01*
X119105101Y-70919737D01*
X119175395Y-70623795D01*
X119265445Y-70206754D01*
X119734765Y-70206754D01*
X119759343Y-70380145D01*
X119804978Y-70382215D01*
X119836891Y-70203293D01*
X119815532Y-70125987D01*
X119756172Y-70075350D01*
X119734765Y-70206754D01*
X119265445Y-70206754D01*
X119271188Y-70180157D01*
X119340003Y-69843196D01*
X119435662Y-69410755D01*
X119528165Y-69183665D01*
X119656996Y-69103331D01*
X119835433Y-69107933D01*
G37*
G36*
X121871609Y-69107524D02*
G01*
X121952191Y-69223968D01*
X121988253Y-69488827D01*
X121996829Y-69960014D01*
X121996842Y-69990632D01*
X121970618Y-70583969D01*
X121876100Y-70957405D01*
X121689519Y-71154677D01*
X121387106Y-71219518D01*
X121328421Y-71220526D01*
X121002410Y-71162165D01*
X120820421Y-71060105D01*
X120732927Y-70839726D01*
X120676085Y-70425447D01*
X120660000Y-69990632D01*
X120667631Y-69507371D01*
X120701879Y-69233392D01*
X120779779Y-69110781D01*
X120918363Y-69081623D01*
X120927369Y-69081579D01*
X121072064Y-69108662D01*
X121152735Y-69229295D01*
X121187560Y-69502559D01*
X121194737Y-69950526D01*
X121213625Y-70404604D01*
X121263662Y-70715489D01*
X121328421Y-70819474D01*
X121398279Y-70696699D01*
X121446108Y-70371463D01*
X121462105Y-69950526D01*
X121470438Y-69480266D01*
X121507556Y-69218084D01*
X121591638Y-69104903D01*
X121729474Y-69081579D01*
X121871609Y-69107524D01*
G37*
G36*
X118140317Y-69137801D02*
G01*
X118292211Y-69351919D01*
X118369629Y-69582895D01*
X118512134Y-70084211D01*
X118475910Y-69577025D01*
X118470403Y-69247870D01*
X118541200Y-69114943D01*
X118714317Y-69109130D01*
X118920370Y-69180679D01*
X118955526Y-69248684D01*
X118938875Y-69423890D01*
X118926902Y-69788807D01*
X118922112Y-70265788D01*
X118922105Y-70284737D01*
X118914721Y-70776889D01*
X118881863Y-71058861D01*
X118807472Y-71187674D01*
X118675488Y-71220351D01*
X118658559Y-71220526D01*
X118423863Y-71111171D01*
X118269563Y-70786053D01*
X118144114Y-70351579D01*
X118132057Y-70786053D01*
X118086158Y-71096018D01*
X117942862Y-71212629D01*
X117852632Y-71220526D01*
X117719417Y-71198199D01*
X117639579Y-71095361D01*
X117599670Y-70858231D01*
X117586247Y-70433028D01*
X117585263Y-70151053D01*
X117589166Y-69620478D01*
X117611777Y-69302758D01*
X117669452Y-69143387D01*
X117778547Y-69087862D01*
X117906194Y-69081579D01*
X118140317Y-69137801D01*
G37*
G36*
X98489435Y-69094252D02*
G01*
X98537970Y-69180597D01*
X98437343Y-69413105D01*
X98390355Y-69504337D01*
X98272665Y-69822952D01*
X98267651Y-70166013D01*
X98383290Y-70608520D01*
X98555090Y-71053421D01*
X98508170Y-71188407D01*
X98333362Y-71220526D01*
X98058389Y-71109860D01*
X97972419Y-70953158D01*
X97863338Y-70728494D01*
X97753351Y-70709920D01*
X97713668Y-70906685D01*
X97714591Y-70919672D01*
X97617849Y-71129566D01*
X97432369Y-71196338D01*
X97283697Y-71203623D01*
X97194376Y-71138665D01*
X97149315Y-70949495D01*
X97133427Y-70584145D01*
X97131579Y-70160351D01*
X97134693Y-69627216D01*
X97155783Y-69307110D01*
X97212467Y-69145695D01*
X97322367Y-69088629D01*
X97481381Y-69081579D01*
X97730327Y-69119478D01*
X97777759Y-69271268D01*
X97761217Y-69349132D01*
X97752413Y-69530058D01*
X97812467Y-69541769D01*
X97923806Y-69356279D01*
X97933684Y-69274216D01*
X98050366Y-69121522D01*
X98271328Y-69081579D01*
X98489435Y-69094252D01*
G37*
G36*
X106664401Y-69109479D02*
G01*
X106890420Y-69233433D01*
X106971800Y-69315526D01*
X107108268Y-69476323D01*
X107149618Y-69420166D01*
X107153643Y-69315526D01*
X107264035Y-69123109D01*
X107481351Y-69081579D01*
X107679536Y-69093565D01*
X107740288Y-69176003D01*
X107678975Y-69398609D01*
X107597612Y-69609048D01*
X107475616Y-69975254D01*
X107469573Y-70259598D01*
X107580835Y-70611713D01*
X107607284Y-70678521D01*
X107734239Y-71014630D01*
X107751911Y-71171765D01*
X107653565Y-71217873D01*
X107553557Y-71220526D01*
X107289205Y-71104564D01*
X107160413Y-70919737D01*
X107037863Y-70618947D01*
X106948603Y-70919737D01*
X106810038Y-71116921D01*
X106599759Y-71220340D01*
X106416544Y-71203257D01*
X106355790Y-71080203D01*
X106412950Y-70871338D01*
X106550774Y-70562841D01*
X106554077Y-70556435D01*
X106673622Y-70264854D01*
X106664678Y-70005416D01*
X106554077Y-69698420D01*
X106426350Y-69375894D01*
X106358922Y-69172803D01*
X106355790Y-69152715D01*
X106450692Y-69073190D01*
X106664401Y-69109479D01*
G37*
G36*
X119147818Y-73184566D02*
G01*
X119252687Y-73392895D01*
X119415399Y-74116994D01*
X119519544Y-74620588D01*
X119566657Y-74943696D01*
X119558272Y-75126337D01*
X119495923Y-75208532D01*
X119381145Y-75230300D01*
X119323158Y-75231053D01*
X119105414Y-75147464D01*
X119055790Y-75030526D01*
X118948780Y-74853292D01*
X118855263Y-74830000D01*
X118678029Y-74937010D01*
X118654737Y-75030526D01*
X118543285Y-75193834D01*
X118387369Y-75231053D01*
X118170184Y-75172160D01*
X118120000Y-75090337D01*
X118148026Y-74897294D01*
X118221695Y-74523044D01*
X118314923Y-74094737D01*
X118814483Y-74094737D01*
X118828933Y-74323046D01*
X118870782Y-74343147D01*
X118876110Y-74331229D01*
X118902555Y-74065840D01*
X118881063Y-73930176D01*
X118838509Y-73875659D01*
X118815364Y-74053223D01*
X118814483Y-74094737D01*
X118314923Y-74094737D01*
X118325392Y-74046638D01*
X118331242Y-74020864D01*
X118451196Y-73533666D01*
X118555156Y-73253702D01*
X118675096Y-73125173D01*
X118842987Y-73092283D01*
X118863432Y-73092105D01*
X119147818Y-73184566D01*
G37*
G36*
X116999765Y-69121736D02*
G01*
X117250286Y-69221055D01*
X117278408Y-69248684D01*
X117345971Y-69461146D01*
X117399002Y-69854012D01*
X117425122Y-70318158D01*
X117428208Y-70798858D01*
X117400483Y-71070734D01*
X117326213Y-71191904D01*
X117189669Y-71220485D01*
X117180871Y-71220526D01*
X116987217Y-71155990D01*
X116919330Y-70917760D01*
X116916842Y-70819474D01*
X116878120Y-70537882D01*
X116784821Y-70418452D01*
X116783158Y-70418421D01*
X116689294Y-70534588D01*
X116649484Y-70814484D01*
X116649474Y-70819474D01*
X116607457Y-71113032D01*
X116451123Y-71216389D01*
X116382105Y-71220526D01*
X116248891Y-71198199D01*
X116169052Y-71095361D01*
X116129144Y-70858231D01*
X116115721Y-70433028D01*
X116114737Y-70151053D01*
X116114737Y-69750000D01*
X116649474Y-69750000D01*
X116676433Y-69962486D01*
X116777235Y-69941129D01*
X116809895Y-69910421D01*
X116901482Y-69728505D01*
X116809895Y-69589579D01*
X116690173Y-69523775D01*
X116650449Y-69685657D01*
X116649474Y-69750000D01*
X116114737Y-69750000D01*
X116114737Y-69081579D01*
X116633105Y-69081579D01*
X116999765Y-69121736D01*
G37*
G36*
X100852754Y-69109523D02*
G01*
X100993806Y-69241752D01*
X101087683Y-69550856D01*
X101108449Y-69649737D01*
X101224211Y-70217895D01*
X101318422Y-69649737D01*
X101395674Y-69292332D01*
X101511290Y-69127776D01*
X101728974Y-69082753D01*
X101812106Y-69081579D01*
X102211579Y-69081579D01*
X102211579Y-70151053D01*
X102205997Y-70683911D01*
X102180288Y-71003265D01*
X102121005Y-71162898D01*
X102014704Y-71216591D01*
X101944211Y-71220526D01*
X101763156Y-71170024D01*
X101682965Y-70971846D01*
X101666288Y-70719211D01*
X101651347Y-70419799D01*
X101617355Y-70363236D01*
X101554138Y-70557044D01*
X101485462Y-70852895D01*
X101365454Y-71119495D01*
X101208947Y-71220526D01*
X101041829Y-71105386D01*
X100932432Y-70852895D01*
X100842114Y-70475665D01*
X100788288Y-70354178D01*
X100760779Y-70480912D01*
X100751607Y-70719211D01*
X100717567Y-71056694D01*
X100608872Y-71199230D01*
X100473684Y-71220526D01*
X100340470Y-71198199D01*
X100260631Y-71095361D01*
X100220723Y-70858231D01*
X100207300Y-70433028D01*
X100206316Y-70151053D01*
X100206316Y-69081579D01*
X100599501Y-69081579D01*
X100852754Y-69109523D01*
G37*
G36*
X114376372Y-69103907D02*
G01*
X114456211Y-69206745D01*
X114496119Y-69443875D01*
X114509543Y-69869078D01*
X114510526Y-70151053D01*
X114504944Y-70683911D01*
X114479235Y-71003265D01*
X114419952Y-71162898D01*
X114313652Y-71216591D01*
X114243158Y-71220526D01*
X114047453Y-71157502D01*
X113978548Y-70923001D01*
X113975790Y-70819474D01*
X113937067Y-70537882D01*
X113843769Y-70418452D01*
X113842105Y-70418421D01*
X113748241Y-70534588D01*
X113708431Y-70814484D01*
X113708421Y-70819474D01*
X113666405Y-71113032D01*
X113510071Y-71216389D01*
X113441053Y-71220526D01*
X113307838Y-71198199D01*
X113228000Y-71095361D01*
X113188091Y-70858231D01*
X113174668Y-70433028D01*
X113173684Y-70151053D01*
X113179266Y-69618195D01*
X113204976Y-69298840D01*
X113264258Y-69139207D01*
X113370559Y-69085514D01*
X113441053Y-69081579D01*
X113636758Y-69144604D01*
X113705663Y-69379105D01*
X113708421Y-69482632D01*
X113747144Y-69764224D01*
X113840442Y-69883653D01*
X113842105Y-69883684D01*
X113935969Y-69767517D01*
X113975779Y-69487621D01*
X113975790Y-69482632D01*
X114017806Y-69189074D01*
X114174140Y-69085716D01*
X114243158Y-69081579D01*
X114376372Y-69103907D01*
G37*
G36*
X122631208Y-69106120D02*
G01*
X122917790Y-69203640D01*
X123058413Y-69462756D01*
X123078101Y-69549474D01*
X123140077Y-69775672D01*
X123209295Y-69790926D01*
X123305366Y-69577418D01*
X123409156Y-69248684D01*
X123564665Y-69122223D01*
X123797383Y-69081579D01*
X123965209Y-69092508D01*
X124065698Y-69161666D01*
X124116115Y-69343616D01*
X124133723Y-69692917D01*
X124135790Y-70151053D01*
X124129857Y-70684744D01*
X124103438Y-71004675D01*
X124043602Y-71164348D01*
X123937417Y-71217265D01*
X123877301Y-71220526D01*
X123655936Y-71117982D01*
X123563120Y-70852895D01*
X123507429Y-70485263D01*
X123487399Y-70852895D01*
X123388211Y-71135307D01*
X123192698Y-71234944D01*
X122993403Y-71141393D01*
X122893293Y-70919737D01*
X122835358Y-70618947D01*
X122817153Y-70919737D01*
X122715889Y-71167583D01*
X122531579Y-71220526D01*
X122398806Y-71198365D01*
X122319022Y-71096162D01*
X122278942Y-70860345D01*
X122265283Y-70437336D01*
X122264729Y-70284737D01*
X122686371Y-70284737D01*
X122707380Y-70474519D01*
X122753800Y-70451842D01*
X122771456Y-70178144D01*
X122763551Y-70151053D01*
X123622161Y-70151053D01*
X123643169Y-70340835D01*
X123689589Y-70318158D01*
X123707246Y-70044460D01*
X123689589Y-69983947D01*
X123640795Y-69967154D01*
X123622161Y-70151053D01*
X122763551Y-70151053D01*
X122753800Y-70117632D01*
X122705006Y-70100838D01*
X122686371Y-70284737D01*
X122264729Y-70284737D01*
X122264211Y-70142173D01*
X122264211Y-69063820D01*
X122631208Y-69106120D01*
G37*
G36*
X109896187Y-69100598D02*
G01*
X109947112Y-69199045D01*
X109854495Y-69439009D01*
X109763850Y-69618032D01*
X109648843Y-69889916D01*
X109642685Y-70134472D01*
X109748743Y-70471483D01*
X109790834Y-70578346D01*
X110019232Y-71149169D01*
X110231891Y-70151053D01*
X110788477Y-70151053D01*
X110809485Y-70340835D01*
X110855905Y-70318158D01*
X110873562Y-70044460D01*
X110855905Y-69983947D01*
X110807111Y-69967154D01*
X110788477Y-70151053D01*
X110231891Y-70151053D01*
X110232372Y-70148795D01*
X110349579Y-69637217D01*
X110451139Y-69332405D01*
X110567106Y-69177693D01*
X110727533Y-69116413D01*
X110784198Y-69108318D01*
X110978281Y-69108189D01*
X111103256Y-69203977D01*
X111199285Y-69453968D01*
X111290825Y-69843581D01*
X111395051Y-70321164D01*
X111486055Y-70732005D01*
X111528612Y-70919737D01*
X111532480Y-71151888D01*
X111358138Y-71220117D01*
X111330900Y-71220526D01*
X111075555Y-71132194D01*
X110986393Y-71020000D01*
X110844963Y-70842861D01*
X110771564Y-70819474D01*
X110649264Y-70927686D01*
X110633684Y-71020000D01*
X110553553Y-71153287D01*
X110282076Y-71213152D01*
X110043246Y-71220526D01*
X109662871Y-71199964D01*
X109457221Y-71107366D01*
X109334889Y-70896360D01*
X109318537Y-70852895D01*
X109184266Y-70485263D01*
X109173712Y-70852895D01*
X109111656Y-71133105D01*
X108918089Y-71220118D01*
X108895790Y-71220526D01*
X108762575Y-71198199D01*
X108682736Y-71095361D01*
X108642828Y-70858231D01*
X108629405Y-70433028D01*
X108628421Y-70151053D01*
X108634003Y-69618195D01*
X108659713Y-69298840D01*
X108718995Y-69139207D01*
X108825296Y-69085514D01*
X108895790Y-69081579D01*
X109116983Y-69173340D01*
X109171632Y-69382369D01*
X109180105Y-69683158D01*
X109301008Y-69382369D01*
X109503845Y-69139850D01*
X109693587Y-69081579D01*
X109896187Y-69100598D01*
G37*
D11*
%TO.C,U3*%
X130625000Y-104050000D02*
X130625000Y-105550000D01*
X130625000Y-105550000D02*
X131575000Y-105550000D01*
X131575000Y-105550000D02*
X131575000Y-110675000D01*
X140075000Y-105550000D02*
X140075000Y-106650000D01*
X141025000Y-104050000D02*
X141025000Y-105550000D01*
X141025000Y-105550000D02*
X140075000Y-105550000D01*
%TO.C,R2*%
X85762742Y-102337500D02*
X86237258Y-102337500D01*
X85762742Y-103382500D02*
X86237258Y-103382500D01*
D13*
%TO.C,D1*%
X114650000Y-95400000D02*
X114650000Y-100600000D01*
D11*
%TO.C,R3*%
X81237258Y-100337500D02*
X80762742Y-100337500D01*
X81237258Y-101382500D02*
X80762742Y-101382500D01*
%TO.C,J4*%
X160280000Y-74340000D02*
X160280000Y-75340000D01*
X160280000Y-75340000D02*
X161280000Y-74840000D01*
X161280000Y-74840000D02*
X160280000Y-74340000D01*
X161670000Y-69630000D02*
X170790000Y-69630000D01*
X161670000Y-77870000D02*
X162980000Y-77870000D01*
X161670000Y-90210000D02*
X161670000Y-69630000D01*
X162980000Y-70930000D02*
X169480000Y-70930000D01*
X162980000Y-77870000D02*
X162980000Y-70930000D01*
X162980000Y-81970000D02*
X161670000Y-81970000D01*
X162980000Y-81970000D02*
X162980000Y-81970000D01*
X162980000Y-88910000D02*
X162980000Y-81970000D01*
X169480000Y-70930000D02*
X169480000Y-88910000D01*
X169480000Y-88910000D02*
X162980000Y-88910000D01*
X170790000Y-69630000D02*
X170790000Y-90210000D01*
X170790000Y-90210000D02*
X161670000Y-90210000D01*
%TO.C,R11*%
X62217500Y-105962742D02*
X62217500Y-106437258D01*
X63262500Y-105962742D02*
X63262500Y-106437258D01*
%TO.C,J3*%
X148295000Y-74340000D02*
X148295000Y-75340000D01*
X148295000Y-75340000D02*
X149295000Y-74840000D01*
X149295000Y-74840000D02*
X148295000Y-74340000D01*
X149685000Y-69630000D02*
X158805000Y-69630000D01*
X149685000Y-77870000D02*
X150995000Y-77870000D01*
X149685000Y-90210000D02*
X149685000Y-69630000D01*
X150995000Y-70930000D02*
X157495000Y-70930000D01*
X150995000Y-77870000D02*
X150995000Y-70930000D01*
X150995000Y-81970000D02*
X149685000Y-81970000D01*
X150995000Y-81970000D02*
X150995000Y-81970000D01*
X150995000Y-88910000D02*
X150995000Y-81970000D01*
X157495000Y-70930000D02*
X157495000Y-88910000D01*
X157495000Y-88910000D02*
X150995000Y-88910000D01*
X158805000Y-69630000D02*
X158805000Y-90210000D01*
X158805000Y-90210000D02*
X149685000Y-90210000D01*
%TO.C,R13*%
X174237258Y-90977500D02*
X173762742Y-90977500D01*
X174237258Y-92022500D02*
X173762742Y-92022500D01*
%TO.C,R10*%
X63877500Y-105962742D02*
X63877500Y-106437258D01*
X64922500Y-105962742D02*
X64922500Y-106437258D01*
%TO.C,L1*%
X90450000Y-93700000D02*
X93450000Y-93700000D01*
X90450000Y-106300000D02*
X90450000Y-93700000D01*
X93450000Y-106300000D02*
X90450000Y-106300000D01*
X100050000Y-93700000D02*
X103050000Y-93700000D01*
X103050000Y-93700000D02*
X103050000Y-106300000D01*
X103050000Y-106300000D02*
X100050000Y-106300000D01*
D13*
%TO.C,CN1*%
X161040000Y-108160000D02*
X161040000Y-106540000D01*
X161050000Y-104840000D02*
X161080000Y-99420000D01*
X161090000Y-97560000D02*
X161100000Y-96110000D01*
X179170000Y-94350000D02*
X165000000Y-94350000D01*
X179170000Y-94350000D02*
X179170000Y-109850000D01*
X179170000Y-109850000D02*
X165000000Y-109850000D01*
X161080000Y-96040000D02*
G75*
G02*
X165111973Y-94347785I4180000J-4310000D01*
G01*
X165062545Y-109851975D02*
G75*
G02*
X161040000Y-108160000I157459J6001985D01*
G01*
D11*
%TO.C,R6*%
X70277500Y-105962742D02*
X70277500Y-106437258D01*
X71322500Y-105962742D02*
X71322500Y-106437258D01*
D13*
%TO.C,C1*%
X59030000Y-105040000D02*
X59030000Y-108840000D01*
X59860000Y-108840000D02*
X59030000Y-108840000D01*
X59880000Y-105040000D02*
X59030000Y-105040000D01*
X61570000Y-105040000D02*
X60720000Y-105040000D01*
X61570000Y-105040000D02*
X61570000Y-108840000D01*
X61570000Y-108840000D02*
X60740000Y-108840000D01*
%TO.C,Q1*%
X73950000Y-99780000D02*
X73950000Y-97180000D01*
X74850000Y-99780000D02*
X73950000Y-99780000D01*
X78550000Y-97180000D02*
X78550000Y-99780000D01*
X78550000Y-99780000D02*
X77650000Y-99780000D01*
D11*
%TO.C,R12*%
X176362742Y-82077500D02*
X176837258Y-82077500D01*
X176362742Y-83122500D02*
X176837258Y-83122500D01*
%TO.C,J8*%
X109745000Y-121820000D02*
X111075000Y-121820000D01*
X109745000Y-123150000D02*
X109745000Y-121820000D01*
X112345000Y-121820000D02*
X117485000Y-121820000D01*
X112345000Y-124480000D02*
X112345000Y-121820000D01*
X112345000Y-124480000D02*
X117485000Y-124480000D01*
X117485000Y-124480000D02*
X117485000Y-121820000D01*
%TO.C,J2*%
X136310000Y-74340000D02*
X136310000Y-75340000D01*
X136310000Y-75340000D02*
X137310000Y-74840000D01*
X137310000Y-74840000D02*
X136310000Y-74340000D01*
X137700000Y-69630000D02*
X146820000Y-69630000D01*
X137700000Y-77870000D02*
X139010000Y-77870000D01*
X137700000Y-90210000D02*
X137700000Y-69630000D01*
X139010000Y-70930000D02*
X145510000Y-70930000D01*
X139010000Y-77870000D02*
X139010000Y-70930000D01*
X139010000Y-81970000D02*
X137700000Y-81970000D01*
X139010000Y-81970000D02*
X139010000Y-81970000D01*
X139010000Y-88910000D02*
X139010000Y-81970000D01*
X145510000Y-70930000D02*
X145510000Y-88910000D01*
X145510000Y-88910000D02*
X139010000Y-88910000D01*
X146820000Y-69630000D02*
X146820000Y-90210000D01*
X146820000Y-90210000D02*
X137700000Y-90210000D01*
%TO.C,C4*%
X104000000Y-104740000D02*
X105000000Y-104740000D01*
X104500000Y-104240000D02*
X104500000Y-105240000D01*
X105240000Y-104054437D02*
X105240000Y-105740000D01*
X105240000Y-104054437D02*
X106304437Y-102990000D01*
X105240000Y-110445563D02*
X105240000Y-108760000D01*
X105240000Y-110445563D02*
X106304437Y-111510000D01*
X106304437Y-102990000D02*
X113760000Y-102990000D01*
X106304437Y-111510000D02*
X113760000Y-111510000D01*
X113760000Y-102990000D02*
X113760000Y-105740000D01*
X113760000Y-111510000D02*
X113760000Y-108760000D01*
D13*
%TO.C,U4*%
X157870000Y-114480000D02*
X159310000Y-114480000D01*
X157870000Y-115270000D02*
X157870000Y-114480000D01*
X157870000Y-119560000D02*
X159310000Y-119560000D01*
X157870000Y-120350000D02*
X157870000Y-119560000D01*
X159310000Y-115270000D02*
X157870000Y-115270000D01*
X159310000Y-120350000D02*
X157870000Y-120350000D01*
X159310000Y-120640000D02*
X159310000Y-114020000D01*
X159310000Y-122600000D02*
X159310000Y-120640000D01*
X159330000Y-112200000D02*
X159330000Y-114020000D01*
X161250000Y-122600000D02*
X159310000Y-122600000D01*
X161330000Y-112200000D02*
X159330000Y-112200000D01*
D11*
%TO.C,R8*%
X67077500Y-105962742D02*
X67077500Y-106437258D01*
X68122500Y-105962742D02*
X68122500Y-106437258D01*
%TO.C,J12*%
X59745000Y-121845000D02*
X61075000Y-121845000D01*
X59745000Y-123175000D02*
X59745000Y-121845000D01*
X62345000Y-121845000D02*
X67485000Y-121845000D01*
X62345000Y-124505000D02*
X62345000Y-121845000D01*
X62345000Y-124505000D02*
X67485000Y-124505000D01*
X67485000Y-124505000D02*
X67485000Y-121845000D01*
%TO.C,R5*%
X71877500Y-105962742D02*
X71877500Y-106437258D01*
X72922500Y-105962742D02*
X72922500Y-106437258D01*
D13*
%TO.C,USB1*%
X42780000Y-129100000D02*
X43130000Y-129100000D01*
X42780000Y-129400000D02*
X42780000Y-129100000D01*
X43130000Y-129400000D02*
X42780000Y-129400000D01*
X43200000Y-129090000D02*
X43140000Y-129100000D01*
X43250000Y-129070000D02*
X43200000Y-129090000D01*
X43260000Y-129390000D02*
X43140000Y-129400000D01*
X43310000Y-129040000D02*
X43250000Y-129070000D01*
X43350000Y-129010000D02*
X43310000Y-129040000D01*
X43370000Y-129350000D02*
X43260000Y-129390000D01*
X43390000Y-128960000D02*
X43350000Y-129010000D01*
X43410000Y-128910000D02*
X43390000Y-128960000D01*
X43430000Y-115400000D02*
X56570000Y-115400000D01*
X43430000Y-117400000D02*
X43430000Y-115400000D01*
X43430000Y-128700000D02*
X44130000Y-128700000D01*
X43430000Y-128800000D02*
X43430000Y-121100000D01*
X43430000Y-128800000D02*
X43430000Y-128850000D01*
X43430000Y-128850000D02*
X43410000Y-128910000D01*
X43480000Y-129290000D02*
X43370000Y-129350000D01*
X43560000Y-129220000D02*
X43480000Y-129290000D01*
X43640000Y-129120000D02*
X43560000Y-129220000D01*
X43690000Y-129020000D02*
X43640000Y-129120000D01*
X43720000Y-128910000D02*
X43690000Y-129020000D01*
X43730000Y-128700000D02*
X43730000Y-128800000D01*
X43730000Y-128800000D02*
X43720000Y-128910000D01*
X44130000Y-128700000D02*
X44200000Y-128710000D01*
X44200000Y-128710000D02*
X44250000Y-128730000D01*
X44250000Y-128730000D02*
X44300000Y-128750000D01*
X44300000Y-128750000D02*
X44340000Y-128780000D01*
X44340000Y-128780000D02*
X44380000Y-128820000D01*
X44380000Y-128820000D02*
X44410000Y-128880000D01*
X44410000Y-128880000D02*
X44430000Y-128930000D01*
X44430000Y-128930000D02*
X44440000Y-129000000D01*
X44440000Y-129400000D02*
X44440000Y-129000000D01*
X44440000Y-129400000D02*
X50000000Y-129400000D01*
X45240000Y-122180000D02*
X45240000Y-122240000D01*
X45240000Y-122240000D02*
X45480000Y-128210000D01*
X45260000Y-122130000D02*
X45240000Y-122180000D01*
X45310000Y-122060000D02*
X45260000Y-122130000D01*
X45380000Y-122010000D02*
X45310000Y-122060000D01*
X45470000Y-121980000D02*
X45380000Y-122010000D01*
X45480000Y-128210000D02*
X45490000Y-128250000D01*
X45490000Y-128250000D02*
X45500000Y-128290000D01*
X45500000Y-128290000D02*
X45520000Y-128320000D01*
X45520000Y-128320000D02*
X45550000Y-128350000D01*
X45550000Y-128350000D02*
X45580000Y-128370000D01*
X45570000Y-122000000D02*
X45470000Y-121980000D01*
X45580000Y-128370000D02*
X45610000Y-128390000D01*
X45610000Y-128390000D02*
X45650000Y-128400000D01*
X45650000Y-122040000D02*
X45570000Y-122000000D01*
X45650000Y-128400000D02*
X45680000Y-128400000D01*
X45690000Y-128400000D02*
X48300000Y-128400000D01*
X45710000Y-122120000D02*
X45650000Y-122040000D01*
X45740000Y-122210000D02*
X45710000Y-122120000D01*
X46050000Y-125680000D02*
X45740000Y-122210000D01*
X46050000Y-125680000D02*
X46090000Y-126010000D01*
X46090000Y-126010000D02*
X46100000Y-126150000D01*
X46110000Y-126240000D02*
X46100000Y-126150000D01*
X46110000Y-126290000D02*
X46110000Y-126240000D01*
X46190000Y-127190000D02*
X46110000Y-126290000D01*
X46190000Y-127190000D02*
X46210000Y-127270000D01*
X46210000Y-127270000D02*
X46240000Y-127350000D01*
X46240000Y-127350000D02*
X46290000Y-127420000D01*
X46290000Y-127420000D02*
X46340000Y-127480000D01*
X46340000Y-127480000D02*
X46420000Y-127530000D01*
X46420000Y-127530000D02*
X46500000Y-127570000D01*
X46500000Y-127570000D02*
X46590000Y-127600000D01*
X46590000Y-127600000D02*
X46680000Y-127610000D01*
X47300000Y-127610000D02*
X46690000Y-127610000D01*
X47300000Y-127610000D02*
X47390000Y-127600000D01*
X47390000Y-127600000D02*
X47480000Y-127570000D01*
X47480000Y-127570000D02*
X47560000Y-127530000D01*
X47560000Y-127530000D02*
X47630000Y-127490000D01*
X47630000Y-127490000D02*
X47700000Y-127430000D01*
X47700000Y-127430000D02*
X47750000Y-127360000D01*
X47750000Y-127360000D02*
X47780000Y-127290000D01*
X47780000Y-127290000D02*
X47800000Y-127200000D01*
X47880000Y-126240000D02*
X47890000Y-126150000D01*
X47880000Y-126290000D02*
X47800000Y-127190000D01*
X47880000Y-126290000D02*
X47880000Y-126240000D01*
X47900000Y-126010000D02*
X47890000Y-126150000D01*
X47940000Y-125680000D02*
X47900000Y-126010000D01*
X47940000Y-125680000D02*
X48250000Y-122210000D01*
X48290000Y-122100000D02*
X48250000Y-122200000D01*
X48300000Y-128400000D02*
X48360000Y-128390000D01*
X48350000Y-122030000D02*
X48290000Y-122100000D01*
X48360000Y-128390000D02*
X48420000Y-128360000D01*
X48420000Y-128360000D02*
X48460000Y-128320000D01*
X48430000Y-121990000D02*
X48350000Y-122030000D01*
X48460000Y-128320000D02*
X48490000Y-128260000D01*
X48490000Y-128260000D02*
X48500000Y-128210000D01*
X48500000Y-128210000D02*
X48750000Y-122240000D01*
X48520000Y-121990000D02*
X48430000Y-121990000D01*
X48610000Y-122010000D02*
X48520000Y-121990000D01*
X48680000Y-122070000D02*
X48610000Y-122010000D01*
X48730000Y-122150000D02*
X48680000Y-122070000D01*
X48750000Y-122240000D02*
X48730000Y-122150000D01*
X51270000Y-122140000D02*
X51250000Y-122230000D01*
X51320000Y-122060000D02*
X51270000Y-122140000D01*
X51400000Y-122010000D02*
X51320000Y-122060000D01*
X51490000Y-121980000D02*
X51400000Y-122010000D01*
X51500000Y-128210000D02*
X51250000Y-122240000D01*
X51500000Y-128210000D02*
X51500000Y-128250000D01*
X51500000Y-128250000D02*
X51520000Y-128290000D01*
X51520000Y-128290000D02*
X51540000Y-128320000D01*
X51540000Y-128320000D02*
X51560000Y-128350000D01*
X51560000Y-128350000D02*
X51590000Y-128370000D01*
X51580000Y-122000000D02*
X51490000Y-121980000D01*
X51590000Y-128370000D02*
X51620000Y-128390000D01*
X51620000Y-128390000D02*
X51660000Y-128400000D01*
X51660000Y-122040000D02*
X51580000Y-122000000D01*
X51660000Y-128400000D02*
X51700000Y-128400000D01*
X51720000Y-122110000D02*
X51660000Y-122040000D01*
X51750000Y-122210000D02*
X51720000Y-122110000D01*
X52070000Y-125680000D02*
X51750000Y-122210000D01*
X52070000Y-125680000D02*
X52100000Y-126010000D01*
X52100000Y-126010000D02*
X52110000Y-126150000D01*
X52120000Y-126240000D02*
X52110000Y-126150000D01*
X52120000Y-126290000D02*
X52120000Y-126240000D01*
X52120000Y-126290000D02*
X52210000Y-127190000D01*
X52220000Y-127280000D02*
X52210000Y-127200000D01*
X52260000Y-127360000D02*
X52220000Y-127280000D01*
X52300000Y-127430000D02*
X52260000Y-127360000D01*
X52360000Y-127490000D02*
X52300000Y-127430000D01*
X52440000Y-127540000D02*
X52360000Y-127490000D01*
X52520000Y-127570000D02*
X52440000Y-127540000D01*
X52620000Y-127600000D02*
X52520000Y-127570000D01*
X52710000Y-127610000D02*
X52620000Y-127600000D01*
X52710000Y-127610000D02*
X53310000Y-127610000D01*
X53410000Y-127600000D02*
X53320000Y-127610000D01*
X53500000Y-127570000D02*
X53410000Y-127600000D01*
X53580000Y-127530000D02*
X53500000Y-127570000D01*
X53660000Y-127480000D02*
X53580000Y-127530000D01*
X53720000Y-127420000D02*
X53660000Y-127480000D01*
X53760000Y-127350000D02*
X53720000Y-127420000D01*
X53790000Y-127270000D02*
X53760000Y-127350000D01*
X53810000Y-127190000D02*
X53790000Y-127270000D01*
X53890000Y-126290000D02*
X53810000Y-127190000D01*
X53890000Y-126290000D02*
X53900000Y-126240000D01*
X53900000Y-126240000D02*
X53900000Y-126150000D01*
X53920000Y-126010000D02*
X53900000Y-126150000D01*
X53950000Y-125680000D02*
X53920000Y-126010000D01*
X53950000Y-125680000D02*
X54270000Y-122210000D01*
X54300000Y-122110000D02*
X54270000Y-122200000D01*
X54320000Y-128400000D02*
X51700000Y-128400000D01*
X54320000Y-128400000D02*
X54380000Y-128390000D01*
X54360000Y-122040000D02*
X54300000Y-122110000D01*
X54380000Y-128390000D02*
X54440000Y-128360000D01*
X54430000Y-122000000D02*
X54360000Y-122040000D01*
X54440000Y-128360000D02*
X54480000Y-128320000D01*
X54480000Y-121990000D02*
X54430000Y-122000000D01*
X54480000Y-128320000D02*
X54510000Y-128260000D01*
X54510000Y-128260000D02*
X54520000Y-128210000D01*
X54530000Y-121980000D02*
X54480000Y-121990000D01*
X54580000Y-121990000D02*
X54530000Y-121980000D01*
X54630000Y-122010000D02*
X54580000Y-121990000D01*
X54700000Y-122070000D02*
X54630000Y-122010000D01*
X54740000Y-122150000D02*
X54700000Y-122070000D01*
X54760000Y-122240000D02*
X54520000Y-128210000D01*
X54760000Y-122240000D02*
X54740000Y-122150000D01*
X55560000Y-129400000D02*
X50000000Y-129400000D01*
X55560000Y-129400000D02*
X55560000Y-129000000D01*
X55570000Y-128930000D02*
X55560000Y-129000000D01*
X55590000Y-128880000D02*
X55570000Y-128930000D01*
X55620000Y-128820000D02*
X55590000Y-128880000D01*
X55650000Y-128780000D02*
X55620000Y-128820000D01*
X55700000Y-128750000D02*
X55650000Y-128780000D01*
X55740000Y-128730000D02*
X55700000Y-128750000D01*
X55800000Y-128710000D02*
X55740000Y-128730000D01*
X55860000Y-128700000D02*
X55800000Y-128710000D01*
X56270000Y-128700000D02*
X56270000Y-128800000D01*
X56270000Y-128800000D02*
X56280000Y-128910000D01*
X56280000Y-128910000D02*
X56310000Y-129020000D01*
X56310000Y-129020000D02*
X56360000Y-129120000D01*
X56360000Y-129120000D02*
X56430000Y-129220000D01*
X56430000Y-129220000D02*
X56520000Y-129290000D01*
X56520000Y-129290000D02*
X56620000Y-129350000D01*
X56570000Y-117400000D02*
X56570000Y-115400000D01*
X56570000Y-128700000D02*
X55860000Y-128700000D01*
X56570000Y-128800000D02*
X56570000Y-121100000D01*
X56570000Y-128800000D02*
X56570000Y-128860000D01*
X56570000Y-128860000D02*
X56580000Y-128910000D01*
X56580000Y-128910000D02*
X56610000Y-128960000D01*
X56610000Y-128960000D02*
X56650000Y-129010000D01*
X56620000Y-129350000D02*
X56740000Y-129390000D01*
X56650000Y-129010000D02*
X56690000Y-129040000D01*
X56690000Y-129040000D02*
X56740000Y-129070000D01*
X56740000Y-129070000D02*
X56800000Y-129090000D01*
X56740000Y-129390000D02*
X56850000Y-129400000D01*
X56800000Y-129090000D02*
X56860000Y-129100000D01*
X56860000Y-129400000D02*
X57220000Y-129400000D01*
X57220000Y-129100000D02*
X56860000Y-129100000D01*
X57220000Y-129400000D02*
X57220000Y-129100000D01*
D10*
%TO.C,C2*%
X142280000Y-102910000D02*
X144410000Y-100780000D01*
X142280000Y-111230000D02*
X142280000Y-102910000D01*
X142280000Y-111230000D02*
X146500000Y-111230000D01*
X146500000Y-100780000D02*
X144410000Y-100780000D01*
X148510000Y-111230000D02*
X152730000Y-111230000D01*
X150590000Y-100780000D02*
X148510000Y-100780000D01*
X152730000Y-102910000D02*
X150590000Y-100780000D01*
X152730000Y-111230000D02*
X152730000Y-102910000D01*
D11*
%TO.C,J10*%
X84745000Y-121845000D02*
X86075000Y-121845000D01*
X84745000Y-123175000D02*
X84745000Y-121845000D01*
X87345000Y-121845000D02*
X92485000Y-121845000D01*
X87345000Y-124505000D02*
X87345000Y-121845000D01*
X87345000Y-124505000D02*
X92485000Y-124505000D01*
X92485000Y-124505000D02*
X92485000Y-121845000D01*
%TO.C,J5*%
X145745000Y-121845000D02*
X147075000Y-121845000D01*
X145745000Y-123175000D02*
X145745000Y-121845000D01*
X148345000Y-121845000D02*
X153485000Y-121845000D01*
X148345000Y-124505000D02*
X148345000Y-121845000D01*
X148345000Y-124505000D02*
X153485000Y-124505000D01*
X153485000Y-124505000D02*
X153485000Y-121845000D01*
%TO.C,J9*%
X97190000Y-121870000D02*
X98520000Y-121870000D01*
X97190000Y-123200000D02*
X97190000Y-121870000D01*
X99790000Y-121870000D02*
X104930000Y-121870000D01*
X99790000Y-124530000D02*
X99790000Y-121870000D01*
X99790000Y-124530000D02*
X104930000Y-124530000D01*
X104930000Y-124530000D02*
X104930000Y-121870000D01*
%TO.C,J7*%
X121745000Y-121870000D02*
X123075000Y-121870000D01*
X121745000Y-123200000D02*
X121745000Y-121870000D01*
X124345000Y-121870000D02*
X129485000Y-121870000D01*
X124345000Y-124530000D02*
X124345000Y-121870000D01*
X124345000Y-124530000D02*
X129485000Y-124530000D01*
X129485000Y-124530000D02*
X129485000Y-121870000D01*
%TO.C,J11*%
X72655000Y-121845000D02*
X73985000Y-121845000D01*
X72655000Y-123175000D02*
X72655000Y-121845000D01*
X75255000Y-121845000D02*
X80395000Y-121845000D01*
X75255000Y-124505000D02*
X75255000Y-121845000D01*
X75255000Y-124505000D02*
X80395000Y-124505000D01*
X80395000Y-124505000D02*
X80395000Y-121845000D01*
%TO.C,R7*%
X68677500Y-105962742D02*
X68677500Y-106437258D01*
X69722500Y-105962742D02*
X69722500Y-106437258D01*
%TO.C,R9*%
X65477500Y-105962742D02*
X65477500Y-106437258D01*
X66522500Y-105962742D02*
X66522500Y-106437258D01*
%TO.C,R1*%
X77262742Y-93087500D02*
X77737258Y-93087500D01*
X77262742Y-94132500D02*
X77737258Y-94132500D01*
%TO.C,U2*%
X60690000Y-96862500D02*
X60690000Y-94662500D01*
X60690000Y-96862500D02*
X60690000Y-99062500D01*
X67460000Y-96862500D02*
X67460000Y-94662500D01*
X67460000Y-96862500D02*
X67460000Y-99062500D01*
X67000000Y-93002500D02*
X66760000Y-92672500D01*
X67240000Y-92672500D01*
X67000000Y-93002500D01*
G36*
X67000000Y-93002500D02*
G01*
X66760000Y-92672500D01*
X67240000Y-92672500D01*
X67000000Y-93002500D01*
G37*
%TO.C,R4*%
X73477500Y-105962742D02*
X73477500Y-106437258D01*
X74522500Y-105962742D02*
X74522500Y-106437258D01*
%TO.C,D2*%
X154850000Y-102010000D02*
X154850000Y-96500000D01*
X154850000Y-102010000D02*
X158150000Y-102010000D01*
X158150000Y-102010000D02*
X158150000Y-96500000D01*
D13*
%TO.C,Q2*%
X83700000Y-96690000D02*
X84600000Y-96690000D01*
X83700000Y-99290000D02*
X83700000Y-96690000D01*
X87400000Y-96690000D02*
X88300000Y-96690000D01*
X88300000Y-96690000D02*
X88300000Y-99290000D01*
%TO.C,P1*%
X36216800Y-113360359D02*
X36216800Y-97360359D01*
X37316800Y-113360359D02*
X39956800Y-114380359D01*
X37346800Y-97360359D02*
X39986800Y-96340359D01*
X39956800Y-114380359D02*
X43136800Y-114760359D01*
X39986800Y-96340359D02*
X43156800Y-95960359D01*
X48556800Y-97360359D02*
X36216800Y-97360359D01*
X48556800Y-113360359D02*
X36216800Y-113360359D01*
X57516800Y-97360359D02*
X51486800Y-97360359D01*
X57516800Y-113360359D02*
X51486800Y-113360359D01*
X57516800Y-113360359D02*
X57516800Y-97360359D01*
%TO.C,Q3*%
X175700000Y-85890000D02*
X175700000Y-86550000D01*
X175700000Y-85890000D02*
X176520000Y-85890000D01*
X175700000Y-86550000D02*
X175700000Y-85890000D01*
X175700000Y-86550000D02*
X175700000Y-85890000D01*
X175700000Y-88810000D02*
X175700000Y-88150000D01*
X176520000Y-88810000D02*
X175700000Y-88810000D01*
D14*
X177250000Y-87650000D02*
X177250000Y-87050000D01*
D11*
%TO.C,C3*%
X68665000Y-98861252D02*
X68665000Y-98338748D01*
X70135000Y-98861252D02*
X70135000Y-98338748D01*
%TO.C,J1*%
X124325000Y-74340000D02*
X124325000Y-75340000D01*
X124325000Y-75340000D02*
X125325000Y-74840000D01*
X125325000Y-74840000D02*
X124325000Y-74340000D01*
X125715000Y-69630000D02*
X134835000Y-69630000D01*
X125715000Y-77870000D02*
X127025000Y-77870000D01*
X125715000Y-90210000D02*
X125715000Y-69630000D01*
X127025000Y-70930000D02*
X133525000Y-70930000D01*
X127025000Y-77870000D02*
X127025000Y-70930000D01*
X127025000Y-81970000D02*
X125715000Y-81970000D01*
X127025000Y-81970000D02*
X127025000Y-81970000D01*
X127025000Y-88910000D02*
X127025000Y-81970000D01*
X133525000Y-70930000D02*
X133525000Y-88910000D01*
X133525000Y-88910000D02*
X127025000Y-88910000D01*
X134835000Y-69630000D02*
X134835000Y-90210000D01*
X134835000Y-90210000D02*
X125715000Y-90210000D01*
D10*
%TO.C,U1*%
X35580000Y-76866000D02*
X36850000Y-76866000D01*
X35580000Y-84486000D02*
X35580000Y-76866000D01*
X36850000Y-71786000D02*
X97810000Y-71786000D01*
X36850000Y-84486000D02*
X35580000Y-84486000D01*
X36850000Y-89566000D02*
X36850000Y-71786000D01*
X41930000Y-76866000D02*
X36850000Y-76866000D01*
X41930000Y-84486000D02*
X36850000Y-84486000D01*
X41930000Y-84486000D02*
X41930000Y-76866000D01*
X43149200Y-83975200D02*
X45689200Y-83975200D01*
X43149200Y-83975200D02*
X55849200Y-83975200D01*
X43149200Y-86515200D02*
X43149200Y-83975200D01*
X45689200Y-83975200D02*
X45689200Y-86515200D01*
X50080000Y-74324400D02*
X50080000Y-74574400D01*
X50080000Y-74574400D02*
X50080000Y-80574400D01*
X50080000Y-80574400D02*
X54080000Y-80574400D01*
X54080000Y-74324400D02*
X50080000Y-74324400D01*
X54080000Y-80574400D02*
X54080000Y-74324400D01*
X55849200Y-83975200D02*
X55849200Y-86515200D01*
X55849200Y-86515200D02*
X43149200Y-86515200D01*
X59710000Y-74326000D02*
X59710000Y-87026000D01*
X59710000Y-87026000D02*
X72410000Y-87026000D01*
X72410000Y-74326000D02*
X59710000Y-74326000D01*
X72410000Y-87026000D02*
X72410000Y-74326000D01*
X77490000Y-79406000D02*
X81300000Y-79406000D01*
X77490000Y-81946000D02*
X77490000Y-79406000D01*
X81300000Y-79406000D02*
X81300000Y-81946000D01*
X81300000Y-81946000D02*
X77490000Y-81946000D01*
X85110000Y-74326000D02*
X85110000Y-87026000D01*
X85110000Y-87026000D02*
X97810000Y-87026000D01*
X96540000Y-75596000D02*
X96540000Y-85756000D01*
X96540000Y-85756000D02*
X97810000Y-85756000D01*
X97810000Y-71786000D02*
X97810000Y-89566000D01*
X97810000Y-74326000D02*
X85110000Y-74326000D01*
X97810000Y-75596000D02*
X96540000Y-75596000D01*
X97810000Y-89566000D02*
X36850000Y-89566000D01*
X80293026Y-80676000D02*
G75*
G02*
X78496974Y-80676000I-898026J0D01*
G01*
X78496974Y-80676000D02*
G75*
G02*
X80293026Y-80676000I898026J0D01*
G01*
D15*
X68241000Y-79988000D02*
X67987000Y-80242000D01*
X67733000Y-79861000D01*
X67987000Y-79607000D01*
X68241000Y-79988000D01*
G36*
X68241000Y-79988000D02*
G01*
X67987000Y-80242000D01*
X67733000Y-79861000D01*
X67987000Y-79607000D01*
X68241000Y-79988000D01*
G37*
X68622000Y-80496000D02*
X68368000Y-80750000D01*
X68114000Y-80369000D01*
X68368000Y-80115000D01*
X68622000Y-80496000D01*
G36*
X68622000Y-80496000D02*
G01*
X68368000Y-80750000D01*
X68114000Y-80369000D01*
X68368000Y-80115000D01*
X68622000Y-80496000D01*
G37*
X69003000Y-80115000D02*
X68749000Y-80369000D01*
X68495000Y-79988000D01*
X68749000Y-79734000D01*
X69003000Y-80115000D01*
G36*
X69003000Y-80115000D02*
G01*
X68749000Y-80369000D01*
X68495000Y-79988000D01*
X68749000Y-79734000D01*
X69003000Y-80115000D01*
G37*
X69003000Y-81004000D02*
X68749000Y-81258000D01*
X68495000Y-80877000D01*
X68749000Y-80623000D01*
X69003000Y-81004000D01*
G36*
X69003000Y-81004000D02*
G01*
X68749000Y-81258000D01*
X68495000Y-80877000D01*
X68749000Y-80623000D01*
X69003000Y-81004000D01*
G37*
X69384000Y-80623000D02*
X69130000Y-80877000D01*
X68876000Y-80496000D01*
X69130000Y-80242000D01*
X69384000Y-80623000D01*
G36*
X69384000Y-80623000D02*
G01*
X69130000Y-80877000D01*
X68876000Y-80496000D01*
X69130000Y-80242000D01*
X69384000Y-80623000D01*
G37*
X69765000Y-81131000D02*
X69511000Y-81385000D01*
X69257000Y-81004000D01*
X69511000Y-80750000D01*
X69765000Y-81131000D01*
G36*
X69765000Y-81131000D02*
G01*
X69511000Y-81385000D01*
X69257000Y-81004000D01*
X69511000Y-80750000D01*
X69765000Y-81131000D01*
G37*
X70146000Y-80750000D02*
X69892000Y-81004000D01*
X69638000Y-80623000D01*
X69892000Y-80369000D01*
X70146000Y-80750000D01*
G36*
X70146000Y-80750000D02*
G01*
X69892000Y-81004000D01*
X69638000Y-80623000D01*
X69892000Y-80369000D01*
X70146000Y-80750000D01*
G37*
X70527000Y-80369000D02*
X70273000Y-80623000D01*
X70019000Y-80242000D01*
X70273000Y-79988000D01*
X70527000Y-80369000D01*
G36*
X70527000Y-80369000D02*
G01*
X70273000Y-80623000D01*
X70019000Y-80242000D01*
X70273000Y-79988000D01*
X70527000Y-80369000D01*
G37*
%TD*%
%LPC*%
D10*
X155940180Y-117978430D02*
X156192879Y-118046141D01*
X156434577Y-118146255D01*
X156661140Y-118277061D01*
X156868692Y-118436321D01*
X157053679Y-118621308D01*
X157212939Y-118828860D01*
X157343745Y-119055423D01*
X157443859Y-119297121D01*
X157511570Y-119549820D01*
X157545718Y-119809194D01*
X157545718Y-120070807D01*
X157511570Y-120330181D01*
X157443859Y-120582879D01*
X157343745Y-120824577D01*
X157234446Y-121013889D01*
X157333013Y-121068607D01*
X157346552Y-121078638D01*
X157361140Y-121087061D01*
X157451608Y-121156479D01*
X157543213Y-121224353D01*
X157555320Y-121236059D01*
X157568692Y-121246320D01*
X157649337Y-121326965D01*
X157731287Y-121406203D01*
X157741765Y-121419393D01*
X157753680Y-121431308D01*
X157823080Y-121521753D01*
X157894015Y-121611046D01*
X157902686Y-121625498D01*
X157912939Y-121638860D01*
X157969931Y-121737574D01*
X158028613Y-121835377D01*
X158035323Y-121850836D01*
X158043745Y-121865423D01*
X158087358Y-121970715D01*
X158132780Y-122075357D01*
X158137416Y-122091564D01*
X158143860Y-122107121D01*
X158173368Y-122217246D01*
X158204730Y-122326881D01*
X158207208Y-122343539D01*
X158211571Y-122359819D01*
X158226458Y-122472900D01*
X158243235Y-122585644D01*
X158243518Y-122602485D01*
X158245718Y-122619194D01*
X158246072Y-122754353D01*
X158247635Y-122847220D01*
X158246346Y-122858468D01*
X158250000Y-124250000D01*
X158246353Y-124361380D01*
X158250000Y-125750000D01*
X158245718Y-125880806D01*
X158211571Y-126140181D01*
X158143860Y-126392879D01*
X158043745Y-126634577D01*
X157912939Y-126861140D01*
X157753680Y-127068692D01*
X157568692Y-127253680D01*
X157361140Y-127412939D01*
X157134577Y-127543745D01*
X156892879Y-127643860D01*
X156640181Y-127711571D01*
X156581453Y-127719302D01*
X156453842Y-127873442D01*
X154960902Y-129265587D01*
X154929375Y-129292996D01*
X154918692Y-129303680D01*
X154905025Y-129314166D01*
X154862135Y-129351456D01*
X154785595Y-129405807D01*
X154711140Y-129462939D01*
X154679057Y-129481462D01*
X154648831Y-129502926D01*
X154565837Y-129546829D01*
X154484577Y-129593745D01*
X154450345Y-129607924D01*
X154417582Y-129625256D01*
X154329594Y-129657940D01*
X154242879Y-129693860D01*
X154207076Y-129703453D01*
X154172343Y-129716356D01*
X154080868Y-129737270D01*
X153990181Y-129761571D01*
X153953427Y-129766409D01*
X153917313Y-129774667D01*
X153823881Y-129783464D01*
X153730806Y-129795718D01*
X153693370Y-129795753D01*
X153656852Y-129799192D01*
X153567221Y-129795872D01*
X149200000Y-129800000D01*
X149069194Y-129795718D01*
X148809819Y-129761571D01*
X148557121Y-129693860D01*
X148315423Y-129593745D01*
X148088860Y-129462939D01*
X147881308Y-129303680D01*
X147696320Y-129118692D01*
X147537061Y-128911140D01*
X147406255Y-128684577D01*
X147306140Y-128442879D01*
X147238429Y-128190181D01*
X147204282Y-127930806D01*
X147204282Y-127669194D01*
X147238429Y-127409819D01*
X147306140Y-127157121D01*
X147406255Y-126915423D01*
X147537061Y-126688860D01*
X147696320Y-126481308D01*
X147881308Y-126296320D01*
X148088860Y-126137061D01*
X148315423Y-126006255D01*
X148557121Y-125906140D01*
X148809819Y-125838429D01*
X149069194Y-125804282D01*
X152817287Y-125800739D01*
X153639098Y-125034413D01*
X153679513Y-124999275D01*
X153518713Y-124843797D01*
X153355985Y-124638954D01*
X153221387Y-124414623D01*
X153117220Y-124174643D01*
X153045270Y-123923119D01*
X153006765Y-123664356D01*
X153002365Y-123402780D01*
X153032144Y-123142868D01*
X153095594Y-122889066D01*
X153191630Y-122645718D01*
X153318607Y-122416987D01*
X153474353Y-122206787D01*
X153656203Y-122018713D01*
X153684566Y-121996180D01*
X153681308Y-121993680D01*
X153496320Y-121808692D01*
X153337060Y-121601141D01*
X153206255Y-121374577D01*
X153106140Y-121132879D01*
X153038430Y-120880181D01*
X153004282Y-120620806D01*
X153004282Y-120359194D01*
X153038430Y-120099819D01*
X153106140Y-119847121D01*
X153206255Y-119605423D01*
X153337060Y-119378859D01*
X153496320Y-119171308D01*
X154135786Y-118525787D01*
X154231308Y-118436321D01*
X154438859Y-118277061D01*
X154665423Y-118146255D01*
X154907121Y-118046141D01*
X155159819Y-117978430D01*
X155419193Y-117944282D01*
X155680806Y-117944282D01*
X155940180Y-117978430D01*
G36*
X155940180Y-117978430D02*
G01*
X156192879Y-118046141D01*
X156434577Y-118146255D01*
X156661140Y-118277061D01*
X156868692Y-118436321D01*
X157053679Y-118621308D01*
X157212939Y-118828860D01*
X157343745Y-119055423D01*
X157443859Y-119297121D01*
X157511570Y-119549820D01*
X157545718Y-119809194D01*
X157545718Y-120070807D01*
X157511570Y-120330181D01*
X157443859Y-120582879D01*
X157343745Y-120824577D01*
X157234446Y-121013889D01*
X157333013Y-121068607D01*
X157346552Y-121078638D01*
X157361140Y-121087061D01*
X157451608Y-121156479D01*
X157543213Y-121224353D01*
X157555320Y-121236059D01*
X157568692Y-121246320D01*
X157649337Y-121326965D01*
X157731287Y-121406203D01*
X157741765Y-121419393D01*
X157753680Y-121431308D01*
X157823080Y-121521753D01*
X157894015Y-121611046D01*
X157902686Y-121625498D01*
X157912939Y-121638860D01*
X157969931Y-121737574D01*
X158028613Y-121835377D01*
X158035323Y-121850836D01*
X158043745Y-121865423D01*
X158087358Y-121970715D01*
X158132780Y-122075357D01*
X158137416Y-122091564D01*
X158143860Y-122107121D01*
X158173368Y-122217246D01*
X158204730Y-122326881D01*
X158207208Y-122343539D01*
X158211571Y-122359819D01*
X158226458Y-122472900D01*
X158243235Y-122585644D01*
X158243518Y-122602485D01*
X158245718Y-122619194D01*
X158246072Y-122754353D01*
X158247635Y-122847220D01*
X158246346Y-122858468D01*
X158250000Y-124250000D01*
X158246353Y-124361380D01*
X158250000Y-125750000D01*
X158245718Y-125880806D01*
X158211571Y-126140181D01*
X158143860Y-126392879D01*
X158043745Y-126634577D01*
X157912939Y-126861140D01*
X157753680Y-127068692D01*
X157568692Y-127253680D01*
X157361140Y-127412939D01*
X157134577Y-127543745D01*
X156892879Y-127643860D01*
X156640181Y-127711571D01*
X156581453Y-127719302D01*
X156453842Y-127873442D01*
X154960902Y-129265587D01*
X154929375Y-129292996D01*
X154918692Y-129303680D01*
X154905025Y-129314166D01*
X154862135Y-129351456D01*
X154785595Y-129405807D01*
X154711140Y-129462939D01*
X154679057Y-129481462D01*
X154648831Y-129502926D01*
X154565837Y-129546829D01*
X154484577Y-129593745D01*
X154450345Y-129607924D01*
X154417582Y-129625256D01*
X154329594Y-129657940D01*
X154242879Y-129693860D01*
X154207076Y-129703453D01*
X154172343Y-129716356D01*
X154080868Y-129737270D01*
X153990181Y-129761571D01*
X153953427Y-129766409D01*
X153917313Y-129774667D01*
X153823881Y-129783464D01*
X153730806Y-129795718D01*
X153693370Y-129795753D01*
X153656852Y-129799192D01*
X153567221Y-129795872D01*
X149200000Y-129800000D01*
X149069194Y-129795718D01*
X148809819Y-129761571D01*
X148557121Y-129693860D01*
X148315423Y-129593745D01*
X148088860Y-129462939D01*
X147881308Y-129303680D01*
X147696320Y-129118692D01*
X147537061Y-128911140D01*
X147406255Y-128684577D01*
X147306140Y-128442879D01*
X147238429Y-128190181D01*
X147204282Y-127930806D01*
X147204282Y-127669194D01*
X147238429Y-127409819D01*
X147306140Y-127157121D01*
X147406255Y-126915423D01*
X147537061Y-126688860D01*
X147696320Y-126481308D01*
X147881308Y-126296320D01*
X148088860Y-126137061D01*
X148315423Y-126006255D01*
X148557121Y-125906140D01*
X148809819Y-125838429D01*
X149069194Y-125804282D01*
X152817287Y-125800739D01*
X153639098Y-125034413D01*
X153679513Y-124999275D01*
X153518713Y-124843797D01*
X153355985Y-124638954D01*
X153221387Y-124414623D01*
X153117220Y-124174643D01*
X153045270Y-123923119D01*
X153006765Y-123664356D01*
X153002365Y-123402780D01*
X153032144Y-123142868D01*
X153095594Y-122889066D01*
X153191630Y-122645718D01*
X153318607Y-122416987D01*
X153474353Y-122206787D01*
X153656203Y-122018713D01*
X153684566Y-121996180D01*
X153681308Y-121993680D01*
X153496320Y-121808692D01*
X153337060Y-121601141D01*
X153206255Y-121374577D01*
X153106140Y-121132879D01*
X153038430Y-120880181D01*
X153004282Y-120620806D01*
X153004282Y-120359194D01*
X153038430Y-120099819D01*
X153106140Y-119847121D01*
X153206255Y-119605423D01*
X153337060Y-119378859D01*
X153496320Y-119171308D01*
X154135786Y-118525787D01*
X154231308Y-118436321D01*
X154438859Y-118277061D01*
X154665423Y-118146255D01*
X154907121Y-118046141D01*
X155159819Y-117978430D01*
X155419193Y-117944282D01*
X155680806Y-117944282D01*
X155940180Y-117978430D01*
G37*
D16*
%TO.C,J6*%
X134995000Y-123175000D03*
D17*
X137535000Y-123175000D03*
X140075000Y-123175000D03*
%TD*%
D18*
%TO.C,U3*%
X132425000Y-108375000D03*
X134125000Y-108375000D03*
X135825000Y-108375000D03*
D19*
X135825000Y-99225000D03*
D18*
X137525000Y-108375000D03*
X139225000Y-108375000D03*
%TD*%
D20*
%TO.C,R2*%
X85175000Y-102860000D03*
X86825000Y-102860000D03*
%TD*%
D21*
%TO.C,D1*%
X110450000Y-98000000D03*
X124050000Y-98000000D03*
%TD*%
D22*
%TO.C,R3*%
X81825000Y-100860000D03*
X80175000Y-100860000D03*
%TD*%
D23*
%TO.C,J4*%
X164960000Y-74840000D03*
D24*
X167500000Y-74840000D03*
X164960000Y-77380000D03*
X167500000Y-77380000D03*
X164960000Y-79920000D03*
X167500000Y-79920000D03*
X164960000Y-82460000D03*
X167500000Y-82460000D03*
X164960000Y-85000000D03*
X167500000Y-85000000D03*
%TD*%
D25*
%TO.C,R11*%
X62740000Y-105375000D03*
X62740000Y-107025000D03*
%TD*%
D23*
%TO.C,J3*%
X152975000Y-74840000D03*
D24*
X155515000Y-74840000D03*
X152975000Y-77380000D03*
X155515000Y-77380000D03*
X152975000Y-79920000D03*
X155515000Y-79920000D03*
X152975000Y-82460000D03*
X155515000Y-82460000D03*
X152975000Y-85000000D03*
X155515000Y-85000000D03*
%TD*%
D22*
%TO.C,R13*%
X174825000Y-91500000D03*
X173175000Y-91500000D03*
%TD*%
D25*
%TO.C,R10*%
X64400000Y-105375000D03*
X64400000Y-107025000D03*
%TD*%
D26*
%TO.C,L1*%
X96750000Y-95050000D03*
X96750000Y-104950000D03*
%TD*%
D27*
%TO.C,CN1*%
X163000000Y-98500000D03*
X163000000Y-105700000D03*
D28*
X169000000Y-108850000D03*
X169000000Y-95350000D03*
%TD*%
D25*
%TO.C,R6*%
X70800000Y-105375000D03*
X70800000Y-107025000D03*
%TD*%
D29*
%TO.C,C1*%
X60300000Y-105700000D03*
X60300000Y-108200000D03*
%TD*%
D30*
%TO.C,Q1*%
X77750000Y-96690000D03*
D31*
X76250000Y-96780000D03*
D30*
X74750000Y-96690000D03*
D32*
X76250000Y-99530000D03*
%TD*%
D20*
%TO.C,R12*%
X175775000Y-82600000D03*
X177425000Y-82600000D03*
%TD*%
D16*
%TO.C,J8*%
X111075000Y-123150000D03*
D17*
X113615000Y-123150000D03*
X116155000Y-123150000D03*
%TD*%
D23*
%TO.C,J2*%
X140990000Y-74840000D03*
D24*
X143530000Y-74840000D03*
X140990000Y-77380000D03*
X143530000Y-77380000D03*
X140990000Y-79920000D03*
X143530000Y-79920000D03*
X140990000Y-82460000D03*
X143530000Y-82460000D03*
X140990000Y-85000000D03*
X143530000Y-85000000D03*
%TD*%
D33*
%TO.C,C4*%
X106250000Y-107250000D03*
X112750000Y-107250000D03*
%TD*%
D34*
%TO.C,U4*%
X155550000Y-114860000D03*
D35*
X166350000Y-117400000D03*
D34*
X155550000Y-119940000D03*
%TD*%
D25*
%TO.C,R8*%
X67600000Y-105375000D03*
X67600000Y-107025000D03*
%TD*%
D16*
%TO.C,J12*%
X61075000Y-123175000D03*
D17*
X63615000Y-123175000D03*
X66155000Y-123175000D03*
%TD*%
D25*
%TO.C,R5*%
X72400000Y-105375000D03*
X72400000Y-107025000D03*
%TD*%
D36*
%TO.C,USB1*%
X46500000Y-116540000D03*
X49000000Y-116540000D03*
X51000000Y-116550000D03*
X53500000Y-116550000D03*
D37*
X57000000Y-119260000D03*
X43000000Y-119260000D03*
%TD*%
D38*
%TO.C,C2*%
X147500000Y-101500000D03*
X147500000Y-110500000D03*
%TD*%
D16*
%TO.C,J10*%
X86075000Y-123175000D03*
D17*
X88615000Y-123175000D03*
X91155000Y-123175000D03*
%TD*%
D16*
%TO.C,J5*%
X147075000Y-123175000D03*
D17*
X149615000Y-123175000D03*
X152155000Y-123175000D03*
%TD*%
D39*
%TO.C,H3*%
X175000000Y-67500000D03*
D40*
X175000000Y-67500000D03*
%TD*%
D16*
%TO.C,J9*%
X98520000Y-123200000D03*
D17*
X101060000Y-123200000D03*
X103600000Y-123200000D03*
%TD*%
D16*
%TO.C,J7*%
X123075000Y-123200000D03*
D17*
X125615000Y-123200000D03*
X128155000Y-123200000D03*
%TD*%
D39*
%TO.C,H2*%
X34000000Y-122500000D03*
D40*
X34000000Y-122500000D03*
%TD*%
D16*
%TO.C,J11*%
X73985000Y-123175000D03*
D17*
X76525000Y-123175000D03*
X79065000Y-123175000D03*
%TD*%
D25*
%TO.C,R7*%
X69200000Y-105375000D03*
X69200000Y-107025000D03*
%TD*%
%TO.C,R9*%
X66000000Y-105375000D03*
X66000000Y-107025000D03*
%TD*%
D20*
%TO.C,R1*%
X76675000Y-93610000D03*
X78325000Y-93610000D03*
%TD*%
D41*
%TO.C,U2*%
X67000000Y-94000000D03*
X66350000Y-94000000D03*
X65700000Y-94000000D03*
X65050000Y-94000000D03*
X64400000Y-94000000D03*
X63750000Y-94000000D03*
X63100000Y-94000000D03*
X62450000Y-94000000D03*
X61800000Y-94000000D03*
X61150000Y-94000000D03*
X61150000Y-99725000D03*
X61800000Y-99725000D03*
X62450000Y-99725000D03*
X63100000Y-99725000D03*
X63750000Y-99725000D03*
X64400000Y-99725000D03*
X65050000Y-99725000D03*
X65700000Y-99725000D03*
X66350000Y-99725000D03*
X67000000Y-99725000D03*
%TD*%
D25*
%TO.C,R4*%
X74000000Y-105375000D03*
X74000000Y-107025000D03*
%TD*%
D42*
%TO.C,D2*%
X156500000Y-100500000D03*
X156500000Y-96500000D03*
%TD*%
D30*
%TO.C,Q2*%
X84500000Y-99780000D03*
D31*
X86000000Y-99690000D03*
D30*
X87500000Y-99780000D03*
D32*
X86000000Y-96940000D03*
%TD*%
D43*
%TO.C,P1*%
X46976800Y-99650359D03*
X46976800Y-111080359D03*
D44*
X53326800Y-100920359D03*
X55866800Y-102190359D03*
X53326800Y-103460359D03*
X55866800Y-104730359D03*
X53326800Y-106000359D03*
X55866800Y-107270359D03*
X53326800Y-108540359D03*
X55866800Y-109810359D03*
D29*
X41886800Y-99040359D03*
X43596800Y-101580359D03*
X41886800Y-109150359D03*
X43596800Y-111690359D03*
D45*
X50016800Y-97480359D03*
X50016800Y-113230359D03*
%TD*%
D39*
%TO.C,H1*%
X34000000Y-67500000D03*
D40*
X34000000Y-67500000D03*
%TD*%
D46*
%TO.C,Q3*%
X177600000Y-86400000D03*
X177600000Y-88300000D03*
X175100000Y-87350000D03*
%TD*%
D47*
%TO.C,C3*%
X69400000Y-99637500D03*
X69400000Y-97562500D03*
%TD*%
D23*
%TO.C,J1*%
X129005000Y-74840000D03*
D24*
X131545000Y-74840000D03*
X129005000Y-77380000D03*
X131545000Y-77380000D03*
X129005000Y-79920000D03*
X131545000Y-79920000D03*
X129005000Y-82460000D03*
X131545000Y-82460000D03*
X129005000Y-85000000D03*
X131545000Y-85000000D03*
%TD*%
D39*
%TO.C,H4*%
X175000000Y-122500000D03*
D40*
X175000000Y-122500000D03*
%TD*%
D48*
%TO.C,U1*%
X38120000Y-88296000D03*
D29*
X40660000Y-88296000D03*
X43200000Y-88296000D03*
X45740000Y-88296000D03*
X48280000Y-88296000D03*
X50820000Y-88296000D03*
X53360000Y-88296000D03*
X55900000Y-88296000D03*
X58440000Y-88296000D03*
X60980000Y-88296000D03*
X63520000Y-88296000D03*
X66060000Y-88296000D03*
X68600000Y-88296000D03*
X71140000Y-88296000D03*
X73680000Y-88296000D03*
X76220000Y-88296000D03*
X78760000Y-88296000D03*
X81300000Y-88296000D03*
X83840000Y-88296000D03*
X86380000Y-88296000D03*
X88920000Y-88296000D03*
X91460000Y-88296000D03*
X94000000Y-88296000D03*
X96540000Y-88296000D03*
X96540000Y-73056000D03*
X94000000Y-73056000D03*
X91460000Y-73056000D03*
X88920000Y-73056000D03*
X86380000Y-73056000D03*
X83840000Y-73056000D03*
X81300000Y-73056000D03*
X78760000Y-73056000D03*
X76220000Y-73056000D03*
X73680000Y-73056000D03*
X71140000Y-73056000D03*
X68600000Y-73056000D03*
X66060000Y-73056000D03*
X63520000Y-73056000D03*
X60980000Y-73056000D03*
X58440000Y-73056000D03*
X55900000Y-73056000D03*
X53360000Y-73056000D03*
X50820000Y-73056000D03*
X48280000Y-73056000D03*
X45740000Y-73056000D03*
X43200000Y-73056000D03*
X40660000Y-73056000D03*
X38120000Y-73056000D03*
X40660000Y-75596000D03*
X83840000Y-85756000D03*
X83840000Y-83216000D03*
X83840000Y-80676000D03*
X83840000Y-78136000D03*
X83840000Y-75596000D03*
D48*
X44419200Y-85245200D03*
D29*
X46959200Y-85245200D03*
X49499200Y-85245200D03*
X52039200Y-85245200D03*
X54579200Y-85245200D03*
D49*
X51090000Y-75494400D03*
D50*
X51090000Y-77494400D03*
X51090000Y-79494400D03*
X53090000Y-79494400D03*
X53090000Y-77494400D03*
X53090000Y-75494400D03*
X38850000Y-79406000D03*
X38850000Y-81946000D03*
%TD*%
%LPD*%
M02*
