%TF.GenerationSoftware,KiCad,Pcbnew,8.0.3*%
%TF.CreationDate,2024-11-25T10:27:06+01:00*%
%TF.ProjectId,Teensy Board,5465656e-7379-4204-926f-6172642e6b69,rev?*%
%TF.SameCoordinates,Original*%
%TF.FileFunction,Paste,Top*%
%TF.FilePolarity,Positive*%
%FSLAX46Y46*%
G04 Gerber Fmt 4.6, Leading zero omitted, Abs format (unit mm)*
G04 Created by KiCad (PCBNEW 8.0.3) date 2024-11-25 10:27:06*
%MOMM*%
%LPD*%
G01*
G04 APERTURE LIST*
G04 Aperture macros list*
%AMRoundRect*
0 Rectangle with rounded corners*
0 $1 Rounding radius*
0 $2 $3 $4 $5 $6 $7 $8 $9 X,Y pos of 4 corners*
0 Add a 4 corners polygon primitive as box body*
4,1,4,$2,$3,$4,$5,$6,$7,$8,$9,$2,$3,0*
0 Add four circle primitives for the rounded corners*
1,1,$1+$1,$2,$3*
1,1,$1+$1,$4,$5*
1,1,$1+$1,$6,$7*
1,1,$1+$1,$8,$9*
0 Add four rect primitives between the rounded corners*
20,1,$1+$1,$2,$3,$4,$5,0*
20,1,$1+$1,$4,$5,$6,$7,0*
20,1,$1+$1,$6,$7,$8,$9,0*
20,1,$1+$1,$8,$9,$2,$3,0*%
G04 Aperture macros list end*
%ADD10RoundRect,0.250000X0.300000X-2.050000X0.300000X2.050000X-0.300000X2.050000X-0.300000X-2.050000X0*%
%ADD11RoundRect,0.250000X2.375000X-2.025000X2.375000X2.025000X-2.375000X2.025000X-2.375000X-2.025000X0*%
%ADD12RoundRect,0.200000X-0.200000X-0.275000X0.200000X-0.275000X0.200000X0.275000X-0.200000X0.275000X0*%
%ADD13RoundRect,0.200000X0.200000X0.275000X-0.200000X0.275000X-0.200000X-0.275000X0.200000X-0.275000X0*%
%ADD14RoundRect,0.200000X-0.275000X0.200000X-0.275000X-0.200000X0.275000X-0.200000X0.275000X0.200000X0*%
%ADD15R,5.400000X2.900000*%
%ADD16O,0.700000X1.900000*%
%ADD17O,0.700000X2.100000*%
%ADD18O,2.000000X2.800000*%
%ADD19RoundRect,0.250000X-1.500000X-1.000000X1.500000X-1.000000X1.500000X1.000000X-1.500000X1.000000X0*%
%ADD20R,3.800000X1.400000*%
%ADD21R,8.800000X10.700000*%
%ADD22R,1.650000X4.500000*%
%ADD23RoundRect,0.100000X-0.100000X0.637500X-0.100000X-0.637500X0.100000X-0.637500X0.100000X0.637500X0*%
%ADD24RoundRect,0.250000X0.650000X-1.000000X0.650000X1.000000X-0.650000X1.000000X-0.650000X-1.000000X0*%
%ADD25R,1.250000X0.700000*%
%ADD26RoundRect,0.250000X0.475000X-0.337500X0.475000X0.337500X-0.475000X0.337500X-0.475000X-0.337500X0*%
G04 APERTURE END LIST*
D10*
%TO.C,U3*%
X132425000Y-108375000D03*
X134125000Y-108375000D03*
X135825000Y-108375000D03*
D11*
X133050000Y-101650000D03*
X138600000Y-101650000D03*
X133050000Y-96800000D03*
X138600000Y-96800000D03*
D10*
X137525000Y-108375000D03*
X139225000Y-108375000D03*
%TD*%
D12*
%TO.C,R2*%
X85175000Y-102860000D03*
X86825000Y-102860000D03*
%TD*%
D13*
%TO.C,R3*%
X81825000Y-100860000D03*
X80175000Y-100860000D03*
%TD*%
D14*
%TO.C,R11*%
X62740000Y-105375000D03*
X62740000Y-107025000D03*
%TD*%
D13*
%TO.C,R13*%
X174825000Y-91500000D03*
X173175000Y-91500000D03*
%TD*%
D14*
%TO.C,R10*%
X64400000Y-105375000D03*
X64400000Y-107025000D03*
%TD*%
D15*
%TO.C,L1*%
X96750000Y-95050000D03*
X96750000Y-104950000D03*
%TD*%
D14*
%TO.C,R6*%
X70800000Y-105375000D03*
X70800000Y-107025000D03*
%TD*%
D16*
%TO.C,Q1*%
X77750000Y-96690000D03*
D17*
X76250000Y-96780000D03*
D16*
X74750000Y-96690000D03*
D18*
X76250000Y-99530000D03*
%TD*%
D12*
%TO.C,R12*%
X175775000Y-82600000D03*
X177425000Y-82600000D03*
%TD*%
D19*
%TO.C,C4*%
X106250000Y-107250000D03*
X112750000Y-107250000D03*
%TD*%
D20*
%TO.C,U4*%
X155550000Y-114860000D03*
D21*
X166350000Y-117400000D03*
D20*
X155550000Y-119940000D03*
%TD*%
D14*
%TO.C,R8*%
X67600000Y-105375000D03*
X67600000Y-107025000D03*
%TD*%
%TO.C,R5*%
X72400000Y-105375000D03*
X72400000Y-107025000D03*
%TD*%
D22*
%TO.C,C2*%
X147500000Y-101500000D03*
X147500000Y-110500000D03*
%TD*%
D14*
%TO.C,R7*%
X69200000Y-105375000D03*
X69200000Y-107025000D03*
%TD*%
%TO.C,R9*%
X66000000Y-105375000D03*
X66000000Y-107025000D03*
%TD*%
D12*
%TO.C,R1*%
X76675000Y-93610000D03*
X78325000Y-93610000D03*
%TD*%
D23*
%TO.C,U2*%
X67000000Y-94000000D03*
X66350000Y-94000000D03*
X65700000Y-94000000D03*
X65050000Y-94000000D03*
X64400000Y-94000000D03*
X63750000Y-94000000D03*
X63100000Y-94000000D03*
X62450000Y-94000000D03*
X61800000Y-94000000D03*
X61150000Y-94000000D03*
X61150000Y-99725000D03*
X61800000Y-99725000D03*
X62450000Y-99725000D03*
X63100000Y-99725000D03*
X63750000Y-99725000D03*
X64400000Y-99725000D03*
X65050000Y-99725000D03*
X65700000Y-99725000D03*
X66350000Y-99725000D03*
X67000000Y-99725000D03*
%TD*%
D14*
%TO.C,R4*%
X74000000Y-105375000D03*
X74000000Y-107025000D03*
%TD*%
D24*
%TO.C,D2*%
X156500000Y-100500000D03*
X156500000Y-96500000D03*
%TD*%
D16*
%TO.C,Q2*%
X84500000Y-99780000D03*
D17*
X86000000Y-99690000D03*
D16*
X87500000Y-99780000D03*
D18*
X86000000Y-96940000D03*
%TD*%
D25*
%TO.C,Q3*%
X177600000Y-86400000D03*
X177600000Y-88300000D03*
X175100000Y-87350000D03*
%TD*%
D26*
%TO.C,C3*%
X69400000Y-99637500D03*
X69400000Y-97562500D03*
%TD*%
M02*
